<svg width="22" height="23" viewBox="0 0 22 23" xmlns="http://www.w3.org/2000/svg" xmlns:xlink="http://www.w3.org/1999/xlink">
    <defs>
        <path id="a" d="M0 0h22v22H0z"/>
        <path d="M9.983 8.687a5.502 5.502 0 0 0-8.372-7.076 5.5 5.5 0 0 0 7.076 8.372l5.24 5.24 1.296-1.297-5.24-5.239c1.021-1.432 1.021-1.432 0 0zm-1.89-5.78a3.667 3.667 0 1 1-5.186 5.186 3.667 3.667 0 0 1 5.186-5.186c.954.955.954.955 0 0z" id="c"/>
    </defs>
    <g transform="translate(0 .367)" fill="none" fill-rule="evenodd">
        <mask id="b" fill="#fff">
            <use xlink:href="#a"/>
        </mask>
        <g mask="url(#b)">
            <g transform="translate(3.667 3.667)">
                <mask id="d" fill="#fff">
                    <use xlink:href="#c"/>
                </mask>
                <use fill="#0D1623" xlink:href="#c"/>
                <g mask="url(#d)">
                    <path d="M-2.75-2.75h22v22h-22z" fill="#0D1623"/>
                </g>
            </g>
        </g>
    </g>
</svg>
