<svg width="80" height="80" viewBox="0 0 80 80" fill="none" xmlns="http://www.w3.org/2000/svg">
<path fill-rule="evenodd" clip-rule="evenodd" d="M30.1203 17.7521C30.1252 17.7389 30.1693 17.647 30.5097 17.4934L32.8544 20.6531C32.7092 20.7103 32.5645 20.7693 32.4204 20.8302C32.1806 20.9277 32.0181 20.9827 31.899 21.007C31.7862 21.0301 31.7513 21.0172 31.7481 21.016C31.7456 21.0151 31.7129 21.0038 31.646 20.9171C31.5738 20.8235 31.4887 20.678 31.3735 20.4478L31.0923 19.8864L31.0923 19.8863C30.8127 19.3285 30.5345 18.7734 30.2587 18.2152C30.0849 17.8635 30.1167 17.7617 30.1203 17.7521ZM32.8563 20.6523L30.5097 17.4934C34.0431 15.922 37.9149 15.2628 41.7697 15.576L41.7786 15.5766C47.6946 15.9515 53.2296 18.6218 57.2025 23.0176L57.2059 23.0214C62.2664 28.5077 64.2626 35.0383 63.2415 42.4606C62.7269 46.0536 61.3594 49.4716 59.2532 52.429L59.2491 52.435C59.1516 52.5763 59.0508 52.7272 58.9303 52.9328L58.7421 53.2541L58.9959 53.5264C59.0259 53.5587 59.0568 53.5922 59.0885 53.6265C59.1797 53.7256 59.2773 53.8315 59.3771 53.9312L61.7986 56.3554L61.8174 56.3709C61.8629 56.4084 61.8948 56.4596 61.9084 56.5168C61.9219 56.574 61.9164 56.634 61.8926 56.6879L61.8868 56.701L61.8818 56.7145C61.8607 56.7707 61.8219 56.8188 61.7712 56.8513C61.7205 56.8839 61.6606 56.8993 61.6003 56.8951L61.583 56.8939H52.8384L52.8148 56.8961C52.7744 56.9 52.7336 56.8949 52.6955 56.8811C52.6573 56.8674 52.6226 56.8455 52.594 56.8169C52.5654 56.7883 52.5435 56.7537 52.5298 56.7157C52.5161 56.6776 52.511 56.6371 52.5148 56.5969L52.5171 56.5732V47.8968C52.531 47.8215 52.5585 47.7493 52.5983 47.6837C52.6432 47.6097 52.7027 47.5457 52.7733 47.4955L52.4753 47.0939C52.4781 47.0918 52.481 47.0898 52.4838 47.0877C52.4861 47.0862 52.4883 47.0846 52.4905 47.0831L52.7898 47.4859C52.7925 47.4859 52.8007 47.4866 52.816 47.4917C52.8704 47.5095 52.9577 47.5634 53.0644 47.67L53.0664 47.6721L55.9479 50.5185L56.2877 50.0344C57.1242 48.8428 57.8127 47.554 58.338 46.1964C59.3638 43.5906 59.8213 40.796 59.6799 37.9994C59.5385 35.2022 58.8012 32.4675 57.5173 29.9779C56.2334 27.4883 54.4326 25.3012 52.2351 23.5628C50.0379 21.8246 47.4948 20.575 44.7758 19.8974C40.818 18.8919 36.6479 19.1584 32.8563 20.6523ZM33.1654 21.0684L32.8563 20.6523C32.8557 20.6526 32.855 20.6528 32.8544 20.6531L33.1632 21.0692C33.1639 21.069 33.1647 21.0687 33.1654 21.0684Z" fill="#172439"/>
<path fill-rule="evenodd" clip-rule="evenodd" d="M18.1754 21.3041C18.2567 21.219 18.3599 21.1569 18.4744 21.125C18.6799 21.0962 18.8886 21.0974 19.0939 21.1285L19.1312 21.1342H26.9198C27.312 21.1342 27.4 21.2023 27.4157 21.2178C27.4297 21.2316 27.4983 21.3151 27.4983 21.7026V29.9979C27.4983 30.1906 27.4774 30.3031 27.4461 30.3716C27.4255 30.4167 27.394 30.4617 27.2894 30.5024C27.2312 30.525 27.1946 30.5284 27.1739 30.5281C27.1538 30.5277 27.1328 30.5236 27.1054 30.5116C27.0373 30.4817 26.9527 30.4156 26.8131 30.2762C26.3007 29.7516 25.783 29.2303 25.2512 28.6947L25.2511 28.6945C24.997 28.4387 24.7398 28.1796 24.4784 27.9153L24.0622 27.4947L23.7169 27.9752L23.6617 28.0519C23.5578 28.1961 23.4631 28.3275 23.3763 28.4619C17.3519 37.7716 20.4498 50.5713 30.0867 56.0375C35.7462 59.2403 41.6485 59.5644 47.6778 57.149C48.1097 56.9764 48.2194 56.9967 48.2435 57.0054C48.2592 57.011 48.3515 57.0535 48.5527 57.458C48.7201 57.7945 48.8857 58.1217 49.0498 58.446C49.2813 58.9034 49.5099 59.3553 49.7371 59.8202L49.7379 59.8219C49.8848 60.1195 49.8637 60.2307 49.8545 60.2575C49.8473 60.2788 49.8042 60.3725 49.5164 60.5014C45.2125 62.3976 40.4387 62.9615 35.8109 62.1204C31.1826 61.2792 26.9129 59.0712 23.5529 55.7816L23.5493 55.7781C19.7154 52.0994 17.291 47.196 16.6962 41.9183L16.6951 41.9094C15.9307 36.0726 17.4301 30.1648 20.8858 25.3972L20.9153 25.3565L20.9361 25.3108C20.9706 25.2349 21.0053 25.1709 21.0831 25.0457L21.2933 24.7073L18.4938 21.9307L18.4881 21.9252C18.4433 21.8822 18.3972 21.8436 18.3631 21.8154L18.3473 21.8023C18.3176 21.7777 18.297 21.7606 18.2776 21.7431C18.2696 21.736 18.2635 21.7302 18.2588 21.7256L18.2537 21.7146C18.1935 21.5859 18.1668 21.4447 18.1754 21.3041ZM26.8131 30.2762L26.8152 30.2784L26.4575 30.6277L26.8109 30.2741L26.8131 30.2762Z" fill="#172439"/>
<circle cx="40" cy="39" r="11" fill="url(#paint0_linear_232_11993)"/>
<defs>
<linearGradient id="paint0_linear_232_11993" x1="40" y1="31.2353" x2="40" y2="54.5294" gradientUnits="userSpaceOnUse">
<stop offset="0.322917" stop-color="#DAA360"/>
<stop offset="1" stop-color="#DAA360" stop-opacity="0"/>
</linearGradient>
</defs>
</svg>
