<svg width="80" height="80" viewBox="0 0 80 80" fill="none" xmlns="http://www.w3.org/2000/svg">
<path d="M36 46V22.5273C36 20.5055 36.6123 20 39.0718 20C41.5312 20 44.0911 20 46.6208 20C48.1869 20 48.99 20.6318 49 21.9292C49 29.5112 49 43.418 49 51C49 46.894 48.8896 44.736 48.8896 50C44.5 56.9281 36 46 36 46Z" fill="url(#paint0_linear_232_12033)"/>
<path d="M29.997 49.5773L27.437 51.0499C24.2336 52.5225 20.0235 54.6558 19.1666 55C18.8632 54.9475 18.5978 54.8255 18.4173 54.6558C18.2369 54.486 18.1529 54.2794 18.1806 54.0726C18.1806 52.2057 18 35.4654 18 33.5985C18 32.5125 18.728 32.0305 20.3589 32.0183C22.8161 31.9939 25.2547 31.9939 27.675 32.0183C27.976 31.9908 28.2826 32.0087 28.5718 32.0706C28.8609 32.1325 29.1252 32.2369 29.3449 32.3759C29.5646 32.515 29.734 32.685 29.8406 32.8735C29.9471 33.0619 29.9881 33.2639 29.9602 33.4643C30.0155 36.7283 29.997 46.1424 29.997 49.5773Z" fill="url(#paint1_linear_232_12033)"/>
<path fill-rule="evenodd" clip-rule="evenodd" d="M54.0186 34.9552H64.0186V44.9552L60.3452 41.2818L46.6452 54.9819C46.3083 55.3188 45.8486 55.5038 45.3723 55.4941C44.896 55.4845 44.4442 55.281 44.1212 54.9308L35.3206 45.3869L18.2108 59.1047L16.0215 56.374L34.4054 41.6347C35.1229 41.0594 36.1632 41.1376 36.7866 41.8137L45.4589 51.2184L57.8704 38.807L54.0186 34.9552Z" fill="#172439"/>
<defs>
<linearGradient id="paint0_linear_232_12033" x1="42.5" y1="24.7501" x2="42.5" y2="58.9508" gradientUnits="userSpaceOnUse">
<stop offset="0.322917" stop-color="#DAA360"/>
<stop offset="1" stop-color="#DAA360" stop-opacity="0"/>
</linearGradient>
<linearGradient id="paint1_linear_232_12033" x1="24" y1="35.3824" x2="24" y2="59.7353" gradientUnits="userSpaceOnUse">
<stop offset="0.322917" stop-color="#DAA360"/>
<stop offset="1" stop-color="#DAA360" stop-opacity="0"/>
</linearGradient>
</defs>
</svg>
