<svg width="80" height="80" viewBox="0 0 80 80" fill="none" xmlns="http://www.w3.org/2000/svg">
<path fill-rule="evenodd" clip-rule="evenodd" d="M58.4047 30.9723C59.0459 32.0867 60.5192 32.2655 61.6242 31.1787C62.0199 30.766 62.1699 30.0506 61.8698 29.2802C61.6652 28.7712 61.4196 28.2897 61.1468 27.8219C60.6011 26.8726 59.4825 26.5562 58.5548 27.0515C57.6271 27.533 57.2861 28.6336 57.7363 29.6516C57.9409 30.1056 58.1592 30.5459 58.4047 30.9723ZM63.6158 38.5114C64.2706 37.6309 64.066 35.361 63.1792 34.4667C62.6745 34.0127 61.9651 33.8339 61.2148 34.1365C60.4372 34.4392 59.987 35.0583 60.0007 35.8837C60.0007 36.5441 60.1098 37.232 60.2599 37.8786C60.4372 38.649 60.9965 39.0754 61.7468 39.213C62.4971 39.3506 63.152 39.1305 63.6158 38.5114ZM60.0826 48.8982C59.346 48.5405 58.4456 48.6919 57.668 49.476C57.6065 49.5829 57.5338 49.7019 57.4549 49.8311C57.219 50.2172 56.9277 50.694 56.7131 51.2095C56.3857 51.9799 56.6994 52.8603 57.3542 53.3831C57.9818 53.8784 58.9231 53.9472 59.5915 53.4381C60.41 52.8053 60.9284 51.8973 61.1467 50.893C61.324 50.0676 60.8329 49.2697 60.0826 48.8982ZM55.1668 58.4172L55.1667 58.4173C54.8626 58.6535 54.5593 58.889 54.2301 59.0787C53.3843 59.5739 52.293 59.2438 51.72 58.4046C51.188 57.6204 51.3653 56.4785 52.1156 55.8594C52.2725 55.7287 52.4328 55.6015 52.5931 55.4742L52.5931 55.4742L52.5933 55.4741L52.5933 55.4741C52.7535 55.3469 52.9138 55.2197 53.0706 55.089C53.9982 54.3324 55.226 54.4011 55.8808 55.2266C56.6175 56.1208 56.481 57.2902 55.5807 58.1019C55.4409 58.2044 55.3038 58.3109 55.1669 58.4172L55.1668 58.4172L55.1668 58.4172ZM63.4742 42.5409L63.4742 42.5409L63.4742 42.5409C63.4065 42.3999 63.3384 42.2578 63.2884 42.1158C62.4153 41.3867 61.1603 41.3454 60.4645 42.1846C59.6733 43.1476 59.455 44.3307 59.7279 45.5276C59.9052 46.3256 60.5464 46.7383 61.3513 46.8071C62.1561 46.8759 62.8792 46.6007 63.1793 45.8441C63.4794 45.0599 63.6567 44.2069 63.725 43.3677C63.7432 43.1016 63.6096 42.8233 63.4742 42.5409ZM45.281 62.1603C44.3807 61.2248 44.6126 59.6702 45.7722 59.1062C46.3451 58.831 46.959 58.6109 47.5729 58.4596C48.5278 58.2257 49.4828 58.8173 49.7829 59.739C50.0966 60.6745 49.6874 61.6926 48.787 62.1053C48.255 62.3529 47.6957 62.5455 47.1227 62.6968C46.427 62.9032 45.7858 62.6831 45.281 62.1603Z" fill="url(#paint0_linear_232_12001)"/>
<path d="M40 55C48.2843 55 55 48.2843 55 40C55 31.7157 48.2843 25 40 25C31.7157 25 25 31.7157 25 40C25 48.2843 31.7157 55 40 55Z" fill="#DAA360"/>
<path d="M39.4847 35.6999C38.5871 37.0888 37.591 38.4157 36.4843 39.6557L34.8489 48.9935H32.5494L33.7299 42.2599C33.0658 42.7807 32.4141 43.2396 31.6886 43.686C31.5656 43.0908 31.2459 42.0615 31 41.4911C33.2995 40.127 35.3407 38.0188 36.9024 35.6999H32.6969L33.0781 33.505H38.2551C38.71 32.6617 39.1281 31.8309 39.4724 31L41.7473 31.5828C41.4399 32.2401 41.1079 32.8601 40.7636 33.5174H50.0599L49.6787 35.7123H39.4847V35.6999ZM48.4736 44.182H43.9361L43.5181 46.5878C43.3213 47.741 43.0139 48.3487 42.1408 48.6959C41.2801 49.0059 40.1488 49.0431 38.624 49.0183C38.6609 48.3611 38.5502 47.4806 38.378 46.8234C39.3249 46.8854 40.4562 46.8854 40.7636 46.8854C41.0956 46.8606 41.2063 46.7862 41.2432 46.5382L41.649 44.182H36.7918L37.1607 42.0367H42.0179L42.2515 40.685C42.9032 40.313 43.6287 39.7922 44.3173 39.2589H39.1404L39.497 37.2004H46.7644L47.2686 37.064L48.4982 38.2421C47.3423 39.2837 45.8544 40.4246 44.4403 41.305L44.3173 42.0367H48.8548L48.4736 44.182Z" fill="white"/>
<path fill-rule="evenodd" clip-rule="evenodd" d="M48.8061 22.1205C48.5264 21.9822 48.2421 21.8497 47.9532 21.7233C37.8777 17.3126 26.1342 21.9049 21.7236 31.9805C17.3129 42.0561 21.9052 53.7995 31.9808 58.2102C34.9198 59.4968 38.0007 60.0173 41.0002 59.8592V63.9499C37.4524 64.1054 33.8153 63.4727 30.3426 61.9524C18.2002 56.637 12.6659 42.4847 17.9813 30.3423C23.2967 18.2 37.4491 12.6656 49.5914 17.9811C49.9324 18.1303 50.2681 18.2865 50.5986 18.4495L49.0002 21.2427L48.8061 22.1205Z" fill="#172439"/>
<path d="M56.1182 23.0214L46.1295 25.2664L50.9916 14.1596L56.1182 23.0214Z" fill="#172439"/>
<defs>
<linearGradient id="paint0_linear_232_12001" x1="63.6945" y1="16.7333" x2="54.7294" y2="53.49" gradientUnits="userSpaceOnUse">
<stop stop-color="#DAA360" stop-opacity="0"/>
<stop offset="1" stop-color="#DAA360"/>
</linearGradient>
</defs>
</svg>
