<svg width="80" height="80" viewBox="0 0 80 80" fill="none" xmlns="http://www.w3.org/2000/svg">
<rect x="18" y="55" width="14" height="4" fill="#172439"/>
<rect x="36" y="55" width="14" height="4" fill="#172439"/>
<rect x="54" y="55" width="14" height="4" fill="#172439"/>
<rect x="36" y="48" width="14" height="4" fill="#172439"/>
<rect x="54" y="48" width="14" height="4" fill="#172439"/>
<rect x="54" y="41" width="14" height="4" fill="#172439"/>
<path d="M25 19C21.3981 19 15.6291 20.7669 13.6734 21.4015C13.2677 21.5331 13 21.9045 13 22.3311V37.375C13 40.2084 22.3594 45.5442 24.5467 46.7525C24.8333 46.9108 25.1687 46.9138 25.458 46.7606C27.6541 45.597 37 40.4638 37 37.375V22.3316C37 21.905 36.7323 21.5331 36.3266 21.4015C34.3709 20.7669 28.6019 19 25 19Z" fill="url(#paint0_linear_232_12019)"/>
<path fill-rule="evenodd" clip-rule="evenodd" d="M23.6948 38.8546V40.4746H26.4067V38.8983C26.8942 38.7858 27.3447 38.6036 27.7544 38.349C28.2954 38.0163 28.7225 37.5697 29.0296 37.0151C29.3494 36.4479 29.4999 35.7959 29.4999 35.0763C29.4999 34.4151 29.3828 33.82 29.1251 33.3103C28.8865 32.8273 28.5641 32.4156 28.1581 32.0813C27.7825 31.7674 27.3729 31.5027 26.9304 31.2876C26.511 31.0837 26.0926 30.9023 25.6769 30.7442C25.2706 30.5905 24.8969 30.4322 24.5553 30.2696C24.2484 30.1209 24.0201 29.957 23.8562 29.7851C23.7335 29.6518 23.6694 29.4935 23.6694 29.2797C23.6694 28.9687 23.7689 28.7859 23.934 28.6574L23.9385 28.6539C24.1253 28.5051 24.4268 28.3983 24.9067 28.3983C25.3669 28.3983 25.6908 28.4985 25.918 28.6564C26.1835 28.8408 26.3547 29.0521 26.4548 29.2883L26.6347 29.713L29.0882 28.8996L28.9549 28.4376C28.77 27.7971 28.4189 27.2462 27.9126 26.7911C27.4937 26.4056 26.9874 26.1345 26.4067 25.9694V24.5H23.6948V25.9353C22.9032 26.1232 22.243 26.488 21.7446 27.0494L21.7428 27.0516C21.1799 27.693 20.8898 28.4419 20.8898 29.2797C20.8898 29.8768 20.9997 30.418 21.2432 30.8841L21.2446 30.8868C21.4734 31.3182 21.7763 31.6876 22.152 31.9908L22.1553 31.9934C22.5144 32.2782 22.9089 32.5215 23.3375 32.7235L23.3453 32.727C23.7547 32.9115 24.1645 33.0818 24.5746 33.2378C24.9909 33.4001 25.3747 33.5776 25.7266 33.7695L25.7345 33.7737C26.0605 33.944 26.3038 34.1442 26.4793 34.368L26.4862 34.3764C26.6351 34.558 26.7203 34.7891 26.7203 35.1017C26.7203 35.5827 26.5746 35.8787 26.3408 36.0735L26.338 36.0759C26.0854 36.2896 25.7148 36.4237 25.1694 36.4237C24.6746 36.4237 24.2602 36.2892 23.906 36.0292C23.5317 35.7544 23.2471 35.4002 23.0498 34.9575L22.8605 34.5326L20.3691 35.4337L20.5264 35.8977C20.7866 36.6658 21.2291 37.3263 21.8459 37.8739L21.8481 37.8758C22.3753 38.3384 22.9938 38.6632 23.6948 38.8546ZM24.1949 39.9746V38.4576C23.404 38.3051 22.7316 37.9859 22.178 37.5C21.6243 37.0085 21.2316 36.4209 21 35.7373L22.5932 35.161C22.5931 35.161 22.5931 35.161 22.5931 35.161L20.9999 35.7373C21.0184 35.7919 21.0379 35.8458 21.0585 35.8992C21.0981 36.002 21.1414 36.1025 21.1887 36.2007C21.4238 36.6902 21.7536 37.1233 22.1779 37.5C22.7316 37.9859 23.4039 38.3051 24.1948 38.4576V39.9746H24.1949ZM26.2033 28.2458C25.87 28.0141 25.4378 27.8983 24.9068 27.8983C25.4379 27.8983 25.8701 28.0141 26.2034 28.2458C26.5367 28.4774 26.774 28.7599 26.9152 29.0932L26.9152 29.0932C26.7739 28.7599 26.5366 28.4774 26.2033 28.2458ZM24.1948 25H24.1949V26.3475C23.3023 26.4831 22.6102 26.8277 22.1186 27.3814C21.6328 27.935 21.3898 28.5678 21.3898 29.2797C21.3898 29.8164 21.4887 30.274 21.6864 30.6525C21.8842 31.0254 22.1441 31.3418 22.4661 31.6017C22.7938 31.8616 23.1554 32.0847 23.5508 32.2712C23.952 32.452 24.3531 32.6186 24.7542 32.7712C25.1893 32.9407 25.5932 33.1271 25.9661 33.3305C26.3446 33.5282 26.6469 33.7712 26.8729 34.0593C27.1045 34.3418 27.2203 34.6893 27.2203 35.1017C27.2203 35.6949 27.0339 36.1469 26.661 36.4576C26.3533 36.718 25.9543 36.8693 25.4641 36.9115C25.9543 36.8693 26.3532 36.718 26.6609 36.4576C27.0338 36.1469 27.2203 35.6949 27.2203 35.1017C27.2203 34.6893 27.1044 34.3418 26.8728 34.0593C26.6468 33.7712 26.3446 33.5282 25.966 33.3305C25.5931 33.1271 25.1892 32.9407 24.7542 32.7712C24.353 32.6186 23.9519 32.452 23.5508 32.2712C23.1553 32.0847 22.7937 31.8616 22.466 31.6017C22.144 31.3418 21.8841 31.0254 21.6864 30.6525C21.4886 30.274 21.3898 29.8164 21.3898 29.2797C21.3898 28.5678 21.6327 27.935 22.1186 27.3814C22.6101 26.8277 23.3022 26.4831 24.1948 26.3475V25Z" fill="white"/>
<defs>
<linearGradient id="paint0_linear_232_12019" x1="25" y1="23.1176" x2="25" y2="52.7647" gradientUnits="userSpaceOnUse">
<stop offset="0.322917" stop-color="#DAA360"/>
<stop offset="1" stop-color="#DAA360" stop-opacity="0"/>
</linearGradient>
</defs>
</svg>
