<svg width="80" height="80" viewBox="0 0 80 80" xmlns="http://www.w3.org/2000/svg">
    <g fill="none" fill-rule="evenodd">
        <circle fill="#EDEDED" transform="rotate(180 17.333 62.667)" cx="17.333" cy="62.667" r="6.667"/>
        <circle fill="#EDEDED" transform="rotate(180 62.667 18.667)" cx="62.667" cy="18.667" r="8"/>
        <circle fill="#FFF" cx="40" cy="40" r="29.333"/>
        <path d="M40 10.667c2.84 0 5.586.403 8.184 1.157l-4.9 15.087a14.076 14.076 0 0 0-2.617-.244c-3.946 0-7.51 1.632-10.055 4.257l-11.904-11.1c5.346-5.64 12.908-9.157 21.292-9.157z" fill="#C43826"/>
        <path d="M51.944 13.2c10.247 4.575 17.39 14.853 17.39 26.8C69.333 56.2 56.2 69.333 40 69.333S10.667 56.2 10.667 40a29.2 29.2 0 0 1 5.492-17.093l11.922 11.11A13.278 13.278 0 0 0 26.667 40c0 7.364 5.97 13.333 13.333 13.333 7.364 0 13.333-5.97 13.333-13.333 0-4.876-2.617-9.141-6.524-11.466l.17-.056 4.965-15.277zm1.867 4.608-3.115 9.584.24.207a16.51 16.51 0 0 1 5.591 11.949l.006.452c0 9.131-7.402 16.533-16.533 16.533S23.467 49.131 23.467 40c0-1.677.25-3.321.735-4.888l.083-.259-7.458-6.949-.235.461a26.003 26.003 0 0 0-2.718 11.02l-.007.615c0 14.433 11.7 26.133 26.133 26.133S66.133 54.433 66.133 40a26.128 26.128 0 0 0-11.932-21.945l-.39-.247z" fill="#192639" fill-rule="nonzero"/>
        <path d="M41.823 49.867v-2.028c1.494-.121 2.671-.538 3.53-1.251.86-.713 1.29-1.658 1.29-2.835 0-1.272-.448-2.27-1.342-2.997-.894-.726-2.236-1.339-4.024-1.836-.86-.357-1.43-.668-1.713-.934-.283-.265-.424-.623-.424-1.074 0-.478.132-.86.395-1.145.263-.286.712-.429 1.347-.429.612 0 1.086.161 1.423.484.337.323.505.82.505 1.494h3.832l.024-.05c.023-1.232-.38-2.237-1.208-3.018-.829-.78-1.967-1.254-3.415-1.422v-2.16H40.21v2.13c-1.533.107-2.749.53-3.647 1.266-.898.736-1.347 1.68-1.347 2.83 0 1.278.431 2.253 1.295 2.926.863.672 2.22 1.291 4.07 1.856.836.303 1.403.594 1.702.873.298.279.447.688.447 1.226 0 .464-.145.835-.436 1.115-.29.279-.757.418-1.4.418-.727 0-1.306-.165-1.736-.494-.43-.33-.644-.881-.644-1.655h-3.821l-.023.06c-.039 1.467.445 2.575 1.452 3.325 1.006.75 2.291 1.182 3.855 1.297v2.028h1.847z" fill="#192639" fill-rule="nonzero"/>
    </g>
</svg>
