<svg width="80" height="80" viewBox="0 0 80 80" xmlns="http://www.w3.org/2000/svg">
    <g fill="none" fill-rule="evenodd">
        <circle fill="#EDEDED" transform="rotate(180 61.333 56)" cx="61.333" cy="56" r="9.333"/>
        <circle fill="#EDEDED" transform="rotate(180 16 46.667)" cx="16" cy="46.667" r="5.333"/>
        <g transform="scale(-1 1) rotate(-40 .148 109.091)" fill="#192639">
            <path d="M17.333 0A2.667 2.667 0 0 1 20 2.667V36a2.667 2.667 0 0 1-2.667 2.667H2.667A2.667 2.667 0 0 1 0 36V2.667A2.667 2.667 0 0 1 2.667 0h14.666zm-.266 2.933H2.933v32.8h14.134v-32.8z" fill-rule="nonzero"/>
            <path d="M6.844.444a4.761 4.761 0 0 1-6.27 6.27V2.35c0-1.052.854-1.905 1.905-1.905h4.365zm6.418-.129 4.365.001c1.051 0 1.904.853 1.904 1.905l.001 4.364a4.761 4.761 0 0 1-6.27-6.27zM5.336 2.35H2.479l-.002 2.855a2.856 2.856 0 0 0 2.854-2.687l.005-.168zm9.434-.13.005.169a2.856 2.856 0 0 0 2.854 2.687l-.002-2.855H14.77z" fill-rule="nonzero"/>
            <circle cx="10" cy="6" r="1"/>
        </g>
        <g fill-rule="nonzero">
            <path d="m47.91 40.381.595-1.276c.976.362 1.84.445 2.59.249.75-.197 1.298-.665 1.643-1.406.373-.8.385-1.56.035-2.28-.35-.72-1.014-1.498-1.994-2.337-.436-.476-.704-.84-.804-1.09-.1-.25-.084-.517.049-.8.14-.301.335-.503.584-.605.25-.103.575-.061.974.125.385.18.636.42.753.723.118.302.077.664-.12 1.088l2.412 1.124.03-.025c.375-.767.417-1.518.125-2.253-.293-.734-.87-1.366-1.732-1.897l.634-1.359-1.155-.539-.625 1.34c-.996-.382-1.885-.473-2.666-.273-.782.2-1.341.662-1.679 1.386-.375.804-.39 1.545-.044 2.221.346.677 1.019 1.465 2.017 2.363.438.436.71.786.815 1.05.106.262.08.563-.078.902-.136.292-.337.483-.601.574-.265.09-.6.041-1.004-.148-.458-.213-.774-.487-.948-.82-.174-.334-.147-.744.08-1.23l-2.405-1.122-.032.031c-.455.912-.475 1.751-.062 2.518.413.768 1.095 1.417 2.046 1.948l-.595 1.276 1.162.542z" fill="#C43826"/>
            <path d="M50 24c5.523 0 10 4.477 10 10s-4.477 10-10 10-10-4.477-10-10 4.477-10 10-10zm0 2.933a7.067 7.067 0 1 0 0 14.134 7.067 7.067 0 0 0 0-14.134z" fill="#192639"/>
        </g>
        <g fill-rule="nonzero">
            <path d="m30.878 29.036-.595-1.276c.905-.515 1.524-1.123 1.855-1.824.332-.7.325-1.422-.02-2.163-.374-.8-.948-1.297-1.724-1.492-.776-.195-1.8-.186-3.072.025-.645.028-1.096 0-1.352-.084s-.45-.268-.582-.552c-.14-.3-.17-.58-.088-.837.082-.257.323-.479.722-.665.385-.18.731-.217 1.038-.113.307.105.559.369.756.792l2.412-1.125v-.038c-.347-.782-.895-1.297-1.645-1.545s-1.606-.212-2.567.107l-.634-1.359-1.154.539.624 1.34c-.933.517-1.574 1.14-1.923 1.867-.35.727-.355 1.452-.018 2.176.376.805.933 1.292 1.674 1.462.74.17 1.777.161 3.107-.026.615-.055 1.057-.039 1.327.05.27.088.483.301.641.64.136.292.154.568.053.83-.1.26-.353.485-.758.674-.458.213-.87.28-1.238.198-.367-.081-.664-.365-.89-.852l-2.406 1.121.004.045c.405.934 1.035 1.49 1.889 1.666.853.177 1.79.072 2.807-.315l.595 1.276 1.162-.542z" fill="#C43826"/>
            <path d="M27.333 13.333c5.523 0 10 4.477 10 10s-4.477 10-10 10-10-4.477-10-10 4.477-10 10-10zm0 2.934a7.067 7.067 0 1 0 0 14.133 7.067 7.067 0 0 0 0-14.133z" fill="#192639"/>
        </g>
        <path d="M18 38.667h44a2 2 0 0 1 2 2v24.666a4 4 0 0 1-4 4H20a4 4 0 0 1-4-4V40.667a2 2 0 0 1 2-2z" fill="#FFF"/>
        <path d="M61.333 38.667A2.667 2.667 0 0 1 64 41.333V64a5.333 5.333 0 0 1-5.333 5.333H21.333A5.333 5.333 0 0 1 16 64V41.333a2.667 2.667 0 0 1 2.667-2.666h42.666zm-.8 3.466H19.467V64c0 .97.74 1.768 1.687 1.858l.18.009h37.333c.97 0 1.767-.74 1.858-1.687l.008-.18V42.133z" fill="#192639" fill-rule="nonzero"/>
        <path d="M48.5 44.933h-17a3.733 3.733 0 0 0-3.733 3.734V50a3.733 3.733 0 0 0 3.733 3.733h17A3.733 3.733 0 0 0 52.233 50v-1.333a3.733 3.733 0 0 0-3.733-3.734zm-17 3.467h17c.147 0 .267.12.267.267V50c0 .147-.12.267-.267.267h-17a.267.267 0 0 1-.267-.267v-1.333c0-.148.12-.267.267-.267zM40.667 55.2c.756 0 1.378.572 1.458 1.307l.008.16v4.277l1.351-.851a1.467 1.467 0 0 1 1.696 2.388l-.13.093-3.6 2.27a1.467 1.467 0 0 1-1.443.07l-.166-.098-3.333-2.27a1.467 1.467 0 0 1 1.504-2.513l.147.088 1.04.709.001-4.163c0-.81.657-1.467 1.467-1.467zM40.667 14.933c.897 0 1.635.682 1.724 1.556l.009.178V22a1.733 1.733 0 0 1-3.458.177L38.933 22v-5.333c0-.958.776-1.734 1.734-1.734zM16.667 30.933c.897 0 1.635.682 1.724 1.556l.009.178v2.666a1.733 1.733 0 0 1-3.458.178l-.009-.178v-2.666c0-.958.776-1.734 1.734-1.734zM46 8.267c.897 0 1.636.682 1.724 1.556l.01.177v6.667a1.733 1.733 0 0 1-3.458.177l-.01-.177V10c0-.957.777-1.733 1.734-1.733z" fill="#192639" fill-rule="nonzero"/>
    </g>
</svg>
