<svg width="80" height="80" viewBox="0 0 80 80" xmlns="http://www.w3.org/2000/svg">
    <g fill="none" fill-rule="evenodd">
        <circle fill="#EDEDED" cx="16" cy="64" r="9.333"/>
        <circle fill="#EDEDED" cx="60" cy="20" r="13.333"/>
        <circle fill="#C43826" cx="40" cy="21.333" r="9.333"/>
        <path d="M57.619 59.67v9.663H43.822V64.97c-.846.093-1.705.153-2.576.177l-.873.012a31.4 31.4 0 0 1-3.45-.19v4.365H23.13V59.67c-3.05-2.287-5.418-5.174-6.825-8.431h-6.97v-13.92h6.97a19.648 19.648 0 0 1 2.875-4.675c-.691-2.838-1.973-4.671-3.843-5.502-.775-.345-1.092-1.852-.796-3.063.163-.665.637-.93 1.548-1.074 1.25-.198 2.475-.31 3.673-.333l.597-.005c3.57.015 6.907.815 10.012 2.399a30.256 30.256 0 0 1 9.245-1.656l.759-.01c14.095 0 25.522 9.348 25.522 20.88l-.003.082c.542.02 1.255-.23 2.211-.988.648-.514 1.145-1.733 1.342-3.736A1.936 1.936 0 0 1 71.2 37.91l.184-.008.188.009c1.07.102 1.855 1.041 1.751 2.098-.288 2.934-1.164 5.08-2.779 6.36-1.45 1.15-2.88 1.716-4.2 1.815l-.302.015c-.2.004-.399-.002-.593-.019-1.041 4.511-3.857 8.509-7.831 11.49z" fill="#FFF" fill-rule="nonzero"/>
        <path d="M57.619 59.67v9.663H43.822V64.97c-.846.093-1.705.153-2.576.177l-.873.012a31.4 31.4 0 0 1-3.45-.19v4.365H23.13V59.67c-3.05-2.287-5.418-5.174-6.825-8.431h-6.97v-13.92h6.97a19.648 19.648 0 0 1 2.875-4.675c-.691-2.838-1.973-4.671-3.843-5.502-.775-.345-1.092-1.852-.796-3.063.163-.665.637-.93 1.548-1.074 1.25-.198 2.475-.31 3.673-.333l.597-.005c3.57.015 6.907.815 10.012 2.399a30.256 30.256 0 0 1 9.245-1.656l.759-.01c14.095 0 25.522 9.348 25.522 20.88l-.003.082c.542.02 1.255-.23 2.211-.988.648-.514 1.145-1.733 1.342-3.736A1.936 1.936 0 0 1 71.2 37.91l.184-.008.188.009c1.07.102 1.855 1.041 1.751 2.098-.288 2.934-1.164 5.08-2.779 6.36-1.45 1.15-2.88 1.716-4.2 1.815l-.302.015c-.2.004-.399-.002-.593-.019-1.041 4.511-3.857 8.509-7.831 11.49zM42.25 27.197l-.465-.028-.455-.019c-.159-.005-.317-.01-.477-.012l-.48-.004c-.332 0-.662.006-.99.017l-.417.018-.366.021-.381.027a26.27 26.27 0 0 0-6.704 1.4l.086-.027a3.733 3.733 0 0 1-2.927-.199c-2.5-1.275-5.177-1.94-8.073-1.988l-.29-.002.077.095c1.109 1.406 1.91 3.18 2.418 5.265a3.733 3.733 0 0 1-.743 3.254A15.917 15.917 0 0 0 19.73 38.8a3.733 3.733 0 0 1-3.166 2.244l-.261.009-3.237-.001v6.453h3.237c1.402 0 2.677.785 3.315 2.017l.112.236c.688 1.592 1.675 3.099 2.924 4.47l.473.498a19.62 19.62 0 0 0 2.24 1.958 3.733 3.733 0 0 1 1.485 2.735l.009.251v5.93h6.329v-.631a3.734 3.734 0 0 1 3.916-3.73l.917.087.398.03.427.027.785.032a27.943 27.943 0 0 0 1.478 0l-.738.01.469-.005.714-.02.368-.019.44-.027.706-.06.341-.036a3.734 3.734 0 0 1 4.137 3.482l.007.229-.001.631h6.329l.002-5.93c0-1.09.477-2.123 1.297-2.829l.195-.157c3.365-2.524 5.616-5.8 6.434-9.344.098-.422.265-.813.486-1.162l.194-.277-.069-.158c-.159-.4-.251-.832-.262-1.284l.001-.18-.005-.361-.012-.325-.026-.392c-.02-.238-.045-.475-.076-.71l-.052-.353-.062-.351-.077-.381a13.97 13.97 0 0 0-.493-1.722l-.239-.621c-.135-.331-.283-.658-.443-.98l.123.255a15.29 15.29 0 0 0-.48-.93l-.159-.277-.188-.312a16.565 16.565 0 0 0-.977-1.408l-.481-.596-.065-.077-.412-.464-.515-.54-.197-.196-.458-.433c-.343-.314-.7-.618-1.071-.911l-.745-.563-.502-.352-.487-.32c-.266-.17-.538-.336-.814-.497l-.615-.344-.331-.176c-.244-.126-.491-.249-.741-.367l-.539-.247-.527-.227-.573-.23-.702-.26a25.283 25.283 0 0 0-1.862-.574l-.384-.1-.522-.125-1.08-.224-.62-.107-.674-.1c-.45-.06-.907-.11-1.367-.15l-.462-.034z" fill="#192639" fill-rule="nonzero"/>
        <path d="M41.285 54.667v-2.254c1.66-.134 2.968-.598 3.922-1.39.955-.792 1.433-1.842 1.433-3.15 0-1.412-.497-2.522-1.49-3.33-.994-.806-2.485-1.487-4.472-2.04-.955-.396-1.59-.741-1.903-1.037-.314-.295-.471-.693-.471-1.193 0-.531.146-.955.439-1.273.292-.317.791-.476 1.496-.476.68 0 1.207.18 1.581.538.374.359.561.912.561 1.659h4.259l.026-.056c.025-1.368-.422-2.485-1.342-3.352-.92-.867-2.185-1.394-3.794-1.58v-2.4H39.49V35.7c-1.703.12-3.054.588-4.052 1.407-.998.818-1.497 1.866-1.497 3.144 0 1.42.48 2.504 1.439 3.251.96.747 2.467 1.435 4.523 2.063.929.336 1.56.66 1.89.97.332.31.497.764.497 1.362 0 .515-.161.928-.484 1.238-.322.31-.84.466-1.555.466-.808 0-1.451-.184-1.929-.55-.477-.366-.716-.979-.716-1.838h-4.245l-.026.067c-.043 1.63.494 2.86 1.613 3.694 1.118.833 2.546 1.313 4.284 1.44v2.254h2.052z" fill="#192639" fill-rule="nonzero"/>
    </g>
</svg>
