<svg width="80" height="80" viewBox="0 0 80 80" xmlns="http://www.w3.org/2000/svg">
    <g fill-rule="nonzero" fill="none">
        <path d="M40 18.667c11.782 0 21.333 9.55 21.333 21.333 0 11.782-9.55 21.333-21.333 21.333-11.782 0-21.333-9.55-21.333-21.333 0-11.782 9.55-21.333 21.333-21.333zm0 3.466c-9.867 0-17.867 8-17.867 17.867s8 17.867 17.867 17.867 17.867-8 17.867-17.867-8-17.867-17.867-17.867z" fill="#192639"/>
        <path d="M35.067 58.667c.897 0 1.635.682 1.724 1.556l.009.177v8a1.733 1.733 0 0 1-3.458.177l-.009-.177v-8c0-.957.776-1.733 1.734-1.733zm9.333 0c.897 0 1.636.682 1.724 1.556l.01.177v8a1.733 1.733 0 0 1-3.458.177l-.01-.177v-8c0-.957.777-1.733 1.734-1.733zm17.789-2.8a6 6 0 1 1-5.672 7.963l-.074-.23h-3.921l-.2-.011a1.734 1.734 0 0 1-1.193-.69l-.09-.134-1.454-4.133-.085-.156a1.734 1.734 0 0 1 .538-2.138l.13-.087.157-.084a1.734 1.734 0 0 1 2.137.538l.087.13.948 3.299 2.946-.001a6.003 6.003 0 0 1 5.746-4.266zm-44.189 0a6.003 6.003 0 0 1 5.746 4.266h2.946l.947-3.298a1.734 1.734 0 0 1 2.225-.668l.156.084a1.734 1.734 0 0 1 .668 2.225l-.084.156-1.455 4.133c-.28.461-.754.762-1.282.824l-.2.011h-3.921A6 6 0 1 1 18 55.867zm44.189 3.467a2.533 2.533 0 1 0 0 5.066 2.533 2.533 0 0 0 0-5.066zm-44.189 0a2.533 2.533 0 1 0 0 5.066 2.533 2.533 0 0 0 0-5.066zM21.933 48a1.733 1.733 0 0 1 .178 3.458l-.178.009H12.4a1.733 1.733 0 0 1-.177-3.458L12.4 48h9.533zm45.334 0 .177.009a1.734 1.734 0 0 1-.028 3.451l-.15.007h-9.533l-.177-.01a1.734 1.734 0 0 1 .028-3.45l.15-.007h9.533zm-48-9.333a1.733 1.733 0 0 1 .177 3.457l-.177.01H12.6a1.733 1.733 0 0 1-.177-3.458l.177-.01h6.667zm47.8 0 .177.009a1.734 1.734 0 0 1-.028 3.451l-.15.006H60.4l-.177-.009a1.734 1.734 0 0 1 .027-3.451l.15-.006h6.667zm-45.134-9.334a1.733 1.733 0 0 1 .178 3.458l-.178.009H12.4a1.733 1.733 0 0 1-.177-3.458l.177-.009h9.533zm45.334 0 .177.01a1.734 1.734 0 0 1-.028 3.45l-.15.007h-9.533l-.177-.009a1.734 1.734 0 0 1 .028-3.451l.15-.007h9.533zM62.189 12a6 6 0 1 1-5.746 7.734h-2.946l-.948 3.298a1.734 1.734 0 0 1-2.224.668l-.157-.084a1.734 1.734 0 0 1-.668-2.225l.085-.156 1.455-4.133c.279-.461.754-.762 1.282-.824l.2-.011h3.921A6.003 6.003 0 0 1 62.189 12zM18 12a6.003 6.003 0 0 1 5.671 4.037l.075.23h3.92l.2.011c.476.055.908.305 1.193.69l.09.134 1.455 4.133.084.156c.355.747.13 1.646-.537 2.137l-.13.088-.157.084a1.734 1.734 0 0 1-2.137-.538l-.088-.13-.947-3.299h-2.946A6 6 0 1 1 18 12zm17.067-1.333c.897 0 1.635.682 1.724 1.556l.009.177v8a1.733 1.733 0 0 1-3.458.177l-.009-.177v-8c0-.957.776-1.733 1.734-1.733zm9.333 0c.897 0 1.636.682 1.724 1.556l.01.177v8a1.733 1.733 0 0 1-3.458.177l-.01-.177v-8c0-.957.777-1.733 1.734-1.733zm17.789 4.8a2.533 2.533 0 1 0 0 5.066 2.533 2.533 0 0 0 0-5.066zm-44.189 0a2.533 2.533 0 1 0 0 5.066 2.533 2.533 0 0 0 0-5.066z" fill="#192639"/>
        <path d="M33.192 33.333c.155 0 .256.072.303.214l3.76 11.955c.011.024.017.06.017.107 0 .13-.083.196-.25.196h-3.046c-.166 0-.267-.077-.303-.231l-.392-1.39c-.024-.048-.053-.071-.089-.071h-3.777c-.036 0-.065.023-.09.07l-.391 1.39c-.036.155-.137.232-.303.232h-3.047c-.213 0-.29-.1-.231-.303l3.76-11.955c.047-.142.148-.214.302-.214h3.777zm11.047 0c.843 0 1.585.17 2.227.508.641.339 1.137.82 1.487 1.443.35.624.526 1.34.526 2.147 0 .796-.184 1.497-.552 2.103a3.711 3.711 0 0 1-1.55 1.407c-.666.333-1.432.499-2.299.499H42.19c-.06 0-.09.03-.09.09v4.008a.265.265 0 0 1-.07.196.265.265 0 0 1-.197.071h-2.815a.265.265 0 0 1-.196-.071.265.265 0 0 1-.071-.196V33.6c0-.084.024-.149.071-.196a.265.265 0 0 1 .196-.072h5.22zm8.783 0c.084 0 .149.024.196.072a.265.265 0 0 1 .072.196v11.937a.265.265 0 0 1-.072.196.265.265 0 0 1-.196.071h-2.815a.265.265 0 0 1-.196-.071.265.265 0 0 1-.071-.196V33.6c0-.084.024-.149.071-.196a.265.265 0 0 1 .196-.072h2.815zm-21.736 4.063c-.024 0-.042.017-.054.053L30.11 41.44c-.012.071.012.107.071.107h2.227c.071 0 .095-.036.071-.107l-1.14-3.991c-.012-.036-.03-.053-.053-.053zm12.4-1.194H42.19c-.06 0-.09.03-.09.089v2.387c0 .06.03.09.09.09h1.496c.44 0 .793-.116 1.06-.348.268-.232.401-.537.401-.918 0-.391-.133-.706-.4-.944-.268-.237-.621-.356-1.06-.356z" fill="#C43826"/>
    </g>
</svg>
