<svg width="80" height="80" viewBox="0 0 80 80" xmlns="http://www.w3.org/2000/svg">
    <g fill="none" fill-rule="evenodd">
        <circle fill="#EDEDED" transform="rotate(180 16.667 16.667)" cx="16.667" cy="16.667" r="8.667"/>
        <circle fill="#EDEDED" transform="rotate(180 61.333 32)" cx="61.333" cy="32" r="5.333"/>
        <g transform="translate(12.384 13.687)">
            <rect fill="#FFF" x="2.283" y="2.313" width="44" height="49.333" rx="2"/>
            <path d="M45.733 0a3.067 3.067 0 0 1 3.06 2.857l.007.21v23.246a1.733 1.733 0 0 1-3.458.178l-.009-.178V3.465H3.464v40.448h24.818a1.733 1.733 0 0 1 .177 3.458l-.177.01-24.818-.001v3.335h26.778c.898 0 1.636.682 1.724 1.556l.01.177c0 .898-.683 1.636-1.557 1.725l-.177.009H3.067a3.067 3.067 0 0 1-3.06-2.857L0 51.115V3.067A3.067 3.067 0 0 1 2.857.007L3.067 0h42.666z" fill="#192639" fill-rule="nonzero"/>
            <path d="M10.95 11.913c.897 0 1.635.682 1.724 1.557l.009.177v4.666h.266a2.667 2.667 0 0 1 2.667 2.667v8a2.667 2.667 0 0 1-2.667 2.667h-.266v4.666a1.733 1.733 0 0 1-3.458.178l-.009-.178v-4.667h-.267a2.667 2.667 0 0 1-2.666-2.666v-8a2.667 2.667 0 0 1 2.666-2.667h.267v-4.666c0-.958.776-1.734 1.733-1.734zm1.2 9.867h-2.4v6.4h2.4v-6.4zM39.616 8.98a2.667 2.667 0 0 1 2.667 2.667v8a2.667 2.667 0 0 1-2.667 2.666h-.267v4.043a1.733 1.733 0 0 1-3.457.177l-.01-.177v-4.043h-.266a2.667 2.667 0 0 1-2.667-2.666v-8a2.667 2.667 0 0 1 2.667-2.667h4zm-.8 3.467h-2.4v6.4h2.4v-6.4zM24.283 6.58c.897 0 1.635.682 1.724 1.556l.01.177v4.667h.266a2.667 2.667 0 0 1 2.666 2.667v16a2.667 2.667 0 0 1-2.666 2.666h-.267v4.667a1.733 1.733 0 0 1-3.458.177l-.009-.177v-4.667h-.266a2.667 2.667 0 0 1-2.667-2.666v-16a2.667 2.667 0 0 1 2.667-2.667h.266V8.313c0-.957.777-1.733 1.734-1.733zm1.2 9.867h-2.4v14.4h2.4v-14.4z" fill="#192639" fill-rule="nonzero"/>
        </g>
        <g fill-rule="nonzero">
            <path d="M58.667 45.333C66.03 45.333 72 51.303 72 58.667 72 66.03 66.03 72 58.667 72c-7.364 0-13.334-5.97-13.334-13.333 0-7.364 5.97-13.334 13.334-13.334zm0 3.467c-5.45 0-9.867 4.417-9.867 9.867 0 5.449 4.417 9.866 9.867 9.866 5.449 0 9.866-4.417 9.866-9.866 0-5.45-4.417-9.867-9.866-9.867z" fill="#192639"/>
            <path d="M63.358 53.33a1.733 1.733 0 0 1 2.654 2.222l-.121.145-7.973 8.532a1.734 1.734 0 0 1-2.343.175l-.135-.12-4.652-4.544a1.733 1.733 0 0 1 2.281-2.605l.142.125 3.384 3.305 6.763-7.235z" fill="#C43826"/>
        </g>
    </g>
</svg>
