<svg width="80" height="80" viewBox="0 0 80 80" xmlns="http://www.w3.org/2000/svg">
    <g fill="none" fill-rule="evenodd">
        <circle fill="#EDEDED" transform="rotate(180 62.667 30.667)" cx="62.667" cy="30.667" r="9.333"/>
        <circle fill="#EDEDED" transform="rotate(180 45.333 14.667)" cx="45.333" cy="14.667" r="5.333"/>
        <g transform="rotate(-60 38.213 10.242)">
            <rect fill="#FFF" x=".002" y=".002" width="26.667" height="53.333" rx="2"/>
            <path d="M24.002.002a2.667 2.667 0 0 1 2.666 2.666v48a2.667 2.667 0 0 1-2.666 2.667H2.668a2.667 2.667 0 0 1-2.666-2.667v-48A2.667 2.667 0 0 1 2.668.002h21.334zm-.8 3.466H3.467v46.4h19.733v-46.4z" fill="#192639" fill-rule="nonzero"/>
            <path d="M8.78 0A6.667 6.667 0 0 1 0 8.78l.002-6.112A2.667 2.667 0 0 1 2.668.002L8.78 0zM6.662 2.903l.006-.235-4 .001-.002 3.998a3.999 3.999 0 0 0 3.996-3.764zM17.89.002a6.667 6.667 0 0 0 8.78 8.78l-.002-6.112A2.667 2.667 0 0 0 24.002.004L17.89.002zm2.119 2.903-.007-.235 4 .001.002 3.998a3.999 3.999 0 0 1-3.995-3.764zM8.781 53.337a6.667 6.667 0 0 0-8.78-8.78l.003 6.111a2.667 2.667 0 0 0 2.666 2.667l6.111.002zm-2.118-2.904.007.235h-4l-.002-3.998a3.999 3.999 0 0 1 3.995 3.763zM17.89 53.337a6.667 6.667 0 0 1 8.78-8.78l-.002 6.111a2.667 2.667 0 0 1-2.666 2.667l-6.111.002zm2.119-2.904-.007.235h4l.002-3.998a3.999 3.999 0 0 0-3.995 3.763z" fill="#192639" fill-rule="nonzero"/>
            <circle fill="#192639" cx="13.335" cy="8.002" r="1.333"/>
            <circle fill="#192639" cx="13.335" cy="45.335" r="1.333"/>
        </g>
        <g transform="translate(24 24)">
            <circle fill="#FFF" cx="16" cy="16" r="16"/>
            <path d="m12.656 26.21.953-2.042c1.561.58 2.942.712 4.142.398 1.2-.314 2.077-1.064 2.63-2.25.597-1.28.616-2.496.056-3.647-.56-1.151-1.623-2.398-3.19-3.739-.698-.762-1.127-1.344-1.287-1.744-.16-.4-.134-.827.078-1.281.224-.481.536-.804.935-.968.4-.164.919-.097 1.558.201.616.287 1.018.672 1.206 1.156.187.483.123 1.063-.193 1.74l3.86 1.8.047-.04c.601-1.228.668-2.43.2-3.605-.468-1.174-1.391-2.186-2.77-3.036l1.013-2.174-1.847-.861-1 2.143c-1.594-.611-3.017-.757-4.267-.437-1.25.32-2.145 1.06-2.685 2.217-.6 1.287-.624 2.472-.07 3.555.553 1.083 1.629 2.343 3.227 3.78.7.698 1.134 1.257 1.303 1.678.17.422.128.903-.125 1.445-.218.467-.539.773-.962.918-.423.145-.959.066-1.606-.235-.733-.342-1.238-.78-1.516-1.314-.278-.533-.235-1.19.128-1.968l-3.848-1.795-.052.05c-.727 1.459-.76 2.802-.099 4.03.662 1.228 1.753 2.266 3.274 3.116l-.952 2.042 1.86.867z" fill="#C43826" fill-rule="nonzero"/>
            <path d="M16 0c8.837 0 16 7.163 16 16s-7.163 16-16 16S0 24.837 0 16 7.163 0 16 0zm0 3.467C9.078 3.467 3.467 9.078 3.467 16S9.078 28.533 16 28.533 28.533 22.922 28.533 16 22.922 3.467 16 3.467z" fill="#192639" fill-rule="nonzero"/>
        </g>
        <path d="M68.228 50.391c1.946 1.16.485 3.61-1.707 5.295-1.462 1.124-6.746 4.971-15.852 11.54-3.007 1.393-6.843 1.925-11.51 1.6-7.594-.812-13.303-1.912-17.125-3.302l.164 1.552a2 2 0 0 1-1.78 2.199l-7.956.836a2 2 0 0 1-2.198-1.78L8.452 51.092a2 2 0 0 1 1.78-2.198l7.956-.836a2 2 0 0 1 2.198 1.78l.43 4.077a26.899 26.899 0 0 0 8.056-2.567c1.622-.815 3.323-1.149 5.178.362a9.686 9.686 0 0 0 4.205 2c1.604.749 3.541.884 5.81.406 3.404-.717 5.774-2.034 7.397-.702 1.082.889 1.6 1.65 1.556 2.283l9.818-4.66c2.296-1.204 4.094-1.419 5.392-.646z" fill="#FFF"/>
        <path d="M68.996 48.902c1.71 1.018 2.147 2.807 1.416 4.595-.514 1.256-1.592 2.516-2.954 3.563l-.699.529-2.914 2.146-7.288 5.29-4.993 3.607c-.09.065-.185.121-.286.167-3.299 1.528-7.421 2.1-12.421 1.75l-1.59-.177-1.535-.186c-.251-.032-.5-.064-.746-.097l-1.453-.199a92.487 92.487 0 0 1-6.44-1.132l-1.123-.254-1.07-.263a41.62 41.62 0 0 1-2.76-.805 2.663 2.663 0 0 1-2.385 2.576l-6.63.697a2.667 2.667 0 0 1-2.93-2.373L8.521 52.424a2.667 2.667 0 0 1 2.373-2.931l6.63-.697a2.667 2.667 0 0 1 2.931 2.373l.107 1.013a25.15 25.15 0 0 0 6.802-2.086l.61-.297c2.42-1.216 4.636-1.254 6.793.365l.258.202a7.93 7.93 0 0 0 3.037 1.547l.426.1c.088.018.174.043.257.074l.124.052c1.236.577 2.795.686 4.72.28.351-.073.706-.157 1.094-.257l2.204-.604.34-.088.615-.146c.289-.062.554-.11.815-.146 1.488-.204 2.728.029 3.785.897.462.379.857.754 1.18 1.133l.133.163 8.156-3.869c2.776-1.455 5.167-1.741 7.084-.6zM17.09 52.327l-5.039.53 1.505 14.321 5.04-.53-1.506-14.32zm46.676.12-.307.156-8.977 4.262c-.351 1.633-1.254 2.912-2.684 3.718a1.733 1.733 0 0 1-.308.137l-.162.045-11.458 2.584a1.733 1.733 0 0 1-.934-3.334l.17-.048 11.172-2.52.12-.088c.417-.34.66-.822.748-1.536l.014-.15c-.004.01-.01.008-.022-.007l-.027-.038c-.13-.19-.352-.429-.668-.704l-.241-.202-.08-.057-.086-.046a.644.644 0 0 0-.046-.019l-.103-.028-.121-.015a1.28 1.28 0 0 0-.07-.002l-.159.006-.191.021-.23.038-.273.054-.503.115-.632.158-1.726.458c-.607.163-1.141.294-1.68.407-2.45.516-4.637.406-6.526-.368l-.183-.082-.266-.06a11.376 11.376 0 0 1-4.124-1.96l-.367-.288c-.99-.806-1.805-.857-3.064-.274l-.242.117a28.634 28.634 0 0 1-8.605 2.737l.837 7.976c1.274.514 2.823.993 4.642 1.435l1.031.24c.177.04.356.079.537.117l1.113.23c.95.187 1.958.366 3.022.537l1.303.202.672.097 1.384.19 1.438.181 1.491.173c.253.029.508.057.766.084 4.175.292 7.589-.138 10.246-1.26l.273-.122 11.24-8.138 2.725-1.995 1.7-1.269c.823-.633 1.465-1.35 1.769-1.937l.18-.4c.014-.035.012-.046-.008-.06l-.065-.035c-.642-.382-1.75-.275-3.455.567z" fill="#192639" fill-rule="nonzero"/>
    </g>
</svg>
