<svg width="120" height="160" viewBox="0 0 120 160" xmlns="http://www.w3.org/2000/svg">
    <g fill="none" fill-rule="evenodd">
        <path d="M0 0h120v160H0z"/>
        <path d="M107.414 148H11.81v-16.309l47.363-51.66c6.836-7.617 11.702-13.98 14.6-19.092 2.897-5.11 4.345-10.237 4.345-15.38 0-6.771-1.904-12.24-5.713-16.407-3.808-4.166-8.935-6.25-15.38-6.25-7.683 0-13.64 2.344-17.872 7.032-4.231 4.687-6.347 11.1-6.347 19.238H9.075c0-8.659 1.969-16.455 5.907-23.389 3.94-6.933 9.57-12.32 16.895-16.162C39.201 5.78 47.648 3.86 57.219 3.86c13.802 0 24.69 3.467 32.666 10.4 7.975 6.934 11.963 16.52 11.963 28.76 0 7.097-2.002 14.535-6.006 22.315-4.004 7.78-10.563 16.618-19.678 26.514l-34.766 37.207h66.016V148z" fill="#EFF3FA" fill-rule="nonzero"/>
    </g>
</svg>
