<svg width="120" height="160" viewBox="0 0 120 160" xmlns="http://www.w3.org/2000/svg">
    <g fill="none" fill-rule="evenodd">
        <path d="M0 0h120v160H0z"/>
        <path d="M38.25 66.066h14.453c7.292-.065 13.07-1.953 17.334-5.664 4.264-3.71 6.397-9.082 6.397-16.113 0-6.77-1.774-12.028-5.323-15.771-3.548-3.744-8.968-5.616-16.26-5.616-6.38 0-11.62 1.84-15.722 5.518s-6.152 8.48-6.152 14.404H9.247c0-7.291 1.936-13.932 5.81-19.922 3.873-5.99 9.277-10.66 16.21-14.013 6.934-3.353 14.698-5.03 23.292-5.03 14.192 0 25.341 3.565 33.447 10.694 8.105 7.129 12.158 17.04 12.158 29.736 0 6.38-2.034 12.386-6.103 18.018-4.07 5.631-9.327 9.88-15.772 12.744 7.813 2.67 13.753 6.868 17.822 12.597 4.07 5.73 6.104 12.566 6.104 20.508 0 12.76-4.378 22.917-13.135 30.469-8.756 7.552-20.264 11.328-34.521 11.328-13.672 0-24.87-3.646-33.594-10.937-8.724-7.292-13.086-16.993-13.086-29.102h23.73c0 6.25 2.1 11.328 6.3 15.234 4.198 3.907 9.846 5.86 16.943 5.86 7.356 0 13.15-1.953 17.382-5.86 4.232-3.906 6.348-9.57 6.348-16.992 0-7.487-2.214-13.248-6.64-17.285-4.428-4.036-11.003-6.055-19.727-6.055H38.25v-18.75z" fill="#EFF3FA" fill-rule="nonzero"/>
    </g>
</svg>
