<svg width="50" height="50" viewBox="0 0 50 50" xmlns="http://www.w3.org/2000/svg">
    <g fill="none" fill-rule="evenodd">
        <path d="M0 0h50v50H0z"/>
        <path d="M22.627 44.23c4.607 0 8.827-1.656 12.094-4.406l1.95 3.375a22.551 22.551 0 0 1-14.044 4.878C10.131 48.077 0 37.96 0 25.48 0 13 10.13 2.885 22.627 2.885c12.175 0 22.103 9.6 22.608 21.634H50l-6.67 10.096-6.672-10.096h4.721c-.501-9.908-8.705-17.788-18.752-17.788-10.37 0-18.776 8.394-18.776 18.75 0 10.355 8.407 18.75 18.776 18.75z" fill="#0D1623"/>
        <path d="M18.18 39.423c-.486-.307-.56-.495-.417-1.1l2.373-9.982c.016-.068.026-.138.043-.233H17.1c-.563 0-.855-.386-.72-.956l2.654-11.165c.1-.418.337-.602.765-.602H27.7c.626 0 .926.508.649 1.105-1.126 2.375-2.252 4.749-3.38 7.123-.037.081-.071.17-.118.276h4.177c.31 0 .561.094.707.394.146.3.058.583-.14.848-3.522 4.608-7.044 9.219-10.565 13.833a3.791 3.791 0 0 1-.487.46h-.363z" fill="#DAA360" fill-rule="nonzero"/>
    </g>
</svg>
