<svg width="50" height="50" viewBox="0 0 50 50" xmlns="http://www.w3.org/2000/svg">
    <defs>
        <linearGradient x1="50%" y1="14.706%" x2="50%" y2="120.588%" id="z8m3oq6q6a">
            <stop stop-color="#DAA360" offset="32.292%"/>
            <stop stop-color="#DAA360" stop-opacity="0" offset="100%"/>
        </linearGradient>
    </defs>
    <g fill="none" fill-rule="evenodd">
        <path d="M0 0h50v50H0z"/>
        <g transform="translate(1.923 2.885)">
            <path d="M13.096 2.165c.005-.012.048-.1.375-.248l2.254 3.038c-.14.055-.278.112-.417.17-.23.094-.387.147-.501.17-.109.022-.142.01-.145.009-.003-.001-.034-.012-.099-.095a2.9 2.9 0 0 1-.262-.452l-.27-.54c-.269-.536-.536-1.07-.801-1.606-.168-.338-.137-.436-.134-.446zm2.631 2.79-2.256-3.038A22.217 22.217 0 0 1 24.298.073h.008a21.853 21.853 0 0 1 14.831 7.155l.003.004c4.866 5.275 6.786 11.555 5.804 18.692a21.867 21.867 0 0 1-3.835 9.585l-.004.005c-.094.136-.19.281-.307.479l-.18.309.243.262c.03.03.059.063.09.096.087.095.181.197.277.293l2.328 2.331.018.015a.26.26 0 0 1 .073.305l-.006.012-.005.013a.268.268 0 0 1-.27.174l-.017-.001h-8.408l-.023.002a.263.263 0 0 1-.274-.174.264.264 0 0 1-.014-.114l.002-.023v-8.342a.608.608 0 0 1 .246-.386l-.286-.386.008-.006.006-.005.288.388c.003 0 .01 0 .025.005a.69.69 0 0 1 .24.172l.001.002 2.77 2.737.327-.466a17.27 17.27 0 0 0 1.972-3.69A18.91 18.91 0 0 0 34.36 7.753a18.944 18.944 0 0 0-7.173-3.525 18.704 18.704 0 0 0-11.46.726zm.297.4-.297-.4h-.002l.297.4h.002zM1.61 5.58a.632.632 0 0 1 .288-.171c.198-.028.399-.027.596.003l.036.005h7.489c.377 0 .462.066.477.08.013.014.08.094.08.467v7.976c0 .185-.02.294-.05.36-.02.043-.051.086-.152.125a.297.297 0 0 1-.11.025.166.166 0 0 1-.067-.016c-.065-.029-.146-.092-.28-.226-.493-.505-.991-1.006-1.502-1.52v-.001c-.245-.246-.492-.495-.743-.75l-.4-.404-.333.462-.053.074c-.1.139-.19.265-.274.394-5.793 8.952-2.814 21.26 6.452 26.515 5.442 3.08 11.117 3.392 16.915 1.069.415-.166.52-.146.544-.138.015.005.103.046.297.435.16.324.32.638.478.95.222.44.442.874.66 1.321l.002.002c.14.286.12.393.112.419-.007.02-.049.11-.325.234a22.644 22.644 0 0 1-24.965-4.538l-.004-.003a21.863 21.863 0 0 1-6.59-13.327v-.008a22.151 22.151 0 0 1 4.03-15.878l.027-.039.02-.044a2.06 2.06 0 0 1 .142-.255l.202-.325-2.692-2.67-.005-.005a2.173 2.173 0 0 0-.12-.106l-.016-.012a2.111 2.111 0 0 1-.085-.074l-.005-.01a.814.814 0 0 1-.075-.395zm8.306 8.628.002.002-.343.336.34-.34.001.002z" fill="#0D1623"/>
            <circle fill="url(#z8m3oq6q6a)" fill-rule="nonzero" cx="22.596" cy="22.596" r="10.577"/>
        </g>
    </g>
</svg>
