<svg width="50" height="50" viewBox="0 0 50 50" xmlns="http://www.w3.org/2000/svg">
    <defs>
        <linearGradient x1="50%" y1="43.374%" x2="50%" y2="105.679%" id="ju2kg7wlua">
            <stop stop-color="#DAA360" offset="0%"/>
            <stop stop-color="#FAF2E9" offset="100%"/>
        </linearGradient>
    </defs>
    <g fill="none" fill-rule="evenodd">
        <path stroke="#172439" stroke-width="3.5" stroke-linecap="round" stroke-linejoin="round" d="M43.462 21.783V5.77H1.923v36.112h25.725"/>
        <path stroke="#172439" stroke-width="3" stroke-linejoin="round" d="M8.054 30.918h10.387"/>
        <g stroke="#172439" stroke-linejoin="round" stroke-width="3">
            <path d="M8.054 16.732h10.388M13.248 11.573v10.318"/>
        </g>
        <g fill-rule="nonzero">
            <path d="M12.747 0C8.921 0 2.793 1.864.715 2.534c-.43.139-.715.53-.715.98v15.874c0 2.99 9.942 8.62 12.266 9.895.304.167.66.17.968.009 2.333-1.228 12.26-6.644 12.26-9.904V3.515c0-.45-.284-.842-.715-.981C22.702 1.864 16.574 0 12.747 0z" fill="url(#ju2kg7wlua)" transform="translate(22.582 18.666)"/>
            <path d="M31.022 31.005c-.59 0-1.134-.132-1.633-.396a3.09 3.09 0 0 1-1.18-1.072 2.699 2.699 0 0 1-.433-1.486c0-.54.144-1.033.433-1.477a3.117 3.117 0 0 1 1.18-1.063 3.432 3.432 0 0 1 1.633-.396c.59 0 1.134.132 1.633.396a3.09 3.09 0 0 1 1.18 1.072c.289.45.433.94.433 1.468 0 .54-.144 1.036-.433 1.486a3.09 3.09 0 0 1-1.18 1.072 3.432 3.432 0 0 1-1.633.396zm-.885 6.863c-.092 0-.151-.024-.177-.072-.027-.048-.02-.108.02-.18l7.416-12.213c.066-.096.164-.144.295-.144h1.79c.092 0 .151.024.177.072.027.048.02.108-.02.18l-7.396 12.213c-.066.096-.164.144-.295.144h-1.81zm.885-8.592c.367 0 .679-.117.934-.351.256-.235.384-.526.384-.874 0-.336-.128-.624-.384-.865a1.315 1.315 0 0 0-.934-.36c-.367 0-.679.12-.934.36-.256.24-.384.529-.384.865 0 .336.128.624.384.865.255.24.567.36.934.36zm7.81 8.736c-.59 0-1.134-.132-1.633-.396a3.09 3.09 0 0 1-1.18-1.072 2.699 2.699 0 0 1-.433-1.486c0-.528.144-1.018.433-1.468a3.09 3.09 0 0 1 1.18-1.072 3.432 3.432 0 0 1 1.633-.396c.577 0 1.115.132 1.613.396a3.09 3.09 0 0 1 1.18 1.072c.29.45.434.94.434 1.468 0 .54-.145 1.036-.433 1.486a3.11 3.11 0 0 1-1.17 1.072 3.375 3.375 0 0 1-1.624.396zm0-1.711c.367 0 .676-.12.925-.36.25-.24.374-.535.374-.883 0-.336-.128-.622-.384-.856a1.308 1.308 0 0 0-.915-.35 1.37 1.37 0 0 0-.944.35c-.262.234-.394.52-.394.856 0 .348.128.642.384.883.256.24.574.36.954.36z" fill="#FFF"/>
        </g>
        <path opacity=".412" d="M0 0h50v50H0z"/>
    </g>
</svg>
