<?xml version="1.0" encoding="UTF-8"?>
<svg width="135px" height="31px" viewBox="0 0 135 31" version="1.1" xmlns="http://www.w3.org/2000/svg" xmlns:xlink="http://www.w3.org/1999/xlink">
    <title>light/logo</title>
    <defs>
        <polygon id="path-1" points="0 31.3379855 131.511538 31.3379855 131.511538 0 0 0"></polygon>
    </defs>
    <g id="light/logo" stroke="none" stroke-width="1" fill="none" fill-rule="evenodd">
        <g id="logo">
            <g id="Group-30">
                <path d="M36.0580975,28.6649275 C36.0580975,29.5642984 35.768611,30.2280854 35.1887026,30.6577366 C34.6092618,31.0873878 33.8030021,31.3012479 32.7699233,31.3012479 C32.1792585,31.3012479 31.681192,31.2655241 31.2752561,31.1935937 C30.8693202,31.1221461 30.5340022,31.0318711 30.2697697,30.9222859 L30.2697697,29.4682304 C30.4760113,29.5990567 30.800573,29.7192625 31.2425193,29.8293305 C31.6844657,29.9389157 32.119397,29.9934669 32.5468456,29.9934669 C33.1482667,29.9934669 33.5626207,29.9113987 33.788972,29.745814 C34.015791,29.5807121 34.1289667,29.3065077 34.1289667,28.9232009 C34.1289667,28.6760308 34.0475925,28.4568604 33.8843763,28.2661725 C33.7216278,28.0745191 33.2567657,27.8220387 32.4921284,27.507283 C31.8827569,27.2523888 31.4113475,26.9270125 31.0779002,26.5316369 C30.7439851,26.1362612 30.5774953,25.5975076 30.5774953,24.9158588 C30.5774953,24.2636579 30.8459368,23.7128354 31.3846904,23.2633913 C31.9225087,22.8134645 32.666101,22.588501 33.6154672,22.588501 C34.0761202,22.588501 34.4895388,22.6266386 34.8580612,22.7029138 C35.2256484,22.7796717 35.4833335,22.8467745 35.6325196,22.9061533 L35.6325196,24.1893138 C35.3210526,24.1115904 35.0114564,24.0440048 34.7037308,23.984626 C34.3955375,23.92573 34.0677022,23.8957993 33.7197571,23.8957993 C33.2277703,23.8957993 32.8723426,23.9759364 32.6558123,24.1342798 C32.4383466,24.2935887 32.3293799,24.4915179 32.3293799,24.7304812 C32.3293799,25.0302715 32.4107542,25.2566832 32.574438,25.410199 C32.7367188,25.5637148 33.2156109,25.791092 34.0092437,26.0908824 C34.7481592,26.3679832 35.2752212,26.7189455 35.5880911,27.1447347 C35.9018964,27.5700411 36.0580975,28.0764502 36.0580975,28.6649275" id="Fill-1" fill="#FEFEFE"></path>
                <mask id="mask-2" fill="white">
                    <use xlink:href="#path-1"></use>
                </mask>
                <g id="Clip-4"></g>
                <path d="M37.1945777,31.1907454 L38.9352383,31.1907454 L38.9352383,24.7266674 L37.1945777,24.7266674 L37.1945777,31.1907454 Z M38.9824728,23.2856463 C38.9824728,23.5545403 38.8931482,23.780952 38.7154343,23.9639159 C38.5367851,24.1468797 38.3197871,24.2381202 38.064908,24.2381202 C37.8137703,24.2381202 37.5981753,24.1468797 37.4181231,23.9639159 C37.2376032,23.780952 37.1473433,23.5545403 37.1473433,23.2856463 C37.1473433,23.0239935 37.2376032,22.8019266 37.4181231,22.6189628 C37.5981753,22.435999 37.8137703,22.3442757 38.064908,22.3442757 C38.3197871,22.3442757 38.5367851,22.435999 38.7154343,22.6189628 C38.8931482,22.8019266 38.9824728,23.0239935 38.9824728,23.2856463 L38.9824728,23.2856463 Z" id="Fill-3" fill="#FEFEFE" mask="url(#mask-2)"></path>
                <path d="M45.9722867,31.1908903 L44.2320938,31.1908903 L44.2320938,26.6530013 C44.2320938,26.4840373 44.1619436,26.3266595 44.0230461,26.180385 C43.8836811,26.0341105 43.6839868,25.9612146 43.4234957,25.9612146 C43.1737609,25.9612146 42.9539569,26.0157658 42.7645513,26.1248683 C42.5742104,26.2339707 42.4128649,26.3734866 42.2791119,26.5429333 L42.2791119,31.1908903 L40.5384513,31.1908903 L40.5384513,24.7268122 L42.2136383,24.7268122 L42.2459074,25.7560441 C42.3726455,25.4485297 42.6163006,25.1781874 42.976405,24.9440516 C43.3369771,24.7099158 43.7761174,24.5926066 44.293826,24.5926066 C44.8148082,24.5926066 45.2249531,24.762536 45.523793,25.1019122 C45.8226329,25.4403229 45.9722867,25.9588008 45.9722867,26.6554151 L45.9722867,31.1908903 Z" id="Fill-5" fill="#FEFEFE" mask="url(#mask-2)"></path>
                <path d="M51.8300165,27.9945268 L51.8300165,27.8989415 C51.8300165,27.0246737 51.6995371,26.4284723 51.4381106,26.1098546 C51.1771518,25.7912369 50.8582022,25.6309625 50.4807941,25.6309625 C50.0856145,25.6309625 49.7638589,25.8023402 49.5155271,26.1436474 C49.2671954,26.4849546 49.1427957,27.0700526 49.1427957,27.8989415 L49.1427957,27.9945268 C49.1427957,28.9064494 49.263454,29.5123058 49.5043031,29.8125789 C49.7456198,30.1123692 50.0706492,30.262023 50.4807941,30.262023 C50.8507195,30.262023 51.1677985,30.1162313 51.4324986,29.8236823 C51.6976664,29.531616 51.8300165,28.9214147 51.8300165,27.9945268 L51.8300165,27.9945268 Z M53.6174439,28.1523874 C53.6174439,29.1541022 53.3391814,29.9356812 52.781721,30.4971243 C52.2247283,31.0576019 51.460091,31.338082 50.4882767,31.338082 C49.5225422,31.338082 48.7555665,31.051326 48.1859468,30.4768486 C47.6163271,29.9028539 47.3315172,29.1280335 47.3315172,28.1523874 L47.3315172,27.7420464 C47.3315172,26.7886069 47.6125857,26.0190968 48.1751904,25.433516 C48.7373275,24.848418 49.5047708,24.555869 50.4770527,24.555869 C51.4563497,24.555869 52.2247283,24.850349 52.781721,25.4393091 C53.3391814,26.0287519 53.6174439,26.796331 53.6174439,27.7420464 L53.6174439,28.1523874 Z" id="Fill-6" fill="#FEFEFE" mask="url(#mask-2)"></path>
                <path d="M58.5335707,25.7071411 L58.5335707,24.8908038 C58.5335707,24.5683241 58.4461168,24.3293608 58.2707413,24.1758449 C58.0958334,24.0223291 57.8082175,23.9450885 57.407426,23.9450885 L56.8284529,23.9450885 L56.8284529,26.5963742 L57.506104,26.5963742 C57.7974612,26.5963742 58.0411162,26.5200991 58.2380045,26.3656177 C58.4348928,26.2121019 58.5335707,25.9924488 58.5335707,25.7071411 L58.5335707,25.7071411 Z M60.4271588,25.579694 C60.4271588,26.3004459 60.2148375,26.8435443 59.7897272,27.2089892 C59.3636816,27.5749169 58.7496334,27.7573979 57.9461796,27.7573979 L56.8284529,27.7573979 L56.8284529,31.1907454 L54.9820993,31.1907454 L54.9820993,22.7106861 L58.064032,22.7106861 C58.9465216,22.7106861 59.5605698,22.9313047 59.9075795,23.3715765 C60.2536539,23.8128138 60.4271588,24.3259815 60.4271588,24.9105967 L60.4271588,25.579694 Z" id="Fill-7" fill="#FEFEFE" mask="url(#mask-2)"></path>
                <path d="M64.9740617,29.0199449 L64.9740617,28.8461534 C64.9740617,28.4556053 64.8861401,28.1587115 64.7093616,27.9540237 C64.5321154,27.7498187 64.2702212,27.6474748 63.9236792,27.6474748 C63.5986499,27.6474748 63.3409648,27.7435429 63.1520269,27.9371273 C62.9616859,28.130229 62.8667493,28.4367779 62.8667493,28.8572567 L62.8667493,29.0310482 C62.8667493,29.4703545 62.967298,29.7624207 63.1683952,29.9086953 C63.3680895,30.0549698 63.6234363,30.1283484 63.9344355,30.1283484 C64.201474,30.1283484 64.4413877,30.0390389 64.6541767,29.8609026 C64.8674334,29.6827663 64.9740617,29.4027689 64.9740617,29.0199449 L64.9740617,29.0199449 Z M66.6431691,31.1908903 L65.0180225,31.1908903 L64.9857534,30.3426912 C64.8515327,30.6130336 64.627052,30.8336522 64.3118437,31.0059954 C63.9961677,31.1788214 63.6285806,31.2642689 63.2076794,31.2642689 C62.5150629,31.2642689 61.9917423,31.0851671 61.6363146,30.7250325 C61.2813545,30.3658634 61.103173,29.820834 61.103173,29.090427 L61.103173,28.9774625 C61.103173,28.2547795 61.3407484,27.6976813 61.8154315,27.3061676 C62.2901146,26.9151368 62.9280138,26.7186559 63.7291293,26.7186559 C63.9709137,26.7186559 64.2103597,26.7553452 64.4460644,26.8272755 C64.6817691,26.8996887 64.8534033,26.9899637 64.96237,27.0981006 L64.96237,26.4613479 C64.96237,26.2397637 64.8646274,26.0529379 64.6691421,25.8984566 C64.4736568,25.7449407 64.195862,25.6681828 63.8366929,25.6681828 C63.4527374,25.6681828 63.1104044,25.7125962 62.8092261,25.8009402 C62.5089832,25.8902497 62.2475568,26.0003177 62.0263498,26.1325923 L62.0263498,25.0323956 C62.313498,24.9121898 62.6329153,24.8088804 62.9864724,24.7229502 C63.3400294,24.6360545 63.7684134,24.5926066 64.2725596,24.5926066 C65.0811577,24.5926066 65.6783698,24.7813635 66.0646637,25.1574289 C66.4500222,25.5344599 66.6431691,26.1364544 66.6431691,26.9648605 L66.6431691,31.1908903 Z" id="Fill-8" fill="#FEFEFE" mask="url(#mask-2)"></path>
                <path d="M72.9426581,30.8491003 C72.8743786,30.9099274 72.6690723,31.0064782 72.3281422,31.1392356 C71.9872122,31.2715102 71.6313168,31.3381303 71.2613914,31.3381303 C70.2493576,31.3381303 69.4440332,31.0668225 68.8449504,30.5246895 C68.2468029,29.9825566 67.9470277,29.1695987 67.9470277,28.0848501 L67.9470277,27.8087147 C67.9470277,26.82631 68.2411909,26.0379725 68.828582,25.4451504 C69.4169085,24.8523283 70.2110089,24.5559173 71.2127539,24.5559173 C71.6079334,24.5559173 71.9652318,24.607572 72.2846491,24.7113641 C72.6035987,24.8151562 72.8229351,24.9261897 72.9426581,25.0449472 L72.9426581,26.1934193 C72.7873923,26.0485931 72.5802153,25.9269391 72.3211272,25.8279745 C72.0620391,25.7299754 71.7809706,25.6797689 71.4765187,25.6797689 C70.9475861,25.6797689 70.5430532,25.8762499 70.26292,26.2682462 C69.9813838,26.6602426 69.8415511,27.1980307 69.8415511,27.8806451 L69.8415511,27.9989198 C69.8415511,28.7640852 69.9551944,29.3067008 70.1838841,29.6258013 C70.4116385,29.9444191 70.7792256,30.1037279 71.2866454,30.1037279 C71.6271078,30.1037279 71.9582168,30.0501422 72.2804401,29.9415225 C72.6026634,29.8333856 72.8234027,29.7247659 72.9426581,29.614698 L72.9426581,30.8491003 Z" id="Fill-9" fill="#FEFEFE" mask="url(#mask-2)"></path>
                <path d="M82.2266178,28.6649275 C82.2266178,29.5642984 81.9371312,30.2280854 81.3572228,30.6577366 C80.7768467,31.0873878 79.9710546,31.3012479 78.9384435,31.3012479 C78.347311,31.3012479 77.8497122,31.2655241 77.4433086,31.1935937 C77.0373727,31.1221461 76.7020547,31.0318711 76.4382899,30.9222859 L76.4382899,29.4682304 C76.6445316,29.5990567 76.9690932,29.7192625 77.4110395,29.8293305 C77.8529859,29.9389157 78.2879172,29.9934669 78.7153658,29.9934669 C79.316787,29.9934669 79.7306732,29.9113987 79.9570246,29.745814 C80.1833759,29.5807121 80.2974869,29.3065077 80.2974869,28.9232009 C80.2974869,28.6760308 80.2151774,28.4568604 80.0524289,28.2661725 C79.8892127,28.0745191 79.425286,27.8220387 78.660181,27.507283 C78.0508095,27.2523888 77.5794001,26.9270125 77.2459527,26.5316369 C76.9125054,26.1362612 76.7460155,25.5975076 76.7460155,24.9158588 C76.7460155,24.2636579 77.014457,23.7128354 77.552743,23.2633913 C78.0905613,22.8134645 78.8346212,22.588501 79.7839874,22.588501 C80.2446404,22.588501 80.658059,22.6266386 81.0261138,22.7029138 C81.3937009,22.7796717 81.6518537,22.8467745 81.8005721,22.9061533 L81.8005721,24.1893138 C81.4895729,24.1115904 81.1799766,24.0440048 80.8717833,23.984626 C80.5640577,23.92573 80.2362224,23.8957993 79.8882774,23.8957993 C79.3958229,23.8957993 79.0408628,23.9759364 78.8243325,24.1342798 C78.6063992,24.2935887 78.4979002,24.4915179 78.4979002,24.7304812 C78.4979002,25.0302715 78.5792744,25.2566832 78.7424906,25.410199 C78.9052391,25.5637148 79.3841312,25.791092 80.1772962,26.0908824 C80.9166795,26.3679832 81.4428061,26.7189455 81.7566113,27.1447347 C82.069949,27.5700411 82.2266178,28.0764502 82.2266178,28.6649275" id="Fill-10" fill="#FEFEFE" mask="url(#mask-2)"></path>
                <path d="M87.5180015,27.3788704 C87.4824587,26.7411522 87.3473026,26.283984 87.1130009,26.0083314 C86.8786992,25.7326788 86.5728443,25.5950938 86.1959038,25.5950938 C85.8657302,25.5950938 85.5706316,25.7307478 85.3110758,26.0025383 C85.0519877,26.2748117 84.9112196,26.7334281 84.8892392,27.3788704 L87.5180015,27.3788704 Z M89.1403421,28.2951378 L84.8780152,28.2951378 C84.8780152,29.0178208 85.036087,29.5203678 85.3522306,29.802779 C85.6683742,30.0847074 86.0785191,30.2256716 86.583133,30.2256716 C86.917048,30.2256716 87.2584457,30.1822238 87.6091968,30.0943625 C87.9594802,30.006984 88.3200522,29.8756749 88.6899777,29.7004351 L88.6899777,30.7880802 C88.3710281,30.969113 88.0179387,31.1062152 87.6311772,31.1993867 C87.2448833,31.2915928 86.7996633,31.3379372 86.2950495,31.3379372 C85.3293149,31.3379372 84.5600009,31.0719396 83.9866398,30.5413928 C83.4132787,30.0103633 83.1261305,29.2355429 83.1261305,28.2140351 L83.1261305,27.7530049 C83.1261305,26.8603925 83.38896,26.1039167 83.9136836,25.4845431 C84.4379395,24.8656523 85.1997708,24.5557242 86.1987098,24.5557242 C87.1499467,24.5557242 87.8781059,24.8463422 88.3831874,25.4261299 C88.888269,26.0064004 89.1403421,26.7628761 89.1403421,27.6945916 L89.1403421,28.2951378 Z" id="Fill-11" fill="#FEFEFE" mask="url(#mask-2)"></path>
                <path d="M95.2135265,30.8491003 C95.1447793,30.9099274 94.939473,31.0064782 94.598543,31.1392356 C94.2571453,31.2715102 93.9017175,31.3381303 93.5317921,31.3381303 C92.5197584,31.3381303 91.7144339,31.0668225 91.1158188,30.5246895 C90.5176713,29.9825566 90.2178961,29.1695987 90.2178961,28.0848501 L90.2178961,27.8087147 C90.2178961,26.82631 90.5120593,26.0379725 91.0994504,25.4451504 C91.6868415,24.8523283 92.4814096,24.5559173 93.4831546,24.5559173 C93.8788018,24.5559173 94.2361002,24.607572 94.5550499,24.7113641 C94.8744672,24.8151562 95.0938035,24.9261897 95.2135265,25.0449472 L95.2135265,26.1934193 C95.0582607,26.0485931 94.8506161,25.9269391 94.591528,25.8279745 C94.3324398,25.7299754 94.0509037,25.6797689 93.7469194,25.6797689 C93.2179868,25.6797689 92.8134539,25.8762499 92.5333207,26.2682462 C92.2522522,26.6602426 92.1119518,27.1980307 92.1119518,27.8806451 L92.1119518,27.9989198 C92.1119518,28.7640852 92.2260628,29.3067008 92.4542848,29.6258013 C92.6825069,29.9444191 93.0496263,30.1037279 93.5565785,30.1037279 C93.8975085,30.1037279 94.2286175,30.0501422 94.5503732,29.9415225 C94.8725965,29.8333856 95.0938035,29.7247659 95.2135265,29.614698 L95.2135265,30.8491003 Z" id="Fill-12" fill="#FEFEFE" mask="url(#mask-2)"></path>
                <path d="M102.029415,31.1908903 L100.35984,31.1908903 L100.324297,30.1968995 C100.121329,30.4817244 99.8425987,30.7428944 99.487171,30.9808922 C99.1322109,31.2193728 98.6935382,31.3381303 98.1720883,31.3381303 C97.6829075,31.3381303 97.2980167,31.1860627 97.0169482,30.8814449 C96.7363473,30.5777925 96.5955792,30.0366251 96.5955792,29.2598737 L96.5955792,24.7268122 L98.3362398,24.7268122 L98.3362398,29.1107027 C98.3362398,29.4495961 98.4045194,29.677456 98.5420138,29.7942825 C98.6795082,29.9115918 98.8478687,29.9690395 99.0470953,29.9690395 C99.3001037,29.9690395 99.5330024,29.9207641 99.7462591,29.822765 C99.9595157,29.7252487 100.140503,29.5726984 100.289222,29.3665623 L100.289222,24.7268122 L102.029415,24.7268122 L102.029415,31.1908903 Z" id="Fill-13" fill="#FEFEFE" mask="url(#mask-2)"></path>
                <path d="M108.348873,26.694325 L106.73916,26.694325 C106.73916,26.509913 106.702214,26.3520524 106.627387,26.2202605 C106.553028,26.0884686 106.407115,26.0218485 106.18965,26.0218485 C105.982473,26.0218485 105.8085,26.0807445 105.666797,26.19564 C105.525561,26.311501 105.432963,26.4350861 105.389469,26.5654297 L105.389469,31.1906972 L103.648809,31.1906972 L103.648809,24.7271019 L105.323996,24.7271019 L105.3572,25.7447476 C105.520417,25.3778545 105.731803,25.0944778 105.991826,24.8936521 C106.251382,24.6928263 106.557237,24.5924135 106.909858,24.5924135 C107.43692,24.5924135 107.830697,24.771998 108.089785,25.1311671 C108.349341,25.4893707 108.435859,26.0107452 108.348873,26.694325" id="Fill-14" fill="#FEFEFE" mask="url(#mask-2)"></path>
                <path d="M109.176646,31.1907454 L110.916839,31.1907454 L110.916839,24.7266674 L109.176646,24.7266674 L109.176646,31.1907454 Z M110.964541,23.2856463 C110.964541,23.5545403 110.874748,23.780952 110.697035,23.9639159 C110.518853,24.1468797 110.301387,24.2381202 110.046508,24.2381202 C109.795838,24.2381202 109.580243,24.1468797 109.399723,23.9639159 C109.219671,23.780952 109.129411,23.5545403 109.129411,23.2856463 C109.129411,23.0239935 109.219671,22.8019266 109.399723,22.6189628 C109.580243,22.435999 109.795838,22.3442757 110.046508,22.3442757 C110.301387,22.3442757 110.518853,22.435999 110.697035,22.6189628 C110.874748,22.8019266 110.964541,23.0239935 110.964541,23.2856463 L110.964541,23.2856463 Z" id="Fill-15" fill="#FEFEFE" mask="url(#mask-2)"></path>
                <path d="M116.012877,25.8268641 L114.366686,25.8268641 L114.366686,29.1578677 C114.366686,29.4967611 114.421403,29.7448968 114.529434,29.9032401 C114.638401,30.0611007 114.847448,30.1407552 115.15798,30.1407552 C115.305763,30.1407552 115.449337,30.1277208 115.586364,30.1021348 C115.723391,30.0775144 115.849193,30.0446871 115.965175,30.005584 L115.965175,31.0203332 C115.780446,31.0995049 115.552692,31.1579182 115.282847,31.195573 C115.012535,31.2332278 114.7469,31.2520552 114.486409,31.2520552 C113.913983,31.2520552 113.460813,31.0618501 113.127365,30.6799916 C112.79345,30.298133 112.62696,29.7502071 112.62696,29.0352482 L112.62696,25.8147953 L111.881497,25.8147953 L111.881497,24.9105967 L112.698046,24.8613558 L113.277954,22.7106861 L114.366686,22.7106861 L114.366686,24.849287 L116.012877,24.849287 L116.012877,25.8268641 Z" id="Fill-16" fill="#FEFEFE" mask="url(#mask-2)"></path>
                <path d="M117.122326,31.1907454 L118.862987,31.1907454 L118.862987,24.7266674 L117.122326,24.7266674 L117.122326,31.1907454 Z M118.910221,23.2856463 C118.910221,23.5545403 118.820897,23.780952 118.642715,23.9639159 C118.464534,24.1468797 118.248003,24.2381202 117.993124,24.2381202 C117.741986,24.2381202 117.525456,24.1468797 117.345404,23.9639159 C117.165819,23.780952 117.075092,23.5545403 117.075092,23.2856463 C117.075092,23.0239935 117.165819,22.8019266 117.345404,22.6189628 C117.525456,22.435999 117.741986,22.3442757 117.993124,22.3442757 C118.248003,22.3442757 118.464534,22.435999 118.642715,22.6189628 C118.820897,22.8019266 118.910221,23.0239935 118.910221,23.2856463 L118.910221,23.2856463 Z" id="Fill-17" fill="#FEFEFE" mask="url(#mask-2)"></path>
                <path d="M124.597626,27.3788704 C124.561616,26.7411522 124.42646,26.283984 124.192626,26.0083314 C123.958324,25.7326788 123.652469,25.5950938 123.275529,25.5950938 C122.944887,25.5950938 122.649789,25.7307478 122.390701,26.0025383 C122.131145,26.2748117 121.990377,26.7334281 121.968864,27.3788704 L124.597626,27.3788704 Z M126.219499,28.2951378 L121.958108,28.2951378 C121.958108,29.0178208 122.115712,29.5203678 122.431388,29.802779 C122.747531,30.0847074 123.158144,30.2256716 123.662758,30.2256716 C123.996205,30.2256716 124.338538,30.1822238 124.688354,30.0943625 C125.039105,30.006984 125.39921,29.8756749 125.77007,29.7004351 L125.77007,30.7880802 C125.450185,30.969113 125.097564,31.1062152 124.710802,31.1993867 C124.324041,31.2915928 123.879288,31.3379372 123.374674,31.3379372 C122.408472,31.3379372 121.639626,31.0719396 121.065797,30.5413928 C120.492904,30.0103633 120.205755,29.2355429 120.205755,28.2140351 L120.205755,27.7530049 C120.205755,26.8603925 120.468585,26.1039167 120.992841,25.4845431 C121.518032,24.8656523 122.279396,24.5557242 123.278335,24.5557242 C124.229572,24.5557242 124.958199,24.8463422 125.462345,25.4261299 C125.967426,26.0064004 126.219499,26.7628761 126.219499,27.6945916 L126.219499,28.2951378 Z" id="Fill-18" fill="#FEFEFE" mask="url(#mask-2)"></path>
                <path d="M131.511678,29.2269016 C131.511678,29.8274477 131.30076,30.329512 130.879391,30.7326118 C130.45849,31.1361942 129.76447,31.3379855 128.7978,31.3379855 C128.395138,31.3379855 128.028019,31.3037099 127.697377,31.2356416 C127.366736,31.1675732 127.126354,31.083574 126.978104,30.9836439 L126.978104,29.8351718 C127.148803,29.9370329 127.390119,30.0398596 127.702522,30.1431689 C128.015392,30.2469611 128.335744,30.2990985 128.662644,30.2990985 C129.081207,30.2990985 129.40156,30.2257199 129.625573,30.0794454 C129.84865,29.9322054 129.961358,29.7439313 129.961358,29.5141403 C129.961358,29.2930389 129.886064,29.1129716 129.737813,28.9739384 C129.589095,28.8349052 129.209816,28.6698033 128.600444,28.4781499 C128.027083,28.3019446 127.637048,28.0523607 127.429403,27.7293982 C127.223162,27.4069184 127.119807,26.9903016 127.119807,26.4805132 C127.119807,25.958656 127.305004,25.5174187 127.674929,25.1572841 C128.044855,24.7971495 128.628504,24.6170822 129.426346,24.6170822 C129.796272,24.6170822 130.109142,24.6465302 130.364488,24.705909 C130.620303,24.7643222 130.860216,24.849287 131.085632,24.9593549 L131.085632,25.9977591 C130.922416,25.9002427 130.690921,25.81914 130.391145,25.7539682 C130.090435,25.6883137 129.802819,25.6559691 129.526895,25.6559691 C129.20888,25.6559691 128.95026,25.7129341 128.753839,25.8268641 C128.556016,25.9403113 128.457806,26.0947927 128.457806,26.2888598 C128.457806,26.510444 128.533568,26.6649253 128.68556,26.7532693 C128.83802,26.8416133 129.17895,26.9661639 129.707882,27.1274038 C130.381324,27.3340226 130.850395,27.6043649 131.114628,27.937948 C131.379328,28.2720139 131.511678,28.7016651 131.511678,29.2269016" id="Fill-19" fill="#FEFEFE" mask="url(#mask-2)"></path>
                <path d="M45.3849424,5.85387679 L46.4030558,6.87152253 C45.5621886,7.9393747 44.4257551,9.06226085 42.9932878,10.2411465 L42.0401802,9.15688066 C43.5474745,7.88868552 44.6623952,6.78848882 45.3849424,5.85387679 L45.3849424,5.85387679 Z M33.8312024,4.35299414 L34.0411854,2.86804239 C34.8062904,2.92452462 36.1793639,3.07417841 38.1618089,3.31893476 C40.0684916,3.53086383 41.7651914,3.80313717 43.2514406,4.13575478 L42.9446503,5.60381014 C40.1334975,4.93712666 37.0955256,4.51954433 33.8312024,4.35299414 L33.8312024,4.35299414 Z M40.0362225,10.97445 L40.0362225,16.5290192 C40.0362225,17.1966682 39.8098712,17.7190082 39.3571685,18.0970047 C39.0232535,18.4083811 38.4629871,18.563828 37.6768371,18.563828 C36.7826557,18.5532074 35.9099871,18.4416912 35.0592988,18.2312104 L34.9624915,16.6289494 C36.6320666,17.1078415 37.6932054,17.2294955 38.1459081,16.9963253 C38.4148173,16.7737756 38.5551177,16.4459855 38.5658741,16.0119896 L38.5658741,7.73854898 C38.5658741,7.58310214 38.4849675,7.50489597 38.3231543,7.50489597 L32.0054263,7.50489597 L32.0054263,6.053737 L39.5839875,6.053737 C39.8963898,6.0653231 40.0469789,6.23766633 40.0362225,6.57124945 L40.0362225,7.15489921 C40.7573667,9.33501694 41.512183,11.0135531 42.298333,12.1924387 C43.2565849,13.6382874 44.6787636,15.0836533 46.5639336,16.5290192 L45.3035681,17.5133549 C42.966163,15.5567524 41.2105371,13.3771174 40.0362225,10.97445 L40.0362225,10.97445 Z M31.5686243,9.18970794 L37.2409704,9.18970794 L37.6609363,9.75742682 C37.2947522,12.4482984 35.4310949,14.8948965 32.0699645,17.0957726 L30.9877805,15.8449566 C32.2472107,15.1782731 33.2166866,14.5386239 33.8962083,13.9269744 C34.4667634,13.4157377 34.999905,12.7929849 35.4956331,12.0591986 C35.8505932,11.5030658 36.0502875,11.119759 36.0937806,10.90783 C36.125582,10.8305893 36.125582,10.7692795 36.0937806,10.7248661 C36.0180184,10.6693494 35.8992307,10.6408669 35.7378852,10.6408669 L31.5686243,10.6408669 L31.5686243,9.18970794 Z" id="Fill-20" fill="#FEFEFE" mask="url(#mask-2)"></path>
                <path d="M55.6261718,17.2570608 L59.5363446,17.2570608 C59.7196705,16.879547 59.897852,16.5068608 60.0699539,16.1399677 L55.125767,16.1399677 C55.232863,16.351414 55.3998205,16.7241002 55.6261718,17.2570608 L55.6261718,17.2570608 Z M62.5097783,14.2050891 L52.717744,14.2050891 C52.6747186,14.2050891 52.6583502,14.2219854 52.6695742,14.2548127 L52.6695742,14.955289 C52.6583502,14.9895645 52.6747186,15.0112885 52.717744,15.0223918 L62.5097783,15.0223918 C62.5528037,15.0112885 62.5743165,14.9895645 62.5743165,14.955289 L62.5743165,14.2548127 C62.5743165,14.2219854 62.5528037,14.2050891 62.5097783,14.2050891 L62.5097783,14.2050891 Z M60.3767442,8.56748612 L58.8582259,8.56748612 L58.8582259,7.51604759 L60.3767442,7.51604759 L60.3767442,6.69922757 L58.8582259,6.69922757 L58.8582259,5.6482718 L60.3767442,5.6482718 L60.3767442,4.7638662 L58.8582259,4.7638662 L58.8582259,3.71339317 L60.3767442,3.71339317 L60.3767442,2.74595386 L61.523934,2.74595386 L61.523934,3.71339317 L62.8815744,3.71339317 L62.8815744,4.7638662 L61.523934,4.7638662 L61.523934,5.6482718 L62.8165685,5.6482718 L62.8165685,6.69922757 L61.523934,6.69922757 L61.523934,7.51604759 L62.8165685,7.51604759 L62.8165685,8.56748612 L61.523934,8.56748612 L61.523934,9.41809893 L63.2692712,9.41809893 C63.409104,9.41809893 63.4792542,9.34568581 63.4792542,9.20134232 L63.4792542,3.02933055 L64.7555204,3.02933055 L64.7555204,9.98533505 C64.7555204,10.3517455 64.5778065,10.535192 64.2223788,10.535192 L51.0051435,10.535192 C50.6600045,10.535192 50.4874349,10.3517455 50.4874349,9.98533505 L50.4874349,3.02933055 L51.7641688,3.02933055 L51.7641688,9.20134232 C51.7641688,9.34568581 51.828707,9.41809893 51.9577834,9.41809893 L53.719489,9.41809893 L53.719489,8.56748612 L52.2650413,8.56748612 L52.2650413,7.51604759 L53.719489,7.51604759 L53.719489,6.6326075 L52.3295795,6.6326075 L52.3295795,5.58116897 L53.719489,5.58116897 L53.719489,4.7638662 L52.2650413,4.7638662 L52.2650413,3.71339317 L53.719489,3.71339317 L53.719489,2.81209118 L54.8671465,2.81209118 L54.8671465,3.71339317 L56.1597811,3.71339317 L56.1597811,4.7638662 L54.8671465,4.7638662 L54.8671465,5.58116897 L56.1597811,5.58116897 L56.1597811,6.6326075 L54.8671465,6.6326075 L54.8671465,7.51604759 L56.2243193,7.51604759 L56.2243193,8.56748612 L54.8671465,8.56748612 L54.8671465,9.41809893 L56.8865373,9.41809893 L56.8865373,2.81209118 L58.1632711,2.81209118 L58.1632711,9.41809893 L60.3767442,9.41809893 L60.3767442,8.56748612 Z M50.2615513,12.4029678 L65.0141408,12.4029678 L65.0141408,11.2858747 L50.2615513,11.2858747 L50.2615513,12.4029678 Z M54.2526307,17.2570608 C54.1885601,17.1020967 54.1235543,16.9514774 54.0585484,16.8071339 C53.9191833,16.5406536 53.811152,16.318104 53.7353898,16.1399677 L51.6673615,16.1399677 C51.5705542,16.1399677 51.5223844,16.0844509 51.5223844,15.9729347 L51.5223844,13.2376497 C51.5223844,13.1377196 51.5705542,13.0875132 51.6673615,13.0875132 L63.5606285,13.0875132 C63.6677244,13.0875132 63.7219739,13.1377196 63.7219739,13.2376497 L63.7219739,15.9729347 C63.7219739,16.0844509 63.6677244,16.1399677 63.5606285,16.1399677 L61.4271267,16.1399677 C61.3518321,16.351414 61.2438008,16.612584 61.103968,16.9244432 C61.0389622,17.0349939 60.9851803,17.1465101 60.9421549,17.2570608 L65.3377672,17.2570608 L65.3377672,18.4412567 L49.8738544,18.4412567 L49.8738544,17.2570608 L54.2526307,17.2570608 Z" id="Fill-21" fill="#FEFEFE" mask="url(#mask-2)"></path>
                <path d="M70.5536225,13.4133723 L71.7812512,12.6791032 C72.384543,13.5355091 72.9775461,14.6482574 73.5593252,16.0154171 L72.2821237,16.6825833 C71.6573192,15.2705275 71.0811521,14.1814341 70.5536225,13.4133723 L70.5536225,13.4133723 Z M80.3779258,16.7158934 L79.2625375,15.9319006 C80.0379311,14.6974983 80.6365463,13.5808879 81.0565122,12.5791731 L82.2687079,13.2965457 C81.5578524,14.7646011 80.9433366,15.9039009 80.4260957,16.7158934 L83.754957,16.7158934 L83.754957,18.1675351 L69.2605202,18.1675351 L69.2605202,16.7158934 L75.8209681,16.7158934 L75.8209681,12.2957964 L69.390532,12.2957964 L69.390532,10.8446374 L75.8209681,10.8446374 L75.8209681,8.89334517 L72.0403393,8.89334517 L72.0403393,7.44170345 L81.1215181,7.44170345 C79.5375263,6.5968837 78.0185404,5.55751402 76.5645603,4.32262891 C75.2181439,5.69075416 72.8910275,7.0917067 69.5841466,8.52645202 L68.8082852,7.14191313 C72.600138,5.8293046 75.0619428,4.3564217 76.1927642,2.72181616 L77.549937,3.02208924 C77.4746424,3.12201934 77.4157162,3.21084611 77.3726908,3.28856953 C79.2681495,4.9680712 81.5625291,6.24688694 84.2562972,7.12501673 L83.4158977,8.49314199 C82.6185236,8.15907612 81.8912997,7.825493 81.2342261,7.49142713 L81.2342261,8.89334517 L77.2277137,8.89334517 L77.2277137,10.8446374 L83.6258807,10.8446374 L83.6258807,12.2957964 L77.2277137,12.2957964 L77.2277137,16.7158934 L80.3779258,16.7158934 Z" id="Fill-22" fill="#FEFEFE" mask="url(#mask-2)"></path>
                <path d="M99.2631579,15.44485 C99.3276961,15.1672663 99.381478,14.92251 99.4254388,14.7110637 L96.0797413,14.7110637 C96.3706309,15.5785729 96.6025942,16.4291857 96.7746961,17.2633849 L98.713648,17.2633849 C98.9072625,16.7188382 99.0910561,16.112499 99.2631579,15.44485 L99.2631579,15.44485 Z M95.2884469,8.055815 L100.60443,8.055815 C99.721005,7.29982201 98.843192,6.32176211 97.9700557,5.12018703 C97.5720702,5.73183654 96.6778888,6.71086195 95.2884469,8.055815 L95.2884469,8.055815 Z M100.798045,11.5089554 L94.8848494,11.5089554 C94.8408886,11.5089554 94.8249879,11.5311621 94.8362119,11.5750927 L94.8362119,13.3101111 C94.8249879,13.3545245 94.8408886,13.383007 94.8848494,13.3931449 L100.798045,13.3931449 C100.84107,13.383007 100.86305,13.3545245 100.86305,13.3101111 L100.86305,11.5750927 C100.86305,11.5311621 100.84107,11.5089554 100.798045,11.5089554 L100.798045,11.5089554 Z M100.103557,17.2633849 L103.012453,17.2633849 L103.012453,18.5808209 L92.4604581,18.5808209 L92.4604581,17.2633849 L95.4338917,17.2633849 C95.3258604,16.8071822 95.2014607,16.3398762 95.0620956,15.8619496 C94.9002824,15.3734024 94.7819624,14.9896128 94.7066678,14.7110637 L93.8339992,14.7110637 C93.6071802,14.7110637 93.4944722,14.5889269 93.4944722,14.3446533 L93.4944722,10.5410334 C93.4944722,10.3078631 93.6071802,10.1910366 93.8339992,10.1910366 L101.848427,10.1910366 C102.085067,10.1910366 102.203855,10.3078631 102.203855,10.5410334 L102.203855,14.3446533 C102.203855,14.5889269 102.085067,14.7110637 101.848427,14.7110637 L100.782144,14.7110637 C100.426248,16.0787062 100.200365,16.9298017 100.103557,17.2633849 L100.103557,17.2633849 Z M94.7871068,8.4391218 C94.2380644,8.86201443 93.6188719,9.24580398 92.9290615,9.59049044 L92.1691008,8.4391218 C92.8696676,8.09491809 93.5159849,7.73864553 94.108988,7.37175238 C93.6235486,7.00534198 93.0908746,6.63844883 92.5090955,6.27107292 L93.2685885,5.22011714 C94.1730586,5.84286999 94.7871068,6.28748656 95.1102654,6.55444961 C95.7028009,5.98769624 96.2574552,5.3374264 96.7746961,4.60267459 L93.2844892,4.60267459 L93.2844892,3.35234135 L97.841447,3.35234135 C98.0458179,3.35234135 98.2020191,3.42523722 98.3100504,3.56909796 C98.503665,3.86888829 98.71926,4.17012687 98.9563677,4.4699172 C99.4946536,3.8476471 99.9094752,3.31372102 100.200365,2.86813894 L101.169841,3.65213167 C100.814413,4.19716111 100.340665,4.79239697 99.7476621,5.43735651 C99.9314556,5.64832007 100.12507,5.85976639 100.329441,6.07072995 C100.997739,5.3374264 101.498611,4.71467355 101.832059,4.20295416 L102.785634,4.98646414 C102.387181,5.5870103 101.875084,6.22665954 101.25028,6.90541187 C101.800257,7.32782175 102.435351,7.73864553 103.15743,8.13933147 L102.236592,9.18980449 C101.794645,8.92380696 101.363455,8.63463723 100.944425,8.32277805 L100.944425,9.37373383 L94.7871068,9.37373383 L94.7871068,8.4391218 Z M90.6828517,14.2442404 L89.0993276,14.2442404 C89.0670585,14.2442404 89.0506901,14.2606541 89.0506901,14.2939641 L89.0506901,17.196282 C89.0506901,17.2411782 89.0670585,17.2633849 89.0993276,17.2633849 L90.6828517,17.2633849 C90.7258771,17.2633849 90.7473899,17.2411782 90.7473899,17.196282 L90.7473899,14.2939641 C90.7473899,14.2606541 90.7258771,14.2442404 90.6828517,14.2442404 L90.6828517,14.2442404 Z M88.0653134,4.70308745 L91.7014328,4.70308745 L91.7014328,3.38565138 L88.0653134,3.38565138 L88.0653134,4.70308745 Z M88.0007752,11.9086759 L91.7655033,11.9086759 L91.7655033,10.590757 L88.0007752,10.590757 L88.0007752,11.9086759 Z M88.0007752,9.57311129 L91.7655033,9.57311129 L91.7655033,8.25567522 L88.0007752,8.25567522 L88.0007752,9.57311129 Z M92.0241237,18.3809607 C92.0241237,18.5137181 91.9591179,18.5808209 91.8300415,18.5808209 L87.9516701,18.5808209 C87.8338177,18.5808209 87.7748916,18.5137181 87.7748916,18.3809607 L87.7748916,13.1097682 C87.7847126,12.9876314 87.8441064,12.9263216 87.9516701,12.9263216 L91.8300415,12.9263216 C91.9591179,12.9379077 92.0241237,12.9992175 92.0241237,13.1097682 L92.0241237,18.3809607 Z M87.7416871,7.10478933 L92.2177383,7.10478933 L92.2177383,5.78687051 L87.7416871,5.78687051 L87.7416871,7.10478933 Z" id="Fill-23" fill="#FEFEFE" mask="url(#mask-2)"></path>
                <path d="M115.769924,9.22654209 C115.414496,8.65978872 115.085725,8.05393226 114.784547,7.40848997 L113.84734,7.40848997 C113.523714,8.15386237 113.211312,8.75971883 112.910133,9.22654209 L115.769924,9.22654209 Z M110.43804,12.295893 L118.161578,12.295893 C117.493748,11.60652 116.998488,11.0455597 116.675329,10.6115637 L111.940657,10.6115637 C111.229334,11.4235562 110.728929,11.9849993 110.43804,12.295893 L110.43804,12.295893 Z M108.78951,3.6053528 L109.920331,2.72142995 C110.448329,3.28914883 110.986615,4.04562458 111.536592,4.99037444 L110.357133,5.82457361 C109.775354,4.84603095 109.252501,4.1064516 108.78951,3.6053528 L108.78951,3.6053528 Z M112.796958,13.6809146 L109.968969,13.6809146 L109.968969,12.7463026 C109.872162,12.8134054 109.786111,12.8853358 109.710348,12.9630592 C108.966756,13.6635355 108.267125,14.2143579 107.610519,14.6140784 L106.463329,13.4805716 C107.83079,12.6135452 109.04813,11.6567265 110.114414,10.6115637 L106.785552,10.6115637 L106.785552,9.22654209 L111.245703,9.22654209 C111.676425,8.61537534 112.026708,8.02062223 112.296085,7.44228276 C112.296085,7.42007607 112.30123,7.40848997 112.311986,7.40848997 L107.367799,7.40848997 L107.367799,6.02443383 L112.845128,6.02443383 C113.092992,5.05699452 113.28193,3.9727287 113.411006,2.77163638 L114.881354,2.92129017 C114.763034,3.82259216 114.557728,4.85665155 114.267306,6.02443383 L116.18989,6.02443383 C117.095295,4.7118253 117.730856,3.61742165 118.09704,2.7388091 L119.341505,3.47211265 C118.996833,4.26238119 118.527762,5.112994 117.935227,6.02443383 L121.150913,6.02443383 L121.150913,7.40848997 L116.270796,7.40848997 C116.63698,8.08772505 116.987264,8.69309875 117.321646,9.22654209 L121.667686,9.22654209 L121.667686,10.6115637 L118.38793,10.6115637 C119.303156,11.5678997 120.526108,12.5015462 122.05585,13.4134688 L120.908193,14.5474583 C120.2731,14.1144278 119.67542,13.6582252 119.114686,13.1798158 C119.114686,14.2254613 119.092705,15.1537975 119.050615,15.9653072 C119.007122,16.8110925 118.839697,17.4222592 118.549275,17.8002557 C118.291122,18.1449422 117.935227,18.3892158 117.482524,18.5345248 C116.717887,18.7899017 115.576309,18.6788683 114.057323,18.2009417 L114.122329,16.4992333 C114.713929,16.7772997 115.225558,16.9665393 115.656748,17.0664694 C116.368071,17.2108129 116.933482,17.1002622 117.353916,16.7328863 C117.536306,16.52144 117.644337,16.1941327 117.676606,15.7485506 C117.763125,14.6140784 117.757513,13.9642913 117.660706,13.7972584 C117.61768,13.7195349 117.558286,13.6809146 117.482524,13.6809146 L114.299108,13.6809146 C114.116717,14.1815307 113.889898,14.6536642 113.620989,15.0982808 C113.469932,15.3203477 113.324487,15.5322768 113.185122,15.7326197 C112.053366,17.2001923 110.066244,18.1227355 107.222354,18.500732 L106.850558,16.8999193 C108.153949,16.7661964 109.134181,16.5943359 109.791723,16.3824068 C111.277972,15.8822735 112.279717,14.981937 112.796958,13.6809146 L112.796958,13.6809146 Z" id="Fill-24" fill="#FEFEFE" mask="url(#mask-2)"></path>
                <path d="M23.1944661,11.9712408 C23.1944661,18.5825588 18.0024151,23.9420954 11.597233,23.9420954 C5.19251869,23.9420954 0,18.5825588 0,11.9712408 C0,5.35895724 5.19251869,-9.65508294e-05 11.597233,-9.65508294e-05 C18.0024151,-9.65508294e-05 23.1944661,5.35895724 23.1944661,11.9712408" id="Fill-25" fill="#E62511" mask="url(#mask-2)"></path>
                <polygon id="Fill-26" fill="#FEFEFE" mask="url(#mask-2)" points="12.8851909 7.31565635 15.784733 7.31565635 15.784733 4.32258063 12.8851909 4.32258063"></polygon>
                <polygon id="Fill-27" fill="#FEFEFE" mask="url(#mask-2)" points="2.57689789 12.6359932 2.57689789 15.2964514 5.15374901 15.2964514 5.15374901 17.9564267 7.7310678 17.9564267 7.7310678 12.6359932"></polygon>
                <polygon id="Fill-28" fill="#FEFEFE" mask="url(#mask-2)" points="3.22129774 7.31531842 3.22129774 9.97625928 10.3078722 9.97625928 10.3078722 17.9566681 12.8856586 17.9566681 12.8856586 7.31531842"></polygon>
                <polygon id="Fill-29" fill="#FEFEFE" mask="url(#mask-2)" points="15.4624162 9.97611445 15.4624162 17.9565233 18.0392673 17.9565233 18.0392673 12.6360898 21.2605651 12.6360898 21.2605651 9.97611445"></polygon>
            </g>
        </g>
    </g>
</svg>