<svg xmlns="http://www.w3.org/2000/svg" xmlns:xlink="http://www.w3.org/1999/xlink" width="24" height="24" viewBox="0 0 24 24">
    <defs>
        <path id="mi2p1may3a" d="M0 0H24V24H0z"/>
    </defs>
    <g fill="none" fill-rule="evenodd">
        <g>
            <g transform="translate(-319.000000, -681.000000) translate(319.000000, 681.000000)">
                <mask id="tt1xfq2ffb" fill="#fff">
                    <use xlink:href="#mi2p1may3a"/>
                </mask>
                <path fill="#0D1623" d="M2.999 6v14c0 1.103.897 2 2 2h14c1.103 0 2-.897 2-2V6c0-1.103-.897-2-2-2h-2V2h-2v2h-6V2h-2v2h-2c-1.103 0-2 .897-2 2zM19 20H4.998V10H19v10zm0-12H4.998V6H19v2z" mask="url(#tt1xfq2ffb)"/>
            </g>
        </g>
    </g>
</svg>
