<svg width="320" height="293" viewBox="0 0 320 293" xmlns="http://www.w3.org/2000/svg">
    <g fill-rule="nonzero" fill="none">
        <ellipse fill="#EFF2F8" opacity=".45" cx="160" cy="288.5" rx="160" ry="18.5"/>
        <path fill="#EAB588" d="M302.963 150H252l14.037-23H317zM302.963 163H252l14.037 23H317z"/>
        <path fill="#C8D0DF" d="M166 267h103v25H166z"/>
        <path fill="#E5EBF6" d="M183 243h91v25h-91z"/>
        <path fill="#000" opacity=".08" d="m233 292-17.184-50H197l11.17 49.503 24.125.497"/>
        <path d="M189 37c-.824.456-73.458 10.158-83.224 30.802-9.766 20.643 75.875 6.425 75.875 6.425L189 37z" fill="#FFF"/>
        <path d="M179.882 52.74c-10.986 2.395-22.554-3.026-32.417-1.446C133.712 56.225 182 72 182 72l-2.118-19.26z" fill="#EEEEF0"/>
        <path fill="#294574" d="M49.56 292H26l41.453-114H91zM225 292h-23.547l-28.314-77.884L160 178h23.547l9.618 26.438 17.421 47.94z"/>
        <path d="M234 156.5c-.008 59.914-48.8 108.485-108.995 108.5C65.057 265 16.36 216.815 16 157.148 15.644 97.48 63.76 48.722 123.704 48.008 183.648 47.294 232.923 94.89 234 154.55v1.95z" fill="#D7E0EF"/>
        <ellipse fill="#C8D0DF" opacity=".5" cx="125.5" cy="159" rx="76.5" ry="77"/>
        <circle fill="#E6EBF5" opacity=".602" cx="125" cy="157" r="46"/>
        <circle fill="#294574" cx="127" cy="158" r="23"/>
        <path d="M234.944 157.315a106.78 106.78 0 0 1-.745 12.618 24.46 24.46 0 0 1-2.474 0c-6.577 0-13.618 1.197-18.354 5.732-6.493 6.22 1.743 20.383 4.216 27.283a38.545 38.545 0 0 1 2.235 9.46 108.296 108.296 0 0 1-12.34 16.89c-1.852.378-3.732.601-5.621.669a3.075 3.075 0 0 1-2.122-.46c-1.532-1.39.618-3.478 2.01-4.966 3.232-3.45 2.136-8.918.828-13.454a21823.79 21823.79 0 0 0-8.797-30.524c-.773-2.7-1.785-5.69-4.287-6.957-2.777-1.188-6.013-.397-7.912 1.934a12.506 12.506 0 0 0-2.628 8.111c-.127 7.541 3.4 14.609 5.621 21.83 2.22 7.22 2.699 15.901-2.417 21.494a4.144 4.144 0 0 1-3.176 1.67c-2.305-.167-3.064-3.117-3.078-5.398 0-5.663.717-11.367-.14-16.96-1.827-11.909-10.836-22.455-9.965-34.461l-28.965-7.945c-2.91-.793-6.563-2.782-5.706-5.676.703-2.323 3.78-2.782 6.24-2.782l50.89.361 25.901.181c7.027 0 13.801-1.614 20.842-.668-.056.71-.056 1.364-.056 2.018z" fill="#000" opacity=".08"/>
        <path fill="#D3D8E2" d="M125 151h187v14H125z"/>
        <path d="M175.018 212.222s-.78 3.261-4.22 3.93c-3.439.668-3.814 3.457-.534 3.826 3.28.368 10.736-3.919 10.736-3.919L179.7 211l-4.682 1.222zM205.026 212.222s-.782 3.261-4.224 3.93c-3.443.668-3.82 3.457-.536 3.826 3.284.368 10.734-3.919 10.734-3.919L209.713 211l-4.687 1.222zM195.1 9.651c-.26 3.1-.015 6.214.726 9.26.24.728.825 1.347 1.624 1.72a4.119 4.119 0 0 0 2.63.265c2.93-.51 5.222-2.385 5.85-4.79l1.95-4.947c.506-2.075-.62-4.189-2.82-5.292-3.9-2.288-9.879.292-9.96 3.784z" fill="#FFB9AC"/>
        <path fill="#FFB9AC" d="M205.195 12 210 30.656 201 33l.12-14.512zM195.165 14l-1.053 2.767a1.966 1.966 0 0 0-.065 1.084c.081.358.256.616.464.682L196 19l-.835-5z"/>
        <path d="M201.128 20.67c1.88-.561 3.547-1.48 4.847-2.67 0 0 .679 3.919-4.975 7l.128-4.33z" fill="#CE8172" opacity=".31"/>
        <path d="M203.957 12.513c.184.113.378.209.578.285.537.154 1.094.22 1.65.194.399.032.8-.035 1.17-.194 1.41-.689 1.41-3.144 1.551-4.492a8.875 8.875 0 0 0-.733-5.03c-1.918-3.309-11.887-5.899-13.932 1.497-1.298 4.686 2.919 5.524 6.134 5.51 1.072 0 1.805 1.047 2.623 1.706.308.198.628.373.959.524z" fill="#192639"/>
        <path d="M201 12.824s0-2.999 1.169-2.816c1.168.183 1.168 4.535-.406 4.992L201 12.824z" fill="#FFB9AC"/>
        <path d="m198.612 32.298 8.895-2.003s56.046-6.908 48.856 46.158c-6.75 49.833-11.685 62.848-11.685 62.848L194.172 141s-2.75-42.235-10.997-52.845c-8.248-10.61-24.03-41.903 15.437-55.857z" fill="#FFF"/>
        <path d="m191.782 123-24.052 24.34c-9.914 10.021-12.527 25.047-6.566 37.76l13.552 28.9 7-1.672-6.72-25.985c-2.73-10.564 1.93-21.64 11.438-27.186L214 143.055 191.782 123z" fill="#0D244E"/>
        <path d="M191.062 123 247 126.304s-.097 19.728-6.752 24.189c-3.694 2.478-17.405 7.379-28.889 11.261-9.412 3.15-14.478 13.294-11.317 22.66l9.242 27.535-7.831 2.051-16.907-33.04c-4.946-9.703-2.521-21.517 5.852-28.512l16.866-14.043L191.062 123z" fill="#0D244E"/>
        <path d="M223.029 57.423c-.371-5.095 2.913-14.296 7.377-16.852 4.464-2.556 10.794-3.786 15.065-.923 4.121 2.696 3.315 6.847 5.695 11.134 4.921 9.037 7.453 29.112 8.726 44.677 1.036 12.509-5.421 24.459-16.504 30.541l-10.917-1.426h-8.102l6.037-6.195c8.812-12.193-6.119-43.85-7.377-60.956z" fill="#EEEEF0"/>
        <path d="M225.131 52.085a13.13 13.13 0 0 1 6.551-12.322 13.213 13.213 0 0 1 13.98.494 29.75 29.75 0 0 1 9.69 10.476c4.818 8.902 7.296 28.68 8.542 44.015 1.014 12.323-5.307 24.096-16.156 30.088L214.748 143 210 136.817l25.03-19.489c6.562-5.089 8.465-14.165 4.499-21.449-5.87-10.613-13.166-26.941-14.398-43.794z" fill="#FFF"/>
        <path d="M208.89 139s-9.598 5.402-4.29 8.301c5.307 2.899 7.4-4.156 7.4-4.156L208.89 139zM84.21 60.875c.31.684.82 1.229 1.446 1.547 2.184 1.154 4.792.542 6.371-1.496.435-.533.742-1.179.896-1.878.596-2.876-2.377-5.65-4.845-4.934-2.158.64-4.855 4.333-3.868 6.761z" fill="#FFB9AC"/>
    </g>
</svg>
