<svg width="60" height="60" viewBox="0 0 60 60" fill="none" xmlns="http://www.w3.org/2000/svg">
<rect x="10.75" y="21.75" width="39" height="22" rx="2" fill="url(#paint0_linear_232_12492)"/>
<path fill-rule="evenodd" clip-rule="evenodd" d="M51.4918 15.8494C52.0864 15.3508 52.5215 14.6874 52.7428 13.9421L52.75 13.0821C52.5899 12.6413 52.3742 12.2229 52.1083 11.837C51.3555 10.9949 50.549 10.1961 49.7209 9.426C49.2848 9.00812 48.7098 8.76754 48.1071 8.75092C47.5045 8.7343 46.9171 8.94282 46.4588 9.33603C45.8492 9.8688 45.3036 10.4659 44.7813 11.0375C44.6156 11.2187 44.4523 11.3974 44.2901 11.5707L50.0579 17.3607C50.1822 17.2278 50.3086 17.0896 50.4374 16.9486C50.7691 16.5856 51.1174 16.2044 51.4918 15.8494ZM48.0827 19.3868L42.2719 13.55C42.2282 13.5733 42.1863 13.5998 42.1465 13.6292C38.98 16.8055 35.8159 19.9842 32.6542 23.1653C32.4803 23.3341 32.3361 23.5312 32.2276 23.7482C31.1259 26.0969 30.0325 28.4479 28.9476 30.8014C28.863 30.9666 28.8038 31.1437 28.7719 31.3267C28.7279 31.5546 28.7505 31.7903 28.837 32.0055C28.9235 32.2207 29.0702 32.4061 29.2594 32.5395C29.4618 32.6967 29.706 32.7901 29.9612 32.8081C30.2164 32.826 30.4712 32.7676 30.6933 32.6402C31.3716 32.3225 32.0509 32.0066 32.7304 31.6905C34.2522 30.9827 35.775 30.2744 37.2892 29.5455C37.7871 29.3041 38.2443 28.986 38.6442 28.6027C40.7877 26.5048 42.9167 24.3941 45.044 22.2849C45.898 21.4383 46.7517 20.5919 47.606 19.7467C47.7574 19.617 47.9166 19.4968 48.0827 19.3868Z" fill="#172439"/>
<path fill-rule="evenodd" clip-rule="evenodd" d="M9 9.75C9 8.7835 9.7835 8 10.75 8H33.306V11.5H12.5V48H43V34.8852H46.5V49.75C46.5 50.7165 45.7165 51.5 44.75 51.5H10.75C9.7835 51.5 9 50.7165 9 49.75V9.75Z" fill="#172439"/>
<defs>
<linearGradient id="paint0_linear_232_12492" x1="10.75" y1="29.0833" x2="49.75" y2="29.0833" gradientUnits="userSpaceOnUse">
<stop stop-color="#DAA360"/>
<stop offset="1" stop-color="#DAA360" stop-opacity="0"/>
</linearGradient>
</defs>
</svg>
