<svg width="60" height="60" viewBox="0 0 60 60" fill="none" xmlns="http://www.w3.org/2000/svg">
<path d="M45.8862 51C45.8862 48.7675 45.4982 46.5569 44.7444 44.4944C43.9906 42.4318 42.8857 40.5578 41.4928 38.9792C40.1 37.4006 38.4464 36.1484 36.6265 35.294C34.8066 34.4397 32.8561 34 30.8862 34C28.9164 34 26.9659 34.4397 25.146 35.294C23.3261 36.1484 21.6725 37.4006 20.2796 38.9792C18.8867 40.5578 17.7819 42.4318 17.028 44.4944C16.2742 46.5569 15.8862 48.7675 15.8862 51L30.8862 51H45.8862Z" fill="url(#paint0_linear_232_12514)"/>
<circle cx="30.8862" cy="23" r="8" fill="#DAA360"/>
<path fill-rule="evenodd" clip-rule="evenodd" d="M50.3862 27.5C50.3862 37.9934 41.8796 46.5 31.3862 46.5C20.8928 46.5 12.3862 37.9934 12.3862 27.5C12.3862 17.0066 20.8928 8.5 31.3862 8.5C41.8796 8.5 50.3862 17.0066 50.3862 27.5ZM53.8862 27.5C53.8862 39.9264 43.8126 50 31.3862 50C26.4652 50 21.9132 48.4202 18.2096 45.7401L8.47485 55.4749L5.99997 53L15.5333 43.4667C11.4281 39.3906 8.88623 33.7421 8.88623 27.5C8.88623 15.0736 18.9598 5 31.3862 5C43.8126 5 53.8862 15.0736 53.8862 27.5Z" fill="#172439"/>
<defs>
<linearGradient id="paint0_linear_232_12514" x1="30.9464" y1="33.7058" x2="30.9464" y2="53.6186" gradientUnits="userSpaceOnUse">
<stop offset="0.190476" stop-color="#DAA360"/>
<stop offset="0.737004" stop-color="#DAA360" stop-opacity="0"/>
</linearGradient>
</defs>
</svg>
