<svg width="60" height="60" viewBox="0 0 60 60" fill="none" xmlns="http://www.w3.org/2000/svg">
<path d="M29.669 17.6193C28.5076 10.8075 21.892 6.08326 14.9851 7.15055C8.67104 8.1268 4.03541 13.4612 4 20.122C4.0344 20.463 4.07082 21.1372 4.17401 21.8014C4.5534 24.234 5.55094 26.4306 6.89348 28.4792C9.36608 32.2481 12.6015 35.2809 16.273 37.8816C16.8133 38.2647 17.0824 38.2877 17.5993 37.8726C19.1098 36.6673 20.6598 35.501 22.0842 34.2017C24.6418 31.868 26.8119 29.2173 28.3184 26.0835C29.6113 23.3968 30.1759 20.5961 29.669 17.6193Z" fill="url(#paint0_linear_232_12525)"/>
<circle cx="16.9272" cy="20.2226" r="4.56241" fill="white"/>
<path fill-rule="evenodd" clip-rule="evenodd" d="M53.12 29.75H39.5082L39.4893 29.7505C39.4663 29.7512 39.4253 29.7528 39.3687 29.7565C39.255 29.764 39.0823 29.7796 38.8709 29.8119C38.4393 29.8779 37.893 30.0067 37.3699 30.2468C36.85 30.4854 36.4049 30.8093 36.0897 31.2433C35.788 31.6586 35.53 32.2762 35.53 33.25C35.53 34.2238 35.788 34.8414 36.0897 35.2567C36.4049 35.6907 36.85 36.0146 37.3699 36.2532C37.893 36.4933 38.4393 36.6221 38.8709 36.6881C39.0823 36.7204 39.255 36.736 39.3687 36.7435C39.4253 36.7472 39.4663 36.7488 39.4893 36.7495L39.5082 36.75H47.28V38.5C47.28 36.75 47.2808 36.75 47.2816 36.75L47.2834 36.75L47.2874 36.75L47.2969 36.7501L47.3223 36.7504C47.342 36.7506 47.3673 36.7512 47.3978 36.7521C47.4586 36.754 47.5404 36.7575 47.6403 36.764C47.8394 36.7771 48.1135 36.8025 48.4384 36.8522C49.0793 36.9502 49.963 37.1496 50.8699 37.5657C51.78 37.9834 52.7649 38.6438 53.5222 39.6864C54.293 40.7476 54.75 42.0988 54.75 43.75C54.75 45.4012 54.293 46.7524 53.5222 47.8136C52.7649 48.8562 51.78 49.5166 50.8699 49.9343C49.963 50.3504 49.0793 50.5498 48.4384 50.6478C48.1135 50.6975 47.8394 50.7229 47.6403 50.736C47.5404 50.7425 47.4586 50.746 47.3978 50.7479C47.3673 50.7488 47.342 50.7494 47.3223 50.7496L47.2969 50.7499L47.2874 50.75L47.2816 50.75C47.2808 50.75 47.28 50.75 47.28 49V50.75H18V47.25H47.2718L47.2907 47.2495C47.3137 47.2488 47.3547 47.2472 47.4113 47.2435C47.525 47.236 47.6977 47.2204 47.9091 47.1881C48.3407 47.1221 48.887 46.9933 49.4101 46.7532C49.93 46.5146 50.3751 46.1907 50.6903 45.7567C50.992 45.3414 51.25 44.7238 51.25 43.75C51.25 42.7762 50.992 42.1586 50.6903 41.7433C50.3751 41.3093 49.93 40.9854 49.4101 40.7468C48.887 40.5067 48.3407 40.3779 47.9091 40.3119C47.6977 40.2796 47.525 40.264 47.4113 40.2565C47.3547 40.2528 47.3137 40.2512 47.2907 40.2505L47.2718 40.25H39.5V38.5C39.5 40.25 39.4992 40.25 39.4984 40.25L39.4966 40.25L39.4926 40.25L39.4831 40.2499L39.4577 40.2496C39.438 40.2494 39.4127 40.2488 39.3822 40.2479C39.3214 40.246 39.2396 40.2425 39.1397 40.236C38.9406 40.2229 38.6665 40.1975 38.3416 40.1478C37.7007 40.0498 36.817 39.8504 35.9101 39.4343C35 39.0166 34.0151 38.3562 33.2578 37.3136C32.487 36.2524 32.03 34.9012 32.03 33.25C32.03 31.5988 32.487 30.2476 33.2578 29.1864C34.0151 28.1438 35 27.4834 35.9101 27.0657C36.817 26.6496 37.7007 26.4502 38.3416 26.3522C38.6665 26.3025 38.9406 26.2771 39.1397 26.264C39.2396 26.2575 39.3214 26.254 39.3822 26.2521C39.4127 26.2512 39.438 26.2506 39.4577 26.2504L39.4831 26.2501L39.4926 26.25L39.4966 26.25L39.4984 26.25C39.4992 26.25 39.5 26.25 39.5 28V26.25H53.12V29.75Z" fill="#172439"/>
<path d="M23 48C23 51.3137 20.3137 54 17 54C13.6863 54 11 51.3137 11 48C11 44.6863 13.6863 42 17 42C20.3137 42 23 44.6863 23 48Z" fill="white"/>
<path fill-rule="evenodd" clip-rule="evenodd" d="M17 50.5C18.3807 50.5 19.5 49.3807 19.5 48C19.5 46.6193 18.3807 45.5 17 45.5C15.6193 45.5 14.5 46.6193 14.5 48C14.5 49.3807 15.6193 50.5 17 50.5ZM17 54C20.3137 54 23 51.3137 23 48C23 44.6863 20.3137 42 17 42C13.6863 42 11 44.6863 11 48C11 51.3137 13.6863 54 17 54Z" fill="#172439"/>
<path d="M56 26C56 29.866 52.866 33 49 33C45.134 33 42 29.866 42 26C42 22.134 45.134 19 49 19C52.866 19 56 22.134 56 26Z" fill="white"/>
<path fill-rule="evenodd" clip-rule="evenodd" d="M49 29.5C50.933 29.5 52.5 27.933 52.5 26C52.5 24.067 50.933 22.5 49 22.5C47.067 22.5 45.5 24.067 45.5 26C45.5 27.933 47.067 29.5 49 29.5ZM49 33C52.866 33 56 29.866 56 26C56 22.134 52.866 19 49 19C45.134 19 42 22.134 42 26C42 29.866 45.134 33 49 33Z" fill="#172439"/>
<defs>
<linearGradient id="paint0_linear_232_12525" x1="16.8633" y1="17.8252" x2="16.8633" y2="49.8676" gradientUnits="userSpaceOnUse">
<stop offset="0.141892" stop-color="#DAA360"/>
<stop offset="1" stop-color="#DAA360" stop-opacity="0"/>
</linearGradient>
</defs>
</svg>
