<svg width="60" height="60" viewBox="0 0 60 60" fill="none" xmlns="http://www.w3.org/2000/svg">
<rect width="42" height="35" rx="2" transform="matrix(-1 0 0 1 55.75 18.75)" fill="url(#paint0_linear_232_12498)"/>
<path fill-rule="evenodd" clip-rule="evenodd" d="M4 38.75C4 39.7165 4.7835 40.5 5.75 40.5L14 40.5L14 37L7.5 37L7.5 12.5L43 12.5L43 28.5L46.5 28.5L46.5 10.75C46.5 9.7835 45.7165 9 44.75 9L5.75 9C4.7835 9 4 9.7835 4 10.75L4 38.75Z" fill="#172439"/>
<path fill-rule="evenodd" clip-rule="evenodd" d="M29.4643 40.6786C31.7918 40.6786 33.6786 38.7918 33.6786 36.4643C33.6786 34.1368 31.7918 32.25 29.4643 32.25C27.1368 32.25 25.25 34.1368 25.25 36.4643C25.25 38.7918 27.1368 40.6786 29.4643 40.6786ZM29.4643 44.1786C33.2367 44.1786 36.3766 41.4708 37.0466 37.8928H41.755C41.8283 38.9307 42.6935 39.75 43.75 39.75H45.75C46.8065 39.75 47.6717 38.9307 47.745 37.8928H48.0002C48.9667 37.8928 49.7502 37.1093 49.7502 36.1428C49.7502 35.1763 48.9667 34.3928 48.0002 34.3928H36.8973C35.9922 31.1383 33.0072 28.75 29.4643 28.75C25.2038 28.75 21.75 32.2038 21.75 36.4643C21.75 40.7248 25.2038 44.1786 29.4643 44.1786Z" fill="#172439"/>
<defs>
<linearGradient id="paint0_linear_232_12498" x1="5" y1="21" x2="45.5" y2="6" gradientUnits="userSpaceOnUse">
<stop offset="0.322917" stop-color="#DAA360"/>
<stop offset="1" stop-color="#DAA360" stop-opacity="0"/>
</linearGradient>
</defs>
</svg>
