<svg width="60" height="60" viewBox="0 0 60 60" fill="none" xmlns="http://www.w3.org/2000/svg">
<path d="M45.5 45.1333C45.5 42.752 45.0861 40.394 44.2821 38.194C43.478 35.994 42.2994 33.995 40.8137 32.3111C39.328 30.6273 37.5641 29.2916 35.6229 28.3803C33.6817 27.469 31.6012 27 29.5 27C27.3988 27 25.3183 27.469 23.3771 28.3803C21.4359 29.2916 19.672 30.6273 18.1863 32.3111C16.7006 33.995 15.522 35.994 14.7179 38.194C13.9139 40.394 13.5 42.752 13.5 45.1333L29.5 45.1333H45.5Z" fill="url(#paint0_linear_232_12507)"/>
<path fill-rule="evenodd" clip-rule="evenodd" d="M5 13.8398C5 11.9068 6.567 10.3398 8.5 10.3398H50.5C52.433 10.3398 54 11.9068 54 13.8398V41.3693C54 43.3023 52.433 44.8693 50.5 44.8693H30.5517L22.0266 52.4546C20.9966 53.371 19.5247 53.5975 18.267 53.033C17.0093 52.4686 16.2 51.2184 16.2 49.8398V44.8693H8.5C6.567 44.8693 5 43.3023 5 41.3693V13.8398ZM19.7 41.3693V49.8398L29.22 41.3693H50.5V13.8398H8.5V41.3693H19.7Z" fill="#172439"/>
<circle cx="29.5" cy="15" r="9" fill="#DAA360"/>
<defs>
<linearGradient id="paint0_linear_232_12507" x1="29.5641" y1="26.6862" x2="29.5641" y2="47.9265" gradientUnits="userSpaceOnUse">
<stop offset="0.190476" stop-color="#DAA360"/>
<stop offset="0.737004" stop-color="#DAA360" stop-opacity="0"/>
</linearGradient>
</defs>
</svg>
