<svg width="28" height="28" viewBox="0 0 28 28" xmlns="http://www.w3.org/2000/svg" xmlns:xlink="http://www.w3.org/1999/xlink">
    <defs>
        <path id="a" d="M0 0h28v28H0z"/>
        <path d="M12.706 11.056A7.002 7.002 0 0 0 2.05 2.05a7 7 0 0 0 9.006 10.656l6.668 6.668 1.65-1.65-6.668-6.668c1.3-1.822 1.3-1.822 0 0zM10.3 3.7a4.667 4.667 0 1 1-6.6 6.6 4.667 4.667 0 0 1 6.6-6.6c1.215 1.215 1.215 1.215 0 0z" id="c"/>
    </defs>
    <g fill="none" fill-rule="evenodd">
        <mask id="b" fill="#fff">
            <use xlink:href="#a"/>
        </mask>
        <g mask="url(#b)">
            <g transform="translate(4.667 4.667)">
                <mask id="d" fill="#fff">
                    <use xlink:href="#c"/>
                </mask>
                <use fill="#0D1623" xlink:href="#c"/>
                <g mask="url(#d)">
                    <path d="M-3.5-3.5h28v28h-28z" fill="#0D1623"/>
                </g>
            </g>
        </g>
    </g>
</svg>
