<svg width="60" height="60" viewBox="0 0 60 60" xmlns="http://www.w3.org/2000/svg">
    <defs>
        <filter x="-12.8%" y="-16.4%" width="125.6%" height="132.9%" filterUnits="objectBoundingBox" id="a">
            <feOffset dy="2" in="SourceAlpha" result="shadowOffsetOuter1"/>
            <feGaussianBlur stdDeviation="5" in="shadowOffsetOuter1" result="shadowBlurOuter1"/>
            <feColorMatrix values="0 0 0 0 0.422112901 0 0 0 0 0.481916874 0 0 0 0 0.579059103 0 0 0 0.19960118 0" in="shadowBlurOuter1" result="shadowMatrixOuter1"/>
            <feMerge>
                <feMergeNode in="shadowMatrixOuter1"/>
                <feMergeNode in="SourceGraphic"/>
            </feMerge>
        </filter>
    </defs>
    <g filter="url(#a)" transform="translate(-60 -26)" fill="none" fill-rule="evenodd">
        <g transform="translate(65 32)">
            <circle fill="#EDEDED" transform="rotate(180 43 11)" cx="43" cy="11" r="7"/>
            <circle fill="#EDEDED" transform="rotate(180 10 35)" cx="10" cy="35" r="10"/>
            <path d="M26.456 32c5.14 0 9.74 3.188 11.544 8l1.987 5.298A2 2 0 0 1 38.114 48H9.886a2 2 0 0 1-1.873-2.702L10 40c1.805-4.812 6.405-8 11.544-8h4.912z" fill="#FFF" fill-rule="nonzero"/>
            <path d="M26.456 32c1.287 0 2.54.2 3.724.575l-.9 2.652a9.513 9.513 0 0 0-2.541-.423l-.283-.004h-4.912a9.53 9.53 0 0 0-8.819 5.92l-.103.263L11.04 45.2h16.603L25.507 48H9.886a2 2 0 0 1-1.873-2.702L10 40c1.805-4.812 6.405-8 11.544-8h4.912zM12 10a2 2 0 0 1 2 2v7a2 2 0 0 1-2 2h-1.5A3.5 3.5 0 0 1 7 17.5v-4a3.5 3.5 0 0 1 3.5-3.5H12zm-.8 8.2v-5.4h-.7a.7.7 0 0 0-.694.605L9.8 13.5v4a.7.7 0 0 0 .605.694l.095.006h.7z" fill="#192639" fill-rule="nonzero"/>
            <path d="M37.5 10a3.5 3.5 0 0 1 3.5 3.5v4a3.5 3.5 0 0 1-3.5 3.5H36a2 2 0 0 1-2-2v-7a2 2 0 0 1 2-2h1.5z" fill="#FFF" fill-rule="nonzero"/>
            <path d="M37.5 10a3.5 3.5 0 0 1 3.5 3.5v4a3.5 3.5 0 0 1-3.5 3.5H36a2 2 0 0 1-2-2v-7a2 2 0 0 1 2-2h1.5zm-.7 8.2h.7a.7.7 0 0 0 .694-.605l.006-.095v-4a.7.7 0 0 0-.605-.694L37.5 12.8h-.7v5.4z" fill="#192639" fill-rule="nonzero"/>
            <path d="M24 0c7.18 0 13 5.596 13 12.5 0 .401-.02.798-.058 1.19-.352.087-.711.157-1.077.208.089.683.135 1.386.135 2.102 0 7.732-5.373 14-12 14-6.401 0-11.632-5.847-11.981-13.213a9.52 9.52 0 0 1-.28-.12A12.054 12.054 0 0 1 11 12.5C11 5.596 16.82 0 24 0z" fill="#FFF" fill-rule="nonzero"/>
            <path d="M24 27.2c4.977 0 9.2-4.927 9.2-11.2 0-1.807-.35-3.502-.968-5l2.98-.001C35.72 12.552 36 14.238 36 16c0 7.732-5.373 14-12 14s-12-6.268-12-14h2.8c0 6.273 4.223 11.2 9.2 11.2z" fill="#192639" fill-rule="nonzero"/>
            <path d="m34.083 19.177 1.541 2.337-1.168.771-.151.098-.357.219c-.392.232-.884.502-1.446.773-.784.38-1.558.685-2.306.89l-.343.087c-.778.182-1.803.245-3.098.198a3 3 0 1 1 .048-2.801c1.085.042 1.896-.003 2.413-.123l.24-.061c.565-.155 1.186-.4 1.828-.71.418-.203.818-.42 1.185-.635l.229-.136.216-.136 1.169-.771zM24 0c7.18 0 13 5.596 13 12.5 0 .401-.02.798-.058 1.19-.818.203-1.675.31-2.557.31-1.726 0-3.352-.41-4.782-1.136C27.381 15.928 23.122 18 18.233 18c-2.365 0-4.582-.485-6.493-1.332A12.054 12.054 0 0 1 11 12.5C11 5.596 16.82 0 24 0zm0 2.8c-5.657 0-10.2 4.368-10.2 9.7 0 .553.048 1.099.144 1.633l.083.415.387.12c1.065.31 2.202.49 3.377.525l.442.007c3.79 0 7.158-1.499 8.937-3.759l.167-.221 1.403-1.934 2.13 1.081a7.716 7.716 0 0 0 3.176.826h.061l-.003-.026c-.67-4.62-4.77-8.231-9.817-8.363L24 2.8z" fill="#192639" fill-rule="nonzero"/>
            <path d="M39 31a8 8 0 1 1-3.97 14.948l-3.54 3.542a1.4 1.4 0 0 1-2.076-1.874l.096-.106 3.364-3.364A8 8 0 0 1 39 31zm0 2.8a5.2 5.2 0 1 0 0 10.4 5.2 5.2 0 0 0 0-10.4z" fill="#C43826" fill-rule="nonzero"/>
        </g>
    </g>
</svg>
