<svg width="60" height="60" viewBox="0 0 60 60" xmlns="http://www.w3.org/2000/svg">
    <g fill="none" fill-rule="evenodd">
        <circle fill="#EDEDED" cx="12" cy="48" r="7"/>
        <circle fill="#EDEDED" cx="45" cy="15" r="10"/>
        <circle fill="#C43826" cx="30" cy="16" r="7"/>
        <path d="M43.214 44.753V52H32.867v-3.274c-.635.07-1.279.115-1.931.133l-.656.01c-.877 0-1.74-.05-2.586-.143V52H17.347v-7.247c-2.288-1.716-4.064-3.88-5.12-6.324H7v-10.44h5.228a14.736 14.736 0 0 1 2.156-3.506c-.518-2.128-1.48-3.504-2.882-4.127-.581-.258-.819-1.389-.597-2.297.122-.499.478-.697 1.161-.805a20.149 20.149 0 0 1 2.755-.25l.448-.004c2.677.012 5.18.611 7.509 1.8a22.692 22.692 0 0 1 6.934-1.243l.568-.007c10.572 0 19.142 7.011 19.142 15.66l-.002.061c.406.015.941-.172 1.658-.74.486-.386.86-1.3 1.006-2.802a1.452 1.452 0 0 1 1.317-1.296l.138-.007.14.007a1.447 1.447 0 0 1 1.314 1.573c-.216 2.201-.873 3.81-2.084 4.77-1.088.863-2.16 1.288-3.15 1.362l-.227.011a4.112 4.112 0 0 1-.445-.014c-.78 3.383-2.892 6.382-5.873 8.618z" fill="#FFF" fill-rule="nonzero"/>
        <path d="M43.214 44.753V52H32.867v-3.274c-.635.07-1.279.115-1.931.133l-.656.01c-.877 0-1.74-.05-2.586-.143V52H17.347v-7.247c-2.288-1.716-4.064-3.88-5.12-6.324H7v-10.44h5.228a14.736 14.736 0 0 1 2.156-3.506c-.518-2.128-1.48-3.504-2.882-4.127-.581-.258-.819-1.389-.597-2.297.122-.499.478-.697 1.161-.805a20.149 20.149 0 0 1 2.755-.25l.448-.004c2.677.012 5.18.611 7.509 1.8a22.692 22.692 0 0 1 6.934-1.243l.568-.007c10.572 0 19.142 7.011 19.142 15.66l-.002.061c.406.015.941-.172 1.658-.74.486-.386.86-1.3 1.006-2.802a1.452 1.452 0 0 1 1.317-1.296l.138-.007.14.007a1.447 1.447 0 0 1 1.314 1.573c-.216 2.201-.873 3.81-2.084 4.77-1.088.863-2.16 1.288-3.15 1.362l-.227.011a4.112 4.112 0 0 1-.445-.014c-.78 3.383-2.892 6.382-5.873 8.618zM31.688 20.397l-.35-.02-.34-.014a21.047 21.047 0 0 0-.358-.01l-.36-.003c-.249 0-.497.005-.743.013l-.312.014-.275.016-.286.02c-1.78.137-3.47.5-5.028 1.049l.065-.02a2.8 2.8 0 0 1-2.195-.148c-1.875-.957-3.884-1.455-6.055-1.492l-.218-.001.058.07c.831 1.055 1.433 2.386 1.813 3.95a2.8 2.8 0 0 1-.557 2.44 11.938 11.938 0 0 0-1.749 2.84 2.8 2.8 0 0 1-2.374 1.682l-.196.007-2.428-.001v4.84h2.428a2.8 2.8 0 0 1 2.486 1.512l.084.177a12.162 12.162 0 0 0 2.194 3.353l.354.374c.509.52 1.07 1.01 1.68 1.468a2.8 2.8 0 0 1 1.114 2.052l.006.188V49.2h4.747v-.474a2.8 2.8 0 0 1 2.937-2.796l.688.064.298.023.321.02.589.024a20.957 20.957 0 0 0 1.108 0l-.554.007.352-.003.536-.015.276-.014.33-.02.53-.045.255-.028a2.8 2.8 0 0 1 3.103 2.612l.005.171-.001.474h4.747l.001-4.447a2.8 2.8 0 0 1 .973-2.122l.147-.118c2.523-1.893 4.212-4.35 4.825-7.008.073-.317.198-.61.365-.872l.145-.207-.051-.119c-.12-.3-.189-.624-.198-.962l.002-.136-.004-.27-.01-.245-.019-.294a10.093 10.093 0 0 0-.057-.532l-.04-.265-.045-.263-.058-.286c-.095-.437-.22-.868-.37-1.29l-.179-.467a11.152 11.152 0 0 0-.332-.735l.092.191a11.467 11.467 0 0 0-.36-.697l-.12-.208-.14-.233a12.424 12.424 0 0 0-.733-1.057l-.361-.447-.049-.057-.308-.349-.387-.405-.148-.146-.343-.325a14.908 14.908 0 0 0-.804-.684l-.558-.422-.377-.264-.365-.24c-.2-.128-.403-.252-.61-.372l-.461-.259-.249-.131a17.473 17.473 0 0 0-.556-.276l-.403-.185-.396-.17-.43-.173-.526-.194c-.455-.16-.92-.304-1.397-.431l-.287-.075-.393-.094-.81-.168-.464-.08-.506-.075c-.338-.046-.68-.083-1.025-.112l-.346-.027z" fill="#192639" fill-rule="nonzero"/>
        <path d="M30.963 41v-1.69c1.246-.1 2.226-.448 2.943-1.043.716-.594 1.074-1.381 1.074-2.362 0-1.06-.373-1.892-1.118-2.497-.745-.606-1.863-1.116-3.353-1.53-.717-.298-1.192-.557-1.428-.778-.235-.222-.353-.52-.353-.896 0-.398.11-.716.329-.954.22-.238.593-.357 1.123-.357.51 0 .904.134 1.185.403.28.27.421.684.421 1.245h3.194l.02-.042c.019-1.026-.317-1.864-1.007-2.514-.69-.65-1.64-1.046-2.846-1.186V25h-1.529v1.774c-1.277.09-2.29.441-3.039 1.055-.748.614-1.122 1.4-1.122 2.359 0 1.065.36 1.877 1.079 2.438.72.56 1.85 1.076 3.392 1.547.697.252 1.17.495 1.418.727.248.233.372.573.372 1.022 0 .386-.12.696-.363.929-.242.232-.63.349-1.166.349-.606 0-1.089-.138-1.447-.412-.358-.275-.537-.735-.537-1.38h-3.184l-.02.051c-.031 1.222.372 2.146 1.21 2.77.84.626 1.91.986 3.214 1.081V41h1.538z" fill="#0D1623" fill-rule="nonzero"/>
    </g>
</svg>
