<svg width="60" height="60" viewBox="0 0 60 60" xmlns="http://www.w3.org/2000/svg">
    <g fill="none" fill-rule="evenodd">
        <circle fill="#EDEDED" cx="12" cy="48" r="7"/>
        <circle fill="#EDEDED" cx="45" cy="20" r="10"/>
        <path d="M30 8c7.18 0 13 5.552 13 12.4V23h-2.936v-2.6c0-5.212-4.354-9.454-9.782-9.596L30 10.8c-5.558 0-10.065 4.298-10.065 9.6V23H17v-2.6c0-6.748 5.65-12.236 12.684-12.396z" fill="#192639" fill-rule="nonzero"/>
        <path d="M44.674 23H15.326C13.49 23 12 24.384 12 26.09v21.82c0 1.706 1.49 3.09 3.326 3.09h29.348C46.51 51 48 49.616 48 47.91V26.09c0-1.706-1.49-3.09-3.326-3.09z" fill="#FFF" fill-rule="nonzero"/>
        <path d="M44.674 23C46.51 23 48 24.384 48 26.09v21.82c0 1.706-1.49 3.09-3.326 3.09H15.326C13.49 51 12 49.616 12 47.91V26.09c0-1.706 1.49-3.09 3.326-3.09zm0 2.545H15.326c-.324 0-.587.245-.587.546v21.818c0 .301.263.546.587.546h29.348c.324 0 .587-.245.587-.546V26.091c0-.301-.263-.546-.587-.546z" fill="#192639" fill-rule="nonzero"/>
        <path d="M22.6 34a2.6 2.6 0 1 1 0 5.2 2.6 2.6 0 0 1 0-5.2zm7.6 0a2.6 2.6 0 1 1 0 5.2 2.6 2.6 0 0 1 0-5.2zm7.6 0a2.6 2.6 0 1 1 0 5.2 2.6 2.6 0 0 1 0-5.2z" fill="#C43826"/>
    </g>
</svg>
