<svg width="60" height="60" viewBox="0 0 60 60" xmlns="http://www.w3.org/2000/svg">
    <g fill="none" fill-rule="evenodd">
        <circle fill="#EDEDED" cx="15" cy="17" r="9"/>
        <circle fill="#EDEDED" cx="42" cy="42" r="12"/>
        <path d="M25.327 16c10.666 0 19.311 8.507 19.311 19s-8.645 19-19.31 19c-4.181 0-8.052-1.307-11.213-3.529C9.212 47.025 6.016 41.38 6.016 35c0-10.493 8.646-19 19.311-19z" fill="#FFF" fill-rule="nonzero"/>
        <g transform="translate(6.016 16)">
            <path d="M19.311 0c3.9 0 7.53 1.137 10.565 3.093l-2.064 2.03A16.59 16.59 0 0 0 19.31 2.8C10.218 2.8 2.846 10.053 2.846 19c0 5.301 2.603 10.168 6.907 13.193A16.558 16.558 0 0 0 19.31 35.2c9.093 0 16.465-7.253 16.465-16.2 0-2.985-.82-5.782-2.252-8.184l2.07-2.036A18.69 18.69 0 0 1 38.621 19c0 10.493-8.646 19-19.311 19-4.18 0-8.051-1.307-11.212-3.529C3.196 31.025 0 25.38 0 19 0 8.507 8.646 0 19.311 0z" fill="#192639" fill-rule="nonzero"/>
            <path d="M19.311 7c1.81 0 3.527.388 5.071 1.083l-2.194 2.16A9.484 9.484 0 0 0 19.31 9.8c-5.164 0-9.35 4.119-9.35 9.2 0 3.011 1.477 5.774 3.923 7.493A9.398 9.398 0 0 0 19.31 28.2c5.164 0 9.35-4.119 9.35-9.2 0-1.137-.209-2.226-.592-3.231l2.16-2.125A11.793 11.793 0 0 1 31.506 19c0 6.627-5.46 12-12.196 12-2.64 0-5.085-.826-7.082-2.229C9.133 26.595 7.115 23.03 7.115 19c0-6.627 5.46-12 12.196-12z" fill="#C43826" fill-rule="nonzero"/>
            <ellipse fill="#C43826" cx="19.311" cy="19" rx="5.082" ry="5"/>
        </g>
        <g fill="#192639" fill-rule="nonzero">
            <path d="M51.255 7.51a1.44 1.44 0 0 1 2.012 0c.521.513.554 1.324.098 1.874l-.098.106-26.425 26a1.44 1.44 0 0 1-2.013 0 1.384 1.384 0 0 1-.097-1.874l.097-.106 26.426-26z"/>
            <path d="M45.105 4.924 38.5 11.892a1.4 1.4 0 0 0-.342 1.303l1.73 6.9a1.4 1.4 0 0 0 2.373.624l6.604-6.968a1.4 1.4 0 0 0 .342-1.303l-1.73-6.9a1.4 1.4 0 0 0-2.373-.624zM41.06 13.26l4.322-4.56.922 3.683-4.32 4.559-.924-3.682z"/>
            <path d="m40.102 18.651 6.846-6.736a1.4 1.4 0 0 1 1.265-.373l7.07 1.46a1.4 1.4 0 0 1 .699 2.368l-6.847 6.737a1.4 1.4 0 0 1-1.265.373l-7.07-1.46a1.4 1.4 0 0 1-.698-2.369zm3.832.157 3.77.778 4.446-4.373-3.771-.779-4.445 4.374z"/>
        </g>
    </g>
</svg>
