<svg width="60" height="60" viewBox="0 0 60 60" xmlns="http://www.w3.org/2000/svg">
    <g transform="translate(5 5)" fill="none" fill-rule="evenodd">
        <path d="M9.406 0c4.207 0 7.822 2.468 9.405 6H46a2 2 0 0 1 2 2v4a2 2 0 0 1-2 2H18.811c-1.583 3.532-5.199 6-9.405 6C5.199 20 1.584 17.532 0 14h7.68a2 2 0 0 0 1.79-1.106l.965-1.933a2 2 0 0 0 .015-1.756L9.46 7.137A2 2 0 0 0 7.657 6H0c1.583-3.532 5.199-6 9.406-6z" fill="#EDEDED"/>
        <path d="M40 6v13.607l4.043 2.47A2 2 0 0 1 45 23.783V46a2 2 0 0 1-2 2H23a1.99 1.99 0 0 1-1-.268c-.293.17-.635.268-1 .268H7a2 2 0 0 1-2-2V30.122a2 2 0 0 1 .957-1.707l14-8.555A1.99 1.99 0 0 1 21 19.566v-8a2 2 0 0 1 3.043-1.707L32 14.72V6h8z" fill="#FFF"/>
        <path d="M40 6v13.607l4.043 2.47A2 2 0 0 1 45 23.783V46a2 2 0 0 1-2 2H23a1.99 1.99 0 0 1-1-.268c-.293.17-.635.268-1 .268H7a2 2 0 0 1-2-2V30.122a2 2 0 0 1 .957-1.707l14-8.555A1.99 1.99 0 0 1 21 19.566v-8a2 2 0 0 1 3.043-1.707L32 14.72V6h8zm-2.8 2.8h-2.4v5.92c0 2.13-2.273 3.46-4.115 2.472l-.145-.083-6.741-4.118.001 6.575a2.8 2.8 0 0 1-2.464 2.78l-.091.007L7.8 30.57V45.2h13.005l.148-.064a2.8 2.8 0 0 1 2.092-.001l.146.065H42.2V24.233l-3.66-2.237a2.8 2.8 0 0 1-1.333-2.195l-.007-.194V8.8z" fill="#192639" fill-rule="nonzero"/>
        <path d="M24 32v9H12v-9h12zm-2.8 2.8h-6.4v3.4h6.4v-3.4zM39 32v16H29V32h10zm-2.8 2.8h-4.4v10.4h4.4V34.8z" fill="#192639" fill-rule="nonzero"/>
        <rect fill="#C43826" transform="rotate(30 34.19 17.578)" x="19.19" y="15.178" width="30" height="4.8" rx="2"/>
        <rect fill="#C43826" transform="scale(-1 1) rotate(30 0 -25.649)" x="1.592" y="22.678" width="24" height="4.8" rx="2"/>
    </g>
</svg>
