<svg width="60" height="60" viewBox="0 0 60 60" xmlns="http://www.w3.org/2000/svg">
    <g transform="translate(5 5)" fill="none" fill-rule="evenodd">
        <rect fill="#EDEDED" x="25" width="23" height="27" rx="2"/>
        <rect fill="#EDEDED" y="33" width="16" height="17" rx="2"/>
        <g transform="translate(4 2.858)">
            <path d="M28 5.142a6 6 0 0 1 6 6v30a2 2 0 0 1-2 2H8a2 2 0 0 1-2-2v-34a2 2 0 0 1 2-2h20z" fill="#FFF" fill-rule="nonzero"/>
            <path d="M28 5.142a6 6 0 0 1 6 6v30a2 2 0 0 1-2 2H8a2 2 0 0 1-2-2v-34a2 2 0 0 1 2-2h20zm-19.2 35.2h22.4v-29.2a3.2 3.2 0 0 0-3.018-3.195L28 7.942H8.8v32.4z" fill="#192639" fill-rule="nonzero"/>
            <path d="M7 5.142a2 2 0 0 1 2 2v8a2 2 0 0 1-2 2H2a2 2 0 0 1-2-2v-5.5a4.5 4.5 0 0 1 4.5-4.5H7zm-.8 2.8H4.5a1.7 1.7 0 0 0-1.694 1.553l-.006.147v4.7h3.4v-6.4z" fill="#192639" fill-rule="nonzero"/>
            <ellipse fill="#FFF" transform="rotate(45 35 14.142)" cx="35" cy="14.142" rx="7" ry="13"/>
            <path d="M44.192 4.95c2.734 2.733.835 9.065-4.242 14.142-4.447 4.447-9.857 6.456-12.968 5.049l-3.149 3.148a1.4 1.4 0 0 1-2.07-1.88l.09-.1 3.149-3.148c-1.408-3.11.6-8.521 5.048-12.969C35.127 4.116 41.46 2.216 44.192 4.95zM32.03 11.172c-3.123 3.123-4.698 6.6-4.713 8.674l5.85-5.85a1.4 1.4 0 0 1 2.07 1.88l-.09.1-5.85 5.85c2.075-.016 5.55-1.591 8.673-4.714 4.128-4.128 5.552-8.873 4.242-10.182-1.309-1.31-6.053.114-10.182 4.242zM18.5 27.242a1.4 1.4 0 0 1 .135 2.794l-.135.006h-6a1.4 1.4 0 0 1-.135-2.793l.135-.007h6zM26.5 33.242a1.4 1.4 0 0 1 .135 2.794l-.135.006h-14a1.4 1.4 0 0 1-.135-2.793l.135-.007h14z" fill="#C43826" fill-rule="nonzero"/>
        </g>
    </g>
</svg>
