<svg xmlns="http://www.w3.org/2000/svg" xmlns:xlink="http://www.w3.org/1999/xlink" width="100" height="100" viewBox="0 0 100 100">
    <defs>
        <path id="s9xqq058la" d="M0 84L84 84 84 0 0 0z"/>
    </defs>
    <g fill="none" fill-rule="evenodd">
        <g>
            <g>
                <path fill="#FFF" d="M0 0H100V100H0z" transform="translate(-1286 -1947) translate(1286 1947)"/>
                <g>
                    <path fill="#000" d="M0 2.897L2.897 2.897 2.897 0 0 0zM2.897 2.897L5.793 2.897 5.793 0 2.897 0zM5.793 2.897L8.69 2.897 8.69 0 5.793 0zM8.69 2.897L11.586 2.897 11.586 0 8.69 0zM11.586 2.897L14.483 2.897 14.483 0 11.586 0zM14.483 2.897L17.379 2.897 17.379 0 14.483 0zM17.379 2.897L20.276 2.897 20.276 0 17.379 0zM28.966 2.897L31.862 2.897 31.862 0 28.966 0zM31.862 2.897L34.759 2.897 34.759 0 31.862 0zM34.759 2.897L37.655 2.897 37.655 0 34.759 0zM37.655 2.897L40.552 2.897 40.552 0 37.655 0zM40.552 2.897L43.448 2.897 43.448 0 40.552 0zM43.448 2.897L46.345 2.897 46.345 0 43.448 0zM52.138 2.897L55.034 2.897 55.034 0 52.138 0zM63.724 2.897L66.621 2.897 66.621 0 63.724 0zM66.621 2.897L69.517 2.897 69.517 0 66.621 0zM69.517 2.897L72.414 2.897 72.414 0 69.517 0zM72.414 2.897L75.31 2.897 75.31 0 72.414 0zM75.31 2.897L78.207 2.897 78.207 0 75.31 0zM78.207 2.897L81.103 2.897 81.103 0 78.207 0zM81.103 2.897L84 2.897 84 0 81.103 0zM0 5.793L2.897 5.793 2.897 2.897 0 2.897zM17.379 5.793L20.276 5.793 20.276 2.897 17.379 2.897zM23.172 5.793L26.069 5.793 26.069 2.897 23.172 2.897zM26.069 5.793L28.966 5.793 28.966 2.897 26.069 2.897zM28.966 5.793L31.862 5.793 31.862 2.897 28.966 2.897zM43.448 5.793L46.345 5.793 46.345 2.897 43.448 2.897zM49.241 5.793L52.138 5.793 52.138 2.897 49.241 2.897zM57.931 5.793L60.828 5.793 60.828 2.897 57.931 2.897zM63.724 5.793L66.621 5.793 66.621 2.897 63.724 2.897zM81.103 5.793L84 5.793 84 2.897 81.103 2.897zM0 8.69L2.897 8.69 2.897 5.793 0 5.793zM5.793 8.69L8.69 8.69 8.69 5.793 5.793 5.793zM8.69 8.69L11.586 8.69 11.586 5.793 8.69 5.793zM11.586 8.69L14.483 8.69 14.483 5.793 11.586 5.793zM17.379 8.69L20.276 8.69 20.276 5.793 17.379 5.793zM23.172 8.69L26.069 8.69 26.069 5.793 23.172 5.793zM26.069 8.69L28.966 8.69 28.966 5.793 26.069 5.793zM34.759 8.69L37.655 8.69 37.655 5.793 34.759 5.793zM40.552 8.69L43.448 8.69 43.448 5.793 40.552 5.793zM46.345 8.69L49.241 8.69 49.241 5.793 46.345 5.793zM55.034 8.69L57.931 8.69 57.931 5.793 55.034 5.793zM63.724 8.69L66.621 8.69 66.621 5.793 63.724 5.793zM69.517 8.69L72.414 8.69 72.414 5.793 69.517 5.793zM72.414 8.69L75.31 8.69 75.31 5.793 72.414 5.793zM75.31 8.69L78.207 8.69 78.207 5.793 75.31 5.793zM81.103 8.69L84 8.69 84 5.793 81.103 5.793zM0 11.586L2.897 11.586 2.897 8.69 0 8.69zM5.793 11.586L8.69 11.586 8.69 8.69 5.793 8.69zM8.69 11.586L11.586 11.586 11.586 8.69 8.69 8.69zM11.586 11.586L14.483 11.586 14.483 8.69 11.586 8.69zM17.379 11.586L20.276 11.586 20.276 8.69 17.379 8.69zM23.172 11.586L26.069 11.586 26.069 8.69 23.172 8.69zM26.069 11.586L28.966 11.586 28.966 8.69 26.069 8.69zM28.966 11.586L31.862 11.586 31.862 8.69 28.966 8.69zM40.552 11.586L43.448 11.586 43.448 8.69 40.552 8.69zM43.448 11.586L46.345 11.586 46.345 8.69 43.448 8.69zM49.241 11.586L52.138 11.586 52.138 8.69 49.241 8.69zM57.931 11.586L60.828 11.586 60.828 8.69 57.931 8.69zM63.724 11.586L66.621 11.586 66.621 8.69 63.724 8.69zM69.517 11.586L72.414 11.586 72.414 8.69 69.517 8.69zM72.414 11.586L75.31 11.586 75.31 8.69 72.414 8.69zM75.31 11.586L78.207 11.586 78.207 8.69 75.31 8.69zM81.103 11.586L84 11.586 84 8.69 81.103 8.69zM0 14.483L2.897 14.483 2.897 11.586 0 11.586zM5.793 14.483L8.69 14.483 8.69 11.586 5.793 11.586zM8.69 14.483L11.586 14.483 11.586 11.586 8.69 11.586zM11.586 14.483L14.483 14.483 14.483 11.586 11.586 11.586zM17.379 14.483L20.276 14.483 20.276 11.586 17.379 11.586zM26.069 14.483L28.966 14.483 28.966 11.586 26.069 11.586zM34.759 14.483L37.655 14.483 37.655 11.586 34.759 11.586zM37.655 14.483L40.552 14.483 40.552 11.586 37.655 11.586zM40.552 14.483L43.448 14.483 43.448 11.586 40.552 11.586zM43.448 14.483L46.345 14.483 46.345 11.586 43.448 11.586zM49.241 14.483L52.138 14.483 52.138 11.586 49.241 11.586zM52.138 14.483L55.034 14.483 55.034 11.586 52.138 11.586zM55.034 14.483L57.931 14.483 57.931 11.586 55.034 11.586zM57.931 14.483L60.828 14.483 60.828 11.586 57.931 11.586zM63.724 14.483L66.621 14.483 66.621 11.586 63.724 11.586zM69.517 14.483L72.414 14.483 72.414 11.586 69.517 11.586zM72.414 14.483L75.31 14.483 75.31 11.586 72.414 11.586zM75.31 14.483L78.207 14.483 78.207 11.586 75.31 11.586zM81.103 14.483L84 14.483 84 11.586 81.103 11.586zM0 17.379L2.897 17.379 2.897 14.483 0 14.483zM17.379 17.379L20.276 17.379 20.276 14.483 17.379 14.483zM31.862 17.379L34.759 17.379 34.759 14.483 31.862 14.483zM37.655 17.379L40.552 17.379 40.552 14.483 37.655 14.483zM40.552 17.379L43.448 17.379 43.448 14.483 40.552 14.483zM46.345 17.379L49.241 17.379 49.241 14.483 46.345 14.483zM63.724 17.379L66.621 17.379 66.621 14.483 63.724 14.483zM81.103 17.379L84 17.379 84 14.483 81.103 14.483zM0 20.276L2.897 20.276 2.897 17.379 0 17.379zM2.897 20.276L5.793 20.276 5.793 17.379 2.897 17.379zM5.793 20.276L8.69 20.276 8.69 17.379 5.793 17.379zM8.69 20.276L11.586 20.276 11.586 17.379 8.69 17.379zM11.586 20.276L14.483 20.276 14.483 17.379 11.586 17.379zM14.483 20.276L17.379 20.276 17.379 17.379 14.483 17.379zM17.379 20.276L20.276 20.276 20.276 17.379 17.379 17.379zM23.172 20.276L26.069 20.276 26.069 17.379 23.172 17.379zM28.966 20.276L31.862 20.276 31.862 17.379 28.966 17.379zM34.759 20.276L37.655 20.276 37.655 17.379 34.759 17.379zM40.552 20.276L43.448 20.276 43.448 17.379 40.552 17.379zM46.345 20.276L49.241 20.276 49.241 17.379 46.345 17.379zM52.138 20.276L55.034 20.276 55.034 17.379 52.138 17.379zM57.931 20.276L60.828 20.276 60.828 17.379 57.931 17.379zM63.724 20.276L66.621 20.276 66.621 17.379 63.724 17.379zM66.621 20.276L69.517 20.276 69.517 17.379 66.621 17.379zM69.517 20.276L72.414 20.276 72.414 17.379 69.517 17.379zM72.414 20.276L75.31 20.276 75.31 17.379 72.414 17.379zM75.31 20.276L78.207 20.276 78.207 17.379 75.31 17.379zM78.207 20.276L81.103 20.276 81.103 17.379 78.207 17.379zM81.103 20.276L84 20.276 84 17.379 81.103 17.379zM23.172 23.172L26.069 23.172 26.069 20.276 23.172 20.276zM26.069 23.172L28.966 23.172 28.966 20.276 26.069 20.276zM28.966 23.172L31.862 23.172 31.862 20.276 28.966 20.276zM34.759 23.172L37.655 23.172 37.655 20.276 34.759 20.276zM37.655 23.172L40.552 23.172 40.552 20.276 37.655 20.276zM55.034 23.172L57.931 23.172 57.931 20.276 55.034 20.276zM57.931 23.172L60.828 23.172 60.828 20.276 57.931 20.276zM0 26.069L2.897 26.069 2.897 23.172 0 23.172zM17.379 26.069L20.276 26.069 20.276 23.172 17.379 23.172zM23.172 26.069L26.069 26.069 26.069 23.172 23.172 23.172zM31.862 26.069L34.759 26.069 34.759 23.172 31.862 23.172zM34.759 26.069L37.655 26.069 37.655 23.172 34.759 23.172zM40.552 26.069L43.448 26.069 43.448 23.172 40.552 23.172zM43.448 26.069L46.345 26.069 46.345 23.172 43.448 23.172zM49.241 26.069L52.138 26.069 52.138 23.172 49.241 23.172zM52.138 26.069L55.034 26.069 55.034 23.172 52.138 23.172zM55.034 26.069L57.931 26.069 57.931 23.172 55.034 23.172zM60.828 26.069L63.724 26.069 63.724 23.172 60.828 23.172zM63.724 26.069L66.621 26.069 66.621 23.172 63.724 23.172zM72.414 26.069L75.31 26.069 75.31 23.172 72.414 23.172zM75.31 26.069L78.207 26.069 78.207 23.172 75.31 23.172zM78.207 26.069L81.103 26.069 81.103 23.172 78.207 23.172zM0 28.966L2.897 28.966 2.897 26.069 0 26.069zM2.897 28.966L5.793 28.966 5.793 26.069 2.897 26.069zM11.586 28.966L14.483 28.966 14.483 26.069 11.586 26.069zM26.069 28.966L28.966 28.966 28.966 26.069 26.069 26.069zM31.862 28.966L34.759 28.966 34.759 26.069 31.862 26.069zM40.552 28.966L43.448 28.966 43.448 26.069 40.552 26.069zM49.241 28.966L52.138 28.966 52.138 26.069 49.241 26.069zM52.138 28.966L55.034 28.966 55.034 26.069 52.138 26.069zM55.034 28.966L57.931 28.966 57.931 26.069 55.034 26.069zM57.931 28.966L60.828 28.966 60.828 26.069 57.931 26.069zM60.828 28.966L63.724 28.966 63.724 26.069 60.828 26.069zM66.621 28.966L69.517 28.966 69.517 26.069 66.621 26.069zM69.517 28.966L72.414 28.966 72.414 26.069 69.517 26.069zM75.31 28.966L78.207 28.966 78.207 26.069 75.31 26.069zM78.207 28.966L81.103 28.966 81.103 26.069 78.207 26.069zM0 31.862L2.897 31.862 2.897 28.966 0 28.966zM2.897 31.862L5.793 31.862 5.793 28.966 2.897 28.966zM11.586 31.862L14.483 31.862 14.483 28.966 11.586 28.966zM14.483 31.862L17.379 31.862 17.379 28.966 14.483 28.966zM17.379 31.862L20.276 31.862 20.276 28.966 17.379 28.966zM23.172 31.862L26.069 31.862 26.069 28.966 23.172 28.966zM26.069 31.862L28.966 31.862 28.966 28.966 26.069 28.966zM28.966 31.862L31.862 31.862 31.862 28.966 28.966 28.966zM34.759 31.862L37.655 31.862 37.655 28.966 34.759 28.966zM49.241 31.862L52.138 31.862 52.138 28.966 49.241 28.966zM57.931 31.862L60.828 31.862 60.828 28.966 57.931 28.966zM66.621 31.862L69.517 31.862 69.517 28.966 66.621 28.966zM69.517 31.862L72.414 31.862 72.414 28.966 69.517 28.966zM0 34.759L2.897 34.759 2.897 31.862 0 31.862zM2.897 34.759L5.793 34.759 5.793 31.862 2.897 31.862zM5.793 34.759L8.69 34.759 8.69 31.862 5.793 31.862zM14.483 34.759L17.379 34.759 17.379 31.862 14.483 31.862zM23.172 34.759L26.069 34.759 26.069 31.862 23.172 31.862zM26.069 34.759L28.966 34.759 28.966 31.862 26.069 31.862zM40.552 34.759L43.448 34.759 43.448 31.862 40.552 31.862zM43.448 34.759L46.345 34.759 46.345 31.862 43.448 31.862zM46.345 34.759L49.241 34.759 49.241 31.862 46.345 31.862zM52.138 34.759L55.034 34.759 55.034 31.862 52.138 31.862zM55.034 34.759L57.931 34.759 57.931 31.862 55.034 31.862zM60.828 34.759L63.724 34.759 63.724 31.862 60.828 31.862zM69.517 34.759L72.414 34.759 72.414 31.862 69.517 31.862zM0 37.655L2.897 37.655 2.897 34.759 0 34.759zM2.897 37.655L5.793 37.655 5.793 34.759 2.897 34.759zM14.483 37.655L17.379 37.655 17.379 34.759 14.483 34.759zM17.379 37.655L20.276 37.655 20.276 34.759 17.379 34.759zM23.172 37.655L26.069 37.655 26.069 34.759 23.172 34.759zM26.069 37.655L28.966 37.655 28.966 34.759 26.069 34.759zM28.966 37.655L31.862 37.655 31.862 34.759 28.966 34.759zM31.862 37.655L34.759 37.655 34.759 34.759 31.862 34.759zM34.759 37.655L37.655 37.655 37.655 34.759 34.759 34.759zM37.655 37.655L40.552 37.655 40.552 34.759 37.655 34.759zM40.552 37.655L43.448 37.655 43.448 34.759 40.552 34.759zM57.931 37.655L60.828 37.655 60.828 34.759 57.931 34.759zM63.724 37.655L66.621 37.655 66.621 34.759 63.724 34.759zM81.103 37.655L84 37.655 84 34.759 81.103 34.759zM5.793 40.552L8.69 40.552 8.69 37.655 5.793 37.655zM20.276 40.552L23.172 40.552 23.172 37.655 20.276 37.655zM26.069 40.552L28.966 40.552 28.966 37.655 26.069 37.655zM34.759 40.552L37.655 40.552 37.655 37.655 34.759 37.655zM37.655 40.552L40.552 40.552 40.552 37.655 37.655 37.655zM40.552 40.552L43.448 40.552 43.448 37.655 40.552 37.655zM55.034 40.552L57.931 40.552 57.931 37.655 55.034 37.655zM57.931 40.552L60.828 40.552 60.828 37.655 57.931 37.655zM63.724 40.552L66.621 40.552 66.621 37.655 63.724 37.655zM66.621 40.552L69.517 40.552 69.517 37.655 66.621 37.655zM69.517 40.552L72.414 40.552 72.414 37.655 69.517 37.655zM75.31 40.552L78.207 40.552 78.207 37.655 75.31 37.655zM78.207 40.552L81.103 40.552 81.103 37.655 78.207 37.655zM81.103 40.552L84 40.552 84 37.655 81.103 37.655zM0 43.448L2.897 43.448 2.897 40.552 0 40.552zM5.793 43.448L8.69 43.448 8.69 40.552 5.793 40.552zM11.586 43.448L14.483 43.448 14.483 40.552 11.586 40.552zM14.483 43.448L17.379 43.448 17.379 40.552 14.483 40.552zM17.379 43.448L20.276 43.448 20.276 40.552 17.379 40.552zM20.276 43.448L23.172 43.448 23.172 40.552 20.276 40.552zM23.172 43.448L26.069 43.448 26.069 40.552 23.172 40.552zM31.862 43.448L34.759 43.448 34.759 40.552 31.862 40.552zM34.759 43.448L37.655 43.448 37.655 40.552 34.759 40.552zM37.655 43.448L40.552 43.448 40.552 40.552 37.655 40.552zM40.552 43.448L43.448 43.448 43.448 40.552 40.552 40.552zM43.448 43.448L46.345 43.448 46.345 40.552 43.448 40.552zM46.345 43.448L49.241 43.448 49.241 40.552 46.345 40.552zM60.828 43.448L63.724 43.448 63.724 40.552 60.828 40.552zM63.724 43.448L66.621 43.448 66.621 40.552 63.724 40.552zM75.31 43.448L78.207 43.448 78.207 40.552 75.31 40.552zM5.793 46.345L8.69 46.345 8.69 43.448 5.793 43.448zM23.172 46.345L26.069 46.345 26.069 43.448 23.172 43.448zM26.069 46.345L28.966 46.345 28.966 43.448 26.069 43.448zM28.966 46.345L31.862 46.345 31.862 43.448 28.966 43.448zM31.862 46.345L34.759 46.345 34.759 43.448 31.862 43.448zM37.655 46.345L40.552 46.345 40.552 43.448 37.655 43.448zM40.552 46.345L43.448 46.345 43.448 43.448 40.552 43.448zM46.345 46.345L49.241 46.345 49.241 43.448 46.345 43.448zM52.138 46.345L55.034 46.345 55.034 43.448 52.138 43.448zM55.034 46.345L57.931 46.345 57.931 43.448 55.034 43.448zM57.931 46.345L60.828 46.345 60.828 43.448 57.931 43.448zM60.828 46.345L63.724 46.345 63.724 43.448 60.828 43.448zM63.724 46.345L66.621 46.345 66.621 43.448 63.724 43.448zM66.621 46.345L69.517 46.345 69.517 43.448 66.621 43.448zM75.31 46.345L78.207 46.345 78.207 43.448 75.31 43.448zM81.103 46.345L84 46.345 84 43.448 81.103 43.448zM0 49.241L2.897 49.241 2.897 46.345 0 46.345zM5.793 49.241L8.69 49.241 8.69 46.345 5.793 46.345zM11.586 49.241L14.483 49.241 14.483 46.345 11.586 46.345zM14.483 49.241L17.379 49.241 17.379 46.345 14.483 46.345zM17.379 49.241L20.276 49.241 20.276 46.345 17.379 46.345zM20.276 49.241L23.172 49.241 23.172 46.345 20.276 46.345zM34.759 49.241L37.655 49.241 37.655 46.345 34.759 46.345zM40.552 49.241L43.448 49.241 43.448 46.345 40.552 46.345zM43.448 49.241L46.345 49.241 46.345 46.345 43.448 46.345zM49.241 49.241L52.138 49.241 52.138 46.345 49.241 46.345zM57.931 49.241L60.828 49.241 60.828 46.345 57.931 46.345zM75.31 49.241L78.207 49.241 78.207 46.345 75.31 46.345zM11.586 52.138L14.483 52.138 14.483 49.241 11.586 49.241zM20.276 52.138L23.172 52.138 23.172 49.241 20.276 49.241zM26.069 52.138L28.966 52.138 28.966 49.241 26.069 49.241zM31.862 52.138L34.759 52.138 34.759 49.241 31.862 49.241zM46.345 52.138L49.241 52.138 49.241 49.241 46.345 49.241zM55.034 52.138L57.931 52.138 57.931 49.241 55.034 49.241zM57.931 52.138L60.828 52.138 60.828 49.241 57.931 49.241zM63.724 52.138L66.621 52.138 66.621 49.241 63.724 49.241zM69.517 52.138L72.414 52.138 72.414 49.241 69.517 49.241zM72.414 52.138L75.31 52.138 75.31 49.241 72.414 49.241zM75.31 52.138L78.207 52.138 78.207 49.241 75.31 49.241zM78.207 52.138L81.103 52.138 81.103 49.241 78.207 49.241zM81.103 52.138L84 52.138 84 49.241 81.103 49.241zM8.69 55.034L11.586 55.034 11.586 52.138 8.69 52.138zM11.586 55.034L14.483 55.034 14.483 52.138 11.586 52.138zM14.483 55.034L17.379 55.034 17.379 52.138 14.483 52.138zM17.379 55.034L20.276 55.034 20.276 52.138 17.379 52.138zM23.172 55.034L26.069 55.034 26.069 52.138 23.172 52.138zM26.069 55.034L28.966 55.034 28.966 52.138 26.069 52.138zM37.655 55.034L40.552 55.034 40.552 52.138 37.655 52.138zM40.552 55.034L43.448 55.034 43.448 52.138 40.552 52.138zM46.345 55.034L49.241 55.034 49.241 52.138 46.345 52.138zM55.034 55.034L57.931 55.034 57.931 52.138 55.034 52.138zM60.828 55.034L63.724 55.034 63.724 52.138 60.828 52.138zM63.724 55.034L66.621 55.034 66.621 52.138 63.724 52.138zM81.103 55.034L84 55.034 84 52.138 81.103 52.138zM2.897 57.931L5.793 57.931 5.793 55.034 2.897 55.034zM5.793 57.931L8.69 57.931 8.69 55.034 5.793 55.034zM23.172 57.931L26.069 57.931 26.069 55.034 23.172 55.034zM31.862 57.931L34.759 57.931 34.759 55.034 31.862 55.034zM40.552 57.931L43.448 57.931 43.448 55.034 40.552 55.034zM43.448 57.931L46.345 57.931 46.345 55.034 43.448 55.034zM46.345 57.931L49.241 57.931 49.241 55.034 46.345 55.034zM60.828 57.931L63.724 57.931 63.724 55.034 60.828 55.034zM63.724 57.931L66.621 57.931 66.621 55.034 63.724 55.034zM66.621 57.931L69.517 57.931 69.517 55.034 66.621 55.034zM69.517 57.931L72.414 57.931 72.414 55.034 69.517 55.034zM2.897 60.828L5.793 60.828 5.793 57.931 2.897 57.931zM5.793 60.828L8.69 60.828 8.69 57.931 5.793 57.931zM8.69 60.828L11.586 60.828 11.586 57.931 8.69 57.931zM14.483 60.828L17.379 60.828 17.379 57.931 14.483 57.931zM17.379 60.828L20.276 60.828 20.276 57.931 17.379 57.931zM26.069 60.828L28.966 60.828 28.966 57.931 26.069 57.931zM34.759 60.828L37.655 60.828 37.655 57.931 34.759 57.931zM46.345 60.828L49.241 60.828 49.241 57.931 46.345 57.931zM52.138 60.828L55.034 60.828 55.034 57.931 52.138 57.931zM57.931 60.828L60.828 60.828 60.828 57.931 57.931 57.931zM60.828 60.828L63.724 60.828 63.724 57.931 60.828 57.931zM63.724 60.828L66.621 60.828 66.621 57.931 63.724 57.931zM66.621 60.828L69.517 60.828 69.517 57.931 66.621 57.931zM69.517 60.828L72.414 60.828 72.414 57.931 69.517 57.931zM75.31 60.828L78.207 60.828 78.207 57.931 75.31 57.931zM78.207 60.828L81.103 60.828 81.103 57.931 78.207 57.931zM81.103 60.828L84 60.828 84 57.931 81.103 57.931zM23.172 63.724L26.069 63.724 26.069 60.828 23.172 60.828zM34.759 63.724L37.655 63.724 37.655 60.828 34.759 60.828zM37.655 63.724L40.552 63.724 40.552 60.828 37.655 60.828zM46.345 63.724L49.241 63.724 49.241 60.828 46.345 60.828zM49.241 63.724L52.138 63.724 52.138 60.828 49.241 60.828zM52.138 63.724L55.034 63.724 55.034 60.828 52.138 60.828zM57.931 63.724L60.828 63.724 60.828 60.828 57.931 60.828zM69.517 63.724L72.414 63.724 72.414 60.828 69.517 60.828zM72.414 63.724L75.31 63.724 75.31 60.828 72.414 60.828zM0 66.621L2.897 66.621 2.897 63.724 0 63.724zM2.897 66.621L5.793 66.621 5.793 63.724 2.897 63.724zM5.793 66.621L8.69 66.621 8.69 63.724 5.793 63.724zM8.69 66.621L11.586 66.621 11.586 63.724 8.69 63.724zM11.586 66.621L14.483 66.621 14.483 63.724 11.586 63.724zM14.483 66.621L17.379 66.621 17.379 63.724 14.483 63.724zM17.379 66.621L20.276 66.621 20.276 63.724 17.379 63.724zM26.069 66.621L28.966 66.621 28.966 63.724 26.069 63.724zM28.966 66.621L31.862 66.621 31.862 63.724 28.966 63.724zM34.759 66.621L37.655 66.621 37.655 63.724 34.759 63.724zM37.655 66.621L40.552 66.621 40.552 63.724 37.655 63.724zM40.552 66.621L43.448 66.621 43.448 63.724 40.552 63.724zM43.448 66.621L46.345 66.621 46.345 63.724 43.448 63.724zM46.345 66.621L49.241 66.621 49.241 63.724 46.345 63.724zM49.241 66.621L52.138 66.621 52.138 63.724 49.241 63.724zM55.034 66.621L57.931 66.621 57.931 63.724 55.034 63.724zM57.931 66.621L60.828 66.621 60.828 63.724 57.931 63.724zM63.724 66.621L66.621 66.621 66.621 63.724 63.724 63.724zM69.517 66.621L72.414 66.621 72.414 63.724 69.517 63.724zM72.414 66.621L75.31 66.621 75.31 63.724 72.414 63.724zM75.31 66.621L78.207 66.621 78.207 63.724 75.31 63.724zM0 69.517L2.897 69.517 2.897 66.621 0 66.621zM17.379 69.517L20.276 69.517 20.276 66.621 17.379 66.621zM26.069 69.517L28.966 69.517 28.966 66.621 26.069 66.621zM34.759 69.517L37.655 69.517 37.655 66.621 34.759 66.621zM37.655 69.517L40.552 69.517 40.552 66.621 37.655 66.621zM49.241 69.517L52.138 69.517 52.138 66.621 49.241 66.621zM52.138 69.517L55.034 69.517 55.034 66.621 52.138 66.621zM55.034 69.517L57.931 69.517 57.931 66.621 55.034 66.621zM57.931 69.517L60.828 69.517 60.828 66.621 57.931 66.621zM69.517 69.517L72.414 69.517 72.414 66.621 69.517 66.621zM72.414 69.517L75.31 69.517 75.31 66.621 72.414 66.621zM78.207 69.517L81.103 69.517 81.103 66.621 78.207 66.621zM81.103 69.517L84 69.517 84 66.621 81.103 66.621zM0 72.414L2.897 72.414 2.897 69.517 0 69.517zM5.793 72.414L8.69 72.414 8.69 69.517 5.793 69.517zM8.69 72.414L11.586 72.414 11.586 69.517 8.69 69.517zM11.586 72.414L14.483 72.414 14.483 69.517 11.586 69.517zM17.379 72.414L20.276 72.414 20.276 69.517 17.379 69.517zM26.069 72.414L28.966 72.414 28.966 69.517 26.069 69.517zM31.862 72.414L34.759 72.414 34.759 69.517 31.862 69.517zM37.655 72.414L40.552 72.414 40.552 69.517 37.655 69.517zM43.448 72.414L46.345 72.414 46.345 69.517 43.448 69.517zM46.345 72.414L49.241 72.414 49.241 69.517 46.345 69.517zM49.241 72.414L52.138 72.414 52.138 69.517 49.241 69.517zM55.034 72.414L57.931 72.414 57.931 69.517 55.034 69.517zM57.931 72.414L60.828 72.414 60.828 69.517 57.931 69.517zM60.828 72.414L63.724 72.414 63.724 69.517 60.828 69.517zM63.724 72.414L66.621 72.414 66.621 69.517 63.724 69.517zM66.621 72.414L69.517 72.414 69.517 69.517 66.621 69.517zM69.517 72.414L72.414 72.414 72.414 69.517 69.517 69.517zM78.207 72.414L81.103 72.414 81.103 69.517 78.207 69.517zM0 75.31L2.897 75.31 2.897 72.414 0 72.414zM5.793 75.31L8.69 75.31 8.69 72.414 5.793 72.414zM8.69 75.31L11.586 75.31 11.586 72.414 8.69 72.414zM11.586 75.31L14.483 75.31 14.483 72.414 11.586 72.414zM17.379 75.31L20.276 75.31 20.276 72.414 17.379 72.414zM26.069 75.31L28.966 75.31 28.966 72.414 26.069 72.414zM28.966 75.31L31.862 75.31 31.862 72.414 28.966 72.414zM46.345 75.31L49.241 75.31 49.241 72.414 46.345 72.414zM52.138 75.31L55.034 75.31 55.034 72.414 52.138 72.414zM55.034 75.31L57.931 75.31 57.931 72.414 55.034 72.414zM60.828 75.31L63.724 75.31 63.724 72.414 60.828 72.414zM66.621 75.31L69.517 75.31 69.517 72.414 66.621 72.414zM72.414 75.31L75.31 75.31 75.31 72.414 72.414 72.414zM78.207 75.31L81.103 75.31 81.103 72.414 78.207 72.414zM0 78.207L2.897 78.207 2.897 75.31 0 75.31zM5.793 78.207L8.69 78.207 8.69 75.31 5.793 75.31zM8.69 78.207L11.586 78.207 11.586 75.31 8.69 75.31zM11.586 78.207L14.483 78.207 14.483 75.31 11.586 75.31zM17.379 78.207L20.276 78.207 20.276 75.31 17.379 75.31zM26.069 78.207L28.966 78.207 28.966 75.31 26.069 75.31zM31.862 78.207L34.759 78.207 34.759 75.31 31.862 75.31zM37.655 78.207L40.552 78.207 40.552 75.31 37.655 75.31zM52.138 78.207L55.034 78.207 55.034 75.31 52.138 75.31zM55.034 78.207L57.931 78.207 57.931 75.31 55.034 75.31zM57.931 78.207L60.828 78.207 60.828 75.31 57.931 75.31zM60.828 78.207L63.724 78.207 63.724 75.31 60.828 75.31zM63.724 78.207L66.621 78.207 66.621 75.31 63.724 75.31zM66.621 78.207L69.517 78.207 69.517 75.31 66.621 75.31zM69.517 78.207L72.414 78.207 72.414 75.31 69.517 75.31zM72.414 78.207L75.31 78.207 75.31 75.31 72.414 75.31zM75.31 78.207L78.207 78.207 78.207 75.31 75.31 75.31zM78.207 78.207L81.103 78.207 81.103 75.31 78.207 75.31zM0 81.103L2.897 81.103 2.897 78.207 0 78.207zM17.379 81.103L20.276 81.103 20.276 78.207 17.379 78.207zM26.069 81.103L28.966 81.103 28.966 78.207 26.069 78.207zM37.655 81.103L40.552 81.103 40.552 78.207 37.655 78.207zM43.448 81.103L46.345 81.103 46.345 78.207 43.448 78.207zM66.621 81.103L69.517 81.103 69.517 78.207 66.621 78.207zM72.414 81.103L75.31 81.103 75.31 78.207 72.414 78.207zM75.31 81.103L78.207 81.103 78.207 78.207 75.31 78.207zM81.103 81.103L84 81.103 84 78.207 81.103 78.207zM0 84L2.897 84 2.897 81.103 0 81.103zM2.897 84L5.793 84 5.793 81.103 2.897 81.103zM5.793 84L8.69 84 8.69 81.103 5.793 81.103zM8.69 84L11.586 84 11.586 81.103 8.69 81.103zM11.586 84L14.483 84 14.483 81.103 11.586 81.103zM14.483 84L17.379 84 17.379 81.103 14.483 81.103zM17.379 84L20.276 84 20.276 81.103 17.379 81.103zM23.172 84L26.069 84 26.069 81.103 23.172 81.103zM26.069 84L28.966 84 28.966 81.103 26.069 81.103zM31.862 84L34.759 84 34.759 81.103 31.862 81.103zM34.759 84L37.655 84 37.655 81.103 34.759 81.103zM46.345 84L49.241 84 49.241 81.103 46.345 81.103zM52.138 84L55.034 84 55.034 81.103 52.138 81.103zM55.034 84L57.931 84 57.931 81.103 55.034 81.103zM63.724 84L66.621 84 66.621 81.103 63.724 81.103zM66.621 84L69.517 84 69.517 81.103 66.621 81.103zM69.517 84L72.414 84 72.414 81.103 69.517 81.103zM72.414 84L75.31 84 75.31 81.103 72.414 81.103zM75.31 84L78.207 84 78.207 81.103 75.31 81.103z" transform="translate(-1286 -1947) translate(1286 1947) translate(8 8)"/>
                    <g transform="translate(-1286 -1947) translate(1286 1947) translate(8 8)">
                        <path fill="#E52310" d="M54.31 42c0 6.8-5.51 12.31-12.31 12.31-6.8 0-12.31-5.51-12.31-12.31 0-6.8 5.51-12.31 12.31-12.31 6.8 0 12.31 5.51 12.31 12.31"/>
                        <mask id="x3753ayrbb" fill="#fff">
                            <use xlink:href="#s9xqq058la"/>
                        </mask>
                        <path fill="#FFF" d="M43.367 37.213L46.445 37.213 46.445 34.135 43.367 34.135zM32.425 42.684L32.425 45.419 35.16 45.419 35.16 48.155 37.896 48.155 37.896 42.684z" mask="url(#x3753ayrbb)"/>
                        <path fill="#FFF" d="M33.109 37.213L33.109 39.948 40.632 39.948 40.632 48.155 43.368 48.155 43.368 37.213zM46.103 39.948L46.103 48.155 48.838 48.155 48.838 42.684 52.258 42.684 52.258 39.948z" mask="url(#x3753ayrbb)"/>
                    </g>
                </g>
            </g>
        </g>
    </g>
</svg>
