<svg xmlns="http://www.w3.org/2000/svg" xmlns:xlink="http://www.w3.org/1999/xlink" width="186" height="42" viewBox="0 0 186 42">
    <defs>
        <path id="kliux393ra" d="M0 42.458L181.194 42.458 181.194 0 0 0z"/>
    </defs>
    <g fill="none" fill-rule="evenodd">
        <path fill="#0D1623" d="M49.68 38.836c0 1.219-.399 2.118-1.198 2.7-.798.582-1.909.872-3.332.872-.814 0-1.5-.048-2.06-.146-.559-.097-1.02-.219-1.385-.367v-1.97c.284.177.731.34 1.34.489.61.148 1.208.222 1.797.222.829 0 1.4-.11 1.712-.335.312-.224.468-.595.468-1.115 0-.335-.112-.632-.337-.89-.224-.26-.865-.602-1.918-1.028-.84-.345-1.49-.786-1.949-1.322-.46-.536-.689-1.266-.689-2.189 0-.884.37-1.63 1.112-2.239.741-.61 1.766-.914 3.074-.914.634 0 1.204.051 1.712.155.506.104.861.195 1.067.275v1.739c-.43-.106-.856-.197-1.28-.278-.425-.08-.876-.12-1.356-.12-.678 0-1.167.109-1.466.323-.3.216-.45.484-.45.808 0 .406.113.713.338.92.224.209.884.517 1.977.923 1.018.375 1.744.85 2.175 1.428.433.576.648 1.262.648 2.06"/>
        <mask id="fyvaftjetb" fill="#fff">
            <use xlink:href="#kliux393ra"/>
        </mask>
        <path fill="#0D1623" d="M51.246 42.258h2.398v-8.757h-2.398v8.757zm2.463-10.71c0 .365-.123.671-.368.92-.246.247-.545.37-.896.37-.346 0-.643-.123-.891-.37-.249-.249-.373-.555-.373-.92 0-.354.124-.655.373-.903.248-.248.545-.372.891-.372.351 0 .65.124.896.372.245.248.368.549.368.903zM63.34 42.259h-2.398V36.11c0-.23-.097-.443-.288-.64-.192-.199-.467-.298-.826-.298-.344 0-.647.074-.908.222-.262.148-.484.337-.669.566v6.298h-2.398V33.5h2.308l.044 1.394c.175-.416.51-.783 1.007-1.1.497-.317 1.102-.476 1.815-.476.718 0 1.283.23 1.695.69.411.459.618 1.161.618 2.105v6.145zM71.41 37.928v-.13c0-1.184-.18-1.992-.54-2.423-.36-.432-.799-.65-1.319-.65-.544 0-.987.233-1.33.695-.342.463-.513 1.256-.513 2.379v.13c0 1.235.166 2.055.498 2.462.332.406.78.61 1.345.61.51 0 .947-.198 1.312-.595.365-.395.547-1.222.547-2.478zm2.463.214c0 1.357-.383 2.416-1.152 3.177-.767.759-1.82 1.139-3.16 1.139-1.33 0-2.387-.388-3.171-1.167-.785-.777-1.178-1.827-1.178-3.15v-.555c0-1.292.388-2.334 1.163-3.128.774-.792 1.832-1.189 3.171-1.189 1.35 0 2.408.4 3.175 1.197.769.799 1.152 1.839 1.152 3.12v.556zM80.646 34.829v-1.106c0-.437-.12-.76-.362-.969-.24-.208-.637-.312-1.19-.312h-.797v3.592h.934c.401 0 .737-.104 1.008-.313.271-.208.407-.505.407-.892zm2.61-.173c0 .977-.293 1.713-.879 2.208-.587.496-1.433.743-2.54.743h-1.54v4.651h-2.544V30.77H80c1.216 0 2.062.3 2.54.896.477.598.716 1.293.716 2.085v.906zM89.52 39.317v-.235c0-.53-.121-.931-.365-1.209-.244-.276-.605-.415-1.082-.415-.448 0-.803.13-1.064.392-.262.262-.393.677-.393 1.247v.235c0 .596.139.991.416 1.19.275.198.627.297 1.055.297.368 0 .699-.12.992-.362.294-.242.44-.621.44-1.14zm2.3 2.942h-2.24l-.044-1.15c-.185.367-.494.666-.929.9-.435.233-.941.349-1.52.349-.955 0-1.676-.243-2.166-.73-.489-.487-.734-1.226-.734-2.215v-.153c0-.98.327-1.734.98-2.265.655-.53 1.534-.796 2.638-.796.333 0 .663.05.987.148.325.098.562.22.712.367v-.863c0-.3-.135-.553-.404-.763-.27-.208-.652-.312-1.147-.312-.53 0-1 .06-1.416.18-.414.121-.774.27-1.078.45v-1.491c.395-.163.835-.303 1.322-.42.487-.117 1.078-.176 1.772-.176 1.114 0 1.937.256 2.47.765.53.511.796 1.327.796 2.449v5.726zM100.499 41.796c-.094.082-.377.213-.847.393-.47.179-.96.27-1.47.27-1.394 0-2.504-.368-3.329-1.103-.824-.734-1.237-1.836-1.237-3.306v-.374c0-1.33.405-2.399 1.214-3.202.811-.803 1.905-1.205 3.285-1.205.545 0 1.037.07 1.477.21.44.142.742.292.907.453v1.556c-.214-.196-.5-.361-.857-.495-.357-.133-.744-.201-1.163-.201-.729 0-1.286.266-1.672.797-.388.531-.58 1.26-.58 2.185v.16c0 1.037.156 1.772.47 2.204.315.432.821.648 1.52.648.47 0 .925-.073 1.37-.22.443-.147.747-.294.912-.443v1.673zM113.29 38.836c0 1.219-.399 2.118-1.198 2.7-.8.582-1.91.872-3.332.872-.815 0-1.5-.048-2.06-.146-.56-.097-1.022-.219-1.385-.367v-1.97c.284.177.731.34 1.34.489.61.148 1.208.222 1.797.222.829 0 1.4-.11 1.711-.335.312-.224.47-.595.47-1.115 0-.335-.114-.632-.339-.89-.224-.26-.864-.602-1.918-1.028-.84-.345-1.489-.786-1.948-1.322-.46-.536-.689-1.266-.689-2.189 0-.884.37-1.63 1.111-2.239.741-.61 1.767-.914 3.075-.914.634 0 1.204.051 1.711.155.506.104.862.195 1.067.275v1.739c-.428-.106-.855-.197-1.28-.278-.424-.08-.875-.12-1.355-.12-.678 0-1.167.109-1.466.323-.3.216-.45.484-.45.808 0 .406.113.713.338.92.224.209.884.517 1.976.923 1.02.375 1.744.85 2.176 1.428.432.576.648 1.262.648 2.06M120.58 37.094c-.049-.864-.235-1.483-.558-1.857-.322-.373-.744-.56-1.263-.56-.455 0-.862.184-1.22.552-.356.37-.55.99-.58 1.865h3.621zm2.236 1.241h-5.873c0 .98.218 1.66.653 2.043.436.382 1.001.573 1.696.573.46 0 .93-.059 1.414-.178.483-.118.98-.296 1.49-.534v1.474c-.44.245-.927.43-1.46.557-.532.125-1.145.188-1.84.188-1.331 0-2.391-.36-3.181-1.08-.79-.719-1.186-1.769-1.186-3.153v-.624c0-1.21.362-2.234 1.085-3.074.723-.838 1.772-1.258 3.149-1.258 1.31 0 2.314.394 3.01 1.18.695.785 1.043 1.81 1.043 3.073v.813zM131.183 41.796c-.095.082-.378.213-.847.393-.47.179-.96.27-1.47.27-1.394 0-2.504-.368-3.329-1.103-.824-.734-1.237-1.836-1.237-3.306v-.374c0-1.33.406-2.399 1.215-3.202.81-.803 1.904-1.205 3.284-1.205.545 0 1.037.07 1.477.21.44.142.742.292.907.453v1.556c-.214-.196-.5-.361-.857-.495-.357-.133-.745-.201-1.164-.201-.728 0-1.286.266-1.672.797-.387.531-.58 1.26-.58 2.185v.16c0 1.037.157 1.772.471 2.204.315.432.82.648 1.52.648.469 0 .925-.073 1.368-.22.444-.147.75-.294.914-.443v1.673zM140.574 42.259h-2.3l-.05-1.347c-.28.386-.663.74-1.153 1.062-.489.323-1.093.484-1.812.484-.674 0-1.204-.206-1.591-.619-.387-.411-.58-1.144-.58-2.197v-6.141h2.397v5.94c0 .458.095.767.284.925.19.16.421.237.696.237.348 0 .67-.065.963-.198.294-.132.543-.339.748-.618v-6.286h2.398v8.758zM149.28 36.167h-2.217c0-.25-.051-.464-.154-.643-.103-.178-.304-.269-.603-.269-.286 0-.525.08-.72.236-.195.157-.323.324-.383.5v6.267h-2.398v-8.757h2.308l.046 1.379c.225-.497.516-.881.874-1.153s.78-.408 1.265-.408c.726 0 1.269.243 1.626.73.357.485.477 1.191.357 2.118M150.421 42.258h2.398v-8.757h-2.398v8.757zm2.463-10.71c0 .365-.123.671-.368.92-.246.247-.545.37-.896.37-.346 0-.643-.123-.891-.37-.249-.249-.373-.555-.373-.92 0-.354.124-.655.373-.903.248-.248.545-.372.89-.372.352 0 .651.124.897.372.245.248.368.549.368.903zM159.84 34.991h-2.268v4.513c0 .46.075.796.224 1.01.15.214.438.322.866.322.204 0 .402-.018.59-.052.19-.034.362-.078.522-.131v1.375c-.254.107-.568.186-.94.237-.372.051-.738.076-1.097.076-.789 0-1.413-.257-1.873-.775-.46-.517-.69-1.26-.69-2.228v-4.363h-1.026V33.75l1.125-.067.799-2.914h1.5v2.898h2.268v1.324zM161.369 42.258h2.398v-8.757h-2.398v8.757zm2.463-10.71c0 .365-.123.671-.369.92-.245.247-.544.37-.895.37-.346 0-.644-.123-.892-.37-.248-.249-.373-.555-.373-.92 0-.354.125-.655.373-.903s.546-.372.892-.372c.351 0 .65.124.895.372.246.248.369.549.369.903zM171.668 37.094c-.05-.864-.236-1.483-.558-1.857-.323-.373-.744-.56-1.264-.56-.455 0-.862.184-1.219.552-.357.37-.551.99-.581 1.865h3.622zm2.234 1.241h-5.87c0 .98.216 1.66.651 2.043.436.382 1.002.573 1.697.573.46 0 .93-.059 1.413-.178.483-.118.98-.296 1.49-.534v1.474c-.44.245-.926.43-1.46.557-.532.125-1.145.188-1.84.188-1.331 0-2.39-.36-3.181-1.08-.79-.719-1.185-1.769-1.185-3.153v-.624c0-1.21.362-2.234 1.084-3.074.724-.838 1.773-1.258 3.15-1.258 1.31 0 2.314.394 3.008 1.18.696.785 1.043 1.81 1.043 3.073v.813zM181.194 39.598c0 .813-.29 1.494-.871 2.04-.58.547-1.536.82-2.868.82-.555 0-1.06-.047-1.516-.139-.456-.092-.787-.206-.991-.341v-1.556c.235.138.567.277.998.417.43.14.872.211 1.323.211.576 0 1.018-.099 1.326-.297.308-.2.463-.455.463-.766 0-.3-.104-.544-.308-.732-.205-.188-.728-.412-1.567-.672-.79-.238-1.328-.577-1.614-1.014-.284-.437-.426-1.001-.426-1.692 0-.707.255-1.305.765-1.793s1.313-.732 2.413-.732c.51 0 .94.04 1.292.12.353.08.683.195.994.344v1.407c-.225-.132-.544-.242-.957-.33-.414-.09-.81-.133-1.19-.133-.439 0-.795.077-1.066.231-.272.154-.408.363-.408.626 0 .3.105.51.314.63.21.12.68.288 1.409.506.927.28 1.574.646 1.938 1.098.365.453.547 1.035.547 1.747M62.53 7.931l1.403 1.379c-1.158 1.447-2.724 2.968-4.698 4.565l-1.313-1.469c2.077-1.718 3.613-3.209 4.608-4.475zM46.612 5.898l.29-2.012c1.053.076 2.945.279 5.676.61 2.627.288 4.965.657 7.013 1.107l-.423 1.99c-3.873-.904-8.059-1.47-12.556-1.695zm8.549 8.97v7.526c0 .905-.312 1.612-.936 2.125-.46.421-1.232.632-2.315.632-1.232-.014-2.434-.165-3.606-.45l-.133-2.171c2.3.648 3.762.813 4.386.497.37-.301.563-.745.578-1.333v-11.21c0-.21-.111-.316-.334-.316h-8.705V8.202h10.442c.43.016.638.249.623.701v.79c.994 2.954 2.034 5.229 3.117 6.826 1.32 1.959 3.28 3.917 5.877 5.875l-1.737 1.334c-3.22-2.651-5.639-5.604-7.257-8.86zm-11.666-2.417h7.815l.578.769c-.504 3.645-3.072 6.96-7.703 9.942l-1.49-1.695c1.734-.903 3.07-1.77 4.006-2.598.787-.693 1.521-1.537 2.204-2.53.49-.754.764-1.274.824-1.56.044-.105.044-.188 0-.249-.104-.075-.268-.113-.49-.113h-5.744V12.45zM76.64 23.38h5.388c.252-.51.498-1.016.735-1.513h-6.812c.148.287.378.791.69 1.514zm9.485-4.134H72.633c-.059 0-.081.022-.066.067v.949c-.015.046.007.076.066.09h13.492c.059-.014.089-.044.089-.09v-.949c0-.045-.03-.067-.09-.067zm-2.94-7.638h-2.091v-1.425h2.092V9.076h-2.092V7.652h2.092V6.454h-2.092V5.031h2.092v-1.31h1.58v1.31h1.87v1.423h-1.87v1.198h1.781v1.424h-1.78v1.107h1.78v1.425h-1.78v1.152h2.404c.193 0 .29-.098.29-.294V4.104h1.758v9.425c0 .496-.245.744-.735.744h-18.21c-.476 0-.714-.248-.714-.744V4.104h1.76v8.362c0 .196.088.294.266.294h2.428v-1.152H72.01v-1.425h2.004V8.986h-1.915V7.562h1.915V6.454H72.01V5.031h2.004V3.81h1.58V5.03h1.782v1.423h-1.781v1.108h1.78v1.424h-1.78v1.197h1.87v1.425h-1.87v1.152h2.782V3.81h1.76v8.95h3.049v-1.152zM69.25 16.804h20.326v-1.513H69.249v1.513zm5.5 6.577c-.09-.21-.179-.414-.268-.61-.192-.361-.341-.663-.446-.904h-2.849c-.133 0-.2-.075-.2-.226v-3.706c0-.136.067-.204.2-.204h16.386c.148 0 .223.068.223.204v3.706c0 .15-.075.226-.223.226h-2.94c-.103.287-.252.64-.444 1.063-.09.15-.164.3-.223.45h6.056v1.605H68.715V23.38h6.033zM97.207 18.173l1.692-.995c.83 1.16 1.648 2.668 2.45 4.52l-1.76.904c-.861-1.913-1.655-3.388-2.382-4.429zm13.536 4.474l-1.537-1.062c1.068-1.672 1.893-3.185 2.472-4.542l1.67.972c-.98 1.989-1.826 3.532-2.539 4.632h4.587v1.967h-19.97v-1.967h9.038V16.66h-8.86v-1.966h8.86v-2.644h-5.208v-1.967h12.511c-2.182-1.144-4.275-2.552-6.278-4.226-1.855 1.854-5.061 3.752-9.618 5.696l-1.068-1.876c5.224-1.778 8.616-3.774 10.174-5.988l1.87.406c-.104.136-.185.256-.245.361 2.612 2.276 5.773 4.009 9.484 5.198l-1.157 1.854c-1.099-.453-2.101-.905-3.006-1.357v1.899h-5.52v2.644h8.815v1.966h-8.815v5.988h4.34zM136.763 20.925c.088-.376.163-.707.223-.994h-4.61c.401 1.175.72 2.328.958 3.458h2.671c.267-.738.52-1.56.758-2.464zm-5.477-10.01h7.325c-1.218-1.025-2.427-2.35-3.63-3.978-.548.829-1.78 2.155-3.695 3.977zm7.591 4.678h-8.147c-.06 0-.082.03-.067.09v2.35c-.015.06.007.099.067.113h8.147c.06-.014.09-.053.09-.113v-2.35c0-.06-.03-.09-.09-.09zm-.957 7.796h4.008v1.785H127.39v-1.785h4.097c-.15-.618-.32-1.251-.513-1.899-.222-.662-.386-1.181-.49-1.559h-1.202c-.312 0-.467-.165-.467-.496V14.28c0-.316.155-.474.467-.474h11.042c.327 0 .49.158.49.474v5.154c0 .33-.163.496-.49.496h-1.469c-.49 1.853-.801 3.006-.935 3.458zm-7.324-11.955c-.757.573-1.61 1.093-2.56 1.56l-1.047-1.56c.965-.467 1.855-.95 2.672-1.446-.669-.497-1.402-.994-2.204-1.492l1.046-1.424c1.247.844 2.093 1.447 2.538 1.808.816-.768 1.58-1.649 2.293-2.644h-4.809V4.542h6.279c.281 0 .497.099.645.294.267.406.564.814.89 1.22.743-.843 1.314-1.566 1.715-2.17l1.336 1.062c-.49.738-1.143 1.545-1.96 2.419.253.286.52.572.802.858.92-.994 1.61-1.837 2.07-2.53l1.314 1.06c-.55.814-1.255 1.681-2.116 2.6.758.573 1.633 1.13 2.628 1.672l-1.269 1.424c-.609-.36-1.203-.752-1.78-1.175V12.7h-8.483v-1.266zm-5.655 7.865h-2.182c-.044 0-.067.022-.067.067v3.932c0 .061.023.091.067.091h2.182c.06 0 .089-.03.089-.09v-3.933c0-.045-.03-.067-.09-.067zm-3.607-12.927h5.01V4.587h-5.01v1.785zm-.088 9.762h5.186V14.35h-5.186v1.785zm0-3.164h5.186v-1.785h-5.186v1.785zm5.543 11.933c0 .18-.09.271-.268.271h-5.343c-.163 0-.244-.09-.244-.27v-7.142c.014-.166.096-.249.244-.249h5.343c.178.016.268.099.268.249v7.141zm-5.9-15.277h6.167V7.84h-6.167v1.786zM159.505 12.5c-.49-.767-.942-1.588-1.357-2.463h-1.292c-.446 1.01-.876 1.831-1.29 2.463h3.94zm-7.346 4.159H162.8c-.92-.934-1.602-1.694-2.047-2.282h-6.524c-.98 1.1-1.67 1.86-2.07 2.282zm-2.271-11.774l1.558-1.198c.727.77 1.469 1.794 2.227 3.074l-1.625 1.13c-.802-1.325-1.522-2.327-2.16-3.006zm5.521 13.65h-3.896V17.27c-.134.091-.252.189-.357.294-1.024.949-1.988 1.695-2.893 2.237l-1.58-1.536c1.884-1.175 3.561-2.471 5.03-3.887h-4.586V12.5h6.145c.593-.828 1.076-1.633 1.447-2.417 0-.03.007-.046.022-.046h-6.812V8.162h7.547c.341-1.31.601-2.78.78-4.407l2.025.203c-.163 1.221-.446 2.622-.846 4.204h2.649c1.247-1.778 2.123-3.261 2.627-4.451l1.715.993c-.475 1.07-1.121 2.223-1.937 3.458h4.43v1.875h-6.724c.505.92.987 1.74 1.448 2.463h5.988v1.877h-4.519c1.261 1.296 2.946 2.56 5.054 3.796l-1.581 1.536c-.875-.586-1.699-1.204-2.471-1.852 0 1.416-.03 2.674-.089 3.773-.06 1.146-.29 1.974-.69 2.486-.356.467-.846.798-1.47.995-1.054.346-2.627.196-4.72-.452l.09-2.305c.815.377 1.52.633 2.114.768.98.196 1.76.046 2.339-.452.25-.286.4-.73.444-1.333.12-1.537.112-2.418-.022-2.644-.059-.105-.14-.158-.245-.158h-4.386c-.252.679-.564 1.318-.935 1.92-.208.302-.408.589-.6.86-1.56 1.988-4.297 3.238-8.215 3.75l-.513-2.168c1.796-.182 3.147-.414 4.053-.701 2.047-.678 3.427-1.898 4.14-3.66z" mask="url(#fyvaftjetb)"/>
        <path fill="#E62511" d="M31.957 16.22c0 8.956-7.154 16.218-15.979 16.218C7.154 32.438 0 25.176 0 16.219 0 7.261 7.154 0 15.978 0c8.825 0 15.979 7.262 15.979 16.22" mask="url(#fyvaftjetb)"/>
        <path fill="#FEFEFE" d="M17.753 9.912L21.748 9.912 21.748 5.856 17.753 5.856zM3.55 17.12L3.55 20.724 7.101 20.724 7.101 24.328 10.652 24.328 10.652 17.12z" mask="url(#fyvaftjetb)"/>
        <path fill="#FEFEFE" d="M4.438 9.911L4.438 13.516 14.202 13.516 14.202 24.328 17.754 24.328 17.754 9.911zM21.304 13.516L21.304 24.328 24.854 24.328 24.854 17.12 29.292 17.12 29.292 13.516z" mask="url(#fyvaftjetb)"/>
    </g>
</svg>
