<svg xmlns="http://www.w3.org/2000/svg" xmlns:xlink="http://www.w3.org/1999/xlink" width="159" height="39" viewBox="0 0 159 39">
    <defs>
        <path id="i9gfk3muza" d="M0 37.403L157.814 37.403 157.814 0 0 0z"/>
    </defs>
    <g fill="none" fill-rule="evenodd">
        <path fill="#FEFEFE" d="M43.27 34.213c0 1.073-.348 1.866-1.044 2.378-.695.513-1.662.769-2.902.769-.709 0-1.307-.043-1.794-.129-.487-.085-.89-.193-1.206-.324v-1.735c.247.156.637.3 1.167.43.53.132 1.052.197 1.565.197.722 0 1.22-.098 1.49-.296.273-.197.409-.524.409-.982 0-.295-.098-.556-.294-.784-.195-.229-.753-.53-1.67-.906-.732-.304-1.297-.692-1.698-1.164-.4-.472-.6-1.115-.6-1.929 0-.778.322-1.436.969-1.972.645-.537 1.537-.806 2.677-.806.552 0 1.048.046 1.49.137.442.092.751.172.93.243v1.531c-.374-.093-.745-.173-1.115-.244-.37-.07-.763-.106-1.18-.106-.59 0-1.017.095-1.277.284-.261.19-.392.427-.392.712 0 .358.098.628.294.811.195.184.77.455 1.722.813.887.33 1.52.75 1.895 1.258.376.507.564 1.112.564 1.814"/>
        <mask id="cdyb90odvb" fill="#fff">
            <use xlink:href="#i9gfk3muza"/>
        </mask>
        <path fill="#FEFEFE" d="M44.633 37.228h2.09v-7.716h-2.09v7.716zm2.146-9.435c0 .32-.107.59-.32.81-.215.217-.475.326-.781.326-.301 0-.56-.109-.776-.327-.217-.218-.325-.489-.325-.81 0-.312.108-.577.325-.795.216-.219.475-.328.776-.328.306 0 .566.11.78.328.214.218.321.483.321.796zM55.167 37.228h-2.088v-5.416c0-.202-.085-.39-.251-.564-.168-.175-.407-.262-.72-.262-.3 0-.563.065-.79.195-.229.13-.423.297-.583.5v5.547h-2.089v-7.715h2.01l.04 1.228c.151-.367.444-.69.876-.97.432-.279.96-.419 1.58-.419.626 0 1.118.203 1.477.608.358.404.538 1.023.538 1.855v5.413zM62.196 33.413v-.114c0-1.044-.157-1.755-.47-2.136-.313-.38-.696-.571-1.149-.571-.474 0-.86.204-1.158.612-.298.407-.448 1.105-.448 2.095v.114c0 1.088.145 1.811.434 2.17.29.358.68.536 1.172.536.444 0 .824-.174 1.142-.523.318-.349.477-1.077.477-2.183zm2.145.188c0 1.196-.334 2.129-1.003 2.799-.668.669-1.586 1.004-2.752 1.004-1.159 0-2.08-.343-2.763-1.028-.683-.685-1.025-1.61-1.025-2.775v-.49c0-1.138.337-2.056 1.012-2.755.675-.698 1.596-1.047 2.762-1.047 1.176 0 2.098.351 2.766 1.054.669.704 1.003 1.62 1.003 2.748v.49zM70.24 30.683v-.975c0-.385-.105-.67-.315-.853-.21-.183-.555-.275-1.036-.275h-.695v3.164h.813c.35 0 .642-.091.879-.275.236-.184.354-.446.354-.786zm2.273-.152c0 .86-.255 1.508-.765 1.944-.512.437-1.248.655-2.213.655h-1.34v4.098h-2.216V27.106h3.698c1.059 0 1.796.264 2.212.79.415.526.624 1.138.624 1.836v.799zM77.969 34.637v-.208c0-.466-.106-.82-.318-1.065-.212-.243-.527-.365-.943-.365-.39 0-.699.114-.926.345-.228.23-.342.597-.342 1.099v.207c0 .524.12.873.362 1.047.24.175.546.263.92.263.32 0 .608-.107.863-.32.256-.212.384-.546.384-1.003zm2.003 2.59h-1.95l-.04-1.012c-.16.323-.43.586-.808.792-.379.206-.82.308-1.325.308-.83 0-1.459-.213-1.885-.643-.426-.429-.64-1.08-.64-1.951v-.135c0-.863.285-1.527.855-1.995.57-.466 1.335-.701 2.296-.701.29 0 .577.044.86.13.283.086.49.194.62.323v-.76c0-.265-.117-.488-.352-.672-.235-.183-.568-.275-.999-.275-.46 0-.872.053-1.233.159-.36.106-.674.238-.94.396v-1.314c.345-.143.728-.266 1.153-.369.424-.104.938-.156 1.543-.156.97 0 1.687.226 2.15.675.463.45.695 1.168.695 2.157v5.044zM87.531 36.82c-.082.072-.328.188-.737.346-.41.158-.836.238-1.28.238-1.215 0-2.181-.324-2.9-.971-.718-.647-1.078-1.618-1.078-2.912v-.33c0-1.173.353-2.113 1.058-2.821.706-.708 1.66-1.061 2.861-1.061.475 0 .903.061 1.287.185.382.124.646.257.79.398v1.371c-.187-.173-.436-.318-.747-.436-.31-.117-.648-.177-1.013-.177-.635 0-1.12.235-1.456.702-.338.468-.506 1.11-.506 1.925v.141c0 .913.136 1.561.41 1.942.274.38.715.57 1.324.57.409 0 .806-.064 1.193-.193.386-.13.651-.26.794-.39v1.473zM98.672 34.213c0 1.073-.347 1.866-1.043 2.378-.697.513-1.664.769-2.903.769-.71 0-1.306-.043-1.794-.129-.487-.085-.89-.193-1.206-.324v-1.735c.247.156.637.3 1.167.43.53.132 1.053.197 1.565.197.722 0 1.219-.098 1.49-.296.272-.197.409-.524.409-.982 0-.295-.099-.556-.294-.784-.196-.229-.753-.53-1.67-.906-.732-.304-1.298-.692-1.698-1.164-.4-.472-.6-1.115-.6-1.929 0-.778.322-1.436.968-1.972.646-.537 1.539-.806 2.678-.806.553 0 1.049.046 1.49.137.441.092.751.172.93.243v1.531c-.374-.093-.745-.173-1.115-.244-.37-.07-.763-.106-1.18-.106-.591 0-1.017.095-1.277.284-.261.19-.392.427-.392.712 0 .358.098.628.294.811.195.184.77.455 1.722.813.887.33 1.518.75 1.895 1.258.376.507.564 1.112.564 1.814M105.022 32.678c-.043-.761-.205-1.307-.486-1.636-.282-.329-.649-.493-1.1-.493-.397 0-.751.162-1.063.486-.31.325-.48.873-.506 1.643h3.155zm1.946 1.094h-5.114c0 .862.19 1.462.569 1.8.379.336.871.504 1.477.504.4 0 .81-.052 1.231-.157.42-.104.853-.26 1.297-.47v1.298c-.383.216-.806.38-1.27.491-.464.11-.998.165-1.604.165-1.159 0-2.082-.317-2.77-.95-.688-.634-1.033-1.559-1.033-2.778v-.55c0-1.066.316-1.969.945-2.708.63-.739 1.544-1.109 2.742-1.109 1.142 0 2.016.347 2.622 1.04.606.692.908 1.595.908 2.707v.717zM114.256 36.82c-.082.072-.329.188-.738.346-.41.158-.836.238-1.28.238-1.214 0-2.18-.324-2.899-.971-.718-.647-1.078-1.618-1.078-2.912v-.33c0-1.173.353-2.113 1.058-2.821.705-.708 1.659-1.061 2.86-1.061.476 0 .904.061 1.287.185.383.124.647.257.79.398v1.371c-.186-.173-.435-.318-.746-.436-.311-.117-.649-.177-1.014-.177-.634 0-1.12.235-1.456.702-.337.468-.506 1.11-.506 1.925v.141c0 .913.137 1.561.411 1.942.274.38.715.57 1.323.57.409 0 .806-.064 1.192-.193.387-.13.653-.26.796-.39v1.473zM122.435 37.228h-2.003l-.043-1.187c-.243.34-.578.652-1.004.936-.426.285-.953.427-1.578.427-.588 0-1.05-.182-1.387-.546-.336-.362-.505-1.008-.505-1.935v-5.41h2.088v5.232c0 .405.082.676.247.816.165.14.367.208.607.208.303 0 .583-.057.839-.174.255-.116.473-.299.651-.545v-5.537h2.088v7.715zM130.019 31.861h-1.932c0-.22-.044-.409-.134-.566-.09-.157-.264-.237-.525-.237-.249 0-.458.07-.628.208-.17.138-.28.286-.333.441v5.52h-2.088v-7.714h2.01l.04 1.215c.195-.438.45-.777.761-1.016.312-.24.679-.36 1.102-.36.632 0 1.105.215 1.416.643.311.428.415 1.05.31 1.866M131.012 37.228h2.088v-7.716h-2.088v7.716zm2.145-9.435c0 .32-.107.59-.32.81-.214.217-.475.326-.781.326-.301 0-.56-.109-.776-.327-.216-.218-.325-.489-.325-.81 0-.312.109-.577.325-.795.216-.219.475-.328.776-.328.306 0 .567.11.78.328.214.218.321.483.321.796zM139.215 30.826h-1.975V34.8c0 .405.066.701.195.89.131.188.382.283.755.283.177 0 .35-.015.514-.046.164-.029.315-.068.454-.115v1.211c-.221.095-.495.164-.819.21-.324.044-.643.067-.955.067-.687 0-1.231-.227-1.631-.683-.4-.456-.6-1.11-.6-1.963v-3.844h-.895v-1.079l.98-.059.696-2.567h1.306v2.553h1.975v1.167zM140.547 37.228h2.089v-7.716h-2.09v7.716zm2.145-9.435c0 .32-.107.59-.32.81-.215.217-.474.326-.78.326-.302 0-.561-.109-.778-.327-.215-.218-.324-.489-.324-.81 0-.312.109-.577.324-.795.217-.219.476-.328.778-.328.306 0 .565.11.78.328.213.218.32.483.32.796zM149.517 32.678c-.043-.761-.205-1.307-.486-1.636-.281-.329-.648-.493-1.1-.493-.397 0-.751.162-1.062.486-.312.325-.48.873-.506 1.643h3.154zm1.946 1.094h-5.113c0 .862.189 1.462.568 1.8.379.336.872.504 1.477.504.4 0 .811-.052 1.231-.157.42-.104.853-.26 1.298-.47v1.298c-.384.216-.807.38-1.271.491-.464.11-.998.165-1.603.165-1.16 0-2.082-.317-2.771-.95-.688-.634-1.032-1.559-1.032-2.778v-.55c0-1.066.315-1.969.944-2.708.63-.739 1.544-1.109 2.743-1.109 1.141 0 2.016.347 2.62 1.04.607.692.91 1.595.91 2.707v.717zM157.814 34.884c0 .717-.253 1.316-.759 1.797-.505.482-1.338.722-2.498.722-.483 0-.923-.04-1.32-.122-.397-.081-.685-.181-.863-.3V35.61c.205.121.494.244.869.367.375.124.76.186 1.152.186.502 0 .887-.087 1.156-.262.267-.175.403-.4.403-.674 0-.264-.09-.48-.269-.645-.178-.166-.633-.363-1.364-.592-.689-.21-1.157-.508-1.406-.894-.247-.385-.371-.882-.371-1.49 0-.623.222-1.15.666-1.58.444-.43 1.144-.644 2.102-.644.444 0 .819.035 1.125.106.307.07.595.17.866.302v1.24c-.196-.117-.474-.214-.834-.291-.36-.079-.706-.117-1.037-.117-.381 0-.692.068-.927.204-.238.135-.356.32-.356.551 0 .264.091.449.274.554.183.106.592.254 1.226.447.809.246 1.371.57 1.689.967.317.399.476.912.476 1.539M54.462 6.987L55.684 8.2c-1.01 1.275-2.373 2.615-4.092 4.022l-1.144-1.294c1.809-1.513 3.147-2.827 4.014-3.942zM40.597 5.196l.252-1.773c.919.068 2.566.246 4.945.538 2.288.253 4.324.578 6.108.975l-.368 1.752c-3.374-.795-7.02-1.294-10.937-1.492zm7.446 7.903v6.63c0 .796-.271 1.42-.814 1.87-.401.372-1.073.558-2.017.558-1.073-.013-2.12-.146-3.14-.397l-.117-1.913c2.003.572 3.277.717 3.82.439.323-.266.491-.657.504-1.175V9.236c0-.185-.097-.279-.291-.279h-7.581V7.225H47.5c.375.014.555.22.542.618v.697c.866 2.602 1.772 4.605 2.715 6.012 1.15 1.726 2.857 3.451 5.119 5.176l-1.513 1.175c-2.805-2.335-4.911-4.937-6.32-7.804zm-10.16-2.13h6.806l.504.677c-.44 3.212-2.676 6.132-6.709 8.759l-1.299-1.493c1.512-.796 2.675-1.56 3.49-2.29.685-.61 1.325-1.353 1.92-2.229.426-.664.665-1.121.718-1.374.038-.092.038-.165 0-.218-.091-.067-.234-.1-.428-.1h-5.003v-1.733zM66.751 20.597h4.693c.22-.45.433-.895.64-1.333H66.15c.128.252.329.697.6 1.333zm8.26-3.643h-11.75c-.051 0-.071.02-.058.06v.836c-.013.04.007.067.058.08h11.75c.052-.013.078-.04.078-.08v-.836c0-.04-.026-.06-.077-.06zm-2.559-6.728H70.63V8.97h1.822v-.975H70.63V6.74h1.822V5.686H70.63V4.432h1.822V3.277h1.377v1.155h1.629v1.254h-1.63V6.74h1.552v1.255h-1.551v.975h1.55v1.255h-1.55v1.015h2.094c.168 0 .252-.086.252-.259V3.616h1.532v8.302c0 .437-.214.656-.64.656h-15.86c-.415 0-.622-.219-.622-.656V3.616h1.532v7.366c0 .173.077.259.232.259h2.114v-1.015h-1.745V8.97h1.745V7.916h-1.668V6.661h1.668v-.975h-1.745V4.432h1.745V3.356h1.378v1.076h1.55v1.254h-1.55v.975h1.55v1.255h-1.55v1.055h1.628v1.255h-1.628v1.015h2.423V3.356h1.532v7.885h2.656v-1.015zm-12.138 4.578h17.703V13.47H60.314v1.334zm4.79 5.793c-.078-.185-.156-.365-.234-.537-.167-.318-.297-.584-.388-.796h-2.481c-.116 0-.174-.066-.174-.2V15.8c0-.12.058-.18.174-.18h14.272c.128 0 .193.06.193.18v3.264c0 .134-.065.2-.193.2h-2.56c-.09.252-.22.564-.388.936-.078.132-.143.265-.194.397h5.274v1.414H59.85v-1.414h5.254zM84.664 16.01l1.474-.877c.723 1.022 1.435 2.35 2.133 3.982l-1.532.796c-.75-1.685-1.442-2.985-2.075-3.901zm11.79 3.941l-1.339-.936c.93-1.473 1.649-2.806 2.153-4.001l1.454.856c-.853 1.752-1.59 3.112-2.21 4.081h3.994v1.733H83.113V19.95h7.872v-5.275H83.27v-1.732h7.716v-2.33h-4.537V8.883h10.898c-1.901-1.008-3.724-2.249-5.469-3.723-1.615 1.633-4.408 3.305-8.376 5.018l-.931-1.653C87.12 6.958 90.074 5.2 91.43 3.25l1.629.358c-.09.12-.161.225-.213.318 2.275 2.005 5.028 3.531 8.26 4.58l-1.008 1.632c-.957-.399-1.83-.797-2.618-1.196v1.674h-4.808v2.329h7.678v1.732h-7.678v5.275h3.78zM119.116 18.434c.077-.331.142-.623.195-.876h-4.015c.349 1.036.627 2.051.834 3.047h2.326c.233-.65.453-1.374.66-2.17zm-4.77-8.819h6.38c-1.06-.902-2.114-2.07-3.162-3.504-.478.73-1.55 1.899-3.218 3.504zm6.612 4.121h-7.096c-.053 0-.072.027-.059.08v2.07c-.013.053.006.087.059.1h7.096c.051-.013.078-.047.078-.1v-2.07c0-.053-.027-.08-.078-.08zm-.834 6.869h3.49v1.572h-12.661v-1.572h3.568c-.13-.545-.28-1.103-.446-1.673-.195-.583-.337-1.041-.427-1.374h-1.047c-.272 0-.408-.145-.408-.437v-4.54c0-.278.136-.418.408-.418h9.617c.284 0 .427.14.427.418v4.54c0 .292-.143.437-.427.437h-1.28c-.427 1.633-.698 2.649-.814 3.047zm-6.38-10.532c-.658.504-1.401.962-2.23 1.374l-.911-1.374c.84-.411 1.616-.837 2.328-1.274-.583-.438-1.222-.876-1.92-1.314l.911-1.255c1.086.744 1.823 1.274 2.21 1.593.711-.676 1.377-1.453 1.998-2.33h-4.189V4.002h5.469c.245 0 .432.087.562.259.232.358.491.717.776 1.075.646-.743 1.143-1.38 1.492-1.912l1.164.936c-.427.65-.995 1.361-1.707 2.13.22.253.453.505.698.757.802-.876 1.403-1.619 1.803-2.23l1.145.936c-.478.716-1.093 1.48-1.843 2.29.66.504 1.422.994 2.289 1.473l-1.105 1.253c-.53-.317-1.048-.662-1.55-1.034v1.254h-7.39v-1.115zM108.82 17h-1.9c-.039 0-.058.02-.058.06v3.464c0 .053.02.08.058.08h1.9c.052 0 .078-.027.078-.08V17.06c0-.04-.026-.06-.078-.06zm-3.14-11.388h4.363V4.041h-4.364v1.572zm-.078 8.6h4.518v-1.572H105.6v1.573zm0-2.787h4.518V9.854H105.6v1.572zm4.828 10.513c0 .158-.078.238-.233.238h-4.654c-.141 0-.212-.08-.212-.238v-6.292c.012-.146.083-.219.212-.219h4.654c.155.014.233.087.233.22v6.29zm-5.139-13.46h5.371V6.908h-5.371V8.48zM138.924 11.012c-.427-.676-.821-1.4-1.183-2.17h-1.124c-.389.89-.763 1.613-1.125 2.17h3.432zm-6.398 3.664h9.268c-.802-.823-1.396-1.493-1.784-2.01h-5.681c-.854.969-1.454 1.639-1.803 2.01zm-1.979-10.373l1.357-1.055c.634.678 1.28 1.58 1.94 2.708l-1.415.996c-.699-1.168-1.326-2.05-1.882-2.649zm4.81 12.026h-3.394v-1.116c-.116.08-.22.166-.31.259-.893.836-1.732 1.494-2.52 1.97l-1.377-1.352c1.64-1.035 3.102-2.177 4.381-3.425h-3.994v-1.653h5.352c.517-.73.937-1.439 1.26-2.13 0-.026.006-.04.02-.04h-5.934V7.19h6.573c.298-1.154.524-2.448.68-3.882l1.764.179c-.142 1.075-.389 2.31-.737 3.703h2.307c1.086-1.566 1.849-2.872 2.288-3.921l1.494.875c-.414.943-.977 1.959-1.688 3.046h3.86v1.652h-5.857c.44.811.86 1.534 1.261 2.17h5.215v1.653h-3.935c1.098 1.142 2.565 2.256 4.401 3.345l-1.377 1.353c-.762-.517-1.48-1.061-2.152-1.632 0 1.248-.027 2.356-.077 3.324-.052 1.01-.253 1.74-.602 2.19-.31.412-.737.703-1.28.877-.918.305-2.287.172-4.11-.398l.078-2.031c.71.332 1.324.557 1.841.677.854.172 1.532.04 2.037-.398.219-.253.348-.644.387-1.175.104-1.354.097-2.13-.02-2.33-.05-.092-.122-.138-.213-.138h-3.82c-.219.597-.491 1.16-.814 1.692-.181.265-.356.518-.523.757-1.358 1.751-3.743 2.852-7.155 3.304l-.446-1.911c1.564-.16 2.74-.365 3.53-.618 1.783-.597 2.985-1.671 3.605-3.224z" mask="url(#cdyb90odvb)"/>
        <path fill="#E62511" d="M27.833 14.288c0 7.891-6.23 14.288-13.916 14.288S0 22.179 0 14.288C0 6.396 6.231 0 13.917 0s13.916 6.396 13.916 14.288" mask="url(#cdyb90odvb)"/>
        <path fill="#FEFEFE" d="M15.462 8.732L18.942 8.732 18.942 5.159 15.462 5.159zM3.092 15.082L3.092 18.257 6.184 18.257 6.184 21.432 9.277 21.432 9.277 15.082z" mask="url(#cdyb90odvb)"/>
        <path fill="#FEFEFE" d="M3.866 8.731L3.866 11.907 12.369 11.907 12.369 21.432 15.463 21.432 15.463 8.731zM18.555 11.907L18.555 21.432 21.647 21.432 21.647 15.082 25.513 15.082 25.513 11.907z" mask="url(#cdyb90odvb)"/>
    </g>
</svg>
