<?xml version="1.0" encoding="utf-8"?>
<!-- Generator: Adobe Illustrator 24.0.1, SVG Export Plug-In . SVG Version: 6.00 Build 0)  -->
<svg version="1.1" id="圖層_1" xmlns="http://www.w3.org/2000/svg" xmlns:xlink="http://www.w3.org/1999/xlink" x="0px" y="0px"
	 viewBox="0 0 158 38" style="enable-background:new 0 0 158 38;" xml:space="preserve">
<style type="text/css">
	.st0{fill:#FFFFFF;}
	.st1{fill:#E62310;}
</style>
<g>
	<g>
		<path class="st0" d="M43.1,34.5c0,1-0.3,1.8-1,2.3c-0.7,0.5-1.7,0.7-2.9,0.7c-0.7,0-1.3,0-1.8-0.1c-0.5-0.1-0.9-0.2-1.2-0.3v-1.7
			c0.2,0.2,0.6,0.3,1.2,0.4c0.5,0.1,1.1,0.2,1.6,0.2c0.7,0,1.2-0.1,1.5-0.3c0.3-0.2,0.4-0.5,0.4-1c0-0.3-0.1-0.5-0.3-0.8
			c-0.2-0.2-0.8-0.5-1.7-0.9c-0.7-0.3-1.3-0.7-1.7-1.1c-0.4-0.5-0.6-1.1-0.6-1.9c0-0.8,0.3-1.4,1-1.9c0.6-0.5,1.5-0.8,2.7-0.8
			c0.6,0,1.1,0,1.5,0.1c0.4,0.1,0.8,0.2,0.9,0.2v1.5c-0.4-0.1-0.7-0.2-1.1-0.2C41.1,29,40.7,29,40.3,29c-0.6,0-1,0.1-1.3,0.3
			c-0.3,0.2-0.4,0.4-0.4,0.7c0,0.3,0.1,0.6,0.3,0.8c0.2,0.2,0.8,0.4,1.7,0.8c0.9,0.3,1.5,0.7,1.9,1.2C42.9,33.2,43.1,33.8,43.1,34.5
			z"/>
		<path class="st0" d="M46.6,28.2c0,0.3-0.1,0.6-0.3,0.8c-0.2,0.2-0.5,0.3-0.8,0.3c-0.3,0-0.6-0.1-0.8-0.3c-0.2-0.2-0.3-0.5-0.3-0.8
			c0-0.3,0.1-0.6,0.3-0.8c0.2-0.2,0.5-0.3,0.8-0.3c0.3,0,0.6,0.1,0.8,0.3C46.5,27.7,46.6,27.9,46.6,28.2z M46.6,37.4h-2.1v-7.5h2.1
			V37.4z"/>
		<path class="st0" d="M55,37.4h-2.1v-5.3c0-0.2-0.1-0.4-0.3-0.5c-0.2-0.2-0.4-0.3-0.7-0.3c-0.3,0-0.6,0.1-0.8,0.2
			c-0.2,0.1-0.4,0.3-0.6,0.5v5.4h-2.1v-7.5h2l0,1.2c0.2-0.4,0.4-0.7,0.9-0.9c0.4-0.3,1-0.4,1.6-0.4c0.6,0,1.1,0.2,1.5,0.6
			c0.4,0.4,0.5,1,0.5,1.8V37.4z"/>
		<path class="st0" d="M64.2,33.9c0,1.2-0.3,2.1-1,2.7c-0.7,0.7-1.6,1-2.8,1c-1.2,0-2.1-0.3-2.8-1c-0.7-0.7-1-1.6-1-2.7v-0.5
			c0-1.1,0.3-2,1-2.7c0.7-0.7,1.6-1,2.8-1c1.2,0,2.1,0.3,2.8,1c0.7,0.7,1,1.6,1,2.7V33.9z M62,33.7v-0.1c0-1-0.2-1.7-0.5-2.1
			c-0.3-0.4-0.7-0.6-1.1-0.6c-0.5,0-0.9,0.2-1.2,0.6c-0.3,0.4-0.4,1.1-0.4,2v0.1c0,1.1,0.1,1.8,0.4,2.1c0.3,0.3,0.7,0.5,1.2,0.5
			c0.4,0,0.8-0.2,1.1-0.5C61.9,35.5,62,34.8,62,33.7z"/>
		<path class="st0" d="M72.4,30.9c0,0.8-0.3,1.5-0.8,1.9c-0.5,0.4-1.2,0.6-2.2,0.6H68v4h-2.2v-9.9h3.7c1.1,0,1.8,0.3,2.2,0.8
			c0.4,0.5,0.6,1.1,0.6,1.8V30.9z M70.1,31.1v-0.9c0-0.4-0.1-0.6-0.3-0.8c-0.2-0.2-0.6-0.3-1-0.3H68v3.1h0.8c0.3,0,0.6-0.1,0.9-0.3
			C70,31.6,70.1,31.4,70.1,31.1z"/>
		<path class="st0" d="M79.8,37.4h-2l0-1c-0.2,0.3-0.4,0.6-0.8,0.8c-0.4,0.2-0.8,0.3-1.3,0.3c-0.8,0-1.5-0.2-1.9-0.6
			c-0.4-0.4-0.6-1.1-0.6-1.9v-0.1c0-0.8,0.3-1.5,0.9-1.9c0.6-0.5,1.3-0.7,2.3-0.7c0.3,0,0.6,0,0.9,0.1c0.3,0.1,0.5,0.2,0.6,0.3v-0.7
			c0-0.3-0.1-0.5-0.4-0.7c-0.2-0.2-0.6-0.3-1-0.3c-0.5,0-0.9,0.1-1.2,0.2c-0.4,0.1-0.7,0.2-0.9,0.4v-1.3c0.3-0.1,0.7-0.3,1.2-0.4
			c0.4-0.1,0.9-0.2,1.5-0.2c1,0,1.7,0.2,2.2,0.7c0.5,0.4,0.7,1.1,0.7,2.1V37.4z M77.8,34.9v-0.2c0-0.5-0.1-0.8-0.3-1
			c-0.2-0.2-0.5-0.4-0.9-0.4c-0.4,0-0.7,0.1-0.9,0.3c-0.2,0.2-0.3,0.6-0.3,1.1v0.2c0,0.5,0.1,0.8,0.4,1c0.2,0.2,0.5,0.3,0.9,0.3
			c0.3,0,0.6-0.1,0.9-0.3C77.7,35.7,77.8,35.4,77.8,34.9z"/>
	</g>
	<g>
		<path class="st0" d="M87.4,37c-0.1,0.1-0.3,0.2-0.7,0.3c-0.4,0.2-0.8,0.2-1.3,0.2c-1.2,0-2.2-0.3-2.9-0.9
			c-0.7-0.6-1.1-1.6-1.1-2.8v-0.3c0-1.1,0.4-2.1,1.1-2.7c0.7-0.7,1.7-1,2.9-1c0.5,0,0.9,0.1,1.3,0.2c0.4,0.1,0.6,0.3,0.8,0.4v1.3
			c-0.2-0.2-0.4-0.3-0.7-0.4c-0.3-0.1-0.7-0.2-1-0.2c-0.6,0-1.1,0.2-1.5,0.7c-0.3,0.5-0.5,1.1-0.5,1.9v0.1c0,0.9,0.1,1.5,0.4,1.9
			c0.3,0.4,0.7,0.6,1.3,0.6c0.4,0,0.8-0.1,1.2-0.2c0.4-0.1,0.7-0.2,0.8-0.4V37z"/>
	</g>
	<g>
		<path class="st0" d="M98.9,34.5c0,1-0.3,1.8-1,2.3c-0.7,0.5-1.7,0.7-2.9,0.7c-0.7,0-1.3,0-1.8-0.1c-0.5-0.1-0.9-0.2-1.2-0.3v-1.7
			c0.2,0.2,0.6,0.3,1.2,0.4c0.5,0.1,1.1,0.2,1.6,0.2c0.7,0,1.2-0.1,1.5-0.3c0.3-0.2,0.4-0.5,0.4-1c0-0.3-0.1-0.5-0.3-0.8
			c-0.2-0.2-0.8-0.5-1.7-0.9c-0.7-0.3-1.3-0.7-1.7-1.1c-0.4-0.5-0.6-1.1-0.6-1.9c0-0.8,0.3-1.4,1-1.9c0.6-0.5,1.5-0.8,2.7-0.8
			c0.6,0,1.1,0,1.5,0.1c0.4,0.1,0.8,0.2,0.9,0.2v1.5c-0.4-0.1-0.7-0.2-1.1-0.2C96.9,29,96.5,29,96,29c-0.6,0-1,0.1-1.3,0.3
			c-0.3,0.2-0.4,0.4-0.4,0.7c0,0.3,0.1,0.6,0.3,0.8c0.2,0.2,0.8,0.4,1.7,0.8c0.9,0.3,1.5,0.7,1.9,1.2C98.7,33.2,98.9,33.8,98.9,34.5
			z"/>
		<path class="st0" d="M107.1,34.1H102c0,0.8,0.2,1.4,0.6,1.7c0.4,0.3,0.9,0.5,1.5,0.5c0.4,0,0.8-0.1,1.2-0.2
			c0.4-0.1,0.9-0.3,1.3-0.5V37c-0.4,0.2-0.8,0.4-1.3,0.5c-0.5,0.1-1,0.2-1.6,0.2c-1.2,0-2.1-0.3-2.8-0.9c-0.7-0.6-1-1.5-1-2.7v-0.5
			c0-1,0.3-1.9,0.9-2.6c0.6-0.7,1.5-1.1,2.7-1.1c1.1,0,2,0.3,2.6,1c0.6,0.7,0.9,1.6,0.9,2.6C107.1,33.8,107.1,34,107.1,34.1z
			 M105.2,33c0-0.7-0.2-1.3-0.5-1.6c-0.3-0.3-0.6-0.5-1.1-0.5c-0.4,0-0.7,0.2-1.1,0.5c-0.3,0.3-0.5,0.8-0.5,1.6H105.2z"/>
		<path class="st0" d="M114.4,37c-0.1,0.1-0.3,0.2-0.7,0.3c-0.4,0.2-0.8,0.2-1.3,0.2c-1.2,0-2.2-0.3-2.9-0.9
			c-0.7-0.6-1.1-1.6-1.1-2.8v-0.3c0-1.1,0.4-2.1,1.1-2.7c0.7-0.7,1.7-1,2.9-1c0.5,0,0.9,0.1,1.3,0.2c0.4,0.1,0.6,0.3,0.8,0.4v1.3
			c-0.2-0.2-0.4-0.3-0.7-0.4c-0.3-0.1-0.6-0.2-1-0.2c-0.6,0-1.1,0.2-1.5,0.7c-0.3,0.5-0.5,1.1-0.5,1.9v0.1c0,0.9,0.1,1.5,0.4,1.9
			c0.3,0.4,0.7,0.6,1.3,0.6c0.4,0,0.8-0.1,1.2-0.2c0.4-0.1,0.7-0.2,0.8-0.4V37z"/>
		<path class="st0" d="M122.6,37.4h-2l0-1.2c-0.2,0.3-0.6,0.6-1,0.9c-0.4,0.3-1,0.4-1.6,0.4c-0.6,0-1.1-0.2-1.4-0.5
			c-0.3-0.4-0.5-1-0.5-1.9v-5.3h2.1V35c0,0.4,0.1,0.7,0.2,0.8c0.2,0.1,0.4,0.2,0.6,0.2c0.3,0,0.6-0.1,0.8-0.2
			c0.3-0.1,0.5-0.3,0.7-0.5v-5.4h2.1V37.4z"/>
		<path class="st0" d="M130.2,32.2h-1.9c0-0.2,0-0.4-0.1-0.5c-0.1-0.2-0.3-0.2-0.5-0.2c-0.2,0-0.5,0.1-0.6,0.2
			c-0.2,0.1-0.3,0.3-0.3,0.4v5.4h-2.1v-7.5h2l0,1.2c0.2-0.4,0.4-0.8,0.8-1c0.3-0.2,0.7-0.3,1.1-0.3c0.6,0,1.1,0.2,1.4,0.6
			C130.2,30.8,130.3,31.4,130.2,32.2z"/>
		<path class="st0" d="M133.3,28.2c0,0.3-0.1,0.6-0.3,0.8c-0.2,0.2-0.5,0.3-0.8,0.3c-0.3,0-0.6-0.1-0.8-0.3
			c-0.2-0.2-0.3-0.5-0.3-0.8c0-0.3,0.1-0.6,0.3-0.8c0.2-0.2,0.5-0.3,0.8-0.3c0.3,0,0.6,0.1,0.8,0.3
			C133.2,27.7,133.3,27.9,133.3,28.2z M133.3,37.4h-2.1v-7.5h2.1V37.4z"/>
		<path class="st0" d="M139.4,31.2h-2v3.9c0,0.4,0.1,0.7,0.2,0.9c0.1,0.2,0.4,0.3,0.8,0.3c0.2,0,0.4,0,0.5,0c0.2,0,0.3-0.1,0.5-0.1
			v1.2c-0.2,0.1-0.5,0.2-0.8,0.2c-0.3,0-0.6,0.1-1,0.1c-0.7,0-1.2-0.2-1.6-0.7c-0.4-0.4-0.6-1.1-0.6-1.9v-3.7h-0.9v-1.1l1-0.1
			l0.7-2.5h1.3v2.5h2V31.2z"/>
		<path class="st0" d="M142.9,28.2c0,0.3-0.1,0.6-0.3,0.8c-0.2,0.2-0.5,0.3-0.8,0.3c-0.3,0-0.6-0.1-0.8-0.3
			c-0.2-0.2-0.3-0.5-0.3-0.8c0-0.3,0.1-0.6,0.3-0.8c0.2-0.2,0.5-0.3,0.8-0.3c0.3,0,0.6,0.1,0.8,0.3
			C142.8,27.7,142.9,27.9,142.9,28.2z M142.8,37.4h-2.1v-7.5h2.1V37.4z"/>
		<path class="st0" d="M151.6,34.1h-5.1c0,0.8,0.2,1.4,0.6,1.7c0.4,0.3,0.9,0.5,1.5,0.5c0.4,0,0.8-0.1,1.2-0.2
			c0.4-0.1,0.9-0.3,1.3-0.5V37c-0.4,0.2-0.8,0.4-1.3,0.5c-0.5,0.1-1,0.2-1.6,0.2c-1.2,0-2.1-0.3-2.8-0.9c-0.7-0.6-1-1.5-1-2.7v-0.5
			c0-1,0.3-1.9,0.9-2.6c0.6-0.7,1.5-1.1,2.7-1.1c1.1,0,2,0.3,2.6,1c0.6,0.7,0.9,1.6,0.9,2.6C151.6,33.8,151.6,34,151.6,34.1z
			 M149.7,33c0-0.7-0.2-1.3-0.5-1.6c-0.3-0.3-0.6-0.5-1.1-0.5c-0.4,0-0.8,0.2-1.1,0.5c-0.3,0.3-0.5,0.8-0.5,1.6H149.7z"/>
		<path class="st0" d="M158,35.1c0,0.7-0.3,1.3-0.8,1.7c-0.5,0.5-1.3,0.7-2.5,0.7c-0.5,0-0.9,0-1.3-0.1c-0.4-0.1-0.7-0.2-0.9-0.3
			v-1.3c0.2,0.1,0.5,0.2,0.9,0.4c0.4,0.1,0.8,0.2,1.1,0.2c0.5,0,0.9-0.1,1.2-0.3c0.3-0.2,0.4-0.4,0.4-0.7c0-0.3-0.1-0.5-0.3-0.6
			c-0.2-0.2-0.6-0.4-1.4-0.6c-0.7-0.2-1.2-0.5-1.4-0.9c-0.2-0.4-0.4-0.9-0.4-1.5c0-0.6,0.2-1.1,0.7-1.5c0.4-0.4,1.1-0.6,2.1-0.6
			c0.4,0,0.8,0,1.1,0.1c0.3,0.1,0.6,0.2,0.9,0.3v1.2c-0.2-0.1-0.5-0.2-0.8-0.3c-0.4-0.1-0.7-0.1-1-0.1c-0.4,0-0.7,0.1-0.9,0.2
			c-0.2,0.1-0.4,0.3-0.4,0.5c0,0.3,0.1,0.4,0.3,0.5c0.2,0.1,0.6,0.2,1.2,0.4c0.8,0.2,1.4,0.6,1.7,0.9C157.8,34,158,34.5,158,35.1z"
			/>
	</g>
	<path class="st0" d="M80.9,9.8L80,8.3c4.4-1.5,7.3-3.2,8.6-5l1.6,0.3L90,3.9c2.3,1.9,4.9,3.3,8,4.3l-1,1.5C94,8.6,91.3,7,89,5.1
		C87.5,6.6,84.8,8.2,80.9,9.8 M88.2,14.3h-7.5v-1.6h7.5v-2.3h-4.4V8.8h10.5v1.6h-4.5v2.3h7.5v1.6h-7.5v4.8h7.6v1.6H80.5v-1.6h7.7
		V14.3z M83.4,14.5c0.7,0.9,1.4,2.1,2.1,3.6l-1.5,0.8c-0.7-1.5-1.4-2.7-2.1-3.5L83.4,14.5z M95.8,15.5c-0.8,1.4-1.6,2.6-2.3,3.5
		l-1.3-1c0.8-1.1,1.6-2.2,2.2-3.4L95.8,15.5z"/>
	<path class="st0" d="M108.3,7.9h-5.8V6.5h5.8V7.9z M104.3,20.5h-1.6v-5.8c0-0.3,0.2-0.5,0.5-0.5h4.3c0.3,0,0.5,0.2,0.5,0.5v4.7
		c0,0.4-0.2,0.5-0.5,0.5h-3.2V20.5z M107.7,5.3H103V3.8h4.7V5.3z M107.8,10.6H103V9.2h4.8V10.6z M107.8,13.3H103v-1.5h4.8V13.3z
		 M104.5,15.8c-0.2,0-0.3,0.1-0.3,0.3v2.5h1.9c0.2,0,0.3-0.1,0.3-0.3V16c0-0.2-0.1-0.3-0.3-0.3H104.5z M111.1,9.5
		c-0.6,0.4-1.2,0.8-1.8,1.1l-0.9-1.3l2.1-1.2l-1.7-1.4l1-1.1l1.8,1.6c0.7-0.7,1.4-1.4,1.8-2.1h-3.3V3.7h4.5c0.2,0,0.4,0.1,0.5,0.3
		l0.7,1c0.6-0.7,1.1-1.2,1.4-1.7l1.1,0.9c-0.4,0.6-0.9,1.3-1.6,2l0.6,0.7c0.7-0.8,1.3-1.5,1.7-2.1l1.1,0.9c-0.4,0.7-1,1.4-1.8,2.2
		c0.6,0.5,1.4,1,2.2,1.5l-1.1,1.2l-1.3-0.9v1h-6.9L111.1,9.5L111.1,9.5z M120.3,19.3v1.5h-11v-1.5h2.9l-0.7-2.7h-1.3
		c-0.3,0-0.4-0.1-0.4-0.4v-4.2c0-0.3,0.1-0.4,0.4-0.4h8.8c0.3,0,0.4,0.1,0.4,0.4v4.2c0,0.3-0.1,0.4-0.4,0.4h-1.1l-0.3,1.4l-0.4,1.4
		H120.3z M111.4,13L111.4,13l-0.1,2l0.1,0.1h6.5c0,0,0.1,0,0.1-0.1V13l-0.1-0.1H111.4z M117.5,9c-0.9-0.8-1.9-1.9-2.8-3.2
		c-0.7,1-1.7,2.1-3,3.2H117.5z M116.3,16.5h-3.2l0.6,2.7h1.8l0.6-1.9L116.3,16.5z"/>
	<path class="st0" d="M129.1,15.4v-1.1c-0.8,0.8-1.7,1.5-2.8,2.1l-1.3-1.2c1.5-0.9,3-2.1,4.3-3.3h-3.9v-1.6h5.2
		c0.5-0.7,0.9-1.4,1.2-2v0h-5.8V6.7h6.4c0.3-1.1,0.5-2.3,0.7-3.7l1.7,0.2c-0.1,0.9-0.4,2.1-0.8,3.5h2.4c0.9-1.4,1.6-2.6,2-3.5
		l1.5,0.8c-0.3,0.9-0.9,1.8-1.5,2.8h3.6v1.6h-5.6c0.4,0.8,0.8,1.4,1.2,2.1h5.1v1.6h-3.9c1,1.1,2.4,2.1,4.2,3.2l-1.3,1.3
		c-0.7-0.5-1.3-0.9-2-1.5l-0.1,3.1c-0.1,1-0.3,1.6-0.6,2.1c-0.3,0.4-0.7,0.7-1.2,0.8c-0.9,0.3-2.2,0.2-4-0.3v-1.9
		c0.7,0.3,1.3,0.5,1.8,0.6c0.8,0.1,1.5,0,2-0.4c0.2-0.2,0.3-0.6,0.4-1.1c0.1-1.3,0.1-2,0-2.2c0-0.1-0.1-0.1-0.2-0.1h-3.7
		c-0.2,0.6-0.4,1.1-0.8,1.6l-0.4,0.6c-1.4,1.8-3.7,2.9-7,3.3l-0.4-1.7l2.1-0.3c2.4-0.5,4-1.7,4.7-3.5H129.1z M129.2,3
		c0.6,0.6,1.2,1.5,1.8,2.5l-1.4,0.9c-0.6-1.1-1.2-1.9-1.7-2.4L129.2,3z M138.6,13.8l-1.7-1.9h-5.5c-0.4,0.5-1,1.1-1.7,1.9H138.6z
		 M134.8,8.3h-1.2l-1.1,2.1h3.3L134.8,8.3z"/>
	<path class="st1" d="M27.1,13.9c0,7.5-6.1,13.5-13.5,13.5C6.1,27.5,0,21.4,0,13.9C0,6.5,6.1,0.4,13.5,0.4
		C21,0.4,27.1,6.5,27.1,13.9"/>
	<rect x="15.1" y="5.3" class="st0" width="3.4" height="3.4"/>
	<polygon class="st0" points="3,14.7 3,17.7 6,17.7 6,20.7 9,20.7 9,14.7 	"/>
	<polygon class="st0" points="3.8,8.7 3.8,11.7 12,11.7 12,20.7 15.1,20.7 15.1,8.7 	"/>
	<polygon class="st0" points="18.1,11.7 18.1,20.7 21.1,20.7 21.1,14.7 24.8,14.7 24.8,11.7 	"/>
	<path class="st0" d="M62.4,18h-2.6c-0.1,0-0.2-0.1-0.2-0.2v-3c0-0.1,0.1-0.2,0.2-0.2h13.9c0.1,0,0.2,0.1,0.2,0.2v3
		c0,0.1-0.1,0.2-0.2,0.2h-2.5l-0.5,1.3h4.8v1.5H58v-1.5H63L62.4,18z M75.3,14h-17v-1.3h17V14z M68.2,9.7V8.5h1.7V7.6h-1.7V6.4h1.7
		v-1h-1.8V4.2h1.8v-1h1.3v1h1.6v1.2h-1.6v1h1.6v1.2h-1.6v0.9h1.6v1.2h-1.6v0.9h2.1c0.2,0,0.3-0.1,0.3-0.2V3.4H75v7.8
		c0,0.4-0.2,0.7-0.7,0.7H59.2c-0.4,0-0.6-0.2-0.6-0.7V3.4H60v6.9c0,0.2,0.1,0.2,0.2,0.2h2V9.7h-1.7V8.5h1.7v-1h-1.6V6.3h1.6V5.4
		h-1.7V4.2h1.7v-1h1.3v1h1.5v1.2h-1.5v0.9h1.5v1.2h-1.5v1h1.6v1.2h-1.6v0.9h2.3V3.2h1.5v7.4h2.5V9.7H68.2z M61.2,15.8
		C61.1,15.8,61.1,15.9,61.2,15.8l-0.1,0.8l0.1,0.1h11.2l0.1-0.1v-0.8l-0.1-0.1H61.2z M69.2,19.3l0.5-1l0.1-0.2H64l0.5,1.3H69.2z"/>
	<path class="st0" d="M42.8,10.6l0.5,0.6c-0.4,3-2.6,5.8-6.5,8.3l-1.3-1.4c1.5-0.7,2.6-1.5,3.4-2.2c0.7-0.6,1.3-1.3,1.9-2.1
		c0.4-0.6,0.6-1.1,0.7-1.3c0-0.1,0-0.1,0-0.2c-0.1-0.1-0.2-0.1-0.4-0.1h-4.9v-1.6H42.8z M46.1,18.9c0,0.8-0.3,1.4-0.8,1.8
		c-0.4,0.3-1,0.5-2,0.5c-1,0-2-0.2-3.1-0.4l-0.1-1.8c2,0.6,3.2,0.8,3.7,0.5c0.3-0.3,0.5-0.6,0.5-1.1V8.9c0-0.2-0.1-0.3-0.3-0.3h-7.4
		V7h8.9c0.4,0,0.6,0.2,0.5,0.6v0.8c0.8,2.4,1.7,4.3,2.6,5.6c1.1,1.6,2.8,3.2,4.9,4.9L52.1,20c-2.6-2.1-4.6-4.6-6.1-7.3V18.9z
		 M39,3.4l4.8,0.5c2.2,0.3,4.2,0.5,6,0.9l-0.4,1.7c-3.2-0.7-6.8-1.2-10.6-1.4L39,3.4z M53.5,7.9c-0.9,1.2-2.3,2.5-4,3.8l-1.1-1.2
		c1.8-1.4,3.1-2.7,3.9-3.8L53.5,7.9z"/>
</g>
</svg>
