<?xml version="1.0" encoding="UTF-8"?>
<svg width="24px" height="24px" viewBox="0 0 24 24" version="1.1" xmlns="http://www.w3.org/2000/svg" xmlns:xlink="http://www.w3.org/1999/xlink">
    <title>ic_reload</title>
    <g id="首頁" stroke="none" stroke-width="1" fill="none" fill-rule="evenodd">
        <g id="選單/高頻_grid" transform="translate(-1195.000000, -104.000000)">
            <g id="ic_reload" transform="translate(1195.000000, 104.000000)">
                <g id="reload" transform="translate(3.000000, 3.000000)" fill="#FFFFFF" fill-rule="nonzero">
                    <path d="M3.375,7.125 C3.75,7.125 4,6.875 4,6.5 C4,6.125 3.75,5.875 3.375,5.875 L2.1875,5.875 C3.375,3.25 6,1.5 9,1.5 C12.25,1.5 15.125,3.5625 16.125,6.6875 C16.25,7 16.5625,7.1875 16.9375,7.0625 C17.25,6.9375 17.4375,6.625 17.3125,6.25 C16.125,2.6875 12.8125,0.25 9,0.25 C5.875,0.25 3.0625,1.875 1.5,4.5 L1.5,4 C1.5,3.625 1.25,3.375 0.875,3.375 C0.5,3.375 0.25,3.625 0.25,4 L0.25,6.5 C0.25,6.875 0.5,7.125 0.875,7.125 L3.375,7.125 Z M17.125,10.875 L14.625,10.875 C14.25,10.875 14,11.125 14,11.5 C14,11.875 14.25,12.125 14.625,12.125 L15.8125,12.125 C14.625,14.75 11.9375,16.5 9,16.5 C5.75,16.5 2.875,14.4375 1.875,11.3125 C1.75,11 1.4375,10.8125 1.0625,10.9375 C0.75,11.0625 0.5625,11.375 0.6875,11.75 C1.8125,15.3125 5.1875,17.75 9,17.75 C12.125,17.75 14.9375,16.0625 16.5,13.5 L16.5,14 C16.5,14.375 16.75,14.625 17.125,14.625 C17.5,14.625 17.75,14.375 17.75,14 L17.75,11.5 C17.75,11.125 17.5,10.875 17.125,10.875 Z" id="Shape"></path>
                </g>
                <rect id="Rectangle" x="0" y="0" width="24" height="24"></rect>
            </g>
        </g>
    </g>
</svg>