<svg width="270" height="200" viewBox="0 0 270 200" xmlns="http://www.w3.org/2000/svg">
    <g fill-rule="nonzero" fill="none">
        <ellipse fill="#E5EBF6" opacity=".45" cx="135" cy="190.72" rx="135" ry="9.281"/>
        <path d="m56.572 128.6-7.28 23.096a23.737 23.737 0 0 1-12.5 14.32l-10.658 5.05.427 3.13 15.952-3.424a28.047 28.047 0 0 0 17.29-14.582l11.263-23.072-14.494-4.518z" fill="#FFB9AC"/>
        <path d="M210.968 181.406s-7.32-1.99-8.91-8.767c0 0 11.337-2.275 11.665 9.37l-2.755-.603z" fill="#C8D0DF" opacity=".19"/>
        <path d="M211.87 180.689s-5.115-8.042-.615-15.561c0 0 8.624 5.448 4.788 15.577l-4.173-.016z" fill="#C8D0DF" opacity=".51"/>
        <path d="M213.182 180.689s2.705-8.49 10.87-10.097c0 0 1.533 5.513-5.288 10.121l-5.582-.024z" fill="#C8D0DF"/>
        <path fill="#294574" d="m207.878 180.501 1.483 10.096 9.346.041 1.377-10.088z"/>
        <path fill="#D7E0EF" d="M114.817 57.729h80.395v133.04h-80.395zM108.964 18.607l79.329-12.98 5.016 30.339-79.33 12.98z"/>
        <path fill="#C8D0DF" d="M124.052 7.652 171.4.04l1.429 8.792-47.348 7.613z"/>
        <rect fill="#C8D0DF" x="121.449" y="97.356" width="66.984" height="21.278" rx="9.429"/>
        <ellipse fill="#294574" opacity=".2" cx="176.218" cy="108.023" rx="5.722" ry="5.693"/>
        <path fill="#F9FBFF" opacity=".602" d="M128.311 105.316h33.717v5.407h-33.717z"/>
        <rect fill="#C8D0DF" x="121.449" y="66.365" width="66.984" height="21.278" rx="9.429"/>
        <ellipse fill="#294574" opacity=".2" cx="176.218" cy="77.033" rx="5.722" ry="5.693"/>
        <path fill="#F9FBFF" opacity=".602" d="M128.311 74.325h33.717v5.407h-33.717z"/>
        <path d="m126.016 21.176 47.694-7.669a9.43 9.43 0 0 1 10.804 7.798l.398 2.45a9.43 9.43 0 0 1-7.81 10.822l-47.694 7.668a9.43 9.43 0 0 1-10.804-7.797l-.398-2.45a9.43 9.43 0 0 1 7.81-10.822z" fill="#C8D0DF"/>
        <ellipse fill="#294574" opacity=".2" cx="172.062" cy="23.9" rx="5.722" ry="5.693"/>
        <path fill="#F9FBFF" opacity=".602" d="m124.344 28.957 33.27-5.444.882 5.336-33.27 5.443z"/>
        <rect fill="#C8D0DF" x="121.449" y="129.692" width="66.984" height="21.278" rx="9.429"/>
        <ellipse fill="#294574" opacity=".2" cx="176.218" cy="140.36" rx="5.722" ry="5.693"/>
        <path fill="#F9FBFF" opacity=".602" d="M128.311 137.652h33.717v5.407h-33.717z"/>
        <rect fill="#C8D0DF" x="121.449" y="162.029" width="66.984" height="21.278" rx="9.429"/>
        <ellipse fill="#294574" opacity=".2" cx="176.218" cy="172.696" rx="5.722" ry="5.693"/>
        <path fill="#F9FBFF" opacity=".602" d="M128.311 169.989h33.717v5.407h-33.717z"/>
        <path fill="#FFB9AC" d="m80.625 135.116 3.41 49.463-3.173 1.093-12.624-46.275z"/>
        <path d="M84.682 185.427s.689 2.928 2.91 3.841c2.222.914 1.1 4.078-2.246 2.161a21.52 21.52 0 0 1-2.95-2.055 6.337 6.337 0 0 0-2.993-1.272 1.014 1.014 0 0 1-.82-.816c-.45-1.63 3.238-3.148 3.238-3.148l2.861 1.289zM26.552 174.197s-2.246 1.712-2.18 3.947c.065 2.235-3.099 2.504-2.714-1.076.116-1.103.325-2.194.623-3.263a5.745 5.745 0 0 0-.057-3.025.976.976 0 0 1 .426-1.02c1.222-.995 3.952 1.55 3.952 1.55l-.05 2.887z" fill="#0D244E"/>
        <path fill="#F4A28C" d="m61.598 63.421 1.18 4.755-3.877 2.039-.68-8.14z"/>
        <path d="M57.31 57.492a2.925 2.925 0 0 1 4.87-.424c1.434 1.794 3.115 4.6.82 5.872-3.452 1.949-6.132-2.447-6.132-2.447a5.309 5.309 0 0 1 .442-3.001z" fill="#FFB9AC"/>
        <path fill="#EAB588" d="m34.97 109.582-17.3-22.053 15.659-12.157 17.3 22.052z"/>
        <path d="M41.39 78.337S24.7 104.304 28.036 108.13c10.608 12.136 34.16-15.201 34.16-15.201L41.39 78.338z" fill="#FFB9AC"/>
        <path d="M79.149 74.464c-9.814-7.13-23.069-7.368-33.135-.596-4.37 2.96-7.739 7.34-6.198 13.783 3.616 15.006 15.174 24.899 15.576 38.102l27.364-1.827V106.93a11.61 11.61 0 0 1 3.73-8.57c2.385-2.187 4.755-5.75 3.131-10.652-1.475-4.347-5.205-9.403-10.468-13.244z" fill="#FFF"/>
        <path d="M59.483 60.526s-.82-.767-1.246.196c-.427.962.983 1.557 1.467 1.092.484-.464-.221-1.288-.221-1.288z" fill="#F4A28C"/>
        <path d="M65.606 81.534s-5.91 11.247.951 22.208c6.862 10.96-6.148 21.677-6.148 21.677l22.314-1.493v-9.688s-1.377-12.233 2.878-15.014c0 0 7.28-5.22 3.36-13.123-3.918-7.902-23.355-4.567-23.355-4.567" fill="#000" opacity=".08"/>
        <path d="M54.212 74.839c.524-2.031 2.959-5.71-.476-12.388-.721-1.411-1.295-4.714.074-6.998 3.279-5.472 8.509-3.605 7.886-.538-.623 3.066-1.057 4.526-1.057 4.526s9.935 7.087 8.484 12.315c-1.287 4.608-17.125 11.515-14.911 3.083z" fill="#192639"/>
        <path fill="#0D244E" d="M54.154 118.805h28.57l4.549 39.326-42.382-1.9z"/>
        <path d="M66.738 89.519a7.956 7.956 0 0 1 1.18-11.304 41.146 41.146 0 0 1 5.23-3.458c10.895-6.206 29.004-19.924 36.628-38.844 0 0 1.787-6.916 7.09-6.672 5.305.245 3.476 6.802-1.803 6.737 0 0-4.32 41.055-36.02 56.33-4.256 2-9.334.847-12.297-2.79h-.008z" fill="#FFB9AC"/>
        <path fill="#294574" d="M46.834 21.004v14.982h9.73l2.132 5.962 2.516-5.962h9.731V21.004z"/>
        <path d="M57.67 31.843a.747.747 0 0 1-.557-.294l-2.549-3.262a.748.748 0 0 1 .15-1.027.757.757 0 0 1 1.039.106l2 2.56 4.919-5.3a.757.757 0 0 1 1.281.283c.08.259.013.54-.175.736l-5.55 5.97a.764.764 0 0 1-.557.228z" fill="#F9FBFF"/>
    </g>
</svg>
