<svg width="60" height="60" viewBox="0 0 60 60" fill="none" xmlns="http://www.w3.org/2000/svg">
<path fill-rule="evenodd" clip-rule="evenodd" d="M16.3842 43.25L10.75 43.25L10.75 24.75L41.25 24.75L41.25 33.6716L44.75 33.6716L44.75 23.0001C44.75 22.0336 43.9665 21.25 43 21.25L9 21.25C8.53587 21.25 8.09075 21.4344 7.76256 21.7626C7.43437 22.0908 7.25 22.5359 7.25 23L7.25001 45C7.25001 45.9665 8.03351 46.75 9.00001 46.75L16.3842 46.75L16.3842 43.25Z" fill="#172439"/>
<path fill-rule="evenodd" clip-rule="evenodd" d="M52.7143 40.7143C55.0812 40.7143 57 38.7955 57 36.4285C57 34.0616 55.0812 32.1428 52.7143 32.1428C50.3474 32.1428 48.4286 34.0616 48.4286 36.4285C48.4286 37.2876 48.6814 38.0877 49.1166 38.7584L45.0621 42.8129C44.5209 42.5661 43.9194 42.4285 43.2857 42.4285C42.6251 42.4285 41.9994 42.578 41.4405 42.845L38.5836 39.988C38.8505 39.4292 39 38.8034 39 38.1428C39 35.7759 37.0812 33.8571 34.7143 33.8571C32.3474 33.8571 30.4286 35.7759 30.4286 38.1428C30.4286 38.8303 30.5904 39.48 30.8782 40.0558L27.7362 43.1978C27.0417 42.7129 26.1969 42.4285 25.2857 42.4285C22.9188 42.4285 21 44.3473 21 46.7143C21 49.0812 22.9188 51 25.2857 51C27.6526 51 29.5714 49.0812 29.5714 46.7143C29.5714 46.3723 29.5314 46.0397 29.4557 45.7209L33.0734 42.1032C33.5788 42.3128 34.133 42.4285 34.7143 42.4285C35.3228 42.4285 35.9017 42.3017 36.426 42.0731L39.3555 45.0026C39.1268 45.5268 39 46.1057 39 46.7143C39 49.0812 40.9188 51 43.2857 51C45.6526 51 47.5714 49.0812 47.5714 46.7143C47.5714 46.0786 47.4331 45.4753 47.1848 44.9328L51.5605 40.5571C51.9276 40.6595 52.3145 40.7143 52.7143 40.7143Z" fill="white"/>
<path fill-rule="evenodd" clip-rule="evenodd" d="M52.7143 40.7143C55.0812 40.7143 57 38.7955 57 36.4285C57 34.0616 55.0812 32.1428 52.7143 32.1428C50.3474 32.1428 48.4286 34.0616 48.4286 36.4285C48.4286 37.2876 48.6814 38.0877 49.1166 38.7584L45.0621 42.8129C44.5209 42.5661 43.9194 42.4285 43.2857 42.4285C42.6251 42.4285 41.9994 42.578 41.4405 42.845L38.5836 39.988C38.8505 39.4292 39 38.8034 39 38.1428C39 35.7759 37.0812 33.8571 34.7143 33.8571C32.3474 33.8571 30.4286 35.7759 30.4286 38.1428C30.4286 38.8303 30.5904 39.48 30.8782 40.0558L27.7362 43.1978C27.0417 42.7129 26.1969 42.4285 25.2857 42.4285C22.9188 42.4285 21 44.3473 21 46.7143C21 49.0812 22.9188 51 25.2857 51C27.6526 51 29.5714 49.0812 29.5714 46.7143C29.5714 46.3723 29.5314 46.0397 29.4557 45.7209L33.0734 42.1032C33.5788 42.3128 34.133 42.4285 34.7143 42.4285C35.3228 42.4285 35.9017 42.3017 36.426 42.0731L39.3555 45.0026C39.1268 45.5268 39 46.1057 39 46.7143C39 49.0812 40.9188 51 43.2857 51C45.6526 51 47.5714 49.0812 47.5714 46.7143C47.5714 46.0786 47.4331 45.4753 47.1848 44.9328L51.5605 40.5571C51.9276 40.6595 52.3145 40.7143 52.7143 40.7143Z" fill="url(#paint0_linear_232_12321)"/>
<path fill-rule="evenodd" clip-rule="evenodd" d="M8.5 14.5V21.5H43.5V14.5H8.5ZM7 11C5.89543 11 5 11.8954 5 13V23C5 24.1046 5.89543 25 7 25H45C46.1046 25 47 24.1046 47 23V13C47 11.8954 46.1046 11 45 11H7Z" fill="#172439"/>
<defs>
<linearGradient id="paint0_linear_232_12321" x1="36.4286" y1="36.8571" x2="51.8571" y2="53.5714" gradientUnits="userSpaceOnUse">
<stop offset="0.322917" stop-color="#DAA360"/>
<stop offset="1" stop-color="#DAA360" stop-opacity="0"/>
</linearGradient>
</defs>
</svg>
