<svg width="60" height="60" viewBox="0 0 60 60" fill="none" xmlns="http://www.w3.org/2000/svg">
<path d="M34.6692 47.5054C27.4359 49.185 18.9457 46.4353 14.3329 39.0538C9.70465 31.6475 10.9316 21.7559 17.2132 15.7779C23.7823 9.52375 33.6849 8.63173 41.0946 13.6414C48.1414 18.4062 50.4093 26.4311 49.0194 32.946C50.1546 33.2043 51.2457 33.6255 52.2583 34.1963C53.1004 30.7194 53.0641 27.2155 52.1514 23.7079C49.1653 12.2194 37.6794 5.09604 25.9701 7.44823C15.6421 9.52375 8.1122 18.668 7.99998 29.175C8.14908 30.5159 8.21373 31.8727 8.45954 33.1951C10.8477 45.9387 23.4841 53.8581 36.0009 50.6855C35.4034 49.6954 34.9548 48.624 34.6692 47.5054V47.5054Z" fill="#172439"/>
<circle cx="30" cy="29" r="11" fill="url(#paint0_linear_464_18615)"/>
<path fill-rule="evenodd" clip-rule="evenodd" d="M44.3846 46.6154V52H47.6154V46.6154H53V43.3846H47.6154V38H44.3846V43.3846H39V46.6154H44.3846Z" fill="#172439"/>
<defs>
<linearGradient id="paint0_linear_464_18615" x1="23" y1="18" x2="44.5" y2="46" gradientUnits="userSpaceOnUse">
<stop offset="0.322917" stop-color="#DAA360"/>
<stop offset="1" stop-color="#DAA360" stop-opacity="0"/>
</linearGradient>
</defs>
</svg>
