<svg width="60" height="60" viewBox="0 0 60 60" fill="none" xmlns="http://www.w3.org/2000/svg">
<path fill-rule="evenodd" clip-rule="evenodd" d="M4 42.75C4 43.7165 4.7835 44.5 5.75 44.5L27.4268 44.5L27.4268 41L7.5 41L7.5 14.5L46 14.5L46 28.9643L49.5 28.9643L49.5 12.75C49.5 11.7835 48.7165 11 47.75 11L5.75 11C4.7835 11 4 11.7835 4 12.75L4 42.75Z" fill="#172439"/>
<path fill-rule="evenodd" clip-rule="evenodd" d="M10.75 33.25L20.75 33.25L20.75 36.75L10.75 36.75L10.75 33.25Z" fill="#172439"/>
<path d="M43.75 22.75C39.3598 22.75 31.75 25.375 31.75 25.375V42.125C31.75 45.3333 43.75 51.75 43.75 51.75C43.75 51.75 55.75 45.625 55.75 42.125V25.375C55.75 25.375 48.1402 22.75 43.75 22.75Z" fill="url(#paint0_linear_232_12309)"/>
<path fill-rule="evenodd" clip-rule="evenodd" d="M42.4448 42.6046V44.2246H45.1567V42.6483C45.6442 42.5358 46.0947 42.3536 46.5044 42.099C47.0454 41.7663 47.4725 41.3197 47.7796 40.7651C48.0994 40.1979 48.2499 39.5459 48.2499 38.8263C48.2499 38.1651 48.1328 37.57 47.8751 37.0603C47.6365 36.5773 47.3141 36.1656 46.9081 35.8313C46.5325 35.5174 46.1229 35.2527 45.6804 35.0376C45.261 34.8337 44.8426 34.6523 44.4269 34.4942C44.0206 34.3405 43.6469 34.1822 43.3053 34.0196C42.9984 33.8709 42.7701 33.707 42.6062 33.5351C42.4835 33.4018 42.4194 33.2435 42.4194 33.0297C42.4194 32.7187 42.5189 32.5359 42.684 32.4074L42.6885 32.4039C42.8753 32.2551 43.1768 32.1483 43.6567 32.1483C44.1169 32.1483 44.4408 32.2485 44.668 32.4064C44.9335 32.5908 45.1047 32.8021 45.2048 33.0383L45.3847 33.463L47.8382 32.6496L47.7049 32.1876C47.52 31.5471 47.1689 30.9962 46.6626 30.5411C46.2437 30.1556 45.7374 29.8845 45.1567 29.7194V28.25H42.4448V29.6853C41.6532 29.8732 40.993 30.238 40.4946 30.7994L40.4928 30.8016C39.9299 31.443 39.6398 32.1919 39.6398 33.0297C39.6398 33.6268 39.7497 34.168 39.9932 34.6341L39.9946 34.6368C40.2234 35.0682 40.5263 35.4376 40.902 35.7408L40.9053 35.7434C41.2644 36.0282 41.6589 36.2715 42.0875 36.4735L42.0953 36.477C42.5047 36.6615 42.9145 36.8318 43.3246 36.9878C43.7409 37.1501 44.1247 37.3276 44.4766 37.5195L44.4845 37.5237C44.8105 37.694 45.0538 37.8942 45.2293 38.118L45.2362 38.1264C45.3851 38.308 45.4703 38.5391 45.4703 38.8517C45.4703 39.3327 45.3246 39.6287 45.0908 39.8235L45.088 39.8259C44.8354 40.0396 44.4648 40.1737 43.9194 40.1737C43.4246 40.1737 43.0102 40.0392 42.656 39.7792C42.2817 39.5044 41.9971 39.1502 41.7998 38.7075L41.6105 38.2826L39.1191 39.1837L39.2764 39.6477C39.5366 40.4158 39.9791 41.0763 40.5959 41.6239L40.5981 41.6258C41.1253 42.0884 41.7438 42.4132 42.4448 42.6046ZM42.9449 43.7246V42.2076C42.154 42.0551 41.4816 41.7359 40.928 41.25C40.3743 40.7585 39.9816 40.1709 39.75 39.4873L41.3432 38.911C41.3431 38.911 41.3431 38.911 41.3431 38.911L39.7499 39.4873C39.7684 39.5419 39.7879 39.5958 39.8085 39.6492C39.8481 39.752 39.8914 39.8525 39.9387 39.9507C40.1738 40.4402 40.5036 40.8733 40.9279 41.25C41.4816 41.7359 42.1539 42.0551 42.9448 42.2076V43.7246H42.9449ZM44.9533 31.9958C44.62 31.7641 44.1878 31.6483 43.6568 31.6483C44.1879 31.6483 44.6201 31.7641 44.9534 31.9958C45.2867 32.2274 45.524 32.5099 45.6652 32.8432L45.6652 32.8432C45.5239 32.5099 45.2866 32.2274 44.9533 31.9958ZM42.9448 28.75H42.9449V30.0975C42.0523 30.2331 41.3602 30.5777 40.8686 31.1314C40.3828 31.685 40.1398 32.3178 40.1398 33.0297C40.1398 33.5664 40.2387 34.024 40.4364 34.4025C40.6342 34.7754 40.8941 35.0918 41.2161 35.3517C41.5438 35.6116 41.9054 35.8347 42.3008 36.0212C42.702 36.202 43.1031 36.3686 43.5042 36.5212C43.9393 36.6907 44.3432 36.8771 44.7161 37.0805C45.0946 37.2782 45.3969 37.5212 45.6229 37.8093C45.8545 38.0918 45.9703 38.4393 45.9703 38.8517C45.9703 39.4449 45.7839 39.8969 45.411 40.2076C45.1033 40.468 44.7043 40.6193 44.2141 40.6615C44.7043 40.6193 45.1032 40.468 45.4109 40.2076C45.7838 39.8969 45.9703 39.4449 45.9703 38.8517C45.9703 38.4393 45.8544 38.0918 45.6228 37.8093C45.3968 37.5212 45.0946 37.2782 44.716 37.0805C44.3431 36.8771 43.9392 36.6907 43.5042 36.5212C43.103 36.3686 42.7019 36.202 42.3008 36.0212C41.9053 35.8347 41.5437 35.6116 41.216 35.3517C40.894 35.0918 40.6341 34.7754 40.4364 34.4025C40.2386 34.024 40.1398 33.5664 40.1398 33.0297C40.1398 32.3178 40.3827 31.685 40.8686 31.1314C41.3601 30.5777 42.0522 30.2331 42.9448 30.0975V28.75Z" fill="white"/>
<defs>
<linearGradient id="paint0_linear_232_12309" x1="43.75" y1="27.0147" x2="43.75" y2="57.7206" gradientUnits="userSpaceOnUse">
<stop offset="0.322917" stop-color="#DAA360"/>
<stop offset="1" stop-color="#DAA360" stop-opacity="0"/>
</linearGradient>
</defs>
</svg>
