<svg width="60" height="60" viewBox="0 0 60 60" fill="none" xmlns="http://www.w3.org/2000/svg">
<circle cx="29" cy="19" r="11" fill="white"/>
<circle cx="29" cy="19" r="11" fill="url(#paint0_linear_232_12349)"/>
<path d="M12.4751 37.6609C12.4751 37.6609 16 34.0001 19.5 34.0001C23 34.0001 25.8131 36.8135 28.5 36.8135C31.1869 36.8135 36.5135 36.8135 36.5135 36.8135C36.5135 36.8135 36.5135 36.8135 36.5135 36.8135C36.5135 36.8135 39.4796 36.8135 39.4796 39.7796C39.4796 42.7457 36.5135 42.7457 36.5135 42.7457C36.5135 42.7457 36.5135 42.7457 36.5135 42.7457H29.4242" stroke="#172439" stroke-width="3.5"/>
<path fill-rule="evenodd" clip-rule="evenodd" d="M50.1374 36.6529C49.09 37.0173 48.2114 37.7665 48.1636 37.8073C48.1616 37.8089 48.1611 37.8094 48.162 37.8086C45.7551 39.9479 43.5996 41.105 41.9932 41.7279C41.1918 42.0386 40.5322 42.2144 40.0526 42.3136C39.8129 42.3632 39.6183 42.3936 39.4738 42.4121C39.4015 42.4214 39.3417 42.4277 39.295 42.432C39.2717 42.4341 39.2516 42.4358 39.2348 42.437L39.2122 42.4386L39.2028 42.4392L39.1986 42.4394L39.1966 42.4395C39.1957 42.4396 39.1947 42.4396 39.096 40.6924C38.9972 38.9452 38.9963 38.9453 38.9954 38.9453L38.9937 38.9454L38.9904 38.9456L38.9847 38.946L38.9769 38.9465C38.9749 38.9467 38.9739 38.9467 38.9739 38.9467L38.9756 38.9466C38.981 38.9461 38.9987 38.9444 39.0283 38.9406C39.0875 38.933 39.194 38.9171 39.3438 38.8861C39.643 38.8243 40.1157 38.702 40.7278 38.4646C41.9482 37.9914 43.7444 37.0525 45.8374 35.1921L45.838 35.1915C45.8875 35.1475 47.2202 33.9619 48.9876 33.3472C49.8927 33.0324 51.0507 32.8177 52.2639 33.1118C53.5331 33.4195 54.646 34.2318 55.484 35.5726C56.1084 36.5715 56.0853 37.6563 55.7932 38.5765C55.5152 39.4527 54.9728 40.2733 54.3705 41.0003C53.1585 42.4633 51.3486 43.9644 49.493 45.3196C45.7506 48.0527 41.3988 50.4935 40.025 51.2463C39.4729 51.5488 38.8602 51.6993 38.2466 51.6993H20.9498C20.4251 51.6993 19.9062 51.5892 19.4268 51.3761L12.1875 48.1586L13.609 44.9603L20.8483 48.1778C20.8802 48.192 20.9148 48.1993 20.9498 48.1993H38.2466C38.2884 48.1993 38.3206 48.1892 38.3433 48.1768C39.6878 47.4401 43.8765 45.0874 47.4288 42.4931C49.2204 41.1847 50.7464 39.8887 51.6753 38.7675C52.1434 38.2024 52.3727 37.7841 52.4572 37.5179C52.4775 37.4539 52.4862 37.4115 52.4896 37.3859C52.0875 36.7604 51.7109 36.5792 51.4393 36.5133C51.1056 36.4324 50.6698 36.4678 50.1374 36.6529ZM52.4908 37.3538C52.4913 37.3535 52.492 37.3575 52.4915 37.3671C52.4901 37.359 52.4904 37.3542 52.4908 37.3538Z" fill="#172439"/>
<path fill-rule="evenodd" clip-rule="evenodd" d="M7.5 36.5001V48.1442H10.6695V36.5001H7.5ZM6 33.0001C4.89543 33.0001 4 33.8956 4 35.0001V49.6442C4 50.7487 4.89543 51.6442 6 51.6442H12.1695C13.274 51.6442 14.1695 50.7487 14.1695 49.6442V35.0001C14.1695 33.8956 13.274 33.0001 12.1695 33.0001H6Z" fill="#172439"/>
<defs>
<linearGradient id="paint0_linear_232_12349" x1="29" y1="11.2353" x2="29" y2="34.5294" gradientUnits="userSpaceOnUse">
<stop offset="0.322917" stop-color="#DAA360"/>
<stop offset="1" stop-color="#DAA360" stop-opacity="0"/>
</linearGradient>
</defs>
</svg>
