<svg width="60" height="60" viewBox="0 0 60 60" xmlns="http://www.w3.org/2000/svg">
    <defs>
        <filter x="-10.8%" y="-16.2%" width="121.7%" height="132.4%" filterUnits="objectBoundingBox" id="a">
            <feOffset dy="2" in="SourceAlpha" result="shadowOffsetOuter1"/>
            <feGaussianBlur stdDeviation="5" in="shadowOffsetOuter1" result="shadowBlurOuter1"/>
            <feColorMatrix values="0 0 0 0 0.422112901 0 0 0 0 0.481916874 0 0 0 0 0.579059103 0 0 0 0.19960118 0" in="shadowBlurOuter1" result="shadowMatrixOuter1"/>
            <feMerge>
                <feMergeNode in="shadowMatrixOuter1"/>
                <feMergeNode in="SourceGraphic"/>
            </feMerge>
        </filter>
    </defs>
    <g filter="url(#a)" transform="translate(-76 -24)" fill="none" fill-rule="evenodd">
        <g transform="translate(82 30)">
            <circle fill="#EDEDED" transform="rotate(180 7 7)" cx="7" cy="7" r="7"/>
            <rect fill="#FFF" x="5" y="5" width="38" height="38" rx="2"/>
            <path d="M41.588 4.265a2.3 2.3 0 0 1 2.295 2.142l.005.158V26a1.3 1.3 0 0 1-2.593.133L41.288 26l-.001-19.136h-34.4v34.437H25.97a1.3 1.3 0 0 1 1.293 1.167l.007.133a1.3 1.3 0 0 1-1.167 1.293l-.133.007H6.588a2.3 2.3 0 0 1-2.295-2.142l-.005-.158V6.565A2.3 2.3 0 0 1 6.43 4.27l.158-.005h35z" fill="#192639" fill-rule="nonzero"/>
            <path d="M36 19.7a1.3 1.3 0 0 1 .133 2.593L36 22.3H26a1.3 1.3 0 0 1-.133-2.593L26 19.7h10zm0-5a1.3 1.3 0 0 1 .133 2.593L36 17.3H12a1.3 1.3 0 0 1-.133-2.593L12 14.7h24zm0-5a1.3 1.3 0 0 1 .133 2.593L36 12.3H12a1.3 1.3 0 0 1-.133-2.593L12 9.7h24zM38 28c5.523 0 10 4.477 10 10s-4.477 10-10 10-10-4.477-10-10 4.477-10 10-10zm0 2.6a7.4 7.4 0 1 0 0 14.8 7.4 7.4 0 0 0 0-14.8z" fill="#192639" fill-rule="nonzero"/>
            <path d="M38 32.7a1.3 1.3 0 0 1 1.293 1.167L39.3 34v2.7H42a1.3 1.3 0 0 1 .133 2.593L42 39.3h-2.7V42a1.3 1.3 0 0 1-2.593.133L36.7 42v-2.7H34a1.3 1.3 0 0 1-.133-2.593L34 36.7h2.7V34a1.3 1.3 0 0 1 1.3-1.3z" fill="#C43826" fill-rule="nonzero"/>
            <path d="M16.452 28.12c1.22-2.955 3.852-4.07 7.693-3.05a1.3 1.3 0 0 1 .967 1.256c0 5.09-2.505 7.836-7.1 7.805v3.577a1.3 1.3 0 0 1-2.593.133l-.007-.133v-3.585c-4.01-.167-6.06-2.503-5.663-6.542a1.3 1.3 0 0 1 1.294-1.173c2.5 0 4.326.63 5.369 1.814zm5.8-.78c-2.472-.297-3.688.95-3.928 4.142l-.004.049.156-.003c2.454-.103 3.703-1.351 3.977-3.987l.016-.173zm-9.934 1.728.018.165c.175 1.333.94 2.027 2.45 2.233l.028.003.01-.13c.07-1.371-.663-2.065-2.47-2.267l-.036-.004z" fill="#192639" fill-rule="nonzero"/>
        </g>
    </g>
</svg>
