<svg width="60" height="60" viewBox="0 0 60 60" xmlns="http://www.w3.org/2000/svg">
    <g fill="none" fill-rule="evenodd">
        <circle fill="#EDEDED" transform="rotate(180 12 47)" cx="12" cy="47" r="5"/>
        <circle fill="#EDEDED" transform="rotate(180 47 13)" cx="47" cy="13" r="6"/>
        <g transform="translate(14 7)">
            <path d="M2 0h24.31l1.79 2.435a2 2 0 0 0 .273.302L31 5.101V36a2 2 0 0 1-2 2H2a2 2 0 0 1-2-2V2a2 2 0 0 1 2-2z" fill="#FFF"/>
            <path d="m26.558 0 2.206 2.588L31 4.888V36a2 2 0 0 1-2 2H2a2 2 0 0 1-2-2V2a2 2 0 0 1 2-2h24.558zM23.7 2.599 2.6 2.6v32.8h25.8V8.3H25a1.3 1.3 0 0 1-1.293-1.167L23.7 7V2.599zm3.041 1.626-.441-.519V5.7h1.863l-1.217-1.25a4.6 4.6 0 0 1-.104-.111l-.1-.114z" fill="#192639" fill-rule="nonzero"/>
            <path d="M24.545 15.2a1.3 1.3 0 0 1 .133 2.593l-.133.007h-7.09a1.3 1.3 0 0 1-.133-2.593l.133-.007h7.09zm0-5a1.3 1.3 0 0 1 .133 2.593l-.133.007h-7.09a1.3 1.3 0 0 1-.133-2.593l.133-.007h7.09zM8.44 11.733c.459-.955 1.778-.972 2.279-.08l.06.12 2.11 4.8a1.304 1.304 0 0 1-.657 1.716c-.61.272-1.318.029-1.642-.544l-.06-.118-.983-2.238-1.096 2.278c-.292.606-.988.88-1.602.655l-.122-.052a1.304 1.304 0 0 1-.649-1.615l.052-.122 2.31-4.8z" fill="#192639" fill-rule="nonzero"/>
            <circle fill="#C43826" cx="9.5" cy="9.5" r="4.5"/>
        </g>
        <path d="M33.82 29.469c1.534.673 3.667 1.424 6.4 2.253l1.823-.001-.126-.57a2 2 0 0 1 1.289-2.322l.145-.045 5.426-1.455a2 2 0 0 1 2.5 1.669L53.2 43.476a2 2 0 0 1-1.983 2.263h-4.446a2 2 0 0 1-1.952-1.565l-.422-1.892-3.546 2.1c.433.61.649 1.062.649 1.357.28 1.64-.504 2.46-2.356 2.46-.557 2.43-2.047 2.43-3.703 2.067-1.441 1.298-2.793 1.298-5.06.741-.881 1.497-3.374 1.497-5.935-.74-1.59-1.391-4.577-3.878-8.96-7.461l-.305 1.368a2 2 0 0 1-1.952 1.565H8.783A2 2 0 0 1 6.8 43.476l1.922-14.478a2 2 0 0 1 2.5-1.669l5.427 1.455a2 2 0 0 1 1.434 2.367l-.006.025H24c.354.114.71.241 1.07.382l.032-.03c.79-.722 1.766-1.409 2.926-2.059 1.224-.354 2.34-.522 3.344-.504l.299.012a6.178 6.178 0 0 1 2.148.492z" fill="#FFF"/>
        <path d="M48.946 27.278a2 2 0 0 1 2.246 1.72l1.922 14.478a2 2 0 0 1-1.983 2.263h-4.445a2 2 0 0 1-1.952-1.565l-.115-.513-2.041 1.352.003.004.154.23.046.273c.364 2.121-.643 3.53-2.588 3.888l-.062.01-.065.165c-.74 1.745-2.108 2.325-4.013 2.105l-.255-.035-.04.03c-1.351.993-2.75 1.179-4.808.781l-.073-.015-.078.073c-1.65 1.446-4.504.978-7.006-1.105l-1.054-.907-1.298-1.1-1.599-1.335-2.963-2.447-1.713-1.402-.027.107a2 2 0 0 1-1.91 1.406H8.783A2 2 0 0 1 6.8 43.476l1.922-14.478a2 2 0 0 1 2.5-1.669l5.427 1.455a2 2 0 0 1 1.482 1.942l.245.014 1.196.076.735.054.684.056.634.057.585.06.534.063.486.064.334.052c.903-.966 2.066-1.861 3.48-2.688l.479-.272.143-.042c2.597-.751 4.83-.751 6.676.059.185.08.38.163.583.247l.64.256.342.13.725.267c.252.09.513.183.783.276l.839.282.895.29.952.299.313.095h1.39a2 2 0 0 1 1.461-1.637l5.427-1.455a2 2 0 0 1 .254-.05zm-31.342 6.023-1.803 8.086 3.805 3.118 2.481 2.056 1.948 1.637.946.81.32.28c1.61 1.405 3.032 1.72 3.688 1.329L25.9 48.3a1 1 0 0 1 1.095-1.669l.105.069 4 3c.071.053.133.114.186.18.895.19 1.523.235 2.046.116l-4.472-3.728a1 1 0 0 1 1.179-1.61l.101.074 4.954 4.127.625.137c.117.026.227.049.33.068l.292.05c.866.126 1.196-.055 1.43-.806l.026-.094-6.948-5.955a1 1 0 0 1 1.201-1.594l.1.076 7 6c.056.047.105.1.148.155l-.154.003c.873 0 1.127-.088 1.12-.545l-.009-.133-.213-.315c-2.73-3.945-6.033-7.21-9.918-9.803l-.22.196-.807.703-.352.298-.323.267-.436.346-.263.198-.246.174-.231.154a6.92 6.92 0 0 1-.112.07l-.216.125-.21.111-.207.098-.208.088c-.9.358-2.214.388-3.21-.054-1.505-.67-2.107-2.215-1.542-4.204.101-.356.229-.704.383-1.044l-.31-.034-.58-.056-.632-.053-1.042-.078-1.157-.074-.599-.033zm-6.395-3.284L9.467 43.139h3.28l2.673-11.993-4.211-1.129zm37.496 0-4.21 1.129 2.164 9.715.021.036c.117.22.163.463.145.7l.342 1.542h3.28l-1.742-13.122zm-19.977.607-.196.054-.191.11c-2.322 1.36-3.71 2.829-4.233 4.382l-.066.213c-.23.809-.152 1.007.097 1.118.316.14.91.127 1.192.015l.066-.028.137-.065c.024-.012.048-.024.072-.038l.154-.089.168-.106.183-.127.312-.232.235-.185.26-.21.442-.372.332-.286 1.206-1.064.235-.21a1.3 1.3 0 0 1 1.56-.131 39.232 39.232 0 0 1 10.376 9.523l2.944-1.952-1.765-7.923h-2.22l-.184-.055c-.347-.105-.685-.21-1.014-.312l-.958-.306-.458-.15-.874-.295-.818-.288a43.48 43.48 0 0 1-1.802-.69l-.623-.266c-1.156-.507-2.671-.535-4.569-.035z" fill="#192639" fill-rule="nonzero"/>
    </g>
</svg>
