<svg width="60" height="60" viewBox="0 0 60 60" xmlns="http://www.w3.org/2000/svg">
    <g fill="none" fill-rule="evenodd">
        <circle fill="#EDEDED" transform="rotate(180 21 10)" cx="21" cy="10" r="3"/>
        <circle fill="#EDEDED" transform="rotate(180 12 18)" cx="12" cy="18" r="5"/>
        <g fill-rule="nonzero">
            <path d="M26 26a2 2 0 0 1 2 2v12a2 2 0 0 1-2 2h-4a2 2 0 0 1-2-2V28a2 2 0 0 1 2-2h4zm10-2a2 2 0 0 1 2 2v14a2 2 0 0 1-2 2h-4a2 2 0 0 1-2-2V26a2 2 0 0 1 2-2h4zm10-3a2 2 0 0 1 2 2v17a2 2 0 0 1-2 2h-4a2 2 0 0 1-2-2V23a2 2 0 0 1 2-2h4zm-20.6 7.6h-2.8v10.8h2.8V28.6zm10-2h-2.8v12.8h2.8V26.6zm10-3h-2.8v15.8h2.8V23.6z" fill="#192639"/>
            <path d="M48.606 7.893a1 1 0 0 1 0 .45l-1.357 5.873a1 1 0 0 1-1.681.482l-1.355-1.355a1.298 1.298 0 0 1-.058.079l-.095.105-5.177 5.206a1.3 1.3 0 0 1-1.771.067l-.105-.101-2.602-2.815-6.846 6.659a1.3 1.3 0 0 1-1.734.07l-.104-.096a1.3 1.3 0 0 1-.07-1.734l.095-.104 7.803-7.589a1.3 1.3 0 0 1 1.757-.05l.104.1 2.586 2.799 4.22-4.245c.06-.06.124-.112.19-.158L41.05 10.18a1 1 0 0 1 .482-1.681l5.875-1.356a1 1 0 0 1 1.2.75z" fill="#C43826"/>
        </g>
        <path d="M51.17 36.793c1.46.87.365 2.707-1.28 3.972-1.096.843-5.059 3.728-11.888 8.655-2.255 1.044-5.133 1.444-8.632 1.199-5.697-.608-9.979-1.434-12.846-2.477l.072.668a2 2 0 0 1-1.78 2.198l-4.972.523a2 2 0 0 1-2.198-1.78L6.39 37.817a2 2 0 0 1 1.78-2.199l4.973-.522a2 2 0 0 1 2.198 1.78l.27 2.56a20.174 20.174 0 0 0 6.042-1.925c1.217-.611 2.492-.862 3.884.272a7.265 7.265 0 0 0 3.154 1.5c1.203.561 2.655.663 4.357.304 2.553-.538 4.33-1.525 5.548-.526.811.666 1.2 1.237 1.167 1.712l7.363-3.495c1.722-.903 3.07-1.064 4.044-.485z" fill="#FFF"/>
        <path d="M51.747 35.676c1.282.764 1.61 2.106 1.062 3.447-.385.942-1.194 1.887-2.215 2.672l-.525.396-2.185 1.61-5.466 3.968-3.745 2.705a1.3 1.3 0 0 1-.214.126c-2.475 1.145-5.566 1.575-9.317 1.312l-1.192-.133-1.15-.14c-.19-.023-.376-.048-.56-.072l-1.09-.15a69.365 69.365 0 0 1-4.83-.848l-.843-.19-.802-.198a31.21 31.21 0 0 1-2.071-.604 1.995 1.995 0 0 1-1.788 1.932l-4.972.523a2 2 0 0 1-2.198-1.78L6.39 38.318a2 2 0 0 1 1.78-2.198l4.973-.523a2 2 0 0 1 2.198 1.78l.08.76a18.862 18.862 0 0 0 5.101-1.565l.458-.222c1.816-.913 3.477-.941 5.095.273l.194.152c.68.554 1.436.94 2.277 1.16l.32.074a1.3 1.3 0 0 1 .193.056l.092.04c.927.432 2.097.514 3.54.21.264-.056.53-.119.82-.193l1.654-.453.255-.067.461-.109c.217-.047.416-.083.611-.11 1.116-.153 2.047.022 2.84.673a7 7 0 0 1 .885.85l.1.122 6.116-2.901c2.082-1.092 3.876-1.307 5.313-.45zm-38.929 2.57-3.779.397 1.129 10.74 3.78-.397-1.13-10.74zm35.007.09-.23.116-6.733 3.197c-.263 1.225-.94 2.184-2.012 2.789a1.3 1.3 0 0 1-.231.102l-.122.034-8.594 1.938a1.3 1.3 0 0 1-.7-2.5l.128-.037 8.379-1.89.09-.066c.312-.254.494-.616.56-1.152l.011-.113c-.002.009-.007.007-.017-.005l-.02-.028a3.036 3.036 0 0 0-.501-.528l-.18-.152-.061-.042-.064-.035a.483.483 0 0 0-.035-.014l-.077-.02-.09-.012a.96.96 0 0 0-.053-.002l-.12.005-.143.016-.172.028-.205.04-.377.087-.474.119-1.295.343c-.455.122-.856.22-1.26.305-1.837.387-3.478.305-4.894-.276l-.138-.062-.199-.044a8.532 8.532 0 0 1-3.093-1.47l-.275-.216c-.743-.605-1.354-.643-2.298-.206l-.181.088a21.475 21.475 0 0 1-6.455 2.052l.627 5.982c.956.386 2.118.745 3.483 1.077l.773.18.402.088.836.171c.712.14 1.468.275 2.266.404l.977.15c.167.026.335.05.504.074l1.038.142 1.079.136 1.118.13c.19.022.381.042.574.063 3.132.22 5.692-.104 7.685-.945l.205-.091 8.43-6.104 2.044-1.496 1.274-.952c.618-.475 1.099-1.013 1.327-1.453l.135-.3c.011-.026.01-.034-.006-.044l-.049-.027c-.481-.287-1.312-.206-2.59.425z" fill="#192639" fill-rule="nonzero"/>
    </g>
</svg>
