<svg width="293" height="154" viewBox="0 0 293 154" xmlns="http://www.w3.org/2000/svg" xmlns:xlink="http://www.w3.org/1999/xlink" style="background:#f5f8fc">
    <defs>
        <path id="a" d="M0 0h293v154H0z"/>
    </defs>
    <g fill="none" fill-rule="evenodd">
        <mask id="b" fill="#fff">
            <use xlink:href="#a"/>
        </mask>
        <use fill="#E6EBF5" opacity=".3" xlink:href="#a"/>
        <g mask="url(#b)" fill-rule="nonzero">
            <g transform="translate(60 20)">
                <path d="M34.254 5.734c-17.25 5.486-30.05 19.403-32.571 36.24-2.125 14.19-7.918 44.943 27.965 52.347 57.607 11.849 124.018 5.33 137.915-18.12 13.897-23.45 0-65.404-35.682-70.97-20.601-3.212-63.934-10.219-97.627.503z" fill="#E6EBF5" opacity=".3"/>
                <path fill="#E6EBF5" d="M17.513 16.032h66.255v97.004H17.513zM88.619 34.806h22.056v16.776H88.619z"/>
                <path fill="#E2B78F" d="M90.547 36.08h13.147v5.824H90.547z"/>
                <path d="M93.22 47.627v1.64h-2.673v-1.64h2.673zm3.483 0v1.64H94.03v-1.64h2.673zm3.508 0v1.64H97.54v-1.64h2.672zm3.483 0v1.64h-2.672v-1.64h2.672zm-10.474-2.33v1.64h-2.673v-1.64h2.673zm3.483 0v1.64H94.03v-1.64h2.673zm3.508 0v1.64H97.54v-1.64h2.672zm3.483 0v1.64h-2.672v-1.64h2.672zM93.22 42.96v1.64h-2.673v-1.64h2.673zm3.483 0v1.64H94.03v-1.64h2.673zm3.508 0v1.64H97.54v-1.64h2.672zm3.483 0v1.64h-2.672v-1.64h2.672z" fill="#C8D0DF" opacity=".5"/>
                <path fill="#294574" d="M105.416 41.526h3.07v4.832h-3.07z"/>
                <path d="M63.895 62.767c.59.03 1.062.664 1.002 2.008-1.007 7.968-3.966 15.433-10.349 21.256-.785.715-1.268.786-1.746.282a1.59 1.59 0 0 1 .176-2.214c.931-.922 1.902-1.807 2.748-2.804 3.85-4.53 5.93-9.89 6.84-15.73.076-.503.116-.96.182-1.439.12-.876.558-1.39 1.147-1.359zm-11.97 6.75c.605.015 1.068.654 1.048 1.57 0 .121-.01.242-.015.363a59.092 59.092 0 0 1-2.648 14.023c-.272.86-.705 1.183-1.324 1.032-.619-.151-1.006-.957-.785-1.737.337-1.238.73-2.461 1.042-3.705a53.696 53.696 0 0 0 1.545-9.96v-.147c.07-.87.534-1.454 1.138-1.44zm-5.486 8.838c.529.05.952.635.967 1.52-.166.67-.373 1.566-.63 2.452a34.253 34.253 0 0 1-.81 2.486 1.007 1.007 0 0 1-1.147.785 1.112 1.112 0 0 1-.901-1.162 2.15 2.15 0 0 1 .07-.72 409.8 409.8 0 0 1 1.284-4.394c.17-.569.473-1.007 1.167-.967zm-3.674-3.644c.342.005.69.468.972.79.115.131.065.413.09.63l.176.07c-.629 2.305-1.243 4.61-1.902 6.906a.836.836 0 0 1-1.052.67 1.792 1.792 0 0 1-.871-.922 2.069 2.069 0 0 1 .07-1.122c.448-1.928.922-3.85 1.385-5.773l.014-.087.016-.184c.011-.09.032-.175.095-.233.307-.292.665-.75 1.007-.745zm23.587-29.249a25.459 25.459 0 0 1 2.46 7.55c.358 2.416.52 4.832.655 6.156-.332 8.708-2.19 15.855-6.2 22.384-.534.87-1.038 1.107-1.617.76a1.51 1.51 0 0 1-.357-2.014c.579-1.037 1.233-2.013 1.752-3.105 3.553-7.354 4.958-15.065 3.734-23.19a23.617 23.617 0 0 0-2.174-6.91 2.854 2.854 0 0 1-.327-1.097 1.143 1.143 0 0 1 .835-1.294c.635-.166 1.007.242 1.239.76zm-28.58 16.41c.538-.025.999.379 1.047.915.221 1.243.413 2.492.544 3.745.11 1.027.11 2.074.156 2.748a36.683 36.683 0 0 1-1.385 10.137c-.276.947-.74 1.354-1.359 1.173-.619-.18-1.006-.966-.75-1.812a30.749 30.749 0 0 0 1.294-9.337c-.026-1.047-.126-2.094-.241-3.14L36.9 64.73a80.95 80.95 0 0 1-.084-.785 4.908 4.908 0 0 1-.05-1.007c.07-.574.347-1.037 1.006-1.067zm18.598 8.022c.554.06.982.665.967 1.58a32.888 32.888 0 0 1-1.918 7.933 1.238 1.238 0 0 1-.961.675 1.41 1.41 0 0 1-.937-.805 2.21 2.21 0 0 1 .056-1.259c.503-2.26 1.052-4.53 1.58-6.77 0-.07 0-.14.036-.211.156-.755.624-1.203 1.177-1.143zm-9.402-5.703c.519-.002.955.39 1.007.906.14.787.237 1.58.292 2.376.075 1.092.105 2.185.17 3.559a637.056 637.056 0 0 1-.306 4.359 2.773 2.773 0 0 1-.111.569c-.093.5-.544.851-1.052.82a1.007 1.007 0 0 1-.966-.936 3.428 3.428 0 0 1 0-1.087c.323-2.966.296-5.96-.081-8.92a2.16 2.16 0 0 1 .04-.785 1.007 1.007 0 0 1 1.007-.86zm-12.961.604a1.007 1.007 0 0 1 1.057 1.007c.12 1.077.161 2.17.237 3.252l.085-.03c-.262 1.963-.503 3.926-.78 5.889a1.445 1.445 0 0 1-.247.745 1.51 1.51 0 0 1-.865.543 1.138 1.138 0 0 1-.851-.503 2.044 2.044 0 0 1-.146-1.248c.532-2.59.701-5.241.503-7.878a3.493 3.493 0 0 1 0-.725c.086-.573.373-1.006 1.007-1.052zm38.042-2.617c.584.01.896.428 1.007.967.035.155.057.313.066.473a33.009 33.009 0 0 1-1.938 8.506c-.282.745-.745 1.037-1.289.87a1.309 1.309 0 0 1-.785-1.54c.116-.538.372-1.051.503-1.59.448-1.983.876-3.966 1.304-5.954.055-.257.06-.529.126-.79.136-.534.423-.952 1.006-.942zm-29.002-3.176a61.302 61.302 0 0 1 1.263 9.991v1.963c-.035.79-.548 1.385-1.132 1.36-.584-.026-1.007-.61-1.007-1.375a55.956 55.956 0 0 0-1.238-11.244 2.26 2.26 0 0 1-.05-.358c-.06-.785.337-1.434.926-1.51.589-.075 1.067.358 1.238 1.173zm-14.144-2.431c.532.08.915.55.886 1.087.06.775.065 1.55.106 2.326a30.2 30.2 0 0 0 1.51 7.756c.06.234.11.47.146.71-.07.7-.272 1.258-.952 1.384-.68.126-1.006-.368-1.198-.926a34.77 34.77 0 0 1-1.746-10.933 1.51 1.51 0 0 1 .282-.941c.247-.278.595-.445.966-.463zm24.724-4.606c1.41 1.254 2.154 2.915 2.693 4.671a32.516 32.516 0 0 1 1.314 8.728v1.163c0 .835-.433 1.414-1.037 1.445-.604.03-1.092-.564-1.138-1.435-.055-1.138-.075-2.28-.17-3.413a20.496 20.496 0 0 0-1.476-6.714 7.721 7.721 0 0 0-1.172-1.908 2.658 2.658 0 0 0-3.997-.226 4.575 4.575 0 0 0-1.51 3.352c.015.266.015.534 0 .8-.11.59-.387 1.098-1.057 1.103a1.037 1.037 0 0 1-1.062-1.083 8.461 8.461 0 0 1 .12-2.169c.504-2.517 1.722-4.53 4.365-5.32a4.168 4.168 0 0 1 4.127 1.006zm-1.711 6.12c.372 2.392.7 4.793 1.042 7.189l-.151.025c.025.362.025.725 0 1.087-.08.539-.338 1.007-.942 1.042a.961.961 0 0 1-1.117-.906c-.126-.931-.126-1.883-.242-2.819-.206-1.636-.463-3.261-.7-4.892 0-.121-.044-.237-.05-.358-.109-.677.31-1.328.972-1.51.544-.07 1.067.373 1.188 1.143zm7.318-4.313c.429.09.784.389.947.796.407 1.59.75 3.2 1.006 4.822.176 1.097.187 2.22.272 3.332h-.035v2.255c0 .745-.463 1.248-1.042 1.263a1.203 1.203 0 0 1-1.112-1.294c0-.775.105-1.56 0-2.32-.292-2.376-.665-4.741-1.007-7.112a1.62 1.62 0 0 1 0-.972c.221-.347.644-.775.971-.77zM42.55 37.967c.475.553.507 1.36.075 1.948-.094.11-.2.21-.317.297-4.646 3.58-7.011 8.446-7.802 14.124a43.61 43.61 0 0 0-.176 5.799c0 1.046-.322 1.696-1.007 1.746-.684.05-1.117-.538-1.177-1.61-.066-.821-.106-1.646-.146-2.336.18-6.72 2.013-12.69 6.543-17.647a24.467 24.467 0 0 1 2.416-2.2c.7-.589 1.153-.589 1.59-.12zm17.264-6.377a22.65 22.65 0 0 1 6.262 5.034c3.981 4.555 6.19 9.915 7.127 15.84.191 1.248.287 2.506.423 3.71v1.585c0 .87-.468 1.47-1.097 1.475-.63.005-1.073-.594-1.078-1.48a31.524 31.524 0 0 0-1.177-8.476c-1.747-6.04-4.873-11.074-10.223-14.552-.408-.262-.846-.478-1.254-.735a1.445 1.445 0 0 1-.639-1.762c.277-.82.871-1.062 1.656-.639zm-.815 11.748a16.026 16.026 0 0 1 4.228 5.93 20.884 20.884 0 0 1 1.726 7.53c.033.457.033.916 0 1.374-.085.598-.412 1.087-1.087 1.041a1.097 1.097 0 0 1-1.007-1.137c-.13-1.279-.166-2.572-.402-3.825a15.659 15.659 0 0 0-4.596-8.648 2.91 2.91 0 0 1-.765-1.324 1.007 1.007 0 0 1 .69-1.283 1.57 1.57 0 0 1 1.213.342zm-6.951-3.292a1.314 1.314 0 0 1 1.006 1.51 1.163 1.163 0 0 1-1.293 1.163c-4.027-.393-7.128 1.248-9.62 4.233-2.49 2.985-3.573 6.609-3.719 10.495.006.266-.015.532-.06.795-.048.525-.48.93-1.007.946a.966.966 0 0 1-1.006-.906 10.922 10.922 0 0 1 0-2.013c.382-4.852 2.013-9.166 5.577-12.609a12.327 12.327 0 0 1 8.803-3.7c.352 0 .84 0 1.319.086zm-1.566 5.497a8.678 8.678 0 0 1 6.74 3.206c.279.412.395.912.327 1.404-.088.39-.36.714-.73.866a1.455 1.455 0 0 1-1.117-.418c-1.727-1.766-3.76-2.693-6.231-2.224-2.583.503-4.249 2.19-5.411 4.454-.081.254-.198.494-.348.715-.261.246-.614.569-.916.559a1.203 1.203 0 0 1-.86-.625 1.596 1.596 0 0 1-.081-1.177c1.414-3.413 3.68-5.9 7.48-6.634.38-.062.763-.104 1.147-.126zm1.218-14.96a1.178 1.178 0 0 1-1.152 1.324c-6.997.237-12.05 3.775-15.896 9.347a26.546 26.546 0 0 0-3.584 7.767c-.281.956-.73 1.354-1.343 1.213a1.329 1.329 0 0 1-.79-1.732c2.561-8.556 7.252-15.321 16.106-18.351 1.691-.58 3.559-.66 5.356-.881.825-.126 1.308.448 1.303 1.313zm4.198 5.044a16.47 16.47 0 0 1 5.99 3.83c.33.338.518.787.528 1.259a1.767 1.767 0 0 1-.659 1.172c-.413.318-.856 0-1.213-.332a14.46 14.46 0 0 0-7.339-3.896c-.85-.186-1.726-.216-2.476-.327-.75.07-1.38.116-2.013.192-1.052.13-1.57-.177-1.707-1.052-.136-.876.358-1.475 1.34-1.626a15.1 15.1 0 0 1 7.55.78z" fill="#8293AF" opacity=".3"/>
                <path d="M135.37 46.932h-1.042a5.763 5.763 0 0 1-5.431.166 1.203 1.203 0 0 1-.227-.045c-1.122 5.98-2.491 12.11-7.726 13.615-6.82 1.968-12.458-16.399-13.112-17.541-.196-.353-.64-.7-.881-.635-1.062.277-.201 1.747-.03 2.165-.775.674-1.767 1.797-1.596 2.793.082.498.253.977.504 1.415.19.322 1.142 1.057 1.182 1.329 0 0 2.467 17.45 15.569 16.836 9.407-.438 14.244-9.83 16.222-19.781-1.117-.09-2.285-.176-3.432-.317z" fill="#FFB9AC"/>
                <path d="M129.779 64.953c-1.157.202-.817.282-2.603 1.037 0 0-2.769-2.908 1.799-4.929l.804 3.892z" fill="#CE8172" opacity=".31"/>
                <path d="M138.692 40.061s-9.131-1.807-10.415 5.577a55.055 55.055 0 0 1-3.523 12.322l6.976 2.26 6.962-20.159z" fill="#EBEBEB"/>
                <path d="M139.09 27.694s-1.32 2.789-1.546 4.888a1.555 1.555 0 0 0 1.39 1.706 3.428 3.428 0 0 0 3.402-1.51l1.802-2.205a2.773 2.773 0 0 0-.121-3.196c-1.198-1.761-4.213-1.424-4.928.317z" fill="#FFB9AC"/>
                <path fill="#FFB9AC" d="m143.015 31.087.645 8.97-4.968.004 1.484-6.362zM138.269 29.798l-1.082.725a.438.438 0 0 0 0 .745l.94.549.142-2.019z"/>
                <path d="M140.141 33.875a3.337 3.337 0 0 0 1.62-.775s.318 1.943-2.048 2.597l.428-1.822z" fill="#CE8172" opacity=".31"/>
                <path d="M141.651 30.971s.433-1.107 1.238-.71c.806.398.192 2.014-1.006 1.727l-.232-1.017z" fill="#F4A28C"/>
                <path fill="#FFB9AC" d="m129.717 91.135-4.203 19.097h2.441l8.18-19.097zM143.388 88.815l4.48 21.417h2.456l-.368-21.568zM125.514 110.232s-1.354 1.716-3.09 1.636c-1.737-.08-1.989 2.365.8 2.114a14.94 14.94 0 0 0 2.572-.443 4.565 4.565 0 0 1 2.356.08.745.745 0 0 0 .795-.317c.79-.93-1.153-3.07-1.153-3.07h-2.28zM150.148 110.232s1.354 1.716 3.09 1.636c1.737-.08 2.013 2.365-.8 2.114a14.94 14.94 0 0 1-2.572-.443 4.565 4.565 0 0 0-2.356.08.745.745 0 0 1-.795-.317c-.79-.93 1.152-3.07 1.152-3.07h2.28z"/>
                <path d="M155.961 61.63c-2.517 3.99-5.376 9.06-6.639 13.056-.333.99-.548 2.015-.64 3.055l-19.312-.976s.146-1.218.231-3.116c.156-3.292.136-8.642-1.087-13.162a17.763 17.763 0 0 0-1.258-3.408s-6.579-11.264 11.436-17.023h5.899c10.832.348 17.123 12.388 11.37 21.573z" fill="#FFF"/>
                <path d="m150.958 68.711-1.636 5.98-19.72-1.037c.155-3.292.135-8.642-1.088-13.162 5.22 2.557 15.412 6.66 15.835.025.569-8.93 2.97-13.892 2.97-13.892 8.813 12.83 3.639 22.086 3.639 22.086z" fill="#000" opacity=".08"/>
                <path fill="#032551" d="m129.601 73.65 19.721 1.036 5.265 19.978-28.504-1.017z"/>
                <path d="M147.48 47.571a4.203 4.203 0 0 1 7.45-2.834 18.045 18.045 0 0 1 4.162 12c-.166 11.688-1.737 24.342-26.954 10.515l1.36-3.705s11.188 5.38 15.864 3.634c3.438-1.283-1.525-11.582-1.882-19.61z" fill="#FFB9AC"/>
                <path d="M133.497 63.547s-4.208-2.013-5.995 0c-1.787 2.014 1.057 3.785 4.636 3.705l1.36-3.705z" fill="#FFB9AC"/>
                <path d="m138.596 26.214-.972 2.427 4.027 1.51s.227 2.697-1.188 3.186a2.431 2.431 0 0 0 1.692-.81.971.971 0 0 1 1.343-.081l.05.045a8.597 8.597 0 0 0 2.331-4.127c.458-2.381-2.194-2.743-2.194-2.743s-3.509-2.472-5.09.593z" fill="#192639"/>
                <path d="M143.695 25.62s.186-2.29 4.298-1.922c4.113.367 0 5.924 3.388 11.103 0 0-6.222-1.313-6.403-6.895l-1.283-2.285z" fill="#192639"/>
                <path d="M143.438 25.454a1.822 1.822 0 0 1 1.988.172c1.168.734 1.681 3.427-.15 4.353 0 0 1.52-3.644-1.838-4.525z" fill="#E2B78F"/>
                <path d="M149.08 60.22h10.742S161 44.546 152.11 42.538c-8.89-2.009-3.03 17.682-3.03 17.682z" fill="#FFF"/>
                <path d="M78.371 85.916v8.426h-8.426v-1.41h7.012v-7.016h1.414zm-53.716 0v7.016h7.016v1.41h-8.425v-8.426h1.409zM78.37 20.245v8.426h-1.414v-7.017h-7.012v-1.41h8.426zm-46.7 0v1.41h-7.016v7.016h-1.41v-8.426h8.426z" fill="#8293AF" opacity=".3"/>
                <path fill="#C8D0DF" opacity=".5" d="M23.246 99.672h55.126v2.195H23.246zM23.246 105.274h48.502v2.195H23.246z"/>
                <circle fill="#294574" cx="65.531" cy="76.277" r="7.792"/>
                <path fill="#FFF" d="m63.79 81.068-3.146-5.929 2.079-1.102 1.771 3.342 5.17-4.404 1.525 1.787z"/>
            </g>
        </g>
    </g>
</svg>
