<svg width="60" height="60" viewBox="0 0 60 60" xmlns="http://www.w3.org/2000/svg">
    <defs>
        <linearGradient x1="50%" y1="42.632%" x2="50%" y2="100%" id="gy5ga9ghla">
            <stop stop-color="#DAA360" offset="0%"/>
            <stop stop-color="#F5E7D6" offset="100%"/>
        </linearGradient>
    </defs>
    <g fill="none" fill-rule="evenodd">
        <path d="M0 0h60v60H0z"/>
        <path stroke="#192639" stroke-width="3.5" stroke-linejoin="round" d="m27.995 11.01 22.702 3.51-1.063 6.53-22.702-3.509z"/>
        <path d="m29 19-8.687 7.178C19.438 26.985 19 28.259 19 30" stroke="#192639" stroke-width="3.5" stroke-linecap="round" stroke-linejoin="round"/>
        <path d="M21.069 22.722c0 1.409-.182 2.661 1.157 3.653 1.339.99 1.5 0 3.477 0 1.317 0 2.854-1.143 4.61-3.428l3.08-3.869H37a2 2 0 0 1 2 2v19H2v-19a2 2 0 0 1 2-2h20.569c-2.334 1.49-3.5 2.705-3.5 3.644z" fill="url(#gy5ga9ghla)" transform="translate(10 10.922)"/>
        <path d="M34.129 28.11c-3.085 4.889-3.085 5.554-3.085 5.554s-.399 2.225 1.2 3.406c1.597 1.181 2.903 1.297 4.395 0 .994-.864 3.533-3.85 7.617-8.96C46.752 24.945 48 22.835 48 21.78V21" stroke="#192639" stroke-width="3.5" stroke-linecap="square" stroke-linejoin="round"/>
        <path stroke="#192639" stroke-width="3.5" stroke-linecap="square" stroke-dasharray="0,2" d="M10.5 50.5h39.848"/>
    </g>
</svg>
