<svg width="60" height="60" viewBox="0 0 60 60" xmlns="http://www.w3.org/2000/svg">
    <g fill="none" fill-rule="evenodd">
        <circle fill="#EDEDED" transform="rotate(180 13 47)" cx="13" cy="47" r="5"/>
        <circle fill="#EDEDED" transform="rotate(180 47 14)" cx="47" cy="14" r="6"/>
        <circle fill="#FFF" cx="30" cy="30" r="22"/>
        <path d="M30 8c2.13 0 4.19.303 6.138.868l-3.675 11.315A10.557 10.557 0 0 0 30.5 20a10.469 10.469 0 0 0-7.54 3.193l-8.93-8.325A21.938 21.938 0 0 1 30 8z" fill="#C43826"/>
        <path d="M38.958 9.9C46.644 13.331 52 21.04 52 30c0 12.15-9.85 22-22 22S8 42.15 8 30a21.9 21.9 0 0 1 4.119-12.82l8.942 8.332A9.958 9.958 0 0 0 20 30c0 5.523 4.477 10 10 10s10-4.477 10-10a9.995 9.995 0 0 0-4.894-8.6l.129-.042L38.958 9.9zm1.4 3.456-2.336 7.188.18.155a12.382 12.382 0 0 1 4.193 8.962L42.4 30c0 6.848-5.552 12.4-12.4 12.4-6.848 0-12.4-5.552-12.4-12.4 0-1.258.188-2.49.552-3.666l.062-.194-5.594-5.212-.176.346a19.502 19.502 0 0 0-2.039 8.265L10.4 30c0 10.825 8.775 19.6 19.6 19.6 10.825 0 19.6-8.775 19.6-19.6 0-6.77-3.463-12.906-8.95-16.459l-.292-.185z" fill="#192639" fill-rule="nonzero"/>
        <path d="M31.367 37.4v-1.521c1.12-.09 2.003-.404 2.648-.938.645-.535.967-1.244.967-2.127 0-.953-.335-1.702-1.006-2.247-.67-.545-1.677-1.004-3.018-1.377-.645-.268-1.073-.5-1.285-.7-.212-.2-.318-.468-.318-.806 0-.358.099-.644.296-.859.198-.214.534-.321 1.01-.321.46 0 .815.12 1.068.363.252.242.378.615.378 1.12h2.875l.017-.038c.018-.923-.284-1.678-.906-2.263-.62-.585-1.475-.94-2.56-1.067V23h-1.377v1.597c-1.15.08-2.061.397-2.735.95-.673.552-1.01 1.26-1.01 2.122 0 .958.324 1.69.971 2.194.648.505 1.665.969 3.053 1.393.627.227 1.053.445 1.276.654.224.21.336.516.336.92 0 .348-.11.626-.327.836-.218.209-.568.314-1.05.314-.546 0-.98-.124-1.302-.371-.322-.247-.483-.66-.483-1.241h-2.866l-.017.045c-.03 1.1.334 1.931 1.088 2.494.755.562 1.72.886 2.892.972V37.4h1.385z" fill="#192639" fill-rule="nonzero"/>
    </g>
</svg>
