<svg width="60" height="60" viewBox="0 0 60 60" xmlns="http://www.w3.org/2000/svg">
    <g transform="translate(7 6)" fill="none" fill-rule="evenodd">
        <circle fill="#EDEDED" transform="rotate(180 7 40)" cx="7" cy="40" r="7"/>
        <circle fill="#EDEDED" transform="rotate(180 37 9)" cx="37" cy="9" r="9"/>
        <path d="M9.68 6H33.09c.956 0 1.854.458 2.415 1.232l.714.983a3 3 0 0 0 .407.455l1.394 1.27A3 3 0 0 1 39 12.158V39a3 3 0 0 1-3 3H9.68a3 3 0 0 1-3-3V9a3 3 0 0 1 3-3z" fill="#FFF"/>
        <path d="M34.42 5.128a2.3 2.3 0 0 1 1.54.59l.135.133 3.58 3.801a2.3 2.3 0 0 1 .617 1.382l.008.195v8.657a2.3 2.3 0 0 1-.06.518 1.3 1.3 0 0 1-2.556-.455l.015-.085V13.3H34a1.3 1.3 0 0 1-1.293-1.167L32.7 12V7.727H7.574v32.579h25.631a1.3 1.3 0 0 1 1.293 1.168l.007.133a1.3 1.3 0 0 1-1.167 1.293l-.133.007H7.275a2.3 2.3 0 0 1-2.295-2.143l-.005-.157V7.427a2.3 2.3 0 0 1 2.142-2.294l.158-.005H34.42zm2.67 5.572L35.3 8.799V10.7h1.79z" fill="#192639" fill-rule="nonzero"/>
        <path d="M33 21a9 9 0 0 1 6.282 15.445l3.259 3.257a1.3 1.3 0 0 1-1.74 1.928l-.099-.09-3.553-3.552A9 9 0 1 1 33 21zm0 2.6a6.4 6.4 0 1 0 0 12.8 6.4 6.4 0 0 0 0-12.8z" fill="#192639" fill-rule="nonzero"/>
        <path d="M33.473 36v-1.267c.934-.076 1.67-.337 2.206-.782.537-.446.806-1.037.806-1.772 0-.795-.28-1.42-.838-1.873-.56-.454-1.398-.837-2.516-1.148-.537-.223-.894-.417-1.07-.583-.177-.166-.265-.39-.265-.672 0-.298.082-.537.247-.715.164-.18.445-.268.842-.268.382 0 .678.1.889.302.21.202.316.513.316.934h2.395l.014-.032c.015-.77-.237-1.398-.754-1.885-.518-.488-1.23-.784-2.134-.89V24h-1.147v1.33c-.958.068-1.718.332-2.28.792-.56.46-.842 1.05-.842 1.769 0 .798.27 1.408.81 1.828.54.42 1.387.808 2.544 1.16.523.19.877.372 1.063.546.187.175.28.43.28.766 0 .29-.091.523-.272.697-.182.175-.473.262-.875.262-.455 0-.817-.103-1.085-.31-.269-.205-.403-.55-.403-1.033h-2.388l-.015.037c-.024.917.279 1.61.908 2.078.629.469 1.432.74 2.41.81V36h1.154z" fill="#C43826" fill-rule="nonzero"/>
        <path d="M21.155 35.2a1.3 1.3 0 0 1 .132 2.593l-.132.007h-9.7a1.3 1.3 0 0 1-.133-2.593l.133-.007h9.7zm-2-5a1.3 1.3 0 0 1 .132 2.593l-.132.007h-7.7a1.3 1.3 0 0 1-.133-2.593l.133-.007h7.7zm0-5a1.3 1.3 0 0 1 .132 2.593l-.132.007h-7.7a1.3 1.3 0 0 1-.133-2.593l.133-.007h7.7zm.174-5a1.3 1.3 0 0 1 .133 2.593l-.133.007h-7.874a1.3 1.3 0 0 1-.133-2.593l.133-.007h7.874zm3.216-5a1.3 1.3 0 0 1 .133 2.593l-.133.007h-11.09a1.3 1.3 0 0 1-.133-2.593l.133-.007h11.09zm0-5a1.3 1.3 0 0 1 .133 2.593l-.133.007h-11.09a1.3 1.3 0 0 1-.133-2.593l.133-.007h11.09z" fill="#192639" fill-rule="nonzero"/>
    </g>
</svg>
