<svg width="60" height="60" viewBox="0 0 60 60" xmlns="http://www.w3.org/2000/svg">
    <g transform="translate(6 6)" fill="none" fill-rule="evenodd">
        <circle fill="#EDEDED" transform="rotate(180 7 7)" cx="7" cy="7" r="7"/>
        <rect fill="#FFF" x="5" y="5" width="38" height="38" rx="2"/>
        <path d="M41.588 4.265a2.3 2.3 0 0 1 2.295 2.142l.005.158V26a1.3 1.3 0 0 1-2.593.133L41.288 26l-.001-19.136h-34.4v34.437H25.97a1.3 1.3 0 0 1 1.293 1.167l.007.133a1.3 1.3 0 0 1-1.167 1.293l-.133.007H6.588a2.3 2.3 0 0 1-2.295-2.142l-.005-.158V6.565A2.3 2.3 0 0 1 6.43 4.27l.158-.005h35z" fill="#192639" fill-rule="nonzero"/>
        <path d="M36 19.7a1.3 1.3 0 0 1 .133 2.593L36 22.3H26a1.3 1.3 0 0 1-.133-2.593L26 19.7h10zm0-5a1.3 1.3 0 0 1 .133 2.593L36 17.3H12a1.3 1.3 0 0 1-.133-2.593L12 14.7h24zm0-5a1.3 1.3 0 0 1 .133 2.593L36 12.3H12a1.3 1.3 0 0 1-.133-2.593L12 9.7h24zM18.877 31A5.28 5.28 0 0 1 24 35l.379 1.515A2 2 0 0 1 22.439 39H11.561a2 2 0 0 1-1.94-2.485L10 35c.588-2.35 2.7-4 5.123-4h3.754zm0 2.6h-3.754c-1.171 0-2.2.76-2.553 1.863l-.048.168-.193.769h9.341l-.192-.77a2.68 2.68 0 0 0-2.427-2.024l-.174-.006zM17 22a4 4 0 1 1 0 8 4 4 0 0 1 0-8zm0 2.6a1.4 1.4 0 1 0 0 2.8 1.4 1.4 0 0 0 0-2.8zM38 28c5.523 0 10 4.477 10 10s-4.477 10-10 10-10-4.477-10-10 4.477-10 10-10zm0 2.6a7.4 7.4 0 1 0 0 14.8 7.4 7.4 0 0 0 0-14.8z" fill="#192639" fill-rule="nonzero"/>
        <path d="M38 32.7a1.3 1.3 0 0 1 1.293 1.167L39.3 34v2.7H42a1.3 1.3 0 0 1 .133 2.593L42 39.3h-2.7V42a1.3 1.3 0 0 1-2.593.133L36.7 42v-2.7H34a1.3 1.3 0 0 1-.133-2.593L34 36.7h2.7V34a1.3 1.3 0 0 1 1.3-1.3z" fill="#C43826" fill-rule="nonzero"/>
    </g>
</svg>
