<svg width="60" height="60" viewBox="0 0 60 60" xmlns="http://www.w3.org/2000/svg">
    <g fill="none" fill-rule="evenodd">
        <circle fill="#EDEDED" transform="rotate(180 46 22)" cx="46" cy="22" r="7"/>
        <circle fill="#EDEDED" transform="rotate(180 15 14)" cx="15" cy="14" r="5"/>
        <path d="M32.836 7A3.006 3.006 0 0 1 35 12.093l-.11.11c-.327.315-.801.684-1.424 1.108 3.48.93 5.633 3.797 7.534 6.754 2.139 3.327 3.865 6.664 5.18 10.01A7.998 7.998 0 0 1 38.738 41H23.26a8 8 0 0 1-7.44-10.924c1.314-3.347 3.04-6.684 5.179-10.011 1.827-2.842 3.888-5.603 7.137-6.637-.787-.525-1.357-.97-1.708-1.335A3.006 3.006 0 0 1 28.592 7z" fill="#FFF"/>
        <path d="M31 13c3.889 0 6.379 2.097 8.381 4.722l.34.455.165.23.327.468.16.236.316.475.311.479c2.139 3.327 3.865 6.664 5.18 10.01A7.998 7.998 0 0 1 38.738 41H23.26a8 8 0 0 1-7.44-10.924c1.314-3.347 3.04-6.684 5.179-10.011l.31-.479.317-.475.323-.47c.108-.156.218-.31.33-.464l.339-.455C24.62 15.097 27.11 13 31 13zm0 2.6c-3.129 0-5.08 1.62-7.813 5.87-2.048 3.187-3.696 6.372-4.948 9.56a5.4 5.4 0 0 0 4.805 7.366l.217.004h15.476a5.4 5.4 0 0 0 5.022-7.374c-1.25-3.184-2.898-6.369-4.946-9.555C36.08 17.22 34.129 15.6 31 15.6z" fill="#192639" fill-rule="nonzero"/>
        <path d="m30.714 15 .668-.386.617-.368.566-.348.515-.33.464-.31c.585-.402 1.033-.754 1.345-1.055l.111-.11A3.006 3.006 0 0 0 32.836 7h-4.244a3.006 3.006 0 0 0-2.163 5.093c.278.288.692.627 1.243 1.016l.438.302.238.157.515.33.277.172.591.358.643.377.34.195zm0-3.015-.487-.301-.43-.275-.384-.255-.334-.233a12.62 12.62 0 0 1-.15-.108l-.26-.199a6.187 6.187 0 0 1-.111-.09l-.185-.164a2.297 2.297 0 0 1-.073-.072.406.406 0 0 1 .21-.68l.082-.008h4.244a.415.415 0 0 1 .366.6l-.04.053-.077.079c-.08.076-.178.162-.295.256l-.257.199-.146.107-.33.231-.181.123-.4.261-.445.281-.317.195z" fill="#192639" fill-rule="nonzero"/>
        <path d="M31.963 35v-1.69c1.246-.1 2.226-.448 2.943-1.043.716-.594 1.074-1.381 1.074-2.362 0-1.06-.373-1.892-1.118-2.497-.745-.606-1.863-1.116-3.353-1.53-.717-.298-1.192-.557-1.428-.778-.235-.222-.353-.52-.353-.896 0-.398.11-.716.329-.954.22-.238.593-.357 1.123-.357.51 0 .904.134 1.185.403.28.27.421.684.421 1.245h3.194l.02-.042c.019-1.026-.317-1.864-1.007-2.514-.69-.65-1.64-1.046-2.846-1.186V19h-1.529v1.774c-1.277.09-2.29.441-3.039 1.055-.748.614-1.122 1.4-1.122 2.359 0 1.065.36 1.877 1.079 2.438.72.56 1.85 1.076 3.392 1.547.697.252 1.17.495 1.418.727.248.233.372.573.372 1.022 0 .386-.12.696-.363.929-.242.232-.63.349-1.166.349-.606 0-1.089-.138-1.447-.412-.358-.275-.537-.735-.537-1.38h-3.184l-.02.051c-.031 1.222.372 2.146 1.21 2.77.84.626 1.91.986 3.214 1.081V35h1.538z" fill="#C43826" fill-rule="nonzero"/>
        <g>
            <path d="M51.17 36.793c1.46.87.365 2.707-1.28 3.972-1.096.843-5.059 3.728-11.888 8.655-2.255 1.044-5.133 1.444-8.632 1.199-5.697-.608-9.979-1.434-12.846-2.477l.072.668a2 2 0 0 1-1.78 2.198l-4.972.523a2 2 0 0 1-2.198-1.78L6.39 37.817a2 2 0 0 1 1.78-2.199l4.973-.522a2 2 0 0 1 2.198 1.78l.27 2.56a20.174 20.174 0 0 0 6.042-1.925c1.217-.611 2.492-.862 3.884.272a7.265 7.265 0 0 0 3.154 1.5c1.203.561 2.655.663 4.357.304 2.553-.538 4.33-1.525 5.548-.526.811.666 1.2 1.237 1.167 1.712l7.363-3.495c1.722-.903 3.07-1.064 4.044-.485z" fill="#FFF"/>
            <path d="M51.747 35.676c1.282.764 1.61 2.106 1.062 3.447-.385.942-1.194 1.887-2.215 2.672l-.525.396-2.185 1.61-5.466 3.968-3.745 2.705a1.3 1.3 0 0 1-.214.126c-2.475 1.145-5.566 1.575-9.317 1.312l-1.192-.133-1.15-.14c-.19-.023-.376-.048-.56-.072l-1.09-.15a69.365 69.365 0 0 1-4.83-.848l-.843-.19-.802-.198a31.21 31.21 0 0 1-2.071-.604 1.995 1.995 0 0 1-1.788 1.932l-4.972.523a2 2 0 0 1-2.198-1.78L6.39 38.318a2 2 0 0 1 1.78-2.198l4.973-.523a2 2 0 0 1 2.198 1.78l.08.76a18.862 18.862 0 0 0 5.101-1.565l.458-.222c1.816-.913 3.477-.941 5.095.273l.194.152c.68.554 1.436.94 2.277 1.16l.32.074a1.3 1.3 0 0 1 .193.056l.092.04c.927.432 2.097.514 3.54.21.264-.056.53-.119.82-.193l1.654-.453.255-.067.461-.109c.217-.047.416-.083.611-.11 1.116-.153 2.047.022 2.84.673a7 7 0 0 1 .885.85l.1.122 6.116-2.901c2.082-1.092 3.876-1.307 5.313-.45zm-38.929 2.57-3.779.397 1.129 10.74 3.78-.397-1.13-10.74zm35.007.09-.23.116-6.733 3.197c-.263 1.225-.94 2.184-2.012 2.789a1.3 1.3 0 0 1-.231.102l-.122.034-8.594 1.938a1.3 1.3 0 0 1-.7-2.5l.128-.037 8.379-1.89.09-.066c.312-.254.494-.616.56-1.152l.011-.113c-.002.009-.007.007-.017-.005l-.02-.028a3.036 3.036 0 0 0-.501-.528l-.18-.152-.061-.042-.064-.035a.483.483 0 0 0-.035-.014l-.077-.02-.09-.012a.96.96 0 0 0-.053-.002l-.12.005-.143.016-.172.028-.205.04-.377.087-.474.119-1.295.343c-.455.122-.856.22-1.26.305-1.837.387-3.478.305-4.894-.276l-.138-.062-.199-.044a8.532 8.532 0 0 1-3.093-1.47l-.275-.216c-.743-.605-1.354-.643-2.298-.206l-.181.088a21.475 21.475 0 0 1-6.455 2.052l.627 5.982c.956.386 2.118.745 3.483 1.077l.773.18.402.088.836.171c.712.14 1.468.275 2.266.404l.977.15c.167.026.335.05.504.074l1.038.142 1.079.136 1.118.13c.19.022.381.042.574.063 3.132.22 5.692-.104 7.685-.945l.205-.091 8.43-6.104 2.044-1.496 1.274-.952c.618-.475 1.099-1.013 1.327-1.453l.135-.3c.011-.026.01-.034-.006-.044l-.049-.027c-.481-.287-1.312-.206-2.59.425z" fill="#192639" fill-rule="nonzero"/>
        </g>
    </g>
</svg>
