<svg width="293" height="154" viewBox="0 0 293 154" xmlns="http://www.w3.org/2000/svg" xmlns:xlink="http://www.w3.org/1999/xlink" style="background:#f5f8fc">
    <defs>
        <filter x="-7.8%" y="-10%" width="115.7%" height="120%" filterUnits="objectBoundingBox" id="a">
            <feOffset dy="2" in="SourceAlpha" result="shadowOffsetOuter1"/>
            <feGaussianBlur stdDeviation="5" in="shadowOffsetOuter1" result="shadowBlurOuter1"/>
            <feColorMatrix values="0 0 0 0 0.422112901 0 0 0 0 0.481916874 0 0 0 0 0.579059103 0 0 0 0.19960118 0" in="shadowBlurOuter1" result="shadowMatrixOuter1"/>
            <feMerge>
                <feMergeNode in="shadowMatrixOuter1"/>
                <feMergeNode in="SourceGraphic"/>
            </feMerge>
        </filter>
        <path id="b" d="M0 0h293v154H0z"/>
    </defs>
    <g filter="url(#a)" fill="none" fill-rule="evenodd">
        <g>
            <mask id="c" fill="#fff">
                <use xlink:href="#b"/>
            </mask>
            <use fill="#E6EBF5" opacity=".3" xlink:href="#b"/>
            <g mask="url(#c)">
                <g transform="translate(84 20)">
                    <ellipse fill="#E6EBF5" fill-rule="nonzero" opacity=".45" cx="62.229" cy="106.403" rx="62.229" ry="7.597"/>
                    <path fill="#E6EBF5" fill-rule="nonzero" d="M44.972 0h61.833v105.665H44.972z"/>
                    <path fill="#FFF" fill-rule="nonzero" opacity=".6" d="M50.202 13.201h51.181v72.165H50.202z"/>
                    <path fill="#D6DDEA" fill-rule="nonzero" opacity=".5" d="M56.477 72.165H96.22v2.295H56.477zM56.477 78.44h34.968v2.295H56.477z"/>
                    <circle fill="#FFF" fill-rule="nonzero" opacity=".6" cx="76.238" cy="95.454" r="6.052"/>
                    <path fill="#FFF" fill-rule="nonzero" opacity=".6" d="M71.119 6.275h17.335v2.53H71.119z"/>
                    <circle fill="#FFF" fill-rule="nonzero" opacity=".6" cx="64.53" cy="7.007" r="2.823"/>
                    <path d="M25.693 103.822s-.907 1.127-.372 2.204c.536 1.076-.326 1.978-1.127 1.195-.8-.784-1.065-3.945-1.065-3.945l1.544-.829 1.02 1.375z" fill="#FFB9AC" fill-rule="nonzero"/>
                    <path d="M35.048 50.1s6.413-.074 8.944 5.984c2.53 6.059 2.772 15.74 2.772 15.74l11.626-7.568-13.125 12.736-5.23-6.684L35.049 50.1z" fill="#FFF" fill-rule="nonzero"/>
                    <path d="M35.048 50.1s6.413-.074 8.944 5.984c2.53 6.059 2.772 15.74 2.772 15.74l11.626-7.568-13.125 12.736-5.23-6.684L35.049 50.1z" fill="#000" fill-rule="nonzero" opacity=".08"/>
                    <path d="M52.146 95.752s.564 1.32 1.775 1.359c1.212.039 1.595 1.206.519 1.572-1.077.366-3.945-.89-3.945-.89V96.04l1.651-.288zM26.234 40.006a16.484 16.484 0 0 1 1.967 3.945 1.33 1.33 0 0 1-.947 1.635 2.93 2.93 0 0 1-3.082-.8l-1.826-1.624a2.384 2.384 0 0 1-.333-2.727c.772-1.685 3.376-1.81 4.221-.429z" fill="#FFB9AC" fill-rule="nonzero"/>
                    <path fill="#FFB9AC" fill-rule="nonzero" d="m23.169 43.083 1.211 7.203 4.886.225-2.846-5.63zM27.102 41.432l1.127.524a.423.423 0 0 1 .096.71l-.789.665-.434-1.899z"/>
                    <path d="M26.849 45.732a3.28 3.28 0 0 1-1.691-.36s.14 1.893 2.508 1.972l-.817-1.612z" fill="#CE8172" fill-rule="nonzero" opacity=".31"/>
                    <path d="M14.676 55.91c5.636-7.326 18.642-8.104 24.796-3.9 6.036 4.148 3.133 28.673 3.133 28.673L28.06 84.696S6.414 68.33 14.676 55.91z" fill="#FFF" fill-rule="nonzero"/>
                    <path d="m28.032 84.696 1.82 4.395a9.26 9.26 0 0 1-1.78 7.366l-4.509 5.85 2.508 1.797 6.56-5.263a11.502 11.502 0 0 0 4.345-8.955v-2.254l2.434-5.827-11.378 2.89z" fill="#294674" fill-rule="nonzero"/>
                    <path d="M21.309 53.819s6.988 2.818 6.351 10.003c-.637 7.185 1.5 11.631 12.742 11.203l-1.798 6.735-10.572 2.936a60.66 60.66 0 0 1-9.293-11.638l-.682-1.127 3.308-9.524-.056-8.588z" fill="#000" fill-rule="nonzero" opacity=".08"/>
                    <path d="M28.032 84.696c1.843 2.923 4.097 4.566 6.763 4.93 2.665.365 5.66-.561 8.983-2.778a3.381 3.381 0 0 1 4.26 2.412l1.657 6.847 3.049-.259-.987-9.242a6.847 6.847 0 0 0-6.717-6.126 32.793 32.793 0 0 0-13.266 2.626l-3.742 1.59z" fill="#032551" fill-rule="nonzero"/>
                    <path d="M59.492 26.032c8.89-9.024 23.41-9.133 32.435-.244a22.93 22.93 0 0 1 .242 32.438c-8.15 8.272-21.032 9.051-30.073 2.275L49.515 73.268l-4.556-4.49 12.598-12.784c-6.796-8.933-6.172-21.734 1.935-29.962zM87.86 29.92c-6.738-6.64-17.583-6.562-24.225.175-6.642 6.737-6.565 17.583.171 24.226a17.132 17.132 0 0 0 24.232-.175c6.64-6.74 6.56-17.585-.178-24.226z" fill="#8293AF" fill-rule="nonzero" opacity=".3"/>
                    <path d="m23.62 44.594-.727-.282a4.942 4.942 0 0 0-3.05-.118 1.29 1.29 0 0 1-1.735-.834c-.676-1.883 1.268-2.001 1.268-2.001a2.012 2.012 0 0 1-.524-2.254c.524-1.392 2.446-.288 2.446-.288s-.722-1.628.383-2.203c1.104-.575 2.158 1.054 2.158 1.054s0-1.82 1.37-1.341c1.37.479 1.91 1.003 1.544 2.299-.366 1.296-3.381 2.688-3.381 2.688s3.031 1.358.248 3.28z" fill="#192639" fill-rule="nonzero"/>
                    <path d="m53.266 63.968 1.237 1.219a4.395 4.395 0 0 1 .046 6.215L43.112 83.008a4.395 4.395 0 0 1-6.215.045l-1.237-1.22a4.395 4.395 0 0 1-.046-6.214L47.05 64.013a4.395 4.395 0 0 1 6.216-.045z" fill="#E2B78F" fill-rule="nonzero"/>
                    <path d="M22.261 54.371a4.999 4.999 0 0 0-6.57.654c-3.9 4.074-8.69 15.723-2.892 23.387 7.265 9.58 17.2 6.25 30.161 2.288l-.608-3.083s-24.17 3.252-21.528-7.18c2.097-8.227 4.96-13.417 1.437-16.066z" fill="#FFF" fill-rule="nonzero"/>
                    <path d="M42.572 78.75s4.04-1.99 4.147 0c.107 1.99-3.759 1.95-3.759 1.95l-.388-1.95zM53.989 71.965s3.522-1.127 2.671-2.71c-.85-1.584-2.857-.739-2.671 2.71zM24.82 42.486s-.936-.783-1.5 0c-.563.783.818 1.939 1.782 1.093l-.282-1.093z" fill="#FFB9AC" fill-rule="nonzero"/>
                    <ellipse fill="#8293AF" fill-rule="nonzero" opacity=".2" cx="75.826" cy="51.771" rx="5.752" ry="2.615"/>
                    <path d="M76.349 29.284a8.367 8.367 0 0 1 8.367 8.367c0 4.621-3.746 14.303-8.367 14.303s-8.367-9.682-8.367-14.303a8.367 8.367 0 0 1 8.367-8.367zm0 4.184a4.183 4.183 0 1 0 0 8.367 4.183 4.183 0 0 0 0-8.367z" fill="#294574"/>
                </g>
            </g>
        </g>
    </g>
</svg>
