<svg width="293" height="154" viewBox="0 0 293 154" xmlns="http://www.w3.org/2000/svg" xmlns:xlink="http://www.w3.org/1999/xlink" style="background:#f5f8fc">
    <defs>
        <path id="a" d="M0 0h293v154H0z"/>
    </defs>
    <g fill="none" fill-rule="evenodd">
        <mask id="b" fill="#fff">
            <use xlink:href="#a"/>
        </mask>
        <use fill="#E6EBF5" opacity=".3" xlink:href="#a"/>
        <g mask="url(#b)" fill-rule="nonzero">
            <g transform="translate(66 20)">
                <path d="M34.813 8.47C17.14 12.693 3.083 22.968.588 42.2c-2.102 16.2.066 44.897 29.628 49.996 57.525 9.928 102.482 14.64 120.2-12.97 16.265-25.338 15.028-63.219-17.195-70.164-22.787-4.914-60.537-9.646-98.408-.594z" fill="#E6EBF5" opacity=".3"/>
                <path fill="#E6EBF5" d="M36.11 0h90.286v108.025H36.11z"/>
                <path fill="#FFF" opacity=".799" d="M77.245 5.247h16.888v2.464H77.245z"/>
                <circle fill="#FFF" opacity=".8" cx="71.13" cy="5.718" r="2.751"/>
                <path fill="#FFF" opacity=".6" d="M44.414 12.754h73.679v84.724H44.414z"/>
                <path d="M62.067 72.075v17.819h-10.16V72.075h10.16zm16.561-6.518v24.337H68.47V65.557h10.16zm16.562-10.44v34.777H85.03V55.116h10.16zm16.556-9.501v44.278h-10.159V45.616h10.16z" fill="#D6DDEA" opacity=".5"/>
                <circle fill="#FFF" opacity=".8" cx="81.254" cy="102.769" r="3.234"/>
                <path d="M123.52 70.612s16.707-1.77 16.094 7.07c-.614 8.842-9.999 27.662-9.999 27.662h-20.54s-15.59-23.89-7.996-31.574c7.594-7.685 9.304-1.091 22.44-3.158z" fill="#FFF"/>
                <path fill="#032551" d="m129.63 108.216-12.492 3.37-11.08-5.628-1.685-2.998H133.317z"/>
                <path d="M130.972 79.78c-.708-5.437 3.7-9.556 7.59-6.377 3.721 3.04 8.384 12.025 8.616 20.5.335 12.03-10.507 8.89-18.127 1.905-4.715-4.321-7.052-10.276-8.187-14.54l2.943-1.734s2.707 4.926 7.652 8.104c3.51 2.256.325-1.628-.487-7.858z" fill-opacity=".08" fill="#000"/>
                <path d="M131.577 80.167c-1.564-5.235 1.393-10.954 6.986-6.764 3.832 2.872 8.383 12.025 8.615 20.5.543 19.473-23.346-1.48-26.314-12.634l2.943-1.735s4.948 9.344 10.35 11.366c3.893 1.468-.267-2.993-2.58-10.733z" fill="#FFF"/>
                <path d="M122.931 70.722c-.116.745-.19 1.495-.22 2.248-.036 1.036-.368 2.57-2.013 2.872-2.514.468-3.188-3.52-3.188-3.52s-1.584-3.732 1.141-4.24c2.47-.453 4.783-.785 4.28 2.64z" fill="#FFB9AC"/>
                <path d="M113.23 76.335s1.564 3.279-2.384 9.998c-2.258 3.848 4.697 10.265 4.697 10.265 6.027-.825 10.53-1.088 13.508-.79.809.775 2.052 1.736 3.729 2.881l-3.155 6.65h-20.55s-9.017-14.666-9.71-22.215c-.695-7.549 13.865-6.79 13.865-6.79z" fill="#000" opacity=".08"/>
                <path d="M117.686 72.493s-.146-1.213-1.202-1.157c-1.056.055-.639 2.293 1.202 1.157z" fill="#FFB9AC"/>
                <path d="M122.323 71.819s-.367-1.162.613-1.55c.981-.387 1.54 1.851-.613 1.55z" fill="#F4A28C"/>
                <path fill="#E2B78F" d="m128.816 101.894 1.448-13.192H108.11l2.208 13.866-.317 1.78 19.051.151z"/>
                <path d="M119.899 108.216s-4.205 1.468-2.761 3.37c1.443 1.9 3.726-1.258 3.726-1.258l-.965-2.112z" fill="#FFB9AC"/>
                <path d="m108.11 88.717 4.416 5.784a22.677 22.677 0 0 0 9.993 7.493l6.538 2.515-17.567-.14h-1.484l.317-1.781-2.213-13.87z" fill="#000" opacity=".06"/>
                <path d="M122.987 70.571c.454.186.97.139 1.383-.125.196-.213.304-.491.302-.78.14-1.393-.151-3.39-1.042-4.526-.89-1.137-2.886-1.046-4.154-.855a5.26 5.26 0 0 0-1.87.573 4.064 4.064 0 0 0-1.51 1.765c-.804 1.7-.92 4.426 1.213 5.03 3.093.87 4.697-2.515 4.697-2.515.196.47.459.911.78 1.308.06.052.127.094.2.125z" fill="#192639"/>
                <path d="M119.768 107.481s16.994-8.675 18.442-4.063c1.449 4.612-10.264 7.297-17.823 7.574l-.619-3.51z" fill="#032551"/>
                <circle fill="#FFF" cx="118.968" cy="95.808" r="1.896"/>
                <path d="M115.639 108.16s-13.55-13.428-16.33-9.47c-2.781 3.958 7.544 10.059 14.675 12.629l1.655-3.159z" fill="#032551"/>
                <path d="M115.11 109.171s4.024 3.576 1.69 4.632c-2.333 1.056-2.816-2.484-2.816-2.484l1.127-2.148z" fill="#FFB9AC"/>
                <path d="M113.23 76.335a5.743 5.743 0 0 0-5.105-6.282c-3.063-.327-7.091-.125-10.672 2.118-6.946 4.355-14.63 7.83-12.734 15.721 1.896 7.891 15.681 11.206 15.681 11.206l1.836-3.018s-12.151-4.104-9.938-10.521c1.991-5.769 19.624 3.897 20.932-9.224z" fill="#FFF"/>
                <path d="M101.934 96.598s3.832 2.595 2.44 3.31c-1.394.713-3.743-1.188-3.743-1.188l1.303-2.122z" fill="#FFB9AC"/>
                <path d="M121.342 72.814a2.012 2.012 0 1 0-2.067 2.384l.875 4.582.905-.171-.875-4.582a2.012 2.012 0 0 0 1.162-2.213zm-1.77 1.51a1.127 1.127 0 1 1 .895-1.319c.098.604-.3 1.176-.9 1.293l.005.025z" fill="#294574"/>
                <path d="M123.288 79.85s-1.373-3.37-3.253-3.093c-1.881.277 1.04 4.416 1.04 4.416l2.213-1.323z" fill="#FFB9AC"/>
                <path d="M111.751 35.648v2.424h-7.322v-2.424h7.322zm0-5.301v2.424h-12.75v-2.424h12.75zm0-5.301v2.424h-12.75v-2.424h12.75zm0-5.3v2.423h-12.75v-2.424h12.75zM93.807 30.503c.013 6.694-5.221 12.226-11.906 12.58-6.686.356-12.477-4.59-13.173-11.247-.696-6.659 3.947-12.695 10.562-13.73 6.614-1.035 12.879 3.294 14.25 9.847.065.342.12.684.171 1.006.063.512.095 1.028.096 1.544z" fill="#D6DDEA" opacity=".5"/>
                <path d="M81.254 17.955v12.573l12.291-2.555S91.83 17.874 81.254 17.955z" fill="#8293AF" opacity=".2"/>
                <path fill="#000" opacity=".08" d="M36.11 33.815h27.038v23.386H36.11z"/>
                <path fill="#294574" d="M32.193 31.209h28.521v23.386H32.193z"/>
                <path d="M47.05 35.137c.422 0 .552.146.552.569v.9c1.69.236 2.66 1.081 3.38 2.55.221.442.13.684-.367.9l-.9.407c-.423.202-.624.111-.865-.332a2.298 2.298 0 0 0-2.349-1.413c-1.564 0-2.278.458-2.278 1.509.07.662.603 1.18 1.267 1.232.436.097.878.164 1.323.201.834.05 1.657.22 2.444.503.393.13.76.329 1.081.589.658.692 1.01 1.62.976 2.575 0 2.011-1.343 3.36-3.712 3.706v.956c0 .422-.13.573-.553.573h-1.006c-.422 0-.568-.15-.568-.573v-.936a4.174 4.174 0 0 1-3.671-2.826.593.593 0 0 1 .422-.845l.9-.332c.458-.166.66-.055.86.402.41 1.03 1.236 1.544 2.48 1.544 1.69 0 2.514-.533 2.514-1.614a1.127 1.127 0 0 0-.79-1.142 6.181 6.181 0 0 0-1.8-.372 8.43 8.43 0 0 1-2.464-.533 3.47 3.47 0 0 1-1.066-.608 3.355 3.355 0 0 1-1.006-2.515c0-1.982 1.252-3.304 3.6-3.616v-.89c0-.423.147-.569.57-.569h1.025z" fill="#FFF"/>
            </g>
        </g>
    </g>
</svg>
