<svg width="60" height="60" viewBox="0 0 60 60" xmlns="http://www.w3.org/2000/svg">
    <g fill="none" fill-rule="evenodd">
        <circle fill="#EDEDED" transform="rotate(180 47 23)" cx="47" cy="23" r="7"/>
        <circle fill="#EDEDED" transform="rotate(180 34 11)" cx="34" cy="11" r="4"/>
        <g transform="rotate(-60 28.66 7.681)">
            <rect fill="#FFF" x=".001" y=".001" width="20" height="40" rx="2"/>
            <path d="M18.001.001a2 2 0 0 1 2 2v36a2 2 0 0 1-2 2h-16a2 2 0 0 1-2-2v-36a2 2 0 0 1 2-2h16zm-.6 2.6h-14.8v34.8h14.8v-34.8z" fill="#192639" fill-rule="nonzero"/>
            <path d="M6.585 0A5 5 0 0 1 0 6.585L.001 2a2 2 0 0 1 2-2L6.585 0zM4.996 2.178 5.001 2h-3l-.002 3a2.999 2.999 0 0 0 2.997-2.823zM13.418.001a5 5 0 0 0 6.585 6.585L20 2.003a2 2 0 0 0-2-2L13.418 0zm1.588 2.178-.005-.176h3l.002 2.999a2.999 2.999 0 0 1-2.997-2.823zM6.586 40.003a5 5 0 0 0-6.585-6.585L.003 38a2 2 0 0 0 2 2l4.583.002zm-1.588-2.178.005.176h-3L2 35.002a2.999 2.999 0 0 1 2.997 2.823zM13.418 40.003a5 5 0 0 1 6.585-6.585L20 38a2 2 0 0 1-2 2l-4.583.002zm1.588-2.178-.005.176h3l.002-2.999a2.999 2.999 0 0 0-2.997 2.823z" fill="#192639" fill-rule="nonzero"/>
            <circle fill="#192639" cx="10.001" cy="6.001" r="1"/>
            <circle fill="#192639" cx="10.001" cy="34.001" r="1"/>
        </g>
        <g transform="translate(18 18)">
            <circle fill="#FFF" cx="12" cy="12" r="12"/>
            <path d="m9.492 19.658.714-1.532c1.172.435 2.207.534 3.108.299.9-.236 1.557-.799 1.972-1.688.447-.96.461-1.872.042-2.735-.42-.864-1.217-1.799-2.393-2.804-.523-.572-.845-1.008-.965-1.308-.12-.3-.1-.62.058-.961.169-.361.403-.603.702-.726.3-.123.689-.073 1.168.15.462.216.764.505.904.867.141.363.093.798-.144 1.306l2.895 1.35.035-.03c.451-.922.501-1.823.15-2.704-.35-.881-1.043-1.64-2.078-2.277l.76-1.63-1.385-.647-.75 1.608c-1.196-.459-2.262-.568-3.2-.328-.938.24-1.609.794-2.014 1.663-.45.965-.468 1.854-.053 2.666.416.812 1.222 1.757 2.421 2.836.525.523.85.942.978 1.258.126.316.095.677-.094 1.083-.164.35-.404.58-.722.689-.318.108-.719.05-1.204-.177-.55-.256-.93-.584-1.138-.985-.208-.4-.176-.892.096-1.476L6.47 12.079l-.04.038c-.545 1.093-.57 2.1-.074 3.022.496.92 1.315 1.7 2.456 2.337l-.714 1.531 1.394.65z" fill="#C43826" fill-rule="nonzero"/>
            <path d="M12 0c6.627 0 12 5.373 12 12s-5.373 12-12 12S0 18.627 0 12 5.373 0 12 0zm0 2.6a9.4 9.4 0 1 0 0 18.8 9.4 9.4 0 0 0 0-18.8z" fill="#192639" fill-rule="nonzero"/>
        </g>
        <path d="M51.17 37.793c1.46.87.365 2.707-1.28 3.972-1.096.843-5.059 3.728-11.888 8.655-2.255 1.044-5.133 1.444-8.632 1.199-5.697-.608-9.979-1.434-12.846-2.477l.072.668a2 2 0 0 1-1.78 2.198l-4.972.523a2 2 0 0 1-2.198-1.78L6.39 38.817a2 2 0 0 1 1.78-2.199l4.973-.522a2 2 0 0 1 2.198 1.78l.27 2.56a20.174 20.174 0 0 0 6.042-1.925c1.217-.611 2.492-.862 3.884.272a7.265 7.265 0 0 0 3.154 1.5c1.203.561 2.655.663 4.357.304 2.553-.538 4.33-1.525 5.548-.526.811.666 1.2 1.237 1.167 1.712l7.363-3.495c1.722-.903 3.07-1.064 4.044-.485z" fill="#FFF"/>
        <path d="M51.747 36.676c1.282.764 1.61 2.106 1.062 3.447-.385.942-1.194 1.887-2.215 2.672l-.525.396-2.185 1.61-5.466 3.968-3.745 2.705a1.3 1.3 0 0 1-.214.126c-2.475 1.145-5.566 1.575-9.317 1.312l-1.192-.133-1.15-.14c-.19-.023-.376-.048-.56-.072l-1.09-.15a69.365 69.365 0 0 1-4.83-.848l-.843-.19-.802-.198a31.21 31.21 0 0 1-2.071-.604 1.995 1.995 0 0 1-1.788 1.932l-4.972.523a2 2 0 0 1-2.198-1.78L6.39 39.318a2 2 0 0 1 1.78-2.198l4.973-.523a2 2 0 0 1 2.198 1.78l.08.76a18.862 18.862 0 0 0 5.101-1.565l.458-.222c1.816-.913 3.477-.941 5.095.273l.194.152c.68.554 1.436.94 2.277 1.16l.32.074a1.3 1.3 0 0 1 .193.056l.092.04c.927.432 2.097.514 3.54.21.264-.056.53-.119.82-.193l1.654-.453.255-.067.461-.109c.217-.047.416-.083.611-.11 1.116-.153 2.047.022 2.84.673a7 7 0 0 1 .885.85l.1.122 6.116-2.901c2.082-1.092 3.876-1.307 5.313-.45zm-38.929 2.57-3.779.397 1.129 10.74 3.78-.397-1.13-10.74zm35.007.09-.23.116-6.733 3.197c-.263 1.225-.94 2.184-2.012 2.789a1.3 1.3 0 0 1-.231.102l-.122.034-8.594 1.938a1.3 1.3 0 0 1-.7-2.5l.128-.037 8.379-1.89.09-.066c.312-.254.494-.616.56-1.152l.011-.113c-.002.009-.007.007-.017-.005l-.02-.028a3.036 3.036 0 0 0-.501-.528l-.18-.152-.061-.042-.064-.035a.483.483 0 0 0-.035-.014l-.077-.02-.09-.012a.96.96 0 0 0-.053-.002l-.12.005-.143.016-.172.028-.205.04-.377.087-.474.119-1.295.343c-.455.122-.856.22-1.26.305-1.837.387-3.478.305-4.894-.276l-.138-.062-.199-.044a8.532 8.532 0 0 1-3.093-1.47l-.275-.216c-.743-.605-1.354-.643-2.298-.206l-.181.088a21.475 21.475 0 0 1-6.455 2.052l.627 5.982c.956.386 2.118.745 3.483 1.077l.773.18.402.088.836.171c.712.14 1.468.275 2.266.404l.977.15c.167.026.335.05.504.074l1.038.142 1.079.136 1.118.13c.19.022.381.042.574.063 3.132.22 5.692-.104 7.685-.945l.205-.091 8.43-6.104 2.044-1.496 1.274-.952c.618-.475 1.099-1.013 1.327-1.453l.135-.3c.011-.026.01-.034-.006-.044l-.049-.027c-.481-.287-1.312-.206-2.59.425z" fill="#192639" fill-rule="nonzero"/>
    </g>
</svg>
