<svg width="80" height="80" viewBox="0 0 80 80" fill="none" xmlns="http://www.w3.org/2000/svg">
<path d="M41.562 20.23V16.0092C53.1995 15.6504 64.1772 25.8147 63.9978 38.4204H59.7599C59.6689 33.4465 57.929 29.1286 54.4086 25.6021C50.8883 22.0756 46.568 20.3221 41.562 20.23Z" fill="url(#paint0_linear_232_12188)"/>
<path d="M41.5518 29.51V25.8172C48.0409 25.5086 54.3823 31.3861 54.1859 38.4298H50.4823C50.4176 35.9895 49.5836 33.8739 47.8586 32.1467C46.1336 30.4195 44.0223 29.5693 41.5518 29.51Z" fill="url(#paint1_linear_232_12188)"/>
<path d="M16 30.063C16.074 29.7162 16.1299 29.3667 16.226 29.0238C16.4719 28.051 16.9774 27.1634 17.6887 26.4557C18.9254 25.2242 20.1568 23.9876 21.4064 22.7704C22.9938 21.235 24.8397 21.2025 26.4245 22.7392C28.3825 24.6367 30.3098 26.5652 32.2063 28.525C33.7534 30.1241 33.7314 31.9258 32.1843 33.5391C31.1061 34.6628 29.9837 35.7474 28.8783 36.8425C28.2392 37.4777 28.2288 37.5349 28.5821 38.3389C29.5161 40.4576 30.8866 42.284 32.3804 44.0286C34.6939 46.7292 37.2582 49.1505 40.2861 51.0432C41.1032 51.5524 41.9813 51.9616 42.8322 52.4149C43.2427 52.6344 43.5375 52.4409 43.822 52.1551C44.9729 50.986 46.1238 49.8286 47.2864 48.6777C48.11 47.8619 49.0713 47.3787 50.2741 47.5476C50.9761 47.6414 51.6278 47.9632 52.1291 48.4633C54.1789 50.4898 56.2392 52.5071 58.2344 54.5842C59.5633 55.9638 59.5854 57.7642 58.2955 59.1736C56.9705 60.6207 55.5676 62.0015 54.1595 63.3642C53.3216 64.1722 52.2551 64.5826 51.1055 64.7619C50.9691 64.784 50.8353 64.8243 50.6989 64.8554H48.9167C48.8298 64.8234 48.7403 64.799 48.6491 64.7827C46.1031 64.5593 43.7259 63.7435 41.4279 62.6809C33.4936 59.006 27.1207 53.4827 22.1183 46.3447C19.6918 42.8815 17.7588 39.1677 16.6027 35.0836C16.3286 34.1159 16.1974 33.1157 16 32.1206V30.063Z" fill="#172439"/>
<defs>
<linearGradient id="paint0_linear_232_12188" x1="58.858" y1="21.9072" x2="46.6184" y2="42.3057" gradientUnits="userSpaceOnUse">
<stop offset="0.322917" stop-color="#DAA360"/>
<stop offset="1" stop-color="#DAA360" stop-opacity="0"/>
</linearGradient>
<linearGradient id="paint1_linear_232_12188" x1="51.2941" y1="29.1317" x2="44.4035" y2="40.6196" gradientUnits="userSpaceOnUse">
<stop offset="0.322917" stop-color="#DAA360"/>
<stop offset="1" stop-color="#DAA360" stop-opacity="0"/>
</linearGradient>
</defs>
</svg>
