<svg width="80" height="80" viewBox="0 0 80 80" fill="none" xmlns="http://www.w3.org/2000/svg">
<path fill-rule="evenodd" clip-rule="evenodd" d="M25.0852 23.6535C23.0936 26.9178 22.9673 30.8972 22.9673 33.7673L22.9674 43.8313L19.4674 43.8313L19.4673 33.7673C19.4673 30.9265 19.54 26.0222 22.0973 21.8306C24.7626 17.4621 29.8597 14.25 39.015 14.25C47.9837 14.25 53.4888 16.5206 56.7117 20.0245C59.916 23.5082 60.5325 27.858 60.5325 31.2609V45.6651C60.5325 48.5235 59.7371 51.7379 57.9956 54.2899C56.2184 56.894 53.4177 58.8369 49.5902 58.8369H47.8402V55.3369H49.5902C52.066 55.3369 53.8614 54.1388 55.1046 52.317C56.3834 50.443 57.0325 47.9464 57.0325 45.6651V31.2609C57.0325 28.2072 56.4652 24.9266 54.1357 22.3939C51.8248 19.8815 47.4461 17.75 39.015 17.75C30.7706 17.75 26.9688 20.566 25.0852 23.6535Z" fill="#172439"/>
<path d="M22.3911 44.1738H17.9998C15.2384 44.1738 12.9998 41.9353 12.9998 39.1738V33.913C12.9998 31.1515 15.2384 28.913 17.9998 28.913H22.3911V44.1738Z" fill="#172439"/>
<path d="M57.6089 30.0869H62.0002C64.7616 30.0869 67.0002 32.3255 67.0002 35.0869V40.3478C67.0002 43.1092 64.7616 45.3478 62.0002 45.3478H57.6089V30.0869Z" fill="#172439"/>
<ellipse cx="44.1087" cy="56.4506" rx="11.1522" ry="11.1522" transform="rotate(-90 44.1087 56.4506)" fill="url(#paint0_linear_232_12195)"/>
<defs>
<linearGradient id="paint0_linear_232_12195" x1="44.1087" y1="48.5785" x2="44.1087" y2="72.1949" gradientUnits="userSpaceOnUse">
<stop offset="0.322917" stop-color="#DAA360"/>
<stop offset="1" stop-color="#DAA360" stop-opacity="0"/>
</linearGradient>
</defs>
</svg>
