<svg id="圖層_1" data-name="圖層 1" xmlns="http://www.w3.org/2000/svg" viewBox="0 0 66.67 60"><defs><style>.cls-1{fill:#ededed;}.cls-2{fill:#fff;}.cls-3{fill:#192639;}.cls-4{fill:#c43826;}</style></defs><circle class="cls-1" cx="57.33" cy="9.33" r="9.33"/><circle class="cls-1" cx="11.33" cy="47.33" r="11.33"/><circle class="cls-2" cx="33.33" cy="30.67" r="28"/><path class="cls-3" d="M64.71,37.68l2.19,3.08c1.15,1.44,3.7,8.27-7.23,19.46-11.53,11.78-19,9.26-20.24,7.93h0L36.36,66a1.22,1.22,0,0,1,0-1.72l0,0L37.63,63l.35-.35,1-1,.36-.36.41-.41.6-.6.38-.38.83-.83.27-.26.53-.53a1.21,1.21,0,0,1,1.71,0l3,2.2h0l.09.09c1.07.92,2.45,0,5-2.14a38.48,38.48,0,0,0,5.54-5.53c1.23-1.52,2.32-3.12,1.2-4.24h0l0,0-.09-.14L58,47.14l-.23-.35-.87-1.32h0a1.2,1.2,0,0,1,0-1.69h0l.12-.12.38-.38L58,42.7l.64-.64.24-.24.59-.59.61-.6.2-.21.79-.79.42-.41.2-.2.36-.37.17-.16.29-.3.22-.21.29-.3A1.2,1.2,0,0,1,64.71,37.68ZM50.17,12.06A29.67,29.67,0,0,1,67.46,28.59a30.6,30.6,0,0,1,1.09,3.09,1.74,1.74,0,0,1-3.33,1,26.26,26.26,0,1,0-34.2,32,1.74,1.74,0,0,1-1.19,3.26A29.73,29.73,0,0,1,50.17,12.06Zm-2.27,5A24.33,24.33,0,0,1,63.28,33.13a1.6,1.6,0,0,1-3.07.91h0a22.2,22.2,0,0,0-1.39-3.52,21,21,0,0,0-12-10.44,21.23,21.23,0,0,0-6.06-1.14v1.73a1.46,1.46,0,0,1-2.92.16V19A21.1,21.1,0,0,0,18.94,39.2h1.73a1.46,1.46,0,0,1,.16,2.92H19a21.07,21.07,0,0,0,14.1,17.79,1.6,1.6,0,0,1-1,3A24.26,24.26,0,0,1,47.9,17.06Z" transform="translate(-6.67 -9.33)"/><path class="cls-4" d="M31.21,46a.08.08,0,0,0,0,.1.09.09,0,0,0,.1.06h7.23a.33.33,0,0,1,.23.09.32.32,0,0,1,.09.23V49a.31.31,0,0,1-.32.32h-12A.31.31,0,0,1,26.2,49V46.56a.54.54,0,0,1,.16-.4q1.38-1.35,2.67-2.79c.56-.63,1.13-1.25,1.7-1.88s1-1.13,1.52-1.68c1.62-1.79,2.43-3.13,2.43-4A2,2,0,0,0,34,34.28a2.79,2.79,0,0,0-3.46,0,2,2,0,0,0-.67,1.59v.66a.31.31,0,0,1-.32.32H26.41a.31.31,0,0,1-.22-.09.33.33,0,0,1-.1-.23V35.28A4.66,4.66,0,0,1,27,32.73,5.27,5.27,0,0,1,29.2,31a7.79,7.79,0,0,1,3.08-.59,7.22,7.22,0,0,1,3.29.71,5.24,5.24,0,0,1,2.16,1.91,4.85,4.85,0,0,1,.76,2.66,5.25,5.25,0,0,1-.56,2.3,12.54,12.54,0,0,1-1.68,2.53c-.56.71-1.16,1.39-1.78,2s-1.59,1.66-2.86,2.94ZM54,41.2a.33.33,0,0,1,.23.09.32.32,0,0,1,.09.23v2.69a.31.31,0,0,1-.32.32H52.81c-.09,0-.13,0-.13.14V49a.31.31,0,0,1-.32.32H49.24a.31.31,0,0,1-.32-.32V44.67c0-.09,0-.14-.13-.14H40.6a.31.31,0,0,1-.32-.32V42.08a1.41,1.41,0,0,1,.08-.4l4.8-10.77a.37.37,0,0,1,.37-.24h3.34a.29.29,0,0,1,.25.09.31.31,0,0,1,0,.28L44.65,41a.2.2,0,0,0,0,.11.1.1,0,0,0,.08.05h4.06c.09,0,.13,0,.13-.13V37.76a.33.33,0,0,1,.09-.23.32.32,0,0,1,.23-.09h3.12a.33.33,0,0,1,.23.09.32.32,0,0,1,.09.23v3.31c0,.09,0,.13.13.13Z" transform="translate(-6.67 -9.33)"/></svg>