<svg width="80" height="80" viewBox="0 0 80 80" xmlns="http://www.w3.org/2000/svg">
    <g transform="translate(6.667 8)" fill="none" fill-rule="evenodd">
        <circle fill="#EDEDED" transform="rotate(180 57.333 14.667)" cx="57.333" cy="14.667" r="9.333"/>
        <circle fill="#EDEDED" transform="rotate(180 11.333 48.667)" cx="11.333" cy="48.667" r="11.333"/>
        <path d="M35.969 44c6.591 0 12.49 3.72 14.805 9.333l2.548 6.181c.497 1.207-.175 2.552-1.501 3.004a2.793 2.793 0 0 1-.9.149H14.717c-1.417 0-2.565-1.045-2.565-2.334 0-.28.055-.557.163-.819l2.548-6.18C17.178 47.718 23.078 44 29.669 44h6.3z" fill="#FFF" fill-rule="nonzero"/>
        <path d="M39.339 42.716a1.733 1.733 0 0 1 .177 3.458l-.177.009-12.452-.002-.32.084c-4.42 1.184-7.333 3.142-8.855 5.844l-.17.315-.501.988-.463.931-.426.876-.387.82-.349.763-.31.705a40.11 40.11 0 0 0-.141.332l-.253.62-.112.288-.195.533c-.03.084-.057.166-.083.245l-.073.23-.097.25.236.024.341.018.204.002H38.35a1.733 1.733 0 0 1 .178 3.458l-.178.009H14.933c-3.343 0-5.159-1.872-4.024-4.739l.054-.132.057-.175c.094-.289.205-.6.332-.933l.275-.698c.05-.121.1-.245.154-.371l.34-.789.384-.85.426-.91.23-.48.755-1.53.542-1.066c2.032-3.964 6.01-6.643 11.792-8.076.09-.023.183-.038.276-.045l.14-.006H39.34zM16 13.333A2.667 2.667 0 0 1 18.667 16v9.333A2.667 2.667 0 0 1 16 28h-2a4.667 4.667 0 0 1-4.667-4.667V18A4.667 4.667 0 0 1 14 13.333h2zm-1.067 10.934v-7.2H14a.934.934 0 0 0-.925.806l-.008.127v5.333c0 .473.35.863.806.925l.127.009h.933z" fill="#192639" fill-rule="nonzero"/>
        <path d="M50 13.333A4.667 4.667 0 0 1 54.667 18v5.333A4.667 4.667 0 0 1 50 28h-2a2.667 2.667 0 0 1-2.667-2.667V16A2.667 2.667 0 0 1 48 13.333h2z" fill="#FFF" fill-rule="nonzero"/>
        <path d="M50 13.333A4.667 4.667 0 0 1 54.667 18v5.333A4.667 4.667 0 0 1 50 28h-2a2.667 2.667 0 0 1-2.667-2.667V16A2.667 2.667 0 0 1 48 13.333h2zm-.933 10.934H50a.934.934 0 0 0 .925-.807l.008-.127V18a.934.934 0 0 0-.806-.925L50 17.067h-.933v7.2z" fill="#192639" fill-rule="nonzero"/>
        <path d="M32 0c9.573 0 17.333 7.462 17.333 16.667 0 .535-.026 1.064-.077 1.586-.47.117-.949.21-1.436.277.119.915.18 1.85.18 2.803C48 31.643 40.837 40 32 40c-8.535 0-15.509-7.796-15.975-17.617a14.568 14.568 0 0 1-.372-.16 16.072 16.072 0 0 1-.986-5.556C14.667 7.462 22.427 0 32 0z" fill="#FFF" fill-rule="nonzero"/>
        <path d="M32 36.267c6.636 0 12.267-6.57 12.267-14.934 0-2.41-.468-4.67-1.292-6.669l3.974.003A21.397 21.397 0 0 1 48 21.333C48 31.643 40.837 40 32 40s-16-8.357-16-18.667h3.733c0 8.365 5.631 14.934 12.267 14.934z" fill="#192639" fill-rule="nonzero"/>
        <path d="m45.444 25.569 1.379 2.09c.225.343.078.612-.441.808.078.433-.069.772-.441 1.017-.147.097-.147.174 0 .23l-.202.13-.475.292c-.523.31-1.18.67-1.928 1.031-1.046.506-2.078.913-3.075 1.186l-.458.117c-1.036.242-2.402.325-4.128.264a4 4 0 1 1 .062-3.735c1.446.056 2.528-.004 3.217-.165l.32-.081c.754-.207 1.582-.534 2.438-.947a22.26 22.26 0 0 0 1.58-.846l.305-.182.288-.181 1.559-1.028zM32 0c9.573 0 17.333 7.462 17.333 16.667 0 .535-.215 1.135-.266 1.657-1.09.27-2.044.343-3.22.343-2.301 0-4.47-.548-6.376-1.515C36.508 21.237 30.829 24 24.311 24c-3.153 0-6.11-.647-8.658-1.777a16.072 16.072 0 0 1-.986-5.556C14.667 7.462 22.427 0 32 0zm0 3.733c-7.543 0-13.6 5.824-13.6 12.934 0 .737.064 1.464.191 2.178l.112.552.515.16c1.42.413 2.937.653 4.503.7l.59.01c5.053 0 9.544-1.999 11.915-5.012l.223-.295 1.87-2.58 2.842 1.443c1.3.66 2.735 1.038 4.234 1.1l.081.001-.004-.034c-.892-6.162-6.36-10.975-13.09-11.152L32 3.733z" fill="#192639" fill-rule="nonzero"/>
        <path d="M49.333 44a9.334 9.334 0 1 1 0 18.668 9.334 9.334 0 0 1 0-18.668zm4.358 3.691a.441.441 0 0 0-.622 0l-.012.012-.34.34-1.437 1.432-.366.365-.09.09a.445.445 0 0 0-.009.634l.05.049.922.912.043.043c.406.411.01.994-.44 1.548a14.144 14.144 0 0 1-2.017 2.014c-.914.744-1.415 1.095-1.798.803l-.065-.058.002-.002-1.007-1.008a.441.441 0 0 0-.623 0l-.047.047-.22.218-.219.219-.396.395-.472.47-.225.225-.24.24-.151.15-.117.116-.102.103a.44.44 0 0 0 0 .626l1.006.984.01.01c.462.49 3.167 1.408 7.361-2.883 3.902-3.993 3.086-6.46 2.658-7.05l-.022-.03.002-.001z" fill="#C43826" fill-rule="nonzero"/>
    </g>
</svg>
