<svg width="20" height="19" xmlns="http://www.w3.org/2000/svg" xmlns:xlink="http://www.w3.org/1999/xlink">
    <defs>
        <path d="m2.412 0 16.97 16.969.001-.002.002.002-1.414 1.414-3.357-3.357c-1.257.586-2.78.972-4.614.972-7.592 0-9.874-6.617-9.896-6.684L0 8.998l.105-.316c.014-.042.929-2.698 3.515-4.65L1 1.413 2.412 0zm10.675 13.5-1.798-1.798c-.391.19-.83.296-1.289.296a3.02 3.02 0 0 1-3-3c0-.46.107-.897.296-1.29l-2.26-2.26c-1.767 1.216-2.62 2.86-2.92 3.55.5 1.154 2.562 5 7.884 5 1.184 0 2.207-.19 3.087-.499zM10 1.997c7.592 0 9.874 6.617 9.896 6.684l.104.316-.105.316c-.01.033-.57 1.657-2.044 3.296L16.46 11.22a8.597 8.597 0 0 0 1.424-2.22c-.499-1.155-2.56-5-7.883-5-.252 0-.498.008-.736.025L7.5 2.259C8.261 2.093 9.093 2 10 2z" id="a"/>
    </defs>
    <g transform="translate(0 .002)" fill="none" fill-rule="evenodd">
        <mask id="b" fill="#fff">
            <use xlink:href="#a"/>
        </mask>
        <use fill="#2E3A59" xlink:href="#a"/>
        <g mask="url(#b)" fill="#0D1623">
            <path d="M-2-3.002h24v24H-2z"/>
        </g>
    </g>
</svg>
