<svg width="20" height="14" xmlns="http://www.w3.org/2000/svg" xmlns:xlink="http://www.w3.org/1999/xlink">
    <defs>
        <path d="M7 7c0 1.642 1.358 3 3 3 1.641 0 3-1.358 3-3 0-1.641-1.359-3-3-3a3.02 3.02 0 0 0-3 3zM.105 6.684 0 7l.104.316C.126 7.383 2.408 14 10 14c7.592 0 9.874-6.617 9.895-6.684L20 7l-.104-.316C19.874 6.617 17.592 0 10 0 2.408 0 .126 6.617.105 6.684zM2.117 7C2.617 5.842 4.68 2 10 2c5.322 0 7.384 3.846 7.883 5-.5 1.158-2.564 5-7.883 5-5.322 0-7.384-3.846-7.883-5z" id="a"/>
    </defs>
    <g fill="none" fill-rule="evenodd">
        <mask id="b" fill="#fff">
            <use xlink:href="#a"/>
        </mask>
        <use fill="#2E3A59" xlink:href="#a"/>
        <g mask="url(#b)" fill="#0D1623">
            <path d="M-2-5h24v24H-2z"/>
        </g>
    </g>
</svg>
