<svg width="24" height="25" xmlns="http://www.w3.org/2000/svg" xmlns:xlink="http://www.w3.org/1999/xlink">
    <defs>
        <path id="a" d="M0 0h24v24H0z"/>
    </defs>
    <g fill="none" fill-rule="evenodd">
        <path d="M0 1h24v24H0z"/>
        <g>
            <mask id="b" fill="#fff">
                <use xlink:href="#a"/>
            </mask>
            <path d="M18 8.611C18 6.654 15.024 5 11.5 5S5 6.654 5 8.611v9.028c0 1.957 2.976 3.611 6.5 3.611s6.5-1.654 6.5-3.611V8.61zm-1.625-.005c-.056.45-1.876 1.81-4.875 1.81s-4.819-1.36-4.875-1.8c.056-.45 1.876-1.81 4.875-1.81s4.819 1.36 4.875 1.8zM11.5 12.222c1.92 0 3.673-.493 4.875-1.257v2.155c-.056.45-1.876 1.81-4.875 1.81s-4.819-1.36-4.875-1.805v-2.16c1.202.764 2.955 1.257 4.875 1.257zM6.625 15.48c1.202.764 2.955 1.257 4.875 1.257s3.673-.493 4.875-1.257v2.154c-.056.451-1.876 1.811-4.875 1.811s-4.819-1.36-4.875-1.805v-2.16z" fill="#FFF" mask="url(#b)"/>
        </g>
    </g>
</svg>
