<svg xmlns="http://www.w3.org/2000/svg" width="20" height="20" viewBox="0 0 20 20">
    <g fill="none" fill-rule="evenodd">
        <g>
            <g>
                <path d="M0 0H20V20H0z" transform="translate(-228 -486) translate(228 486)"/>
                <g fill="#FFF">
                    <path d="M12.5 2.5c.877 0 1.598.681 1.662 1.542l.005.125V5H17.5v1.667h-1.667L15 15.833c0 .878-.681 1.599-1.542 1.662l-.125.005H6.667c-.878 0-1.599-.681-1.662-1.542L5 15.833l-.833-9.166H2.5V5h3.333v-.833c0-.878.681-1.599 1.543-1.662L7.5 2.5h5zM8.333 8.333H7.5v5.834h.833V8.333zm4.167 0h-.833v5.834h.833V8.333zm0-4.166h-5V5h5v-.833z" transform="translate(-228 -486) translate(228 486)"/>
                </g>
            </g>
        </g>
    </g>
</svg>
