<svg width="191" height="508" viewBox="0 0 191 508" xmlns="http://www.w3.org/2000/svg">
    <g fill="none" fill-rule="evenodd">
        <path d="M254 0c140.28 0 254 113.72 254 254S394.28 508 254 508 0 394.28 0 254 113.72 0 254 0zm0 120c-74.006 0-134 59.994-134 134s59.994 134 134 134 134-59.994 134-134-59.994-134-134-134z" fill="#D7E0EF" fill-rule="nonzero" opacity=".2"/>
        <path d="M122 47c0 13.807-11.193 25-25 25S72 60.807 72 47s11.193-25 25-25 25 11.193 25 25" fill="#DAA360" opacity=".1"/>
    </g>
</svg>
