<svg width="245" height="622" viewBox="0 0 245 622" xmlns="http://www.w3.org/2000/svg">
    <g fill="none" fill-rule="evenodd">
        <path d="M-46.5 39C114.491 39 245 169.509 245 330.5S114.491 622-46.5 622-338 491.491-338 330.5-207.491 39-46.5 39zm0 150c-78.148 0-141.5 63.352-141.5 141.5S-124.648 472-46.5 472 95 408.648 95 330.5 31.648 189-46.5 189z" fill="#D7E0EF" fill-rule="nonzero" opacity=".2"/>
        <path d="M40 40c0 22.091-17.909 40-40 40s-40-17.909-40-40S-22.091 0 0 0s40 17.909 40 40" fill="#DAA360" opacity=".097"/>
    </g>
</svg>
