<svg width="24" height="24" viewBox="0 0 24 24" xmlns="http://www.w3.org/2000/svg">
    <g fill="none" fill-rule="evenodd">
        <path d="M0 0h24v24H0V0z"/>
        <path d="M12 2a9 9 0 1 1 0 18 9 9 0 0 1 0-18zm.386 3.266h-1.015V6.65c-.732.085-1.312.353-1.74.806-.427.453-.64 1.03-.64 1.733 0 1.037.492 1.82 1.478 2.349.296.16.711.335 1.244.523.534.189.914.4 1.143.635.228.235.343.532.343.892 0 .385-.126.694-.378.927-.252.232-.619.349-1.101.349-.491 0-.871-.146-1.14-.438-.268-.292-.403-.705-.403-1.238H8.635c0 .838.225 1.51.676 2.019.45.507 1.095.808 1.933.9v1.232h1.009v-1.237c.783-.08 1.393-.343 1.831-.788.438-.444.657-1.024.657-1.739 0-.38-.057-.713-.171-.996a2.308 2.308 0 0 0-.489-.753 3.263 3.263 0 0 0-.78-.58 9.738 9.738 0 0 0-1.277-.553c-.541-.199-.925-.41-1.152-.631-.226-.222-.34-.518-.34-.886 0-.41.115-.725.343-.946.229-.22.546-.33.953-.33.41 0 .735.154.974.46.24.307.359.727.359 1.26h1.536c0-.829-.201-1.503-.603-2.021-.402-.519-.971-.83-1.708-.936V5.266z" fill="#0D1623"/>
    </g>
</svg>
