<svg width="50" height="50" viewBox="0 0 50 50" xmlns="http://www.w3.org/2000/svg">
    <defs>
        <linearGradient x1="50%" y1="43.374%" x2="50%" y2="105.679%" id="6ijqsyp8ma">
            <stop stop-color="#DAA360" offset="0%"/>
            <stop stop-color="#FAF2E9" offset="100%"/>
        </linearGradient>
    </defs>
    <g fill="none" fill-rule="evenodd">
        <path stroke="#172439" stroke-width="2.5" stroke-linejoin="round" d="M40.778 22.417V10h-33v28h20.437M12.5 29.5h8"/>
        <g stroke="#172439" stroke-linejoin="round" stroke-width="2.5">
            <path d="M12.5 18.5h8M16.5 14.5v8"/>
        </g>
        <g fill-rule="nonzero">
            <path d="M9.818 0C6.87 0 2.15 1.446.55 1.965a.793.793 0 0 0-.551.76v12.308c0 2.318 7.657 6.684 9.447 7.672.234.13.509.132.745.007 1.797-.952 9.443-5.152 9.443-7.679V2.726a.794.794 0 0 0-.55-.761C17.484 1.445 12.764 0 9.817 0z" fill="url(#6ijqsyp8ma)" transform="translate(23.69 20)"/>
            <path d="M30.19 29.567a2.63 2.63 0 0 1-1.258-.307 2.386 2.386 0 0 1-.91-.831 2.103 2.103 0 0 1-.333-1.152c0-.42.111-.801.334-1.146.222-.344.525-.619.909-.824A2.63 2.63 0 0 1 30.189 25c.455 0 .874.102 1.258.307.384.205.687.482.909.831.222.35.333.729.333 1.139 0 .419-.11.803-.333 1.152-.222.349-.525.626-.91.83a2.63 2.63 0 0 1-1.257.308zm-.683 5.321c-.07 0-.116-.018-.136-.056-.02-.037-.015-.083.015-.14l5.712-9.469c.05-.074.127-.111.228-.111h1.378c.071 0 .117.018.137.056.02.037.015.083-.015.14l-5.697 9.469c-.05.074-.127.111-.228.111h-1.394zm.682-6.662c.283 0 .523-.09.72-.272a.884.884 0 0 0 .295-.677.89.89 0 0 0-.295-.67 1.009 1.009 0 0 0-.72-.28c-.283 0-.522.093-.72.28a.89.89 0 0 0-.295.67c0 .26.099.484.296.67.197.186.436.28.72.28zM36.204 35a2.63 2.63 0 0 1-1.257-.307 2.386 2.386 0 0 1-.91-.831 2.103 2.103 0 0 1-.333-1.153c0-.41.112-.789.334-1.138.222-.349.525-.626.909-.83a2.63 2.63 0 0 1 1.257-.308c.445 0 .859.102 1.243.307.384.205.687.482.909.831.222.35.333.729.333 1.138 0 .42-.11.804-.333 1.153a2.4 2.4 0 0 1-.902.83 2.585 2.585 0 0 1-1.25.308zm0-1.327c.283 0 .52-.093.713-.28a.917.917 0 0 0 .287-.684.868.868 0 0 0-.295-.663 1.004 1.004 0 0 0-.705-.272c-.282 0-.525.09-.727.272a.859.859 0 0 0-.303.663c0 .27.099.499.296.685.197.186.442.28.734.28z" fill="#FFF"/>
        </g>
        <path opacity=".412" d="M0 0h50v50H0z"/>
    </g>
</svg>
