<svg xmlns="http://www.w3.org/2000/svg" xmlns:xlink="http://www.w3.org/1999/xlink" width="40" height="40" viewBox="0 0 40 40">
    <defs>
        <!--
        <rect id="b" width="32" height="32" rx="5"/>
        <filter id="a" width="140.6%" height="140.6%" x="-20.3%" y="-17.2%" filterUnits="objectBoundingBox">
            <feOffset dy="1" in="SourceAlpha" result="shadowOffsetOuter1"/>
            <feGaussianBlur in="shadowOffsetOuter1" result="shadowBlurOuter1" stdDeviation="2"/>
            <feComposite in="shadowBlurOuter1" in2="SourceAlpha" operator="out" result="shadowBlurOuter1"/>
            <feColorMatrix in="shadowBlurOuter1" values="0 0 0 0 0 0 0 0 0 0 0 0 0 0 0 0 0 0 0.1 0"/>
        </filter>
        -->
        <path id="c" d="M1.352 4.2l2.961 2.898a.354.354 0 0 1 .01.495.341.341 0 0 1-.488.009L0 3.85 3.835.098a.341.341 0 0 1 .487.01c.133.138.129.36-.009.494L1.351 3.5h8.804c.19 0 .345.157.345.35 0 .193-.154.35-.345.35H1.352z"/>
        <path id="e" d="M1.352 4.2l2.961 2.898a.354.354 0 0 1 .01.495.341.341 0 0 1-.488.009L0 3.85 3.835.098a.341.341 0 0 1 .487.01c.133.138.129.36-.009.494L1.351 3.5h8.804c.19 0 .345.157.345.35 0 .193-.154.35-.345.35H1.352z"/>
    </defs>
    <g fill="none" fill-rule="evenodd">
        <!--
        <g transform="translate(4 3)">
            <use fill="#000" filter="url(#a)" xlink:href="#b"/>
            <use fill="#FFF" xlink:href="#b"/>
            <rect width="31" height="31" x=".5" y=".5" stroke="#E6E6E6" rx="5"/>
        </g>
        -->
        <g transform="rotate(-45 27.498 -14.965)">
            <mask id="d" fill="#fff">
                <use xlink:href="#c"/>
            </mask>
            <use fill="#555" fill-rule="nonzero" xlink:href="#c"/>
        </g>
        <g transform="rotate(135 5.931 15.894)">
            <mask id="f" fill="#fff">
                <use xlink:href="#e"/>
            </mask>
            <use fill="#555" fill-rule="nonzero" xlink:href="#e"/>
        </g>
    </g>
</svg>
