<svg xmlns="http://www.w3.org/2000/svg" width="24" height="24" viewBox="0 0 24 24">
    <path fill="#9B9B9B" fill-rule="nonzero" d="M21.76 12c0 .279-.029.622-.082 1.022a18.683 18.683 0 0 1-.163 1.016l2.477 1.415-2.967 5.105-2.494-1.425c-.425.337-.969.681-1.608 1.031a25.017 25.017 0 0 1-1.932.947v2.88L9.009 24v-2.85a9.426 9.426 0 0 1-1.066-.493c-.32-.17-.652-.362-.993-.574a25.259 25.259 0 0 1-1.445-.97l-2.522 1.44L0 15.458l2.468-1.41A9.379 9.379 0 0 1 2.24 12c0-.279.03-.622.083-1.022a18.683 18.683 0 0 1 .163-1.016L.008 8.547l2.967-5.105 2.494 1.425c.425-.337.969-.681 1.608-1.031a25.017 25.017 0 0 1 1.932-.947V.009L14.991 0v2.85c.33.126.686.291 1.066.493.32.17.652.362.993.574a25.259 25.259 0 0 1 1.445.97l2.522-1.44L24 8.542l-2.468 1.41c.15.678.229 1.36.229 2.047zm-1.883 2.743l.103-.49a21.186 21.186 0 0 0 .242-1.41c.046-.345.07-.635.07-.843 0-.737-.105-1.473-.31-2.204l-.144-.517 2.18-1.245-1.543-2.636-2.093 1.197-.397-.304a23.812 23.812 0 0 0-1.731-1.187 15.626 15.626 0 0 0-.906-.525c-.503-.267-.94-.453-1.28-.54l-.545-.139V1.414l-3.046.004v2.395l-.446.183c-.136.055-.379.16-.693.303-.525.239-1.049.497-1.535.763-.624.342-1.136.671-1.49.968-.084.07-.157.136-.22.199l-.403.407-2.17-1.24-1.533 2.64 2.136 1.22-.103.492a21.186 21.186 0 0 0-.242 1.408c-.046.346-.07.636-.07.844 0 .737.105 1.473.31 2.204l.144.517-2.18 1.245 1.543 2.636 2.093-1.197.397.304a23.812 23.812 0 0 0 1.731 1.187c.315.196.618.372.906.525.503.267.94.453 1.28.54l.545.139v2.486l3.046-.004v-2.395l.446-.183c.136-.055.379-.16.693-.303a23.563 23.563 0 0 0 1.535-.763c.624-.342 1.136-.671 1.49-.968.084-.07.157-.136.22-.199l.403-.407 2.17 1.24 1.533-2.64-2.136-1.22zm-7.497-5.27c1.244 0 2.252.967 2.252 2.163 0 1.194-1.009 2.163-2.252 2.163-1.244 0-2.253-.969-2.253-2.163 0-1.196 1.009-2.163 2.253-2.163zm0 1.411c-.434 0-.785.337-.785.752 0 .414.351.751.785.751.433 0 .784-.337.784-.751 0-.415-.35-.752-.784-.752zM8.34 6.997a.377.377 0 0 1 .518.036.344.344 0 0 1-.037.498c-1.358 1.132-2.148 2.74-2.148 4.468 0 1.728.79 3.339 2.15 4.47.154.127.17.35.038.498a.377.377 0 0 1-.518.036c-1.518-1.264-2.404-3.068-2.404-5.004 0-1.935.885-3.738 2.401-5.002z"/>
</svg>
