<svg width="457" height="240" viewBox="0 0 457 240" xmlns="http://www.w3.org/2000/svg">
    <g transform="translate(60.652 15)" fill-rule="nonzero" fill="none">
        <path d="M72.696 19.766c-36.92 8.828-66.295 30.3-71.466 70.489-4.393 33.851.126 93.82 61.902 104.476 120.21 20.747 210.005 20.873 255.176-30.72 27.86-31.844 27.388-128.533-39.948-143.005C230.73 10.738 151.845.85 72.696 19.766z" fill="#E6EBF5" opacity=".3"/>
        <path fill="#E7EBF5" d="M111.054 0H240.72v207.893H111.054z"/>
        <path fill="#C8D0DF" d="M121.196 11.67h109.381v161.812H121.196z"/>
        <path fill="#DFE5F0" d="M129.547 59.462h30.545v3.484h-30.545zM129.547 65.793h23.968v3.484h-23.968zM129.547 72.133h19.111v3.484h-19.111z"/>
        <circle fill="#DFE5F0" cx="145.856" cy="38.577" r="17.683"/>
        <path fill="#DFE5F0" d="M172.29 24.023h12.68v8.187h-12.68zM171.062 35.339h15.118v2.611h-15.118zM191.164 24.023h12.68v8.187h-12.68zM189.945 35.339h15.118v2.611h-15.118zM210.039 24.023h12.68v8.187h-12.68zM208.82 35.339h15.118v2.611H208.82zM171.034 41.879h52.903v7.732h-52.903z"/>
        <path fill="#D2D8E3" d="M121.196 100.167h36.457v36.457h-36.457z"/>
        <path fill="#F2F2F2" d="M157.654 100.167h36.457v36.457h-36.457z"/>
        <path fill="#D2D8E3" d="M194.111 100.167h36.457v36.457h-36.457z"/>
        <path fill="#F2F2F2" d="M121.196 136.67h36.457v36.457h-36.457z"/>
        <path fill="#D2D8E3" d="M157.654 136.67h36.457v36.457h-36.457z"/>
        <path fill="#F2F2F2" d="M194.111 136.67h36.457v36.457h-36.457z"/>
        <path fill="#FFF" d="M157.654 100.167h36.457v36.457h-36.457zM121.196 136.67h36.457v36.457h-36.457zM194.111 136.67h36.457v36.457h-36.457z"/>
        <path fill="#D2D8E3" d="M183.505 104.351h6.367v6.367h-6.367zM146.811 144.111h6.367v6.367h-6.367z"/>
        <circle fill="#DFE5F0" cx="140.135" cy="89.015" r="5.112"/>
        <circle fill="#DFE5F0" cx="163.967" cy="89.015" r="5.112"/>
        <circle fill="#DFE5F0" cx="187.799" cy="89.015" r="5.112"/>
        <circle fill="#DFE5F0" cx="211.631" cy="89.015" r="5.112"/>
        <circle fill="#294574" cx="157.654" cy="49.611" r="3.866"/>
        <circle fill="#F5F7FB" cx="175.883" cy="189.582" r="7.613"/>
        <path d="M60.043 92.09c-.31 2.119 2.12 1.064 3.411 1.046.71 0 1.264.636 1.947.827 2.628.728 2.174-2.274 1.983-3.875-.246-1.973-2.32-4.347-4.549-3.22a3.811 3.811 0 0 0-1.482 1.72c-.49.94-.884 1.927-1.174 2.947a4.093 4.093 0 0 0-.136.555zM76.089 204.245s-1.41 2.657-3.966 2.502c-2.556-.155-3.575 2.228-1.392 3.202 2.183.973 8.46-1.11 8.46-1.11l.454-4.657-3.556.063zM87.268 34.329s-.473 5.321.41 8.869a2.729 2.729 0 0 0 3.274 1.946 5.922 5.922 0 0 0 4.63-4.457l1.61-4.666a4.785 4.785 0 0 0-2.083-5.158c-3.011-2.146-7.714.21-7.841 3.466z" fill="#FFB9AC"/>
        <path fill="#FFB9AC" d="m96.919 36.867 2.71 17.31-9.641.818 1.9-12.925z"/>
        <path d="M88.596 34.556c1.649.065 3.3-.06 4.92-.373a4.466 4.466 0 0 0 0 4.894 3.638 3.638 0 0 0 4.385 1.456l-.073-6.868c.048-1.997-.999-3.86-2.728-4.857a18.493 18.493 0 0 0-2.293-1.128c-1.974-.8-4.875.518-6.64-.828a1.292 1.292 0 0 0-2.047.846c-.318 2.083 0 5.376 2.875 6.522.512.196 1.053.31 1.6.336z" fill="#022552"/>
        <path d="M92.935 38.913s0-2.055 1.592-1.892c1.591.164 1.5 3.139-.6 3.411l-.992-1.519zM87.14 37.695 85.65 39.75a.855.855 0 0 0 .527 1.347l2.047.39-1.083-3.792z" fill="#FFB9AC"/>
        <path d="M91.352 44.88a6.304 6.304 0 0 0 3.129-1.819s-.146 3.202-3.638 6.368l.509-4.548z" fill="#CE8172" opacity=".31"/>
        <path d="m101.04 54.186-12.008 1.01S65.255 62.19 66.22 84.53c.964 22.34 3.12 49.783 3.12 49.783l32.019 4.184s53.221-72.396-.319-84.312z" fill="#FFF"/>
        <path d="M101.367 69.067s-6.559 5.067-5.758 18.666c.8 13.598 4.02 29.044-10.006 27.47-14.026-1.574-18.038-6.03-18.038-6.03l1.82 25.205 32.018 4.184 2.884-4.184s20.857-46.4-2.92-65.31z" fill="#000" opacity=".08"/>
        <path d="m69.34 134.35-8.597 7.15a18.62 18.62 0 0 0 2.73 30.527l16.49 9.296 5.458-3.993-12.27-10.242a6.522 6.522 0 0 1 .709-10.561l4.393-2.729a19.939 19.939 0 0 1 8.041-2.883c4.758-.6 12.735-3.03 15.064-12.371l-32.019-4.194z" fill="#032551"/>
        <path fill="#E2B78F" d="m52.905 85.15 8.152-2.64 4.757 14.694-8.152 2.64z"/>
        <path d="M100.33 73.397c.564-10.997 14.608-15.263 21.076-6.367 3.975 5.457 6.74 13.298 4.802 24.05-4.802 26.606-7.604 47.41-21.83 46.008-14.227-1.4-40.979-32.546-40.979-32.546l8.187-5.403s16.61 18.001 27.207 18.193c7.531.127.573-25.206 1.537-43.935z" fill="#FFF"/>
        <path d="M65.346 103.232s-5.894-4.548-4.02-7.922c1.873-3.375 9.36 4.402 9.36 4.402l-5.34 3.52z" fill="#FFB9AC"/>
        <path d="m101.358 138.535-21.713 65.647-5.458-.055s7.405-43.807 6.604-62.209l20.567-3.383z" fill="#032551"/>
        <path d="M69.003 39.114h-19.32a4.72 4.72 0 0 0-4.722 4.73V54.94a4.721 4.721 0 0 0 4.721 4.73h7.277l2.42 6.786 2.429-6.786h7.277a4.73 4.73 0 0 0 4.73-4.73V43.844a4.73 4.73 0 0 0-4.812-4.73z" fill="#294574"/>
        <path d="M66.32 47.073a6.886 6.886 0 0 1-.237 1.61 5.367 5.367 0 0 1-1.074 1.992 13.59 13.59 0 0 1-1.491 1.492c-.91.845-1.92 1.664-2.866 2.51-.427.382-.846.773-1.264 1.173h-.091c-1-.91-2.038-1.819-3.093-2.728-.655-.564-1.31-1.128-1.919-1.738a7.777 7.777 0 0 1-1.246-1.582 5.349 5.349 0 0 1-.591-1.82 7.732 7.732 0 0 1-.073-1.373 3.511 3.511 0 0 1 2.729-3.366 3.638 3.638 0 0 1 3.42.964c.294.266.548.572.755.91v.055c.133-.217.282-.424.446-.619a3.793 3.793 0 0 1 1.983-1.292 3.557 3.557 0 0 1 4.475 2.73c.087.354.133.717.136 1.082z" fill="#FFF"/>
    </g>
</svg>
