<svg width="456" height="240" viewBox="0 0 456 240" xmlns="http://www.w3.org/2000/svg">
    <g transform="translate(61 10)" fill-rule="nonzero" fill="none">
        <path d="M66.098 11.066C32.812 21.656 8.113 48.516 3.247 81.012c-4.1 27.386-15.279 86.743 53.964 101.034 111.163 22.868 239.314 10.288 266.13-34.973 26.818-45.261 0-126.234-68.853-136.978-39.755-6.198-123.372-19.721-188.39.971z" fill="#E6EBF5" opacity=".3"/>
        <path fill="#E6EBF5" d="M33.924 31.026h127.215V218.59H33.924zM171.034 67.692h42.405v32.436h-42.405z"/>
        <path fill="#E2B78F" d="M175.275 69.103h25.443v11.282h-25.443z"/>
        <path d="M180.929 93.077v2.82h-5.654v-2.82h5.654zm7.067 0v2.82h-5.654v-2.82h5.654zm1.414 2.82v-2.82h11.308v2.82H189.41zm-8.481-8.461v2.82h-5.654v-2.82h5.654zm7.067 0v2.82h-5.654v-2.82h5.654zm12.722 0v2.82H189.41v-2.82h11.308zm-19.79-4.23v2.82h-5.653v-2.82h5.654zm7.068 0v2.82h-5.654v-2.82h5.654zm12.722 0v2.82H189.41v-2.82h11.308z" fill="#C8D0DF" opacity=".5"/>
        <path fill="#294574" d="M203.545 80.385h5.654v9.872h-5.654z"/>
        <path d="M123.861 121.285c1.135.058 2.047 1.295 1.93 3.915-1.94 15.532-7.643 30.084-19.944 41.437-1.513 1.393-2.444 1.53-3.366.55a3.126 3.126 0 0 1 .34-4.318c1.794-1.796 3.666-3.523 5.296-5.466 7.421-8.83 11.428-19.28 13.183-30.663.146-.981.224-1.874.35-2.806.232-1.708 1.076-2.708 2.211-2.65zm-22.819 12.69c1.236.029 2.184 1.247 2.143 2.992 0 .23-.021.46-.031.69a105.715 105.715 0 0 1-5.418 26.719c-.556 1.64-1.442 2.254-2.71 1.966-1.266-.288-2.06-1.822-1.606-3.309.69-2.359 1.493-4.69 2.132-7.058a95.803 95.803 0 0 0 3.162-18.98v-.277c.144-1.66 1.092-2.772 2.328-2.743zm-11.12 18.338c1.07.097 1.925 1.232 1.956 2.953-.336 1.3-.754 3.041-1.273 4.762a64.686 64.686 0 0 1-1.64 4.83c-.225 1.023-1.247 1.695-2.321 1.526-1.113-.204-1.894-1.172-1.823-2.259-.035-.47.013-.943.143-1.398a772.187 772.187 0 0 1 2.596-8.537c.347-1.105.958-1.956 2.363-1.877zm-7.372-7.057c.625.01 1.259.944 1.773 1.593.212.264.12.832.166 1.268l.321.142c-1.148 4.646-2.27 9.292-3.473 13.918-.07.474-.32.892-.686 1.15-.367.257-.816.33-1.234.2-.717-.385-1.282-1.045-1.59-1.857a4.583 4.583 0 0 1 .13-2.262c.817-3.886 1.68-7.76 2.526-11.636.073-.335 0-.78.23-1.014.56-.589 1.212-1.512 1.837-1.502zm46.864-57.683a48.086 48.086 0 0 1 4.963 14.647c.72 4.687 1.045 9.374 1.32 11.943-.67 16.893-4.416 30.759-12.505 43.423-1.076 1.69-2.091 2.149-3.258 1.475-1.26-.924-1.573-2.622-.721-3.906 1.167-2.012 2.487-3.906 3.532-6.025 7.166-14.266 9.998-29.226 7.531-44.986a44.575 44.575 0 0 0-4.384-13.407 5.383 5.383 0 0 1-.66-2.129c-.197-1.13.533-2.217 1.685-2.51 1.279-.322 2.03.47 2.497 1.475zm-54.469 34.091c.438 2.43.816 4.87 1.075 7.319.219 2.006.219 4.052.309 5.37a70.9 70.9 0 0 1-2.738 19.811c-.547 1.85-1.463 2.647-2.687 2.292-1.225-.354-1.991-1.888-1.483-3.54a59.433 59.433 0 0 0 2.558-18.248c-.09-3.58-.627-7.161-.996-10.742a9.48 9.48 0 0 1-.1-1.967c.14-1.121.688-2.026 1.992-2.085a1.983 1.983 0 0 1 2.07 1.79zm33.548 13.731c1.008.117 1.787 1.287 1.76 3.061a67.091 67.091 0 0 1-3.492 15.366c-.34.72-.998 1.212-1.75 1.306-.764-.213-1.393-.788-1.705-1.56a4.54 4.54 0 0 1 .1-2.437c.917-4.378 1.916-8.775 2.878-13.113 0-.137 0-.273.065-.41.284-1.462 1.136-2.33 2.144-2.213zm-17.66-11.292c.868-.005 1.597.742 1.684 1.725.234 1.497.397 3.007.488 4.524.126 2.08.177 4.16.286 6.776-.143 2.406-.32 5.348-.513 8.3-.029.367-.09.73-.185 1.083-.156.952-.911 1.622-1.76 1.562-.86-.037-1.557-.805-1.616-1.782a7.42 7.42 0 0 1 0-2.07 82.383 82.383 0 0 0-.135-16.984 4.668 4.668 0 0 1 .067-1.495c.123-.95.842-1.65 1.684-1.64zm-22.796 1.96c.385.376.603.898.603 1.444.233 2.13.31 4.29.456 6.432l.166-.06c-.506 3.883-.972 7.766-1.507 11.649a2.905 2.905 0 0 1-.476 1.474 2.908 2.908 0 0 1-1.671 1.075 2.188 2.188 0 0 1-1.643-.996 4.133 4.133 0 0 1-.282-2.469 57.808 57.808 0 0 0 .972-15.582 7.078 7.078 0 0 1 0-1.434c.165-1.135.72-1.991 1.944-2.08a1.917 1.917 0 0 1 1.438.546zm72.483-6.19c1.222.019 1.875.832 2.107 1.881.072.303.118.612.137.922a60.544 60.544 0 0 1-4.056 16.566c-.59 1.45-1.559 2.02-2.696 1.696-1.28-.473-1.984-1.758-1.644-3 .243-1.049.78-2.049 1.054-3.098.937-3.862 1.833-7.724 2.728-11.596.116-.5.127-1.03.263-1.539.285-1.039.885-1.852 2.107-1.833zm-56.897-6.164a113.105 113.105 0 0 1 2.6 19.44v3.82c-.072 1.538-1.128 2.694-2.33 2.645-1.202-.05-2.072-1.185-2.072-2.674a103.184 103.184 0 0 0-2.549-21.88 4.173 4.173 0 0 1-.103-.695c-.125-1.528.694-2.791 1.906-2.938 1.212-.147 2.196.695 2.548 2.282zM55.98 110c.964.152 1.66 1.052 1.607 2.078.11 1.481.118 2.962.191 4.444a60.465 60.465 0 0 0 2.739 14.823c.11.447.198.9.265 1.356-.128 1.338-.493 2.405-1.726 2.646-1.232.24-1.825-.702-2.172-1.77a69.722 69.722 0 0 1-3.168-20.893 2.997 2.997 0 0 1 .512-1.799 2.462 2.462 0 0 1 1.752-.885zm48.072-8.945c2.679 2.467 4.095 5.737 5.119 9.195a66.109 66.109 0 0 1 2.497 17.18v2.288c0 1.645-.823 2.784-1.971 2.844-1.148.06-2.076-1.11-2.162-2.824-.106-2.239-.144-4.488-.326-6.717a41.565 41.565 0 0 0-2.803-13.217 15.301 15.301 0 0 0-2.23-3.755 5.002 5.002 0 0 0-3.7-2.01 4.96 4.96 0 0 0-3.896 1.564c-1.806 1.687-2.847 4.08-2.87 6.599.028.524.028 1.05 0 1.575-.211 1.16-.737 2.16-2.01 2.17a1.937 1.937 0 0 1-1.456-.611 2.082 2.082 0 0 1-.563-1.52 17.236 17.236 0 0 1 .23-4.27c.957-4.953 3.272-8.917 8.295-10.472 2.769-.873 5.776-.113 7.846 1.981zm-4.11 11.106c.655 4.494 1.23 9.006 1.831 13.51l-.265.047c.044.68.044 1.363 0 2.043-.141 1.012-.592 1.892-1.653 1.958a1.61 1.61 0 0 1-1.34-.379 1.853 1.853 0 0 1-.623-1.324c-.222-1.75-.222-3.538-.425-5.297-.362-3.075-.813-6.13-1.229-9.196 0-.227-.08-.444-.088-.671-.192-1.274.543-2.497 1.706-2.838.955-.133 1.875.7 2.087 2.147zm14.947-7.802c.741.173 1.355.747 1.636 1.53a111.054 111.054 0 0 1 1.74 9.272c.305 2.11.322 4.268.47 6.407h-.06v4.336c0 1.432-.801 2.4-1.802 2.43a2.015 2.015 0 0 1-1.426-.8 2.486 2.486 0 0 1-.497-1.688c0-1.49.183-3 0-4.462-.504-4.568-1.148-9.117-1.74-13.676a3.451 3.451 0 0 1 0-1.868c.383-.668 1.114-1.49 1.68-1.481zM82.661 73.98c.923 1.06.984 2.61.147 3.738-.184.212-.39.403-.616.57-9.012 6.867-13.602 16.206-15.135 27.1a82.768 82.768 0 0 0-.342 11.127c0 2.009-.625 3.254-1.953 3.351-1.328.097-2.167-1.033-2.285-3.09-.127-1.575-.205-3.159-.283-4.482.352-12.893 3.906-24.348 12.694-33.861a47.284 47.284 0 0 1 4.688-4.22c1.357-1.13 2.236-1.13 3.085-.233zm33.753-12.945a43.282 43.282 0 0 1 11.946 9.686c7.596 8.766 11.811 19.081 13.597 30.482.365 2.402.548 4.824.807 7.139v3.05c0 1.676-.893 2.829-2.093 2.839-1.2.01-2.046-1.143-2.055-2.848a61.157 61.157 0 0 0-2.247-16.311c-3.333-11.624-9.296-21.31-19.503-28.003-.778-.503-1.613-.92-2.391-1.414a2.791 2.791 0 0 1-1.22-3.39c.528-1.579 1.661-2.044 3.16-1.23zm-2.333 22.853a30.654 30.654 0 0 1 8.288 11.33 39.072 39.072 0 0 1 3.385 14.39 17.92 17.92 0 0 1 0 2.626c-.168 1.145-.81 2.078-2.132 1.991-1.149-.092-2.02-1.05-1.973-2.174-.257-2.443-.326-4.915-.79-7.31-1.113-6.305-4.27-12.097-9.008-16.525a5.529 5.529 0 0 1-1.5-2.53 1.88 1.88 0 0 1 .137-1.508 1.965 1.965 0 0 1 1.215-.944 3.135 3.135 0 0 1 2.378.654zm-15.442-6.324c.683 0 1.63 0 2.556.163 1.329.293 2.188 1.561 1.952 2.88a2.201 2.201 0 0 1-.747 1.663c-.48.424-1.12.625-1.76.554-7.806-.749-13.816 2.38-18.645 8.072-4.83 5.692-6.927 12.602-7.21 20.012a7.83 7.83 0 0 1-.117 1.517c-.093 1-.93 1.774-1.951 1.804-1.02.044-1.889-.725-1.952-1.728a20.492 20.492 0 0 1 0-3.839c.742-9.253 3.903-17.478 10.81-24.043 4.494-4.512 10.644-7.054 17.064-7.055zm-.928 9.872a17.067 17.067 0 0 1 13.274 6.337 3.99 3.99 0 0 1 .644 2.776 2.425 2.425 0 0 1-1.437 1.711 2.86 2.86 0 0 1-2.2-.826c-3.4-3.492-7.406-5.322-12.273-4.397-5.086.995-8.367 4.328-10.657 8.805a5.49 5.49 0 0 1-.684 1.412c-.515.488-1.21 1.124-1.804 1.105a2.37 2.37 0 0 1-1.695-1.234 3.164 3.164 0 0 1-.159-2.328c2.786-6.745 7.247-11.66 14.731-13.112a21.794 21.794 0 0 1 2.26-.25zM100.341 59a2.317 2.317 0 0 1-.537 1.79 2.243 2.243 0 0 1-1.672.787c-13.407.46-23.092 7.349-30.462 18.196a52.06 52.06 0 0 0-6.867 15.119c-.54 1.861-1.4 2.635-2.576 2.36a2.562 2.562 0 0 1-1.457-1.36 2.624 2.624 0 0 1-.057-2.01c4.91-16.657 13.9-29.826 30.867-35.724 3.24-1.127 6.82-1.284 10.263-1.715 1.582-.245 2.508.872 2.498 2.557zm7.267 9.11a31.691 31.691 0 0 1 11.523 7.354 3.563 3.563 0 0 1 1.017 2.416 3.39 3.39 0 0 1-1.269 2.252c-.794.609-1.646 0-2.333-.638a27.838 27.838 0 0 0-14.119-7.48c-1.636-.358-3.321-.416-4.764-.628-1.443.135-2.653.222-3.873.367-2.024.251-3.022-.338-3.283-2.02-.261-1.682.687-2.832 2.576-3.122 4.89-.743 9.89-.227 14.525 1.498z" fill="#8293AF" opacity=".3"/>
        <path d="M261.902 90.477h-2.022a11.132 11.132 0 0 1-10.543.324 2.324 2.324 0 0 1-.44-.088c-2.178 11.673-4.836 23.641-14.997 26.58-13.239 3.841-24.182-32.014-25.452-34.244-.381-.688-1.24-1.366-1.71-1.239-2.061.54-.39 3.41-.058 4.226-1.505 1.316-3.43 3.508-3.098 5.453.16.972.49 1.907.977 2.761.372.63 2.218 2.064 2.297 2.594 0 0 4.787 34.067 30.22 32.869 18.26-.855 27.65-19.19 31.49-38.617-2.17-.177-4.436-.344-6.664-.619z" fill="#FFB9AC"/>
        <path d="M250.19 126.257c-2.382.404-1.682.563-5.356 2.076 0 0-5.699-5.824 3.702-9.871l1.654 7.795z" fill="#CE8172" opacity=".31"/>
        <path d="M267.152 77.943s-17.594-3.506-20.067 10.82a107.367 107.367 0 0 1-6.79 23.904l13.444 4.384 13.413-39.108z" fill="#EBEBEB"/>
        <path d="M268.853 53.604s-2.644 5.328-3.098 9.338a2.876 2.876 0 0 0 .684 2.18c.522.611 1.278 1 2.101 1.08 2.672.401 5.342-.728 6.822-2.885l3.612-4.212a5.098 5.098 0 0 0-.242-6.107c-2.402-3.366-8.446-2.722-9.879.606z" fill="#FFB9AC"/>
        <path fill="#FFB9AC" d="m275.764 60.641 1.283 16.914-9.895.01 2.958-11.998zM267.152 57.82l-2.372 1.52a.91.91 0 0 0-.455.78.91.91 0 0 0 .455.781l2.063 1.15.31-4.23z"/>
        <path d="M270.859 65.145a6.714 6.714 0 0 0 3.332-1.683s.652 4.22-4.212 5.64l.88-3.957z" fill="#CE8172" opacity=".31"/>
        <path d="M272.806 59.644s.764-2.537 2.184-1.626c1.42.911.337 4.613-1.775 3.956l-.409-2.33z" fill="#F4A28C"/>
        <path fill="#FFB9AC" d="m249.54 176.282-7.83 36.667h4.548l15.24-36.667zM277.047 170.937l8.216 42.012h4.505l-.674-42.308zM241.75 212.949s-2.626 3.212-5.994 3.06c-3.369-.15-3.857 4.428 1.552 3.957a29.947 29.947 0 0 0 4.99-.829 9.168 9.168 0 0 1 4.57.15 1.47 1.47 0 0 0 1.542-.593c1.533-1.742-2.236-5.745-2.236-5.745h-4.423zM289.719 212.949s2.623 3.212 5.988 3.06c3.365-.15 3.902 4.428-1.55 3.957a29.884 29.884 0 0 1-4.984-.829 9.149 9.149 0 0 0-4.565.15 1.467 1.467 0 0 1-1.54-.593c-1.532-1.742 2.233-5.745 2.233-5.745h4.418z"/>
        <path d="M301.094 119.544c-4.884 7.768-10.43 17.631-12.882 25.408a25.698 25.698 0 0 0-1.24 5.945l-37.473-1.9s.283-2.37.449-6.063c.303-6.405.264-16.817-2.11-25.613a34.63 34.63 0 0 0-2.441-6.631s-12.765-21.92 22.189-33.126h11.446c21.017.676 33.224 24.105 22.062 41.98z" fill="#FFF"/>
        <path d="m291.07 132.429-3.186 11.417-38.404-1.98c.304-6.285.265-16.501-2.117-25.132 10.165 4.882 30.014 12.715 30.837.048 1.108-17.05 5.783-26.526 5.783-26.526 17.163 24.498 7.087 42.173 7.087 42.173z" fill="#000" opacity=".08"/>
        <path fill="#032551" d="m249.927 142.436 38.14 2.018 10.182 38.88-55.126-1.98z"/>
        <path d="M284.192 91.605c-.14-3.468 1.973-6.638 5.248-7.872 3.276-1.234 6.981-.257 9.204 2.427a34.46 34.46 0 0 1 8.075 23.055c-.322 22.455-3.369 46.767-52.288 20.202l2.636-7.118s21.706 10.338 30.777 6.982c6.67-2.466-2.958-22.252-3.652-37.676z" fill="#FFB9AC"/>
        <path d="M257.258 122.927s-8.18-3.702-11.654 0 2.055 6.96 9.012 6.812l2.642-6.812z" fill="#FFB9AC"/>
        <path d="m267.557 50.95-1.818 4.742 7.536 2.952s.424 5.273-2.223 6.228a4.477 4.477 0 0 0 3.165-1.584 1.763 1.763 0 0 1 2.515-.158l.094.089a17.009 17.009 0 0 0 4.362-8.068c.857-4.654-4.107-5.362-4.107-5.362s-6.566-4.83-9.524 1.161z" fill="#192639"/>
        <path d="M277.047 48.854s.342-4.348 7.905-3.65c7.563.697 0 11.246 6.23 21.078 0 0-11.441-2.494-11.775-13.09l-2.36-4.338z" fill="#192639"/>
        <path d="M277.047 49.747a3.503 3.503 0 0 1 3.695.305c2.171 1.312 3.125 6.116-.28 7.769 0 0 2.825-6.502-3.415-8.074z" fill="#E2B78F"/>
        <path d="M287.702 115.641h20.344s2.23-29.76-14.605-33.573c-16.835-3.813-5.739 33.573-5.739 33.573z" fill="#FFF"/>
        <path d="M151.245 166.41v15.513h-15.549v-2.595h12.939V166.41h2.61zm-103.412 0v12.918H60.78v2.595H45.232V166.41h2.6zM151.245 39.487V55h-2.61V42.082h-12.939v-2.595h15.549zm-90.464 0v2.595H47.833V55h-2.6V39.487H60.78z" fill="#8293AF" opacity=".3"/>
        <path fill="#C8D0DF" opacity=".5" d="M45.232 191.795h106.013v4.231H45.232zM45.232 203.077h93.291v4.231H45.232z"/>
        <ellipse fill="#294574" cx="126.509" cy="147.372" rx="14.842" ry="14.808"/>
        <path fill="#FFF" d="m123.224 156.538-5.903-11.364 3.901-2.113 3.325 6.406 9.7-8.441 2.863 3.424z"/>
    </g>
</svg>
