<?xml version="1.0" standalone="no"?>
<!DOCTYPE svg PUBLIC "-//W3C//DTD SVG 20010904//EN"
 "http://www.w3.org/TR/2001/REC-SVG-20010904/DTD/svg10.dtd">
<svg version="1.0" xmlns="http://www.w3.org/2000/svg"
 width="512.000000pt" height="512.000000pt" viewBox="0 0 512.000000 512.000000"
 preserveAspectRatio="xMidYMid meet">

<g transform="translate(0.000000,512.000000) scale(0.100000,-0.100000)"
fill="#000000" stroke="none">
<path d="M2347 5110 c-904 -82 -1685 -613 -2078 -1415 -93 -191 -138 -311
-184 -490 -59 -228 -78 -388 -78 -640 0 -252 19 -412 78 -640 46 -179 91 -299
184 -490 248 -505 651 -908 1156 -1156 264 -129 478 -196 766 -240 204 -31
524 -31 728 0 288 44 502 111 766 240 505 248 908 651 1156 1156 129 264 196
478 240 766 31 204 31 524 0 728 -44 288 -111 502 -240 766 -248 505 -651 908
-1156 1156 -265 129 -484 198 -763 239 -161 23 -432 33 -575 20z m1133 -1225
l0 -335 -290 0 -290 0 0 -1155 0 -1155 -290 0 -290 0 0 865 0 865 -785 0 -785
0 0 290 0 290 1030 0 1030 0 0 335 0 335 335 0 335 0 0 -335z m1260 -1225 l0
-280 -370 0 -370 0 0 -560 0 -560 -295 0 -295 0 0 840 0 840 665 0 665 0 0
-280z m-3050 -855 l0 -555 -280 0 -280 0 0 275 0 275 -275 0 -275 0 0 280 0
280 555 0 555 0 0 -555z"/>
</g>
</svg>
