<svg width="68" height="68" viewBox="0 0 68 68" fill="none" xmlns="http://www.w3.org/2000/svg">
<path fill-rule="evenodd" clip-rule="evenodd" d="M32.5 54C37.2847 54 41.6669 52.2768 45.0598 49.417L47.0861 52.9266C43.0786 56.1031 38.0108 58 32.5 58C19.5213 58 9 47.4787 9 34.5C9 21.5213 19.5213 11 32.5 11C45.1437 11 55.4552 20.9851 55.9791 33.5H60.9282L54 44L47.0718 33.5H51.9748C51.4543 23.1952 42.9342 15 32.5 15C21.7304 15 13 23.7304 13 34.5C13 45.2696 21.7304 54 32.5 54Z" fill="#172439"/>
<path d="M27.9073 48.5C27.4014 48.1872 27.3239 47.9953 27.4739 47.3783C28.2969 43.9872 29.1193 40.596 29.9411 37.2049C29.958 37.1358 29.9681 37.0649 29.9866 36.9681H26.7825C26.1974 36.9681 25.8938 36.5741 26.0338 35.9933C26.9534 32.1989 27.8736 28.4057 28.7944 24.6136C28.8989 24.1884 29.1451 24 29.5903 24H37.808C38.4589 24 38.7709 24.5185 38.4825 25.1269C37.3122 27.5467 36.1407 29.9664 34.9681 32.3862C34.9294 32.4691 34.8939 32.559 34.845 32.6679H35.1283C36.4774 32.6679 37.8265 32.6679 39.1891 32.6679C39.5112 32.6679 39.7726 32.763 39.9244 33.0689C40.0761 33.3748 39.9851 33.6635 39.7793 33.9331C36.1154 38.6297 32.4527 43.3292 28.791 48.0316C28.6361 48.2027 28.4668 48.3594 28.2851 48.5H27.9073Z" fill="#DAA360"/>
</svg>
