<svg width="68" height="68" viewBox="0 0 68 68" fill="none" xmlns="http://www.w3.org/2000/svg">
<path fill-rule="evenodd" clip-rule="evenodd" d="M21.5162 20.6547C19.8616 23.3666 19.75 26.688 19.75 29.1351C19.75 29.1351 19.75 29.1351 19.75 29.1351L19.7501 37.9674L16.2501 37.9674L16.25 29.1351C16.25 26.7173 16.3079 22.4711 18.5284 18.8318C20.8566 15.0156 25.2946 12.25 33.1611 12.25C40.8409 12.25 45.6138 14.1946 48.4268 17.2528C51.2212 20.2908 51.75 24.0754 51.75 27V39.2703C51.75 41.748 51.0616 44.5393 49.5438 46.7634C47.9904 49.0398 45.5301 50.75 42.1695 50.75H40.4195V47.25H42.1695C44.1784 47.25 45.6333 46.2845 46.6528 44.7906C47.7079 43.2445 48.25 41.1709 48.25 39.2703V27C48.25 24.4246 47.7704 21.7092 45.8508 19.6222C43.9498 17.5554 40.3033 15.75 33.1611 15.75C26.2054 15.75 23.0629 18.1195 21.5162 20.6547Z" fill="#172439"/>
<path d="M19 38H16C13.2386 38 11 35.7614 11 33V30C11 27.2386 13.2386 25 16 25H19V38Z" fill="#172439"/>
<path d="M49 26H52C54.7614 26 57 28.2386 57 31V34C57 36.7614 54.7614 39 52 39H49V26Z" fill="#172439"/>
<circle cx="37.5" cy="47.5" r="9.5" transform="rotate(-90 37.5 47.5)" fill="url(#paint0_linear_230_11905)"/>
<defs>
<linearGradient id="paint0_linear_230_11905" x1="37.5" y1="38" x2="37.5" y2="57" gradientUnits="userSpaceOnUse">
<stop offset="0.322917" stop-color="#DAA360"/>
<stop offset="1" stop-color="#DAA360" stop-opacity="0"/>
</linearGradient>
</defs>
</svg>
