<svg width="68" height="68" viewBox="0 0 68 68" fill="none" xmlns="http://www.w3.org/2000/svg">
<path d="M31.133 58.296C30.2802 58.1804 29.4197 58.102 28.5755 57.9437C21.7146 56.6584 16.4704 53.0138 12.8678 47.0781C10.382 42.9802 9.38985 38.4934 9.7839 33.7289C10.0697 30.2752 11.1717 27.062 12.9223 24.0763C13.5196 23.0565 14.2135 22.0926 14.9035 21.0417L18.0965 24.4442C14.2602 29.5021 13.2681 35.0832 15.1442 41.0709C16.7912 46.3283 20.2762 50.1134 25.3522 52.2757C30.8815 54.6297 36.3679 54.275 41.5778 51.3025C46.7675 48.3416 49.7502 43.7858 50.7174 37.8997H55.2997C55.0933 38.9762 54.9757 40.0395 54.6821 41.0523C52.0289 50.2105 46.0012 55.8109 36.6856 57.9025C35.8765 58.0841 35.0338 58.1175 34.2076 58.2231C34.0775 58.2401 33.949 58.2743 33.8182 58.3007L31.133 58.296Z" fill="#172439" stroke="white" stroke-width="0.3"/>
<path d="M30.1997 12.9072V16.3493C30.1997 17.4141 30.1997 17.4102 29.1546 17.6276C26.539 18.1685 24.0553 19.2156 21.8443 20.7095C21.6737 20.8236 21.504 20.9423 21.3653 21.0324L18.1841 17.8604C21.6761 15.0998 25.6345 13.4008 30.1997 12.9072Z" fill="#172439" stroke="white" stroke-width="0.3"/>
<path d="M33.4502 11.85C33.4502 10.7454 34.3472 9.84126 35.4479 9.93417C37.8822 10.1397 40.2745 10.7199 42.5389 11.6579C45.4204 12.8514 48.0386 14.6008 50.244 16.8062C52.4494 19.0116 54.1988 21.6298 55.3923 24.5113C56.3303 26.7757 56.9105 29.168 57.116 31.6023C57.2089 32.703 56.3048 33.6 55.2002 33.6L35.4502 33.6C34.3456 33.6 33.4502 32.7046 33.4502 31.6L33.4502 11.85Z" fill="url(#paint0_linear_230_11882)"/>
<defs>
<linearGradient id="paint0_linear_230_11882" x1="50.0752" y1="16.5" x2="32.0252" y2="35.5" gradientUnits="userSpaceOnUse">
<stop offset="0.162943" stop-color="#DAA360"/>
<stop offset="1" stop-color="#DAA360" stop-opacity="0"/>
</linearGradient>
</defs>
</svg>
