<svg width="68" height="68" viewBox="0 0 68 68" xmlns="http://www.w3.org/2000/svg">
    <g transform="translate(6.8 6.8)" fill="none" fill-rule="evenodd">
        <path d="M21.533 37.133V52.4a2 2 0 0 1-2 2H2a2 2 0 0 1-2-2V37.133a2 2 0 0 1 2-2h17.533a2 2 0 0 1 2 2z" fill="#EDEDED"/>
        <rect fill="#EDEDED" x="36.267" width="18.133" height="15.867" rx="2"/>
        <rect fill="#FFF" x="2.267" y="7.933" width="49.867" height="34" rx="2"/>
        <path d="M49.867 7.933a2.267 2.267 0 0 1 2.266 2.267v29.467a2.267 2.267 0 0 1-2.266 2.266H4.533a2.267 2.267 0 0 1-2.266-2.266V10.2a2.267 2.267 0 0 1 2.266-2.267h45.334zm-.68 2.947H5.213v28.107h43.974V10.88z" fill="#192639" fill-rule="nonzero"/>
        <path d="M32.867 39.667v9.066H21.533v-9.066h11.334zm-2.947 2.946h-5.44v3.174h5.44v-3.174z" fill="#192639" fill-rule="nonzero"/>
        <path d="M40.233 46.693a1.473 1.473 0 0 1 .151 2.94l-.15.007H15.3a1.473 1.473 0 0 1-.15-2.94l.15-.007h24.933zM15.867 13.6a2.267 2.267 0 0 1 2.266 2.267v3.4a2.267 2.267 0 0 1-2.266 2.266H10.2a2.267 2.267 0 0 1-2.267-2.266v-3.4A2.267 2.267 0 0 1 10.2 13.6h5.667zm-.68 2.947H10.88v2.04h4.307v-2.04zM39.305 19.598c.044-.001.088-.001.131.001H44.2c.763 0 1.39.58 1.466 1.323l.007.15v13.563a1.473 1.473 0 0 1-2.939.15l-.007-.15v-12.09h-1.891v12.09l-.008.15a1.474 1.474 0 0 1-1.465 1.324l-.07-.005-.068.005c-.763 0-1.39-.58-1.466-1.323l-.008-.15v-11.13l-1.753.861v10.268c0 .814-.66 1.474-1.473 1.474l-.07-.004-.068.004a1.474 1.474 0 0 1-1.466-1.332l-.007-.142v-8.638l-1.753.898v7.74c0 .814-.66 1.474-1.473 1.474l-.072-.005-.066.005c-.763 0-1.39-.58-1.466-1.323l-.008-.15v-7.097h-1.753v7.096l-.007.15a1.474 1.474 0 0 1-1.466 1.324l-.07-.005-.068.005c-.763 0-1.39-.58-1.465-1.323l-.008-.15V28.36l-1.753.753v5.522c0 .814-.66 1.474-1.473 1.474l-.07-.004-.068.004a1.474 1.474 0 0 1-1.467-1.332l-.006-.142-.001-4.504-1.753.446v4.058c0 .814-.659 1.474-1.473 1.474l-.071-.005-.067.005c-.762 0-1.39-.58-1.465-1.323l-.008-.15v-3.698h-1.89v3.697c0 .763-.58 1.39-1.323 1.466l-.151.008c-.763 0-1.39-.58-1.466-1.323l-.007-.15v-5.17c0-.762.58-1.39 1.322-1.465l.151-.008h4.652l4.37-1.109.072-.034 4.497-1.933c.216-.173.48-.287.77-.316l.151-.008h.091c.038-.002.075-.001.112 0h4.279l4.173-2.139a1.47 1.47 0 0 1 .238-.185l.132-.074 4.488-2.205c.228-.21.523-.35.849-.383l.15-.008zM44.767 13.827a1.473 1.473 0 0 1 .15 2.939l-.15.007H22.1a1.473 1.473 0 0 1-.15-2.939l.15-.007h22.667zM30.033 18.36a1.473 1.473 0 0 1 .151 2.94l-.15.007H22.1a1.473 1.473 0 0 1-.15-2.94l.15-.007h7.933z" fill="#192639" fill-rule="nonzero"/>
        <path d="M44.622 19.217a1.7 1.7 0 0 1 .164 3.393l-.164.007H39.83l-4.501 2.428-4.628 2.394a1.7 1.7 0 0 1-.619.182l-.162.008h-5.026l-4.289 2.215a1.7 1.7 0 0 1-.254.106l-.133.037-4.638 1.103a1.7 1.7 0 0 1-.261.04l-.132.006H9.9a1.7 1.7 0 0 1-.164-3.392l.164-.008 5.088-.001 4.244-1.009 4.468-2.308a1.7 1.7 0 0 1 .618-.181l.162-.008h5.026l4.235-2.19 4.854-2.618a1.7 1.7 0 0 1 .638-.195l.169-.009h5.22z" fill="#C43826" fill-rule="nonzero"/>
    </g>
</svg>
