<svg width="68" height="68" viewBox="0 0 68 68" xmlns="http://www.w3.org/2000/svg">
    <g fill="none" fill-rule="evenodd">
        <circle fill="#EDEDED" transform="rotate(180 12.467 14.733)" cx="12.467" cy="14.733" r="3.4"/>
        <circle fill="#EDEDED" transform="rotate(180 24.933 19.267)" cx="24.933" cy="19.267" r="5.667"/>
        <circle fill="#FFF" cx="40.8" cy="39.667" r="21.533"/>
        <path d="M40.8 18.133c11.893 0 21.533 9.641 21.533 21.534 0 11.892-9.64 21.533-21.533 21.533s-21.533-9.64-21.533-21.533 9.64-21.534 21.533-21.534zm0 2.947c-10.265 0-18.587 8.322-18.587 18.587S30.535 58.253 40.8 58.253s18.587-8.321 18.587-18.586c0-10.265-8.322-18.587-18.587-18.587z" fill="#192639" fill-rule="nonzero"/>
        <path fill="#192639" fill-rule="nonzero" d="M42.613 13.6v6.347h-2.946V13.6zM40.8 23.46c-8.95 0-16.207 7.256-16.207 16.207 0 8.95 7.256 16.206 16.207 16.206 8.95 0 16.207-7.256 16.207-16.206 0-8.951-7.256-16.207-16.207-16.207zm0 2.947c7.323 0 13.26 5.936 13.26 13.26 0 7.323-5.937 13.26-13.26 13.26-7.323 0-13.26-5.937-13.26-13.26 0-7.324 5.937-13.26 13.26-13.26z"/>
        <path d="M41.313 51a1.3 1.3 0 0 1 1.3 1.3v1.933a1.3 1.3 0 0 1-1.3 1.3h-.346a1.3 1.3 0 0 1-1.3-1.3V52.3a1.3 1.3 0 0 1 1.3-1.3h.346zm-8.31-3.442.246.245a1.3 1.3 0 0 1 0 1.839l-1.367 1.367a1.3 1.3 0 0 1-1.839 0l-.245-.245a1.3 1.3 0 0 1 0-1.839l1.367-1.367a1.3 1.3 0 0 1 1.839 0zm18.112 0 1.367 1.367a1.3 1.3 0 0 1 0 1.839l-.245.245a1.3 1.3 0 0 1-1.839 0l-1.367-1.367a1.3 1.3 0 0 1 0-1.839l.245-.245a1.3 1.3 0 0 1 1.839 0zm-22.608-9.365a1.3 1.3 0 0 1 1.3 1.3v.347a1.3 1.3 0 0 1-1.3 1.3h-1.934a1.3 1.3 0 0 1-1.3-1.3v-.347a1.3 1.3 0 0 1 1.3-1.3h1.934zm27.2 0a1.3 1.3 0 0 1 1.3 1.3v.347a1.3 1.3 0 0 1-1.3 1.3h-1.934a1.3 1.3 0 0 1-1.3-1.3v-.347a1.3 1.3 0 0 1 1.3-1.3h1.934zm-3.47-9.868.245.245a1.3 1.3 0 0 1 0 1.838l-1.367 1.367a1.3 1.3 0 0 1-1.839 0l-.245-.245a1.3 1.3 0 0 1 0-1.838l1.367-1.367a1.3 1.3 0 0 1 1.839 0zm-20.355 0 1.367 1.367a1.3 1.3 0 0 1 0 1.838l-.245.245a1.3 1.3 0 0 1-1.839 0l-1.367-1.367a1.3 1.3 0 0 1 0-1.838l.245-.245a1.3 1.3 0 0 1 1.839 0zm9.431-4.525a1.3 1.3 0 0 1 1.3 1.3v1.933a1.3 1.3 0 0 1-1.3 1.3h-.346a1.3 1.3 0 0 1-1.3-1.3V25.1a1.3 1.3 0 0 1 1.3-1.3h.346z" fill="#192639"/>
        <path d="M44.767 7.933a3.967 3.967 0 0 1 0 7.934h-7.934a3.967 3.967 0 0 1 0-7.934h7.934zm0 2.947h-7.934a1.02 1.02 0 0 0-.128 2.032l.128.008h7.934a1.02 1.02 0 0 0 .128-2.032l-.128-.008zM17.34 49.867a1.473 1.473 0 0 1 .15 2.939l-.15.007h-4.533a1.473 1.473 0 0 1-.151-2.939l.15-.007h4.534zM16.207 44.2a1.473 1.473 0 0 1 .15 2.94l-.15.007H10.54a1.473 1.473 0 0 1-.15-2.94l.15-.007h5.667zm-1.134-5.667a1.473 1.473 0 0 1 .151 2.94l-.15.007h-6.8a1.473 1.473 0 0 1-.151-2.94l.15-.007h6.8zm1.134-5.666a1.473 1.473 0 0 1 .15 2.939l-.15.007H10.54a1.473 1.473 0 0 1-.15-2.939l.15-.007h5.667zM17.34 27.2a1.473 1.473 0 0 1 .15 2.94l-.15.007h-4.533a1.473 1.473 0 0 1-.151-2.94l.15-.007h4.534z" fill="#192639" fill-rule="nonzero"/>
        <path d="M47.033 37.967a1.473 1.473 0 0 1 .151 2.939l-.15.007h-5.667a1.473 1.473 0 0 1-.151-2.939l.15-.007h5.667z" fill="#C43826" fill-rule="nonzero"/>
        <path d="M41.14 30.6c.763 0 1.39.58 1.466 1.323l.007.15v7.367a1.473 1.473 0 0 1-2.939.15l-.007-.15v-7.367c0-.813.66-1.473 1.473-1.473z" fill="#C43826" fill-rule="nonzero"/>
    </g>
</svg>
