<svg width="68" height="68" viewBox="0 0 68 68" xmlns="http://www.w3.org/2000/svg">
    <g transform="translate(8.42 4.533)" fill="none" fill-rule="evenodd">
        <circle fill="#EDEDED" transform="rotate(180 43.146 44.767)" cx="43.146" cy="44.767" r="10.767"/>
        <circle fill="#EDEDED" transform="rotate(180 10.846 7.933)" cx="10.846" cy="7.933" r="7.933"/>
        <path d="m6.838 26.718.09.406c.457 2.088.896 4.008 1.51 4.755.38.46.783.963 1.194 1.467l.31.378c1.604 1.949 3.264 3.788 4.021 3.267-5.907-5.936-3.186-8.683-1.983-7.55.802.756 2.406 2.162 4.813 4.218l4.359 4.114c1.286 1.607 1.928 3.36 1.928 5.258 0 1.9.145 6.427.434 13.585h-8.588c.213-7.411-1.088-12.144-3.903-14.197C6.8 39.339-.094 29.652 1.701 21.354c3.06-3.923 4.17.95 5.137 5.364zm37.449-.613c.939-4.233 2.084-8.493 5.002-4.751 1.795 8.298-5.1 17.985-9.322 21.065-2.816 2.053-4.117 6.786-3.904 14.197h-8.587c.289-7.158.433-11.686.433-13.585 0-1.899.643-3.651 1.929-5.258l4.359-4.114c2.406-2.056 4.01-3.462 4.813-4.218 1.203-1.133 3.924 1.614-1.983 7.55.781.538 2.525-1.44 4.176-3.456l.309-.378c.358-.44.708-.875 1.04-1.278.575-.699.995-2.424 1.422-4.353l.089-.402.133-.61z" fill="#FFF"/>
        <circle fill="#FFF" cx="25.58" cy="18.133" r="13.6"/>
        <path d="M47.353 17.367c4.16 0 4.736 8.585 1.439 15.678-2.21 4.752-5.188 8.51-8.933 11.252l-.288.206-.081.094c-.758.92-1.253 2.133-1.472 3.67l-.046.36-.037.355-.07.753c-.021.262-.041.533-.06.815l-.053.874-.045.934-.036.994-.028 1.053-.011.55-.016.01-.008.069a1.587 1.587 0 0 1-3.173-.009l.003.507.012-.074.02-1.15.03-1.089.038-1.03.047-.973.056-.913.064-.855.074-.796.04-.376c.274-2.462 1.103-4.487 2.506-6.025.079-.087.167-.164.264-.232 3.483-2.433 6.256-5.86 8.325-10.311 1.39-2.992 1.982-6.067 1.814-8.578a9.701 9.701 0 0 0-.138-1.122l-.058-.276-.192.66-.222.817-.54 2.095-.16.59-.05.176c-.807 2.811-1.705 4.915-2.833 6.412l-.506.665-.504.645a56.99 56.99 0 0 1-.498.622l-.493.595-.484.566c-.32.366-.633.71-.937 1.028l-.45.455c-.736.723-1.41 1.265-1.983 1.554-1.762.887-3.197-1.569-1.673-2.682l.12-.081c1.133-.707 2.17-1.994 2.733-3.32.212-.499.332-.953.36-1.294l.007-.178.002-.007-.061-.026c-.484-.177-.929.101-1.702 1.203l-.131.191c-1.571 2.315-4.186 5.104-6.603 6.964-1.064.819-1.61 2.61-1.469 5.588l.02.363v9.696a1.587 1.587 0 0 1-3.166.153l-.007-.153.003-9.593c-.262-4.04.57-6.943 2.684-8.569 2.02-1.555 4.25-3.898 5.658-5.866l.254-.365c1.838-2.709 4.054-3.647 6.396-2.172.273.172.5.378.683.613l.063.087.068-.136c.443-.912.863-2.037 1.266-3.379l.226-.784.808-3.107.157-.578.15-.528.072-.246.143-.457c.047-.144.093-.282.14-.412l.14-.369c.56-1.392 1.155-1.801 2.332-1.801zM3.567 17.367c-4.16 0-4.736 8.585-1.439 15.678 2.209 4.752 5.188 8.51 8.933 11.252l.288.206.08.094c.759.92 1.254 2.133 1.473 3.67l.045.36.038.355.07.753c.02.262.041.533.06.815l.053.874.045.934.036.994.028 1.053.011.55.016.01.008.069a1.587 1.587 0 0 0 3.173-.009l-.003.507-.012-.074-.02-1.15-.03-1.089-.038-1.03-.047-.973-.056-.913-.064-.855-.074-.796a38.226 38.226 0 0 0-.04-.376c-.274-2.462-1.103-4.487-2.506-6.025a1.587 1.587 0 0 0-.264-.232c-3.483-2.433-6.256-5.86-8.325-10.311-1.39-2.992-1.982-6.067-1.814-8.578.027-.406.075-.783.138-1.122l.057-.276.193.66.221.817.54 2.095.16.59.05.176c.808 2.811 1.706 4.915 2.833 6.412l.507.665.503.645c.168.211.334.419.5.622l.492.595.484.566c.32.366.633.71.937 1.028l.449.455c.736.723 1.41 1.265 1.984 1.554 1.761.887 3.197-1.569 1.673-2.682l-.12-.081c-1.134-.707-2.17-1.994-2.734-3.32-.21-.499-.332-.953-.359-1.294l-.007-.178-.002-.007.061-.026c.483-.177.929.101 1.701 1.203l.132.191c1.57 2.315 4.185 5.104 6.603 6.964 1.064.819 1.61 2.61 1.469 5.588l-.02.363v9.696a1.587 1.587 0 0 0 3.165.153l.008-.153-.004-9.593c.263-4.04-.57-6.943-2.683-8.569-2.021-1.555-4.25-3.898-5.658-5.866l-.254-.365c-1.838-2.709-4.054-3.647-6.396-2.172-.274.172-.5.378-.683.613l-.063.087L9 29.028c-.443-.912-.863-2.037-1.266-3.379l-.226-.784-.808-3.107-.157-.578-.15-.528a29.578 29.578 0 0 0-.072-.246l-.143-.457a14.778 14.778 0 0 0-.14-.412l-.14-.369c-.56-1.392-1.155-1.801-2.332-1.801z" fill="#192639" fill-rule="nonzero"/>
        <path d="M26.672 27.2v-1.915c1.411-.115 2.523-.508 3.334-1.182.812-.673 1.218-1.566 1.218-2.677 0-1.201-.423-2.144-1.267-2.83-.845-.687-2.112-1.265-3.8-1.735-.812-.336-1.352-.63-1.619-.881-.267-.251-.4-.59-.4-1.015 0-.451.124-.812.373-1.082s.673-.404 1.272-.404c.578 0 1.026.152 1.344.457.318.305.477.775.477 1.41h3.62l.022-.047c.022-1.163-.359-2.113-1.141-2.85-.783-.736-1.857-1.184-3.225-1.343v-2.04h-1.733v2.011c-1.448.102-2.596.5-3.444 1.196-.848.696-1.272 1.587-1.272 2.673 0 1.207.407 2.128 1.223 2.763.815.636 2.096 1.22 3.844 1.754.79.285 1.325.56 1.607.824.282.263.422.65.422 1.158 0 .438-.137.789-.411 1.053-.274.263-.715.395-1.322.395-.687 0-1.234-.156-1.64-.467-.405-.311-.608-.832-.608-1.563h-3.609l-.022.058c-.036 1.384.42 2.43 1.371 3.14.95.708 2.165 1.116 3.642 1.224V27.2h1.744z" fill="#C43826" fill-rule="nonzero"/>
        <path d="M25.58 4.533c7.51 0 13.6 6.09 13.6 13.6 0 7.511-6.09 13.6-13.6 13.6-7.511 0-13.6-6.089-13.6-13.6 0-7.51 6.089-13.6 13.6-13.6zm0 2.947c-5.884 0-10.654 4.77-10.654 10.653 0 5.884 4.77 10.654 10.654 10.654s10.653-4.77 10.653-10.654c0-5.883-4.77-10.653-10.653-10.653z" fill="#192639" fill-rule="nonzero"/>
    </g>
</svg>
