<svg width="68" height="68" viewBox="0 0 68 68" xmlns="http://www.w3.org/2000/svg">
    <g transform="translate(5.667 6.8)" fill="none" fill-rule="evenodd">
        <circle fill="#EDEDED" transform="rotate(180 48.733 12.467)" cx="48.733" cy="12.467" r="7.933"/>
        <circle fill="#EDEDED" transform="rotate(180 11.333 39.667)" cx="11.333" cy="39.667" r="11.333"/>
        <path d="M30.574 37.4c5.602 0 10.617 3.161 12.584 7.933l2.166 5.254c.423 1.026-.149 2.169-1.276 2.553a2.374 2.374 0 0 1-.766.127H12.51c-1.204 0-2.18-.888-2.18-1.984 0-.237.047-.473.139-.696l2.165-5.254c1.968-4.772 6.982-7.933 12.585-7.933h5.355z" fill="#FFF" fill-rule="nonzero"/>
        <path d="M33.438 36.309a1.473 1.473 0 0 1 .15 2.939l-.15.007H22.854l-.272.07c-3.757 1.006-6.234 2.67-7.527 4.968l-.144.268-.426.839-.394.792-.362.744-.329.697-.296.648-.264.6-.12.282-.215.527-.095.245-.166.453-.07.208-.063.196-.082.213.2.02.29.015.174.002h19.904a1.473 1.473 0 0 1 .15 2.939l-.15.008H12.693c-2.842 0-4.385-1.592-3.42-4.028l.045-.112.049-.15c.08-.245.174-.51.282-.793l.234-.593.13-.315.29-.67.326-.723.363-.774c.063-.134.128-.27.195-.407l.642-1.3.46-.908c1.727-3.369 5.108-5.646 10.023-6.864.078-.02.156-.032.235-.039l.12-.004h10.771zM13.6 11.333a2.267 2.267 0 0 1 2.267 2.267v7.933A2.267 2.267 0 0 1 13.6 23.8h-1.7a3.967 3.967 0 0 1-3.967-3.967V15.3a3.967 3.967 0 0 1 3.967-3.967h1.7zm-.907 9.294v-6.12H11.9a.793.793 0 0 0-.786.685l-.007.108v4.533c0 .402.298.734.685.786l.108.008h.793z" fill="#192639" fill-rule="nonzero"/>
        <path d="M42.5 11.333a3.967 3.967 0 0 1 3.967 3.967v4.533A3.967 3.967 0 0 1 42.5 23.8h-1.7a2.267 2.267 0 0 1-2.267-2.267V13.6a2.267 2.267 0 0 1 2.267-2.267h1.7z" fill="#FFF" fill-rule="nonzero"/>
        <path d="M42.5 11.333a3.967 3.967 0 0 1 3.967 3.967v4.533A3.967 3.967 0 0 1 42.5 23.8h-1.7a2.267 2.267 0 0 1-2.267-2.267V13.6a2.267 2.267 0 0 1 2.267-2.267h1.7zm-.793 9.294h.793a.793.793 0 0 0 .786-.686l.007-.108V15.3a.793.793 0 0 0-.685-.786l-.108-.007h-.793v6.12z" fill="#192639" fill-rule="nonzero"/>
        <path d="M27.2 0c8.137 0 14.733 6.343 14.733 14.167 0 .454-.022.904-.066 1.348-.399.1-.806.178-1.22.236.101.776.153 1.572.153 2.382C40.8 26.896 34.711 34 27.2 34c-7.254 0-13.182-6.627-13.579-14.974-.106-.044-.211-.09-.316-.136a13.66 13.66 0 0 1-.838-4.723C12.467 6.343 19.063 0 27.2 0z" fill="#FFF" fill-rule="nonzero"/>
        <path d="M27.2 30.827c5.64 0 10.427-5.584 10.427-12.694 0-2.048-.398-3.97-1.098-5.668h3.378c.577 1.76.893 3.671.893 5.668C40.8 26.896 34.711 34 27.2 34c-7.511 0-13.6-7.104-13.6-15.867h3.173c0 7.11 4.786 12.694 10.427 12.694z" fill="#192639" fill-rule="nonzero"/>
        <path d="M38.627 21.734 39.8 23.51c.192.29.067.52-.375.686.067.368-.058.656-.374.865-.125.082-.125.147 0 .194l-.172.111-.404.248c-.444.264-1.002.57-1.638.877-.89.43-1.766.776-2.614 1.008l-.39.1c-.88.205-2.042.276-3.509.224a3.4 3.4 0 0 1-6.38-1.579 3.4 3.4 0 0 1 6.433-1.597c1.23.048 2.15-.002 2.735-.139l.273-.07c.64-.175 1.344-.453 2.071-.804a18.92 18.92 0 0 0 1.343-.719l.26-.155.245-.154 1.324-.873zM27.2 0c8.137 0 14.733 6.343 14.733 14.167 0 .454-.183.965-.226 1.408-.927.23-1.737.292-2.738.292-1.955 0-3.799-.465-5.419-1.288-2.518 3.472-7.345 5.821-12.886 5.821-2.68 0-5.193-.55-7.359-1.51a13.66 13.66 0 0 1-.838-4.723C12.467 6.343 19.063 0 27.2 0zm0 3.173c-6.412 0-11.56 4.95-11.56 10.994 0 .626.055 1.245.163 1.85l.094.47.438.137a15.43 15.43 0 0 0 3.828.595l.501.008c4.296 0 8.113-1.699 10.128-4.26l.19-.251 1.59-2.192 2.415 1.226a8.744 8.744 0 0 0 3.599.935h.069l-.004-.029c-.758-5.237-5.406-9.329-11.126-9.478l-.325-.005z" fill="#192639" fill-rule="nonzero"/>
        <path d="M48.676 39.724c3.099 3.098 3.076 8.143-.05 11.269-2.762 2.763-7.025 3.1-10.117 1.002l3.733-3.733a4.003 4.003 0 0 0 4.376-.87 3.997 3.997 0 0 0 .637-4.845l-2.746 2.747-.087.077a.992.992 0 0 1-1.316-1.48l2.747-2.746a3.997 3.997 0 0 0-4.844.637 4.003 4.003 0 0 0-.871 4.377l-3.733 3.732c-2.098-3.092-1.76-7.355 1.002-10.118 3.126-3.125 8.171-3.148 11.27-.05z" fill="#C43826"/>
    </g>
</svg>
