<svg width="68" height="68" viewBox="0 0 68 68" xmlns="http://www.w3.org/2000/svg">
    <g transform="translate(6.8 6.8)" fill="none" fill-rule="evenodd">
        <circle fill="#EDEDED" transform="rotate(180 7.933 46.467)" cx="7.933" cy="46.467" r="7.933"/>
        <circle fill="#EDEDED" transform="rotate(180 43.067 11.333)" cx="43.067" cy="11.333" r="11.333"/>
        <path d="M9.933 6.8h24.933l1.839 2.625a2 2 0 0 0 .265.307l2.697 2.545V45.6a2 2 0 0 1-2 2H9.933a2 2 0 0 1-2-2V8.8a2 2 0 0 1 2-2z" fill="#FFF"/>
        <path d="M33.669 5.808c.675 0 1.32.262 1.804.726l.14.145 3.385 3.793c.38.424.608.96.654 1.523l.008.212v10.46a1.473 1.473 0 0 1-2.939.15l-.007-.15v-10.33l-3.198-3.582H10.193v36.888h11.515c.763 0 1.39.58 1.466 1.324l.008.15c0 .763-.58 1.39-1.323 1.466l-.15.008H9.853a2.607 2.607 0 0 1-2.601-2.429l-.006-.178V8.415a2.607 2.607 0 0 1 2.428-2.6l.179-.007h23.815z" fill="#192639" fill-rule="nonzero"/>
        <path d="M32.867 6.46c.763 0 1.39.58 1.465 1.323l.008.15v4.194h3.06c.763 0 1.39.58 1.466 1.322l.007.151c0 .763-.58 1.39-1.322 1.466l-.151.007h-4.533c-.763 0-1.39-.58-1.466-1.322l-.008-.151V7.933c0-.813.66-1.473 1.474-1.473z" fill="#192639" fill-rule="nonzero"/>
        <path d="M16.402 23.8v-1.436c1.059-.086 1.892-.382 2.501-.887s.913-1.174.913-2.008c0-.9-.317-1.608-.95-2.122-.633-.515-1.584-.949-2.85-1.301-.61-.253-1.014-.473-1.214-.661-.2-.188-.3-.442-.3-.761 0-.339.093-.609.28-.811.186-.203.504-.304.954-.304.433 0 .77.114 1.008.343.238.229.358.581.358 1.058h2.714l.017-.036c.016-.872-.27-1.584-.856-2.137-.587-.553-1.393-.889-2.418-1.008V10.2h-1.3v1.508c-1.086.076-1.947.375-2.583.897-.636.522-.955 1.19-.955 2.004 0 .906.306 1.597.918 2.073.611.476 1.572.915 2.883 1.315.592.214.994.42 1.205.618.211.198.317.487.317.868 0 .33-.103.592-.309.79-.205.198-.536.297-.99.297-.516 0-.926-.117-1.23-.35-.305-.234-.457-.625-.457-1.172H11.35l-.016.042c-.028 1.039.315 1.824 1.028 2.355.713.531 1.623.838 2.731.919V23.8h1.308z" fill="#C43826" fill-rule="nonzero"/>
        <path d="M21.708 40.8a1.473 1.473 0 0 1 .151 2.94l-.15.007h-8.727a1.473 1.473 0 0 1-.15-2.94l.15-.007h8.726zm0-4.941a1.473 1.473 0 0 1 .151 2.939l-.15.007h-8.727a1.473 1.473 0 0 1-.15-2.939l.15-.007h8.726zm0-4.942a1.473 1.473 0 0 1 .151 2.94l-.15.007h-8.727a1.473 1.473 0 0 1-.15-2.94l.15-.007h8.726zm.25-4.941a1.473 1.473 0 0 1 .15 2.94l-.15.007h-8.925a1.473 1.473 0 0 1-.15-2.94l.15-.007h8.924zm11.527-4.941a1.473 1.473 0 0 1 .15 2.939l-.15.007H23.182a1.473 1.473 0 0 1-.15-2.939l.15-.007h10.303zm0-4.942a1.473 1.473 0 0 1 .15 2.94l-.15.007H23.182a1.473 1.473 0 0 1-.15-2.94l.15-.007h10.303zM45.333 26.067a2.267 2.267 0 0 1 2.267 2.266v20.4A2.267 2.267 0 0 1 45.333 51h-17a2.267 2.267 0 0 1-2.266-2.267v-20.4a2.267 2.267 0 0 1 2.266-2.266h17zm-.68 9.973h-15.64v12.013h15.64V36.04zm-3.286 2.72c.763 0 1.39.58 1.465 1.323l.008.15v4.534a1.473 1.473 0 0 1-2.94.15l-.007-.15v-4.534c0-.813.66-1.473 1.474-1.473zm-8.69 4.533a1.473 1.473 0 0 1 .151 2.94l-.15.007h-.756a1.473 1.473 0 0 1-.15-2.94l.15-.007h.756zm4.534 0a1.473 1.473 0 0 1 .15 2.94l-.15.007h-.755a1.473 1.473 0 0 1-.151-2.94l.15-.007h.756zm-4.533-4.533a1.473 1.473 0 0 1 .15 2.94l-.15.007h-.756a1.473 1.473 0 0 1-.15-2.94l.15-.007h.756zm4.533 0a1.473 1.473 0 0 1 .15 2.94l-.15.007h-.755a1.473 1.473 0 0 1-.151-2.94l.15-.007h.756zm7.442-9.747h-15.64v4.08h15.64v-4.08z" fill="#192639" fill-rule="nonzero"/>
    </g>
</svg>
