<svg width="40" height="40" viewBox="0 0 40 40" xmlns="http://www.w3.org/2000/svg" xmlns:xlink="http://www.w3.org/1999/xlink">
    <defs>
        <path id="a" d="M0 0h18.432v22H0z"/>
    </defs>
    <g fill="none" fill-rule="evenodd">
        <path d="M0 0h40v40H0z"/>
        <g transform="translate(11 8)">
            <mask id="b" fill="#fff">
                <use xlink:href="#a"/>
            </mask>
            <path d="M13.817.44c0 1.103-.402 2.128-1.199 3.08-.96 1.134-2.122 1.785-3.387 1.683a3.098 3.098 0 0 1-.024-.416c0-1.055.456-2.189 1.271-3.111.408-.47.923-.856 1.547-1.17C12.648.2 13.24.03 13.793 0c.012.145.024.295.024.44m4.22 16.705a12.1 12.1 0 0 1-1.175 2.128c-.617.886-1.127 1.501-1.517 1.845-.605.56-1.252.844-1.948.862-.497 0-1.097-.145-1.798-.434-.701-.29-1.349-.428-1.936-.428-.618 0-1.283.144-1.99.428-.714.29-1.283.44-1.72.452-.666.03-1.331-.265-1.99-.886-.426-.374-.954-1.007-1.583-1.905-.678-.965-1.241-2.074-1.679-3.346C.234 14.486 0 13.16 0 11.87c0-1.478.318-2.75.953-3.81a5.592 5.592 0 0 1 1.99-2.027 5.375 5.375 0 0 1 2.692-.765c.527 0 1.222.163 2.086.488.857.326 1.408.488 1.654.488.18 0 .791-.192 1.834-.578.983-.356 1.81-.5 2.494-.446 1.84.15 3.225.88 4.142 2.194-1.648 1-2.458 2.405-2.446 4.208.012 1.405.522 2.574 1.517 3.502.45.428.953.766 1.516 1.001-.131.356-.257.693-.395 1.019" fill="#FFF" mask="url(#b)"/>
        </g>
    </g>
</svg>
