<svg width="40" height="40" viewBox="0 0 40 40" xmlns="http://www.w3.org/2000/svg" xmlns:xlink="http://www.w3.org/1999/xlink">
    <defs>
        <path id="a" d="M0 0h2.95v9.152H0z"/>
        <path id="c" d="M0 0h2.95v9.152H0z"/>
    </defs>
    <g fill="none" fill-rule="evenodd">
        <path d="M0 0h40v40H0z"/>
        <g transform="translate(27.21 15.791)">
            <mask id="b" fill="#fff">
                <use xlink:href="#a"/>
            </mask>
            <path d="M2.95 1.484C2.95.666 2.29 0 1.475 0 .662 0 0 .666 0 1.484v6.184c0 .818.662 1.484 1.475 1.484.814 0 1.475-.666 1.475-1.484V1.484z" fill="#FFF" mask="url(#b)"/>
        </g>
        <g transform="translate(10 15.791)">
            <mask id="d" fill="#fff">
                <use xlink:href="#c"/>
            </mask>
            <path d="M2.95 1.484C2.95.666 2.29 0 1.475 0 .662 0 0 .666 0 1.484v6.184c0 .818.662 1.484 1.475 1.484.814 0 1.475-.666 1.475-1.484V1.484z" fill="#FFF" mask="url(#d)"/>
        </g>
        <path d="M23.117 13.1a.552.552 0 0 1 0-1.106.552.552 0 0 1 0 1.105m-6.074 0a.552.552 0 0 1 0-1.105.552.552 0 0 1 0 1.105m6.263-2.897 1.04-1.889A.212.212 0 0 0 24.165 8a.21.21 0 0 0-.184.109l-1.052 1.91a6.975 6.975 0 0 0-2.848-.6c-1.02 0-1.986.215-2.848.6l-1.052-1.91a.21.21 0 0 0-.285-.083.212.212 0 0 0-.082.287l1.04 1.89c-1.999 1.046-3.35 3.036-3.353 5.319h13.16c-.003-2.283-1.354-4.273-3.354-5.32M13.5 16.046v9.596c0 .884.712 1.6 1.59 1.6h1.056v3.274c0 .818.662 1.484 1.475 1.484.814 0 1.476-.666 1.476-1.484v-3.274h1.966v3.274c0 .818.662 1.484 1.476 1.484.813 0 1.475-.666 1.475-1.484v-3.274h1.055c.879 0 1.591-.716 1.591-1.6v-9.596H13.5z" fill="#FFF"/>
    </g>
</svg>
