<svg xmlns="http://www.w3.org/2000/svg" width="30" height="30" viewBox="0 0 30 30">
    <g fill="none" fill-rule="evenodd">
        <g>
            <g>
                <g>
                    <path d="M0 0H30V30H0z" transform="translate(-220 -218) translate(196 206) translate(24 12)"/>
                    <g fill="#FFF" fill-rule="nonzero">
                        <path d="M20.705 1.173V19.56c0 .633-.512 1.14-1.14 1.14h-5.27V12.7h2.686l.401-3.12h-3.091V7.587c0-.904.249-1.518 1.546-1.518h1.652V3.277c-.287-.037-1.265-.125-2.41-.125-2.38 0-4.013 1.454-4.013 4.125V9.58H8.37v3.119h2.695v8.006H1.173c-.628 0-1.14-.512-1.14-1.14V1.173c0-.628.512-1.14 1.14-1.14H19.56c.633 0 1.145.512 1.145 1.14z" transform="translate(-220 -218) translate(196 206) translate(24 12) translate(5 5)"/>
                    </g>
                </g>
            </g>
        </g>
    </g>
</svg>
