<svg xmlns="http://www.w3.org/2000/svg" xmlns:xlink="http://www.w3.org/1999/xlink" width="20" height="20" viewBox="0 0 20 20">
    <defs>
        <path id="2d5quq2z4a" d="M0 0H20V20H0z"/>
    </defs>
    <g fill="none" fill-rule="evenodd">
        <g>
            <g>
                <g transform="translate(-874 -198) translate(874 198)">
                    <mask id="934a90pkab" fill="#fff">
                        <use xlink:href="#2d5quq2z4a"/>
                    </mask>
                    <path fill="#0D1623" d="M14.125 3.375c1.1 1.102 1.708 2.567 1.708 4.125 0 1.557-.607 3.022-1.708 4.125l1.178 1.178C16.72 11.386 17.5 9.503 17.5 7.5s-.78-3.886-2.197-5.303l-1.178 1.178zm-2.358 2.358c.473.471.733 1.099.733 1.767 0 .668-.26 1.296-.733 1.767l1.179 1.18c.786-.787 1.22-1.833 1.22-2.947s-.434-2.16-1.22-2.947l-1.179 1.18zM10 6.667C10 8.507 8.508 10 6.667 10c-1.841 0-3.334-1.492-3.334-3.333 0-1.841 1.493-3.334 3.334-3.334C8.507 3.333 10 4.826 10 6.667c0 1.227 0 1.227 0 0zm-1.667 0c0 .92-.746 1.666-1.666 1.666C5.747 8.333 5 7.587 5 6.667 5 5.747 5.746 5 6.667 5c.92 0 1.666.746 1.666 1.667 0 .613 0 .613 0 0zm3.334 9.166c0-2.761-2.239-5-5-5-2.762 0-5 2.239-5 5h1.666c0-1.84 1.493-3.333 3.334-3.333 1.84 0 3.333 1.492 3.333 3.333h1.667z" mask="url(#934a90pkab)"/>
                </g>
                <path d="M0 0H20V20H0z" transform="translate(-874 -198) translate(874 198)"/>
            </g>
        </g>
    </g>
</svg>
