<svg xmlns="http://www.w3.org/2000/svg" xmlns:xlink="http://www.w3.org/1999/xlink" width="24" height="24" viewBox="0 0 24 24">
    <defs>
        <path id="zogt61fioa" d="M0 0H24V24H0z"/>
    </defs>
    <g fill="none" fill-rule="evenodd">
        <g>
            <g transform="translate(-1348 -329) translate(1348 329)">
                <mask id="zsq72m6k4b" fill="#fff">
                    <use xlink:href="#zogt61fioa"/>
                </mask>
                <path fill="#0D1623" d="M4 12c0 1.1.9 2 2 2s2-.9 2-2-.9-2-2-2-2 .9-2 2zm12 0c0 1.1.9 2 2 2s2-.9 2-2-.9-2-2-2-2 .9-2 2zm-4-2c1.1 0 2 .9 2 2s-.9 2-2 2-2-.9-2-2 .9-2 2-2z" mask="url(#zsq72m6k4b)"/>
            </g>
        </g>
    </g>
</svg>
