<svg xmlns="http://www.w3.org/2000/svg" xmlns:xlink="http://www.w3.org/1999/xlink" width="24" height="24" viewBox="0 0 24 24">
    <defs>
        <path id="8g0r4yznya" d="M0 0H24V24H0z"/>
    </defs>
    <g fill="none" fill-rule="evenodd">
        <g>
            <g transform="translate(-299 -139) translate(299 139)">
                <mask id="l7dcfhkl1b" fill="#fff">
                    <use xlink:href="#8g0r4yznya"/>
                </mask>
                <path fill="#0D1623" d="M7.857 14.07l6.26 3.577c-.069.275-.117.557-.117.853 0 1.93 1.57 3.5 3.5 3.5s3.5-1.57 3.5-3.5-1.57-3.5-3.5-3.5c-.91 0-1.733.358-2.357.93l-6.26-3.577c.063-.247.103-.502.108-.768l6.151-3.515c.625.572 1.448.93 2.358.93C19.43 9 21 7.43 21 5.5S19.43 2 17.5 2 14 3.57 14 5.5c0 .296.048.578.117.853L8.433 9.602C7.808 8.64 6.729 8 5.5 8 3.57 8 2 9.57 2 11.5S3.57 15 5.5 15c.91 0 1.733-.358 2.357-.93zM19 18.5c0 .827-.673 1.5-1.5 1.5s-1.5-.673-1.5-1.5.673-1.5 1.5-1.5 1.5.673 1.5 1.5zm0-13c0 .827-.673 1.5-1.5 1.5S16 6.327 16 5.5 16.673 4 17.5 4s1.5.673 1.5 1.5zm-12 6c0 .827-.673 1.5-1.5 1.5S4 12.327 4 11.5 4.673 10 5.5 10s1.5.673 1.5 1.5z" mask="url(#l7dcfhkl1b)"/>
            </g>
        </g>
    </g>
</svg>
