<svg xmlns="http://www.w3.org/2000/svg" xmlns:xlink="http://www.w3.org/1999/xlink" width="24" height="24" viewBox="0 0 24 24">
    <defs>
        <path id="2ztiy3hyda" d="M0 0H24V24H0z"/>
    </defs>
    <g fill="none" fill-rule="evenodd">
        <g>
            <g transform="translate(-335 -139) translate(335 139)">
                <mask id="gir4bfahbb" fill="#fff">
                    <use xlink:href="#2ztiy3hyda"/>
                </mask>
                <path fill="#0D1623" d="M15.46 12.843c1.911-2.681 1.664-6.427-.741-8.832-2.681-2.681-7.028-2.681-9.708 0-2.681 2.68-2.681 7.027 0 9.708 2.405 2.405 6.15 2.652 8.832.742L20.382 21 22 19.382l-6.54-6.54c1.274-1.787 1.274-1.787 0 0zM13.1 5.629c1.788 1.787 1.788 4.685 0 6.472-1.786 1.787-4.684 1.787-6.471 0-1.788-1.787-1.788-4.685 0-6.472 1.787-1.788 4.685-1.788 6.472 0 1.191 1.191 1.191 1.191 0 0z" mask="url(#gir4bfahbb)"/>
            </g>
        </g>
    </g>
</svg>
