<svg xmlns="http://www.w3.org/2000/svg" xmlns:xlink="http://www.w3.org/1999/xlink" width="16" height="16" viewBox="0 0 16 16">
    <defs>
        <path id="czgsy3c2la" d="M0 0H16V16H0z"/>
    </defs>
    <g fill="none" fill-rule="evenodd">
        <g>
            <g>
                <path d="M0 0H16V16H0z" transform="translate(-16 -155) translate(16 155)"/>
                <g transform="translate(-16 -155) translate(16 155)">
                    <mask id="gwwd5ihisb" fill="#fff">
                        <use xlink:href="#czgsy3c2la"/>
                    </mask>
                    <path fill="#254A91" fill-rule="nonzero" d="M9.276 9.138h.115c.265 0 .52-.105.707-.293l3.04-3.04 1.529 1.528v-4h-4l1.528 1.529-2.862 2.862-1.902-1.902c-.188-.188-.442-.293-.707-.293h-.115c-.265 0-.52.105-.707.293L1.53 10.195l.942.943 4.196-4.195 1.902 1.902c.188.188.442.293.707.293z" mask="url(#gwwd5ihisb)"/>
                </g>
            </g>
        </g>
    </g>
</svg>
