<svg xmlns="http://www.w3.org/2000/svg" width="101" height="20" viewBox="0 0 101 20">
    <g fill="none" fill-rule="evenodd">
        <g>
            <g>
                <path fill="#FEFEFE" d="M37.443 6.179l.84.813c-.694.853-1.632 1.75-2.814 2.693l-.786-.867c1.244-1.013 2.163-1.893 2.76-2.64zm-9.532-1.2l.173-1.187c.631.045 1.764.165 3.4.36 1.573.17 2.972.388 4.198.653L35.43 5.98c-2.319-.533-4.825-.867-7.518-1zm5.119 5.292v4.44c0 .533-.187.95-.56 1.252-.276.25-.738.374-1.387.374-.737-.009-1.457-.098-2.16-.266l-.079-1.28c1.377.382 2.253.48 2.626.293.222-.178.338-.44.347-.787V7.685c0-.124-.067-.187-.2-.187h-5.213v-1.16h6.253c.258.01.382.147.373.414v.466c.595 1.743 1.218 3.084 1.866 4.026.79 1.156 1.964 2.311 3.52 3.466l-1.04.787c-1.929-1.564-3.377-3.306-4.346-5.226zm-6.986-1.426h4.68l.346.453c-.302 2.15-1.84 4.106-4.612 5.865l-.893-1c1.039-.532 1.839-1.043 2.4-1.532.47-.409.91-.907 1.319-1.493.293-.445.457-.75.493-.92.027-.062.027-.111 0-.146-.062-.045-.16-.068-.293-.068h-3.44v-1.16zM45.892 15.292h3.225c.152-.302.299-.6.44-.893H45.48c.088.17.226.467.413.893zm5.679-2.439h-8.079c-.035 0-.049.013-.04.04v.56c-.009.027.005.044.04.053h8.079c.035-.009.053-.026.053-.053v-.56c0-.027-.018-.04-.053-.04zm-1.76-4.506h-1.253v-.84h1.253v-.653h-1.253v-.84h1.253v-.707h-1.253v-.84h1.253v-.772h.946v.773h1.12v.84h-1.12v.706h1.067v.84h-1.067v.653h1.067v.84h-1.067v.68h1.44c.116 0 .173-.058.173-.173V3.92h1.053v5.56c0 .292-.146.439-.44.439H42.08c-.284 0-.427-.147-.427-.44V3.921h1.053v4.933c0 .115.054.173.16.173h1.454v-.68h-1.2v-.84h1.2v-.706h-1.147v-.84h1.147v-.654h-1.2v-.84h1.2v-.72h.946v.72h1.067v.84h-1.067v.654h1.067v.84h-1.067v.706h1.12v.84h-1.12v.68h1.666v-5.28h1.054v5.28h1.826v-.68zm-8.345 3.066h12.17v-.893h-12.17v.893zm3.292 3.88c-.052-.125-.106-.245-.16-.36-.115-.213-.204-.391-.266-.534h-1.706c-.08 0-.12-.044-.12-.133V12.08c0-.08.04-.12.12-.12h9.812c.088 0 .133.04.133.12v2.186c0 .089-.045.133-.133.133h-1.76c-.063.17-.152.378-.267.627-.054.089-.098.178-.134.266h3.627v.947H41.146v-.947h3.612zM58.207 12.22l1.013-.587c.497.685.986 1.574 1.466 2.667l-1.053.533c-.516-1.129-.991-1.999-1.426-2.613zm8.105 2.64l-.92-.627c.64-.986 1.133-1.879 1.48-2.68l1 .574c-.587 1.173-1.094 2.084-1.52 2.733h2.746v1.16H57.14v-1.16h5.412v-3.533h-5.305v-1.16h5.305v-1.56h-3.119v-1.16h7.492c-1.307-.675-2.56-1.505-3.76-2.492-1.11 1.093-3.03 2.213-5.758 3.36l-.64-1.107c3.128-1.05 5.16-2.226 6.092-3.533l1.12.24c-.062.08-.111.151-.147.213 1.564 1.343 3.457 2.365 5.68 3.066l-.694 1.094c-.658-.267-1.258-.534-1.8-.8v1.12h-3.305v1.56h5.278v1.159h-5.278v3.533h2.599zM81.892 13.844c.053-.222.098-.418.134-.587h-2.76c.24.694.431 1.374.573 2.04h1.6c.16-.435.311-.92.453-1.453zm-3.279-5.906h4.386c-.73-.604-1.453-1.386-2.174-2.346-.328.489-1.066 1.271-2.212 2.346zm4.545 2.76H78.28c-.036 0-.05.018-.04.053v1.387c-.01.035.004.058.04.066h4.878c.036-.008.054-.03.054-.066V10.75c0-.035-.018-.053-.054-.053zm-.573 4.6h2.4v1.052H76.28v-1.053h2.453c-.09-.364-.192-.738-.307-1.12-.133-.39-.23-.697-.293-.92h-.72c-.187 0-.28-.097-.28-.292v-3.04c0-.187.093-.28.28-.28h6.612c.195 0 .293.093.293.28v3.04c0 .195-.098.292-.293.292h-.88c-.293 1.093-.48 1.774-.56 2.04zM78.2 8.244c-.453.338-.963.644-1.533.92l-.626-.92c.577-.275 1.11-.56 1.6-.853-.4-.293-.84-.586-1.32-.88l.627-.84c.746.498 1.252.853 1.519 1.066.489-.453.946-.972 1.373-1.56h-2.88V4.18h3.76c.169 0 .298.059.387.173.16.24.337.48.533.72.444-.497.786-.924 1.026-1.28l.8.627c-.293.435-.684.911-1.173 1.427.151.168.311.337.48.506.551-.586.964-1.084 1.24-1.493l.786.626c-.329.48-.751.991-1.267 1.534.454.338.978.666 1.574.986l-.76.84c-.364-.213-.72-.444-1.066-.693v.84H78.2v-.747zm-3.386 4.64h-1.306c-.027 0-.04.012-.04.039v2.32c0 .035.013.053.04.053h1.306c.036 0 .054-.018.054-.053v-2.32c0-.027-.018-.04-.054-.04zm-2.16-7.626h3V4.206h-3v1.053zm-.052 5.759h3.106V9.964H72.6v1.054zm0-1.867h3.106V8.098H72.6v1.053zm3.319 7.04c0 .106-.054.16-.16.16h-3.2c-.097 0-.146-.054-.146-.16v-4.213c.008-.098.057-.147.146-.147h3.2c.106.01.16.058.16.147v4.212zm-3.533-9.013h3.693V6.125h-3.693v1.053zM95.51 8.874c-.293-.453-.564-.937-.813-1.453h-.773c-.267.596-.525 1.08-.773 1.453h2.36zm-4.399 2.453h6.372c-.55-.55-.96-1-1.226-1.346h-3.906c-.587.649-1 1.098-1.24 1.346zm-1.36-6.946l.933-.706c.436.454.88 1.058 1.334 1.813l-.973.667c-.48-.782-.912-1.373-1.294-1.774zm3.306 8.053h-2.333v-.747c-.08.054-.15.111-.213.173-.613.56-1.19 1-1.732 1.32l-.947-.906c1.128-.693 2.133-1.458 3.012-2.293h-2.746V8.874h3.68c.355-.488.644-.964.866-1.426 0-.018.005-.027.013-.027h-4.079V6.315h4.52c.204-.773.36-1.64.466-2.6l1.213.12c-.097.72-.267 1.547-.506 2.48h1.586c.747-1.05 1.271-1.924 1.573-2.626l1.027.586c-.285.632-.672 1.311-1.16 2.04h2.653V7.42h-4.027c.303.543.591 1.027.867 1.453h3.586v1.107H97.67c.755.764 1.764 1.51 3.026 2.24l-.947.906c-.524-.346-1.017-.711-1.48-1.093 0 .835-.018 1.577-.052 2.226-.036.676-.174 1.164-.414 1.466-.213.276-.506.471-.88.587-.63.204-1.573.116-2.826-.266l.054-1.36c.488.222.91.373 1.266.453.587.115 1.053.027 1.4-.267.15-.169.24-.43.266-.786.072-.907.067-1.426-.013-1.56-.035-.062-.084-.093-.147-.093h-2.626c-.15.4-.338.777-.56 1.133-.124.177-.244.347-.36.507-.933 1.173-2.572 1.91-4.919 2.212l-.306-1.28c1.075-.106 1.884-.243 2.426-.413 1.226-.4 2.053-1.12 2.48-2.159z" transform="translate(-16 -109) translate(16 109)"/>
                <path fill="#E62511" d="M19.135 9.568c0 5.284-4.283 9.567-9.567 9.567S0 14.852 0 9.568C0 4.283 4.284 0 9.568 0s9.567 4.283 9.567 9.568" transform="translate(-16 -109) translate(16 109)"/>
                <path fill="#FEFEFE" d="M10.63 5.847L13.022 5.847 13.022 3.455 10.63 3.455zM2.126 10.099L2.126 12.225 4.252 12.225 4.252 14.351 6.378 14.351 6.378 10.099z" transform="translate(-16 -109) translate(16 109)"/>
                <path fill="#FEFEFE" d="M2.658 5.847L2.658 7.973 8.504 7.973 8.504 14.351 10.631 14.351 10.631 5.847zM12.756 7.973L12.756 14.351 14.882 14.351 14.882 10.099 17.54 10.099 17.54 7.973z" transform="translate(-16 -109) translate(16 109)"/>
            </g>
        </g>
    </g>
</svg>
