<svg width="60" height="60" viewBox="0 0 60 60" fill="none" xmlns="http://www.w3.org/2000/svg">
<path fill-rule="evenodd" clip-rule="evenodd" d="M11.5 37.3417V13.0409C13.3083 12.4748 15.9587 11.6907 18.8023 11.0015C22.3466 10.1425 25.9191 9.5 28.5 9.5C31.0809 9.5 34.6534 10.1425 38.1977 11.0015C41.0413 11.6907 43.6917 12.4748 45.5 13.0409V18.9704C46.7466 19.4267 47.9207 20.0337 49 20.7694V11.9224C49 11.07 48.4643 10.3155 47.6533 10.0531C44.1375 8.91562 34.537 6 28.5 6C22.463 6 12.8625 8.91562 9.3467 10.0531C8.53568 10.3155 8 11.071 8 11.9234V37.5C8 42.2983 23.603 51.2828 27.5841 53.4971C28.1581 53.8164 28.8447 53.8233 29.4241 53.5141C30.7579 52.8022 33.3838 51.3633 36.29 49.5677C34.831 49.2213 33.4493 48.675 32.1755 47.9595C30.7435 48.8 29.4741 49.5067 28.5348 50.0174C26.2779 48.7416 22.0949 46.29 18.3253 43.6137C16.193 42.0998 14.3101 40.5958 12.9964 39.2591C12.3387 38.5899 11.909 38.0479 11.6628 37.646C11.5719 37.4976 11.5238 37.3974 11.5 37.3417Z" fill="#172439"/>
<circle cx="40" cy="34" r="13" fill="url(#paint0_linear_232_12162)"/>
<path fill-rule="evenodd" clip-rule="evenodd" d="M53.2947 28L40.7672 40.5275C40.439 40.8556 39.9939 41.04 39.5298 41.04C39.0656 41.04 38.6205 40.8556 38.2923 40.5275L31.5249 33.76L33.9998 31.2851L39.5298 36.8151L50.8198 25.5251L53.2947 28Z" fill="#172439"/>
<defs>
<linearGradient id="paint0_linear_232_12162" x1="40" y1="26" x2="40" y2="49.5" gradientUnits="userSpaceOnUse">
<stop stop-color="#9FADC3"/>
<stop offset="1" stop-color="#9FADC3" stop-opacity="0"/>
</linearGradient>
</defs>
</svg>
