<svg width="60" height="60" viewBox="0 0 60 60" xmlns="http://www.w3.org/2000/svg">
    <g fill-rule="nonzero" fill="none">
        <path d="m30.657 6.127 22.044 8.25A2 2 0 0 1 54 16.252v5.613a2 2 0 0 1-2 2l-2-.001v22l2 .001a2 2 0 0 1 2 2v4a2 2 0 0 1-2 2H8a2 2 0 0 1-2-2v-4a2 2 0 0 1 2-2l2-.001v-22l-2 .001a2 2 0 0 1-2-2v-5.615a2 2 0 0 1 1.297-1.872l21.956-8.25a2 2 0 0 1 1.404 0zM51.4 48.464H8.6v2.8h42.8v-2.8zM26 23.863h-8v22h8v-22zm16 0h-8v22h8v-22zm-26.6.001h-2.8v22h2.8v-22zm16 0h-2.8v22h2.8v-22zm16 0h-2.8v22h2.8v-22zM29.957 8.64 8.6 16.664v4.6h42.8v-4.598L29.957 8.64z" fill="#192639"/>
        <path d="M30.3 12a1.3 1.3 0 0 1 1.293 1.167l.007.133v4a1.3 1.3 0 0 1-2.593.133L29 17.3v-4a1.3 1.3 0 0 1 1.3-1.3z" fill="#192639"/>
        <path d="M29.343 5.115c.345-.134.722-.15 1.075-.05l.15.05 23.299 9c.902.348 1.36 1.385 1.022 2.316-.32.882-1.239 1.352-2.102 1.103l-.143-.048-22.686-8.764-22.6 8.763c-.854.331-1.802-.074-2.187-.909l-.06-.143c-.32-.882.073-1.86.882-2.257l.138-.061 23.212-9z" fill="#C43826"/>
    </g>
</svg>
