<svg width="60" height="60" viewBox="0 0 60 60" xmlns="http://www.w3.org/2000/svg">
    <g fill-rule="nonzero" fill="none">
        <path d="M52 21a2 2 0 0 1 2 2v30a2 2 0 0 1-2 2H8a2 2 0 0 1-2-2V23a2 2 0 0 1 2-2h44zm-.6 2.6H8.6v28.8h42.8V23.6z" fill="#192639"/>
        <path d="M30.963 46v-1.69c1.246-.1 2.226-.448 2.943-1.043.716-.594 1.074-1.381 1.074-2.362 0-1.06-.373-1.892-1.118-2.497-.745-.606-1.863-1.116-3.353-1.53-.717-.298-1.192-.557-1.428-.778-.235-.222-.353-.52-.353-.896 0-.398.11-.716.329-.954.22-.238.593-.357 1.123-.357.51 0 .904.134 1.185.403.28.27.421.684.421 1.245h3.194l.02-.042c.019-1.026-.317-1.864-1.007-2.514-.69-.65-1.64-1.046-2.846-1.186V30h-1.529v1.774c-1.277.09-2.29.441-3.039 1.055-.748.614-1.122 1.4-1.122 2.359 0 1.065.36 1.877 1.079 2.438.72.56 1.85 1.076 3.392 1.547.697.252 1.17.495 1.418.727.248.233.372.573.372 1.022 0 .386-.12.696-.363.929-.242.232-.63.349-1.166.349-.606 0-1.089-.138-1.447-.412-.358-.275-.537-.735-.537-1.38h-3.184l-.02.051c-.031 1.222.372 2.146 1.21 2.77.84.626 1.91.986 3.214 1.081V46h1.538z" fill="#C43826"/>
        <path d="M30 26c6.627 0 12 5.373 12 12s-5.373 12-12 12-12-5.373-12-12 5.373-12 12-12zm0 2.6a9.4 9.4 0 1 0 0 18.8 9.4 9.4 0 0 0 0-18.8zM30 5.5c8.284 0 15 6.716 15 15v3H15v-3c0-8.284 6.716-15 15-15zm0 2.6c-6.746 0-12.234 5.387-12.396 12.094l-.004.306v.4h24.8v-.4c0-6.746-5.387-12.234-12.094-12.396L30 8.1z" fill="#192639"/>
        <path d="M30 10.5a9 9 0 0 1 9 9v4H21v-4a9 9 0 0 1 9-9zm0 2.6a6.4 6.4 0 0 0-6.396 6.17l-.004.23v1.4h12.8v-1.4a6.4 6.4 0 0 0-6.17-6.396L30 13.1zM14.6 45.2a1.3 1.3 0 0 1 .133 2.593l-.133.007H7.4a1.3 1.3 0 0 1-.133-2.593L7.4 45.2h7.2zm-1.1-8a1.3 1.3 0 0 1 .133 2.593l-.133.007h-6a1.3 1.3 0 0 1-.133-2.593L7.5 37.2h6zm1.1-8a1.3 1.3 0 0 1 .133 2.593l-.133.007H7.4a1.3 1.3 0 0 1-.133-2.593L7.4 29.2h7.2zM45.4 45.2a1.3 1.3 0 0 0-.133 2.593l.133.007h7.2a1.3 1.3 0 0 0 .133-2.593L52.6 45.2h-7.2zm1.1-8a1.3 1.3 0 0 0-.133 2.593l.133.007h6a1.3 1.3 0 0 0 .133-2.593L52.5 37.2h-6zm-1.1-8a1.3 1.3 0 0 0-.133 2.593l.133.007h7.2a1.3 1.3 0 0 0 .133-2.593L52.6 29.2h-7.2z" fill="#192639"/>
    </g>
</svg>
