<svg width="60" height="60" viewBox="0 0 60 60" xmlns="http://www.w3.org/2000/svg">
    <g fill-rule="nonzero" fill="none">
        <g fill="#192639">
            <path d="M43 4.7a2 2 0 0 1 2 2v10.6a2 2 0 0 1-2 2h-.2v1.588a3.302 3.302 0 0 1 2.195 2.925L45 24v6.357a1.3 1.3 0 0 1-2.593.133l-.007-.133V24a.7.7 0 0 0-.605-.694L41.7 23.3H8.294a.7.7 0 0 0-.694.605L7.594 24v8a.7.7 0 0 0 .605.694l.095.006h24.591a1.3 1.3 0 0 1 .133 2.593l-.133.007H9.799v1.4h21.87l.133.007a1.3 1.3 0 0 1-.133 2.593H8.3l-.095.006A.7.7 0 0 0 7.6 40v8l.006.095a.7.7 0 0 0 .694.605H32l.133.007A1.3 1.3 0 0 1 32 51.3H8.3l-.187-.005A3.3 3.3 0 0 1 5 48v-8l.005-.187A3.302 3.302 0 0 1 7.2 36.888v-1.774a3.302 3.302 0 0 1-2.2-2.927L4.994 32v-8c0-1.439.92-2.662 2.205-3.114V19.3H7a2 2 0 0 1-2-2V6.7a2 2 0 0 1 2-2h36zm-2.8 16v-1.4H9.8v1.4h30.4zm2.2-13.4H7.6v9.4h34.8V7.3z"/>
            <path d="M39 29a1 1 0 0 1 .117 1.993L39 31H11a1 1 0 0 1-.117-1.993L11 29h28zm-28-4a1 1 0 1 1 0 2 1 1 0 0 1 0-2zm4 0a1 1 0 1 1 0 2 1 1 0 0 1 0-2zm4 0a1 1 0 1 1 0 2 1 1 0 0 1 0-2zM31.088 45a1 1 0 0 1 .117 1.993l-.117.007H11a1 1 0 0 1-.117-1.993L11 45h20.088zM11 41a1 1 0 1 1 0 2 1 1 0 0 1 0-2zm4 0a1 1 0 1 1 0 2 1 1 0 0 1 0-2zm4 0a1 1 0 1 1 0 2 1 1 0 0 1 0-2zM39 13a1 1 0 0 1 .117 1.993L39 15H11a1 1 0 0 1-.117-1.993L11 13h28zM11 9a1 1 0 1 1 0 2 1 1 0 0 1 0-2zm4 0a1 1 0 1 1 0 2 1 1 0 0 1 0-2zm4 0a1 1 0 1 1 0 2 1 1 0 0 1 0-2z"/>
        </g>
        <path d="M44 34c5.523 0 10 4.477 10 10s-4.477 10-10 10-10-4.477-10-10 4.477-10 10-10zm0 2.6a7.4 7.4 0 1 0 0 14.8 7.4 7.4 0 0 0 0-14.8z" fill="#192639"/>
        <path d="M47.518 39.998a1.3 1.3 0 0 1 1.991 1.666l-.09.109-5.98 6.398a1.3 1.3 0 0 1-1.758.132l-.101-.09-3.489-3.408a1.3 1.3 0 0 1 1.71-1.953l.107.093 2.538 2.479 5.072-5.426z" fill="#C43826"/>
    </g>
</svg>
