<svg width="60" height="60" viewBox="0 0 60 60" xmlns="http://www.w3.org/2000/svg">
    <defs>
        <linearGradient x1="50%" y1="14.706%" x2="50%" y2="120.589%" id="xt54so9dta">
            <stop stop-color="#DAA360" offset="32.3%"/>
            <stop stop-color="#DAA360" stop-opacity="0" offset="100%"/>
        </linearGradient>
    </defs>
    <g fill="none" fill-rule="evenodd">
        <path d="M0 0h60v60H0z"/>
        <g transform="translate(3 10)">
            <circle fill="url(#xt54so9dta)" fill-rule="nonzero" cx="38.753" cy="14.5" r="14.5"/>
            <circle stroke="#172439" stroke-width="3.4" cx="8.5" cy="31.116" r="6.8"/>
            <path d="m12.102 21.11 1.467-1.36a1.5 1.5 0 1 0-2.04-2.2l-1.466 1.36a1.5 1.5 0 1 0 2.039 2.2zm5.134-4.759 1.467-1.36a1.5 1.5 0 1 0-2.04-2.2l-1.466 1.36a1.5 1.5 0 1 0 2.04 2.2zm5.134-4.758 1.467-1.36a1.5 1.5 0 1 0-2.039-2.2l-1.467 1.36a1.5 1.5 0 1 0 2.04 2.2zm5.134-4.758 1.337-1.239a1.5 1.5 0 1 0-2.04-2.2l-1.336 1.239a1.5 1.5 0 0 0 2.04 2.2zM19.268 36.476l1.93-.52a1.5 1.5 0 0 0-.78-2.897l-1.93.52a1.5 1.5 0 1 0 .78 2.897zm6.759-1.822 1.93-.52a1.5 1.5 0 1 0-.78-2.897l-1.931.52a1.5 1.5 0 1 0 .78 2.897zm6.759-1.821 1.93-.52a1.5 1.5 0 0 0-.78-2.898l-1.931.52a1.5 1.5 0 0 0 .78 2.898zm6.758-1.822 1.931-.52a1.5 1.5 0 0 0-.78-2.897l-1.931.52a1.5 1.5 0 1 0 .78 2.897z" fill="#192639" fill-rule="nonzero"/>
            <path d="M30.601 9.219c0-1.055.344-1.906 1.032-2.555.687-.648 1.609-.973 2.765-.973 1.172 0 2.098.323 2.778.967.68.645 1.02 1.518 1.02 2.62v.843c0 1.055-.34 1.902-1.02 2.543-.68.64-1.598.961-2.754.961-1.149 0-2.073-.318-2.772-.955-.699-.637-1.049-1.51-1.049-2.62V9.22zm2.543.902c0 .406.114.736.34.99.227.254.54.381.938.381.82 0 1.23-.523 1.23-1.57v-.703c0-.406-.11-.74-.328-1.002-.219-.262-.527-.393-.926-.393-.383 0-.687.127-.914.381-.226.254-.34.6-.34 1.037v.88zm5.567 8.695c0-1.062.345-1.914 1.037-2.554.691-.64 1.611-.961 2.76-.961 1.164 0 2.09.316 2.777.949.687.633 1.031 1.516 1.031 2.648v.82c0 1.063-.34 1.915-1.02 2.555-.679.641-1.6.961-2.765.961-1.148 0-2.072-.318-2.771-.955-.7-.636-1.05-1.51-1.05-2.619v-.844zm2.531.903c0 .367.125.69.375.967s.555.416.914.416c.758 0 1.168-.36 1.23-1.079l.012-1.207c0-.414-.113-.748-.34-1.002-.226-.253-.535-.38-.925-.38-.375 0-.676.119-.903.357-.226.238-.347.56-.363.967v.96zm-6.07 2.004-1.84-.926L41.664 7.46l1.84.926-8.332 13.336z" fill="#FFF" fill-rule="nonzero"/>
        </g>
    </g>
</svg>
